<svg xmlns="http://www.w3.org/2000/svg" xmlns:xlink="http://www.w3.org/1999/xlink" width="401.25" height="427" viewBox="0 0 401.25 427">
  <defs>
    <clipPath id="clip-path">
      <rect id="trabajo-equipo-oficina-nueva-york-noche-lectura-documentos-negocios-juntos-e-informe-contabilidad-profesional-hombre-negro-auditoria-financiera-que-mu" width="389.712" height="418.112" rx="12" fill="#ebfdfe"/>
    </clipPath>
    <clipPath id="clip-path-2">
      <rect id="Rectángulo_374873" data-name="Rectángulo 374873" width="430.233" height="415.248" fill="none"/>
    </clipPath>
    <clipPath id="clip-path-6">
      <rect id="Rectángulo_348331" data-name="Rectángulo 348331" width="47.033" height="107.785" transform="translate(107.785) rotate(90)" fill="#e141f2" opacity="0.58"/>
    </clipPath>
  </defs>
  <g id="Grupo_1070879" data-name="Grupo 1070879" transform="translate(-1018.75 -7053)">
    <rect id="Rectángulo_374909" data-name="Rectángulo 374909" width="252" height="427" transform="translate(1133 7053)" fill="#3a3e44"/>
    <g id="Grupo_1070878" data-name="Grupo 1070878" transform="translate(1020 7061.594)">
      <line id="Línea_141" data-name="Línea 141" x2="103.865" transform="translate(0 387.208)" fill="none" stroke="#0f7f83" stroke-linecap="round" stroke-miterlimit="10" stroke-width="2.5" stroke-dasharray="5 7"/>
      <g id="Enmascarar_grupo_92" data-name="Enmascarar grupo 92" transform="translate(3.43)" clip-path="url(#clip-path)">
        <g id="Grupo_1070877" data-name="Grupo 1070877" transform="translate(-23.513 0)">
          <rect id="Rectángulo_374864" data-name="Rectángulo 374864" width="156.167" height="52.929" transform="translate(32.649 181.538)" fill="#262626"/>
          <g id="Grupo_1070870" data-name="Grupo 1070870">
            <g id="Grupo_1070869" data-name="Grupo 1070869" clip-path="url(#clip-path-2)">
              <path id="Trazado_816709" data-name="Trazado 816709" d="M185.978,154.015v21.438a31.212,31.212,0,0,0,4.287,16.157c3.873,6.421,11.2,13.309,25.032,15.178H59.13C45.3,204.92,37.97,198.032,34.1,191.611a31.212,31.212,0,0,1-4.287-16.157V154.015Z" transform="translate(2.838 11.177)" fill="#73716e"/>
              <path id="Trazado_816710" data-name="Trazado 816710" d="M221.79,207.36H59.176c-14.579-1.964-21.908-9.48-25.5-15.441a31.754,31.754,0,0,1-4.363-16.43V153.515H186.573V175.49a30.7,30.7,0,0,0,4.211,15.884c3.469,5.752,10.551,13.007,24.6,14.914h6.409ZM30.405,154.588v20.9a30.71,30.71,0,0,0,4.211,15.884c3.472,5.756,10.563,13.02,24.634,14.919l150.574-.005c-10.953-2.874-16.871-9.2-19.984-14.368a31.767,31.767,0,0,1-4.363-16.43v-20.9Z" transform="translate(2.79 11.141)" fill="#262626"/>
              <path id="Trazado_816711" data-name="Trazado 816711" d="M29.81,46.675V162.944a21.257,21.257,0,0,0,21.478,21.034H185.977V46.675Z" transform="translate(2.838 3.388)" fill="#f2eadf"/>
              <path id="Trazado_816712" data-name="Trazado 816712" d="M186.574,184.551H51.337A21.827,21.827,0,0,1,29.311,162.98V112.127h1.1V162.98a20.742,20.742,0,0,0,20.93,20.5H185.478V47.247H57.758V46.174H186.574Z" transform="translate(2.791 3.352)" fill="#262626"/>
              <path id="Trazado_816713" data-name="Trazado 816713" d="M70.778,158.781a21.331,21.331,0,0,1-19.543,16.995l-.088.077h157.6c15.262-1.168,19.791-17.072,19.791-17.072Z" transform="translate(4.87 11.523)" fill="#f2eadf"/>
              <path id="Trazado_816714" data-name="Trazado 816714" d="M225.635,162a23.776,23.776,0,0,0,1.274-3.218H69.151A21.019,21.019,0,0,1,68.234,162Z" transform="translate(6.496 11.523)" fill="#fff"/>
              <path id="Trazado_816715" data-name="Trazado 816715" d="M208.891,176.426H49.834l1.3-1.135.186-.013a20.791,20.791,0,0,0,19.045-16.562l.085-.435h158.93l-.194.68c-.046.163-4.811,16.279-20.276,17.464ZM56.61,175.353H208.848c12.9-1,17.983-12.991,19.058-16H71.35a21.753,21.753,0,0,1-14.74,16" transform="translate(4.744 11.487)" fill="#262626"/>
              <rect id="Rectángulo_374865" data-name="Rectángulo 374865" width="155.254" height="170.335" transform="translate(217.869 0.537)" fill="#f2eadf"/>
              <path id="Trazado_816716" data-name="Trazado 816716" d="M354.779,170.871h-1.1V1.072H199.525v169.8h-1.1V0H354.779Z" transform="translate(18.892 0.001)" fill="#262626"/>
              <rect id="Rectángulo_374866" data-name="Rectángulo 374866" width="123.47" height="1.073" transform="translate(249.653 143.415)" fill="#262626"/>
              <path id="Trazado_816717" data-name="Trazado 816717" d="M258.044,129.51,248,135.191l0-103.98,10.048-5.68Z" transform="translate(23.61 1.854)" fill="#fff"/>
              <path id="Trazado_816718" data-name="Trazado 816718" d="M258.044,124.986,248,130.667V93.55l10.049-5.68Z" transform="translate(23.61 6.377)" fill="#73716e"/>
              <path id="Trazado_816719" data-name="Trazado 816719" d="M247.5,136.183V30.965l11.143-6.3V129.883Zm1.094-104.6v102.74l8.952-5.06V26.523Z" transform="translate(23.563 1.791)" fill="#262626"/>
              <path id="Trazado_816720" data-name="Trazado 816720" d="M278.526,136.884l-10.047,5.681,0-117.792,10.049-5.681Z" transform="translate(25.56 1.386)" fill="#fff"/>
              <path id="Trazado_816721" data-name="Trazado 816721" d="M278.526,134.449l-10.047,5.681V58.322l10.047-5.68Z" transform="translate(25.56 3.821)" fill="#f35a38"/>
              <path id="Trazado_816722" data-name="Trazado 816722" d="M267.978,143.556V24.526l11.143-6.3V137.256Zm1.094-118.411V141.7l8.952-5.061V20.084Z" transform="translate(25.513 1.324)" fill="#262626"/>
              <path id="Trazado_816723" data-name="Trazado 816723" d="M299.007,129.51l-10.047,5.681,0-103.98,10.049-5.68Z" transform="translate(27.51 1.854)" fill="#fff"/>
              <path id="Trazado_816724" data-name="Trazado 816724" d="M299.007,126.639,288.96,132.32V70.774l10.047-5.681Z" transform="translate(27.51 4.725)" fill="#73716e"/>
              <path id="Trazado_816725" data-name="Trazado 816725" d="M288.459,136.183V30.965l11.143-6.3V129.883Zm1.094-104.6v102.74l8.952-5.06V26.523Z" transform="translate(27.463 1.791)" fill="#262626"/>
              <rect id="Rectángulo_374867" data-name="Rectángulo 374867" width="1.095" height="123.474" transform="translate(248.88 20.477)" fill="#262626"/>
              <rect id="Rectángulo_374868" data-name="Rectángulo 374868" width="41.653" height="26.99" transform="translate(139.588 61.002)" fill="#fff"/>
              <rect id="Rectángulo_374869" data-name="Rectángulo 374869" width="52.385" height="9.56" transform="translate(128.615 122.38)" fill="#fff"/>
              <path id="Trazado_816726" data-name="Trazado 816726" d="M168.415,122.231h-53.48V111.6h53.48Zm-52.385-1.073h51.29v-8.487H116.03Z" transform="translate(10.942 8.099)" fill="#262626"/>
              <rect id="Rectángulo_374870" data-name="Rectángulo 374870" width="80.95" height="1.073" transform="translate(112.375 68.472)" fill="#262626"/>
              <rect id="Rectángulo_374871" data-name="Rectángulo 374871" width="80.95" height="1.073" transform="translate(112.375 79.147)" fill="#262626"/>
              <rect id="Rectángulo_374872" data-name="Rectángulo 374872" width="75.1" height="6.287" transform="translate(292.252 151.133)" fill="#f35a38"/>
              <path id="Trazado_816727" data-name="Trazado 816727" d="M339.542,144.767H263.348v-7.36h76.195Zm-75.1-1.073h74V138.48h-74Z" transform="translate(25.072 9.972)" fill="#262626"/>
            </g>
          </g>
          <g id="Grupo_1070872" data-name="Grupo 1070872">
            <g id="Grupo_1070871" data-name="Grupo 1070871" clip-path="url(#clip-path-2)">
              <path id="Trazado_816728" data-name="Trazado 816728" d="M260.392,348.533l32.75-51.441a1.821,1.821,0,0,1,2.477-.563l19.993,12.208a1.762,1.762,0,0,1,.792,1.061l2.345,9.036a1.759,1.759,0,0,0,.792,1.061l33.12,20.223a1.742,1.742,0,0,1,.575,2.427L324.5,387.678a1.82,1.82,0,0,1-2.477.563l-61.057-37.28a1.741,1.741,0,0,1-.575-2.427" transform="translate(24.765 21.5)"/>
              <path id="Trazado_816789" data-name="Trazado 816789" d="M0,0,20.053.189l.676,72.429L.676,72.429Z" transform="translate(302.982 342.033) rotate(-58.057)" fill="#f2eadf"/>
              <path id="Trazado_816729" data-name="Trazado 816729" d="M322.023,387.46l-61.057-37.281a1.739,1.739,0,0,1-.575-2.426l25.329-39.784a2.064,2.064,0,0,1,2.809-.638l60.648,37.031a1.973,1.973,0,0,1,.652,2.751L324.5,386.9a1.821,1.821,0,0,1-2.478.563" transform="translate(24.765 22.281)" fill="#f35a38"/>
              <rect id="Rectángulo_374875" data-name="Rectángulo 374875" width="49.923" height="49.097" transform="translate(281.655 366.152)" fill="#f2eadf"/>
              <rect id="Rectángulo_374876" data-name="Rectángulo 374876" width="55.559" height="49.097" transform="translate(331.578 366.152)" fill="#73716e"/>
              <path id="Trazado_816730" data-name="Trazado 816730" d="M293.953,356.35h-25.09a4.032,4.032,0,1,1,0-8.062h25.09a4.032,4.032,0,1,1,0,8.062m-25.09-6.99a2.959,2.959,0,1,0,0,5.917h25.09a2.959,2.959,0,1,0,0-5.917Z" transform="translate(25.208 25.275)" fill="#262626"/>
              <path id="Trazado_816731" data-name="Trazado 816731" d="M326.883,363.629h55.559l-24.129-22.25H302.755Z" transform="translate(28.824 24.774)" fill="#262626"/>
            </g>
          </g>
          <rect id="Rectángulo_374878" data-name="Rectángulo 374878" width="238.153" height="1.073" transform="translate(192.08 413.808)" fill="#262626"/>
          <g id="Grupo_1070874" data-name="Grupo 1070874">
            <g id="Grupo_1070873" data-name="Grupo 1070873" clip-path="url(#clip-path-2)">
              <path id="Trazado_816732" data-name="Trazado 816732" d="M249.869,106.291c0,1.529-2.872,2.764-3.163,4.21-.3,1.49,1.864,3.7,1.284,5.074-.591,1.394-3.726,1.458-4.574,2.7s.28,4.109-.8,5.168-4-.051-5.277.784-1.331,3.9-2.754,4.478c-1.4.568-3.659-1.552-5.18-1.257-1.476.286-2.737,3.1-4.3,3.1s-2.822-2.811-4.3-3.1c-1.522-.295-3.782,1.825-5.181,1.257-1.425-.578-1.488-3.649-2.754-4.478s-4.2.275-5.277-.785.053-3.918-.8-5.168-3.981-1.3-4.572-2.7c-.579-1.371,1.585-3.585,1.284-5.074-.291-1.446-3.163-2.68-3.163-4.21s2.872-2.764,3.163-4.21c.3-1.49-1.863-3.7-1.282-5.074.59-1.394,3.725-1.458,4.572-2.7s-.28-4.109.8-5.168,4,.051,5.278-.784,1.33-3.9,2.753-4.478c1.4-.568,3.66,1.552,5.181,1.257,1.476-.286,2.736-3.1,4.3-3.1s2.821,2.811,4.3,3.1c1.521.295,3.781-1.826,5.181-1.257,1.424.578,1.487,3.648,2.753,4.478s4.2-.275,5.278.785-.054,3.919.8,5.168,3.982,1.3,4.573,2.7c.58,1.37-1.585,3.583-1.284,5.073.291,1.446,3.163,2.68,3.163,4.21" transform="translate(19.073 5.954)" fill="#262626"/>
              <path id="Trazado_816733" data-name="Trazado 816733" d="M227.519,145.327c-1.461-13.242-1.463-13.265-2.788-25.264a9.272,9.272,0,0,0-18.474.917c0,.112.013.22.018.33.441,12.121.441,12.121.939,25.454a10.193,10.193,0,0,0,20.368-.365,9.918,9.918,0,0,0-.061-1.073" transform="translate(19.637 8.122)" fill="#802f1d"/>
              <path id="Trazado_816734" data-name="Trazado 816734" d="M250.659,200.181q-1.965-21.34-4.231-45.809a8.311,8.311,0,0,0-.5-2.127,8.409,8.409,0,0,0-10.753-4.8,8.165,8.165,0,0,0-5.35,8.771c0,.051.01.1.016.151q3.379,24.247,6.329,45.423a7.237,7.237,0,0,0,9.779,5.725,7.132,7.132,0,0,0,4.7-7.334" transform="translate(21.874 10.663)" fill="#73716e"/>
              <path id="Trazado_816735" data-name="Trazado 816735" d="M201.939,153.507a8.251,8.251,0,0,0-7.9-8.605,8.341,8.341,0,0,0-8.479,5.953,1.372,1.372,0,0,0-.047.144q-6.783,23.555-12.707,44.124a7.315,7.315,0,0,0-.263,1.562,7.2,7.2,0,0,0,6.9,7.509,7.285,7.285,0,0,0,7.3-4.886q6.895-20.336,14.787-43.658a8.383,8.383,0,0,0,.414-2.143" transform="translate(16.426 10.515)" fill="#615f5d"/>
              <path id="Trazado_816736" data-name="Trazado 816736" d="M190.365,145.451,185.129,167.8a26.151,26.151,0,0,0-.689,5.961v.058a26.128,26.128,0,0,0,.543,5.3l7.356,35.517,37.3.3,15.914-66.971-17.085-5.584-18.352-1.545Z" transform="translate(17.56 10.221)" fill="#73716e"/>
              <path id="Trazado_816737" data-name="Trazado 816737" d="M185.757,188.716c-2.114-1.93-8.377-8.271-8.377-8.271l-10.266,11.324s7.869,8.706,9.136,9.445a8.086,8.086,0,0,0,3.666,1.092,7.94,7.94,0,0,0,8.413-7.41,7.739,7.739,0,0,0-2.572-6.18" transform="translate(15.91 13.095)" fill="#73716e"/>
              <path id="Trazado_816738" data-name="Trazado 816738" d="M236.672,145.526l-9.619-3.144L208.7,140.838l-9.338,2.181c-.007.1-.032.2-.032.3,0,5.013,8.5,9.076,18.992,9.076,8.759,0,16.155-3.014,18.35-6.868" transform="translate(18.977 10.221)" fill="#802f1d"/>
              <path id="Trazado_816739" data-name="Trazado 816739" d="M228.614,327.885a8.852,8.852,0,0,0-3.869-8.346,9.237,9.237,0,0,0-12.684,2.259,8.744,8.744,0,0,0-1.614,5.174c.182,17.854.329,31.722.461,44.221a6.239,6.239,0,0,0,2.749,5.073,6.467,6.467,0,0,0,8.879-1.581,6.109,6.109,0,0,0,1.067-2.869c1.437-12.416,3-26.2,5.012-43.931" transform="translate(20.036 23.073)" fill="#262626"/>
              <path id="Trazado_816740" data-name="Trazado 816740" d="M231.286,204.884H191.462l-6.89,14.582-1.519,29.363,61.144-7.145Z" transform="translate(17.428 14.869)" fill="#78f0f4"/>
              <path id="Trazado_816741" data-name="Trazado 816741" d="M234.593,304.433a13.372,13.372,0,0,0-26.714-1.154c-.01.206,0,.408,0,.61.05,26.188.1,43.633.147,63.869l20.621.89c1.87-20.154,3.482-37.527,5.9-63.607,0-.2.033-.4.042-.608" transform="translate(19.791 21.1)" fill="#78f0f4"/>
              <path id="Trazado_816742" data-name="Trazado 816742" d="M220.169,252.983a18.1,18.1,0,0,0,2.2-8.655,18.893,18.893,0,0,0-36.764-5.673c-.013.03-.023.059-.034.091-.016.053-.035.1-.051.157-11.09,33.6-11.113,33.673-19.023,57.643a12.9,12.9,0,0,0-.648,4.026,13.235,13.235,0,0,0,13.37,13.094,13.4,13.4,0,0,0,11.806-6.953c12.074-22.258,12.1-22.307,29.044-53.548.02-.035.038-.072.058-.107l.041-.075" transform="translate(15.79 16.392)" fill="#78f0f4"/>
              <path id="Trazado_816743" data-name="Trazado 816743" d="M243.094,246.922a18.843,18.843,0,0,0-37.643-1.625c-.024.534-.012,1.061.01,1.585,1.543,36.324,1.543,36.324,2.647,62.1a13.392,13.392,0,0,0,26.608,1.149c3.424-25.583,3.424-25.583,8.237-61.631.057-.521.117-1.046.141-1.58" transform="translate(19.559 16.521)" fill="#78f0f4"/>
              <path id="Trazado_816744" data-name="Trazado 816744" d="M222.695,356.66c-5.768-11.146-12.2-23.5-20.47-39.4a9.13,9.13,0,0,0-7.917-4.889,9.033,9.033,0,0,0-9.328,8.715,8.748,8.748,0,0,0,1.556,5.191c10.173,14.816,18.08,26.323,25.2,36.693a6.441,6.441,0,0,0,5.144,2.759,6.322,6.322,0,0,0,6.53-6.1,6.07,6.07,0,0,0-.718-2.971" transform="translate(17.611 22.669)" fill="#802f1d"/>
              <path id="Trazado_816745" data-name="Trazado 816745" d="M239.293,237.333h-2.544a9.621,9.621,0,0,1-7.9-4.079l-10.837-15.516.9-.6,10.837,15.516a8.516,8.516,0,0,0,6.992,3.611h2.544Z" transform="translate(20.756 15.758)" fill="#262626"/>
              <path id="Trazado_816746" data-name="Trazado 816746" d="M205.871,259.645l-4.59-5.8V203.839h1.1v49.644l4.361,5.505Z" transform="translate(19.163 14.793)" fill="#262626"/>
              <path id="Trazado_816790" data-name="Trazado 816790" d="M0,0,1.076.007l.133,20.138L.133,20.138Z" transform="matrix(0.339, -0.941, 0.941, 0.339, 201.814, 262.267)" fill="#262626"/>
              <rect id="Rectángulo_374880" data-name="Rectángulo 374880" width="1.095" height="8.133" transform="translate(235.411 219.753)" fill="#262626"/>
              <rect id="Rectángulo_374881" data-name="Rectángulo 374881" width="1.095" height="7.638" transform="translate(210.948 219.753)" fill="#262626"/>
              <path id="Trazado_816747" data-name="Trazado 816747" d="M215.685,339.555s-23.8-47.446-24.15-48.253a13.378,13.378,0,0,0-12.313-7.992A13.235,13.235,0,0,0,165.85,296.4a12.85,12.85,0,0,0,.649,4.023,13.01,13.01,0,0,0,1.981,3.771c.406.536,27.352,42.9,27.352,42.9Z" transform="translate(15.79 20.56)" fill="#78f0f4"/>
              <path id="Trazado_816748" data-name="Trazado 816748" d="M178.033,182.037c.01,1.646-1.125,4.088-3.09,6.35a13.107,13.107,0,0,1-5.015,3.751,4.894,4.894,0,0,1-.669.188,2.233,2.233,0,0,1-1.9-.3c-.7-.6-.77-1.767-.324-3.2.081-.257.183-.535.295-.813a15,15,0,0,1,2.5-3.9c2.381-2.729,5.218-4.326,6.869-3.969a1.58,1.58,0,0,1,.7.308,1.535,1.535,0,0,1,.436.6,2.2,2.2,0,0,1,.2.992" transform="translate(15.875 13.07)" fill="#262626"/>
              <path id="Trazado_816749" data-name="Trazado 816749" d="M226.941,366.9l.82,17.594H190.736v-4.555s20.063-3.3,23.711-13.039Z" transform="translate(18.159 26.626)" fill="#262626"/>
              <rect id="Rectángulo_374882" data-name="Rectángulo 374882" width="37.026" height="2.992" transform="translate(208.895 411.122)" fill="#73716e"/>
              <path id="Trazado_816791" data-name="Trazado 816791" d="M0,0,1.093.007l.038,6.3L.038,6.3Z" transform="translate(212.027 405.948) rotate(-17.535)" fill="#73716e"/>
              <rect id="Rectángulo_374884" data-name="Rectángulo 374884" width="26.72" height="1.073" transform="translate(219.201 412.082)" fill="#262626"/>
              <rect id="Rectángulo_374885" data-name="Rectángulo 374885" width="1.095" height="3.214" transform="translate(218.653 410.899)" fill="#262626"/>
              <path id="Trazado_816750" data-name="Trazado 816750" d="M218.606,349.14l10.754,8.823-21.843,29.279-3.755-2.687s6.106-11.07,2.837-29.1Z" transform="translate(19.399 25.337)" fill="#73716e"/>
              <path id="Trazado_816751" data-name="Trazado 816751" d="M210.654,381.471l-5.773-1.892.346-1.018L211,380.453Z" transform="translate(19.506 27.472)" fill="#f2eadf"/>
              <path id="Trazado_816792" data-name="Trazado 816792" d="M0,0,36.526.365l.03,3.033L.03,3.033Z" transform="translate(226.918 412.579) rotate(-53.849)" fill="#f2eadf"/>
              <path id="Trazado_816793" data-name="Trazado 816793" d="M0,0,26.361.263l.011,1.087L.011,1.087Z" transform="matrix(0.59, -0.807, 0.807, 0.59, 233.784, 404.993)" fill="#262626"/>
              <path id="Trazado_816794" data-name="Trazado 816794" d="M0,0,1.08.011l.03,3.032L.03,3.032Z" transform="translate(232.674 404.863) rotate(-53.853)" fill="#262626"/>
              <path id="Trazado_816752" data-name="Trazado 816752" d="M217.5,364.326a4.642,4.642,0,0,1-4.684-4.587h1.1a3.59,3.59,0,1,0,3.589-3.516,3.609,3.609,0,0,0-3.136,1.8l-.956-.523a4.709,4.709,0,0,1,4.092-2.352,4.589,4.589,0,1,1,0,9.176" transform="translate(20.261 25.773)" fill="#f2eadf"/>
              <path id="Trazado_816753" data-name="Trazado 816753" d="M233.863,214.272H197.391a1.348,1.348,0,0,1-1.291-1.984l18.539-50.064a3.2,3.2,0,0,1,2.761-1.984h36.471a1.347,1.347,0,0,1,1.291,1.984l-18.539,50.064a3.2,3.2,0,0,1-2.761,1.984" transform="translate(18.657 11.629)" fill="#f2eadf"/>
              <path id="Trazado_816754" data-name="Trazado 816754" d="M234.788,215.2h-36.47a1.348,1.348,0,0,1-1.292-1.984l18.54-50.064a3.193,3.193,0,0,1,2.761-1.984H254.8a1.347,1.347,0,0,1,1.291,1.984l-18.539,50.064a3.2,3.2,0,0,1-2.761,1.984" transform="translate(18.745 11.696)" fill="#262626"/>
              <path id="Trazado_816755" data-name="Trazado 816755" d="M211.649,182.687c-4.089-.346-5.685-.478-8.416-.7-.039,0-.077,0-.115,0a1.353,1.353,0,0,0-1.37,1.334,1.338,1.338,0,0,0,1.037,1.289c2.657.654,4.21,1.033,8.192,2.007a2.475,2.475,0,0,0,.5.06,1.993,1.993,0,0,0,.171-3.982" transform="translate(19.207 13.207)" fill="#802f1d"/>
              <path id="Trazado_816756" data-name="Trazado 816756" d="M212.659,177.111a2.1,2.1,0,0,0-.286.028c-3.255.438-3.255.438-5.427.735-.053.013-.1.023-.153.035-2.245.563-2.245.563-3.575.9a.813.813,0,0,0-.607.765.8.8,0,0,0,.772.782c1.364.069,1.378.069,3.647.172l5.407.572c.073,0,.146.012.221.012a2,2,0,1,0,0-4" transform="translate(19.29 12.853)" fill="#802f1d"/>
              <path id="Trazado_816757" data-name="Trazado 816757" d="M210.635,186.588c-3.913-1.208-4.013-1.239-6.626-2.039a1.68,1.68,0,0,0-.411-.061,1.352,1.352,0,0,0-1.37,1.334,1.322,1.322,0,0,0,.715,1.165c2.4,1.286,2.492,1.334,6.094,3.254a2.2,2.2,0,0,0,.986.246,2.027,2.027,0,0,0,2.054-2,2,2,0,0,0-1.441-1.9" transform="translate(19.253 13.389)" fill="#802f1d"/>
              <path id="Trazado_816758" data-name="Trazado 816758" d="M210.04,189.852c-3.426-1.647-3.426-1.647-5.714-2.743a1.462,1.462,0,0,0-.6-.137,1.353,1.353,0,0,0-1.37,1.334,1.315,1.315,0,0,0,.522,1.04c1.994,1.548,1.994,1.548,4.989,3.86a2.136,2.136,0,0,0,1.276.433,2.028,2.028,0,0,0,2.054-2,1.99,1.99,0,0,0-1.152-1.788" transform="translate(19.265 13.569)" fill="#802f1d"/>
              <path id="Trazado_816759" data-name="Trazado 816759" d="M209.037,191.811c-2.81-.969-2.81-.969-4.57-1.57a1.506,1.506,0,0,0-.361-.06,1.076,1.076,0,0,0-1.091,1.062,1.038,1.038,0,0,0,.48.856c1.525,1.051,1.525,1.051,3.977,2.7a1.788,1.788,0,0,0,.991.3,1.722,1.722,0,0,0,1.744-1.7,1.7,1.7,0,0,0-1.169-1.595" transform="translate(19.328 13.802)" fill="#802f1d"/>
              <path id="Trazado_816760" data-name="Trazado 816760" d="M248.2,192.989l-24.08-9.015-7.312-6.071-4.387-.773-2.952,2.848,1.412,3.039-2.895,13.036h2.269l10.018-2.116L241.692,204.6a6.91,6.91,0,0,0,1.56.777l.049.025a7.156,7.156,0,0,0,2.266.375,6.742,6.742,0,0,0,6.83-6.652,6.653,6.653,0,0,0-4.194-6.136" transform="translate(19.802 12.855)" fill="#802f1d"/>
              <path id="Trazado_816795" data-name="Trazado 816795" d="M0,0,1.074.006,1.1,4.748.028,4.742Z" transform="matrix(0.298, -0.954, 0.954, 0.298, 224.894, 199)" fill="#262626"/>
              <path id="Trazado_816761" data-name="Trazado 816761" d="M180.222,184.686c.01,1.646-1.125,4.088-3.09,6.35a13.107,13.107,0,0,1-5.015,3.751,4.894,4.894,0,0,1-.669.188c-.689-1.071-1.438-2.251-2.229-3.5-6.484-10.269-15.661-25.5-15.661-25.5l-.578-2.718-9.228-11.688,5.106-7.986,13.564,2.639.538,14.654L179.584,183.1l.436.6a2.2,2.2,0,0,1,.2.992" transform="translate(13.686 10.42)" fill="#802f1d"/>
              <path id="Trazado_816762" data-name="Trazado 816762" d="M157.68,143.793l-.934,8.8-3.206,1.535-7.431-4.276,7.785-7.28Z" transform="translate(13.91 10.347)" fill="#262626"/>
              <path id="Trazado_816763" data-name="Trazado 816763" d="M149.14,146.886a1.609,1.609,0,0,0,.23-.912,1.666,1.666,0,0,0-3.036-.818c-1.346,1.962-1.346,1.962-2.8,4.091a1.761,1.761,0,0,0-.3,1.069,1.808,1.808,0,0,0,3.345.808c1.331-2.2,1.334-2.2,2.555-4.226l.008-.012" transform="translate(13.636 10.482)" fill="#802f1d"/>
              <path id="Trazado_816764" data-name="Trazado 816764" d="M156.574,145.973c-.588-1.155-.592-1.162-1.412-2.765a1.224,1.224,0,0,0-1.152-.669,1.2,1.2,0,0,0-1.15,1.244,1.169,1.169,0,0,0,.273.685c1.163,1.41,1.163,1.41,2,2.417a.912.912,0,0,0,.715.312.839.839,0,0,0,.729-1.224" transform="translate(14.553 10.344)" fill="#73716e"/>
              <path id="Trazado_816765" data-name="Trazado 816765" d="M155.969,149.419c-.932-1.429-1.146-1.751-2.465-3.741a1.231,1.231,0,0,0-1.077-.538,1.2,1.2,0,0,0-1.149,1.245,1.171,1.171,0,0,0,.31.726c1.608,1.774,1.869,2.06,3.021,3.325a.918.918,0,0,0,.69.283.856.856,0,0,0,.82-.89.815.815,0,0,0-.15-.41" transform="translate(14.402 10.533)" fill="#73716e"/>
              <path id="Trazado_816766" data-name="Trazado 816766" d="M153.952,150.968c-.826-1.415-.826-1.415-2.039-3.467a1.229,1.229,0,0,0-1.111-.59,1.2,1.2,0,0,0-1.148,1.245,1.162,1.162,0,0,0,.3.71c1.574,1.8,1.574,1.8,2.658,3.035a.886.886,0,0,0,.674.283.822.822,0,0,0,.789-.856.775.775,0,0,0-.118-.361" transform="translate(14.248 10.662)" fill="#73716e"/>
              <path id="Trazado_816767" data-name="Trazado 816767" d="M156.905,138.622a1.827,1.827,0,0,0-.629.149c-2.084.863-2.2.782-3.705.682-.048,0-.1,0-.145,0a1.2,1.2,0,1,0,.124,2.4,1.272,1.272,0,0,0,.145-.021c0,.005,3.757.322,3.757.322a2.039,2.039,0,0,0,.641.079,1.805,1.805,0,1,0-.187-3.6" transform="translate(14.401 10.06)" fill="#802f1d"/>
              <path id="Trazado_816768" data-name="Trazado 816768" d="M161.137,145.591c-1.581-3.343-1.587-3.355-2.8-5.926a1.852,1.852,0,0,0-1.765-1.043,1.82,1.82,0,0,0-1.747,1.894,1.705,1.705,0,0,0,.068.39c.773,2.732.777,2.745,1.774,6.254a2.4,2.4,0,0,0,2.434,1.748,2.357,2.357,0,0,0,2.263-2.454,2.27,2.27,0,0,0-.221-.864" transform="translate(14.739 10.06)" fill="#802f1d"/>
              <path id="Trazado_816769" data-name="Trazado 816769" d="M153.06,143.019c-1.719-4-6.027-13.968-6.729-15.591a.938.938,0,0,0-.634-.517.9.9,0,0,0-1.072.669.839.839,0,0,0,.014.4c.434,1.712,3.152,12.206,4.242,16.41a2.21,2.21,0,0,0,2.259,1.632,2.186,2.186,0,0,0,2.1-2.276,2.128,2.128,0,0,0-.18-.733" transform="translate(13.767 9.209)" fill="#802f1d"/>
              <path id="Trazado_816770" data-name="Trazado 816770" d="M155.279,143.065c-1.716-1.45-1.716-1.45-4.073-3.436a1.691,1.691,0,0,0-1.169-.392,1.639,1.639,0,0,0-1.574,1.708,1.618,1.618,0,0,0,.8,1.309l4.6,2.724a1.226,1.226,0,0,0,.688.169A1.2,1.2,0,0,0,155.7,143.9a1.171,1.171,0,0,0-.421-.837" transform="translate(14.134 10.105)" fill="#802f1d"/>
              <path id="Trazado_816771" data-name="Trazado 816771" d="M153.7,145.667c-1.716-1.45-1.716-1.45-4.073-3.437a1.69,1.69,0,0,0-1.167-.391,1.639,1.639,0,0,0-1.575,1.708,1.618,1.618,0,0,0,.8,1.309l4.6,2.724a1.235,1.235,0,0,0,.688.169,1.2,1.2,0,0,0,1.148-1.245,1.171,1.171,0,0,0-.421-.837" transform="translate(13.984 10.294)" fill="#802f1d"/>
              <path id="Trazado_816772" data-name="Trazado 816772" d="M151.955,147.332c-1.471-1.089-1.471-1.089-3.492-2.575a1.717,1.717,0,0,0-1.082-.324,1.64,1.64,0,0,0-1.575,1.708,1.619,1.619,0,0,0,.957,1.383c2.284,1.059,2.284,1.059,3.951,1.827a1.3,1.3,0,0,0,.577.11,1.2,1.2,0,0,0,1.148-1.244,1.17,1.17,0,0,0-.485-.884" transform="translate(13.881 10.482)" fill="#802f1d"/>
              <path id="Trazado_816796" data-name="Trazado 816796" d="M0,0,1.084.011,1.2,10.763.112,10.752Z" transform="matrix(0.727, -0.687, 0.687, 0.727, 193.238, 193.909)" fill="#262626"/>
              <rect id="Rectángulo_374891" data-name="Rectángulo 374891" width="10.468" height="1.073" transform="translate(251.628 261.226)" fill="#262626"/>
              <rect id="Rectángulo_374892" data-name="Rectángulo 374892" width="16.308" height="1.073" transform="translate(201.998 184.526)" fill="#262626"/>
              <rect id="Rectángulo_374893" data-name="Rectángulo 374893" width="7.843" height="1.073" transform="translate(249.994 174.723)" fill="#f2eadf"/>
              <path id="Trazado_816773" data-name="Trazado 816773" d="M163.223,159.927a2.063,2.063,0,0,0-.79-.149,2.553,2.553,0,0,0-.467.049l.72.973a.428.428,0,0,1,.162.04,1.825,1.825,0,0,1,.932,1.419,5.824,5.824,0,0,1,.131,1.1,13.175,13.175,0,0,1-1.1,5.188c-1.337,3.245-3.313,5.268-4.671,5.6a1.258,1.258,0,0,1-.77-.019c-.637-.258-1.033-1.171-1.063-2.521a3.557,3.557,0,0,1,.01-.456q-.47-.759-.881-1.459a10.126,10.126,0,0,0-.142,1.945c.05,1.786.648,3,1.692,3.413a2.379,2.379,0,0,0,.79.149,2.7,2.7,0,0,0,.9-.168c1.793-.606,3.769-2.947,5.075-6.1a14.673,14.673,0,0,0,1.165-5.149,3.266,3.266,0,0,0,.01-.437c-.05-1.8-.658-3.006-1.7-3.413" transform="translate(14.784 11.596)" fill="#f2eadf"/>
              <path id="Trazado_816774" data-name="Trazado 816774" d="M197.277,134.484a2.827,2.827,0,0,1-.7-2.62l.367-1.465-.981-1.315,1.15-2.521-1.393-2.577.948-1.679-1.284-.838a1.613,1.613,0,0,1-.28-2.478l4.031-4.153a2.548,2.548,0,0,0,.517-2.778l-.12-.281a6.446,6.446,0,0,1-.242-4.443l1.034-3.376a6.554,6.554,0,0,1,1.632-2.71l6.923-6.933H230.12l8.69,14.8-3.305,13.366-35.057,12.754a2.954,2.954,0,0,1-3.171-.757" transform="translate(18.532 6.845)" fill="#802f1d"/>
              <path id="Trazado_816775" data-name="Trazado 816775" d="M205.509,110.936l-2.038-1.294-4.155-.029.009-1.073,4.474.031,2.305,1.464Z" transform="translate(18.976 7.877)" fill="#262626"/>
              <path id="Trazado_816797" data-name="Trazado 816797" d="M0,0,1.933.005l0,1.095L0,1.095Z" transform="translate(219.467 120.215) rotate(-82.875)" fill="#262626"/>
              <path id="Trazado_816798" data-name="Trazado 816798" d="M0,0,1.075.007,1.105,4.7.03,4.692Z" transform="translate(218.971 120.518) rotate(-70.62)" fill="#262626"/>
              <path id="Trazado_816776" data-name="Trazado 816776" d="M200.608,115.006V112.3h1.1v1.154l2.037-.756.388,1Z" transform="translate(19.099 8.15)" fill="#262626"/>
              <path id="Trazado_816777" data-name="Trazado 816777" d="M220.169,116.807l-3.626,3.355a3.947,3.947,0,0,1-2.085-4l.3-2.229a3.965,3.965,0,0,0-1.62-3.741l-2.432-1.764a2.619,2.619,0,0,1-.555-3.7l2.658-3.5-4.016-1.634a4.191,4.191,0,0,1-1.949-6.235c.03-.043,23.225-.043,23.225-.043l9,15.7-3.855,15.1-9.351,7.388-1.763-14.58Z" transform="translate(19.624 6.772)" fill="#262626"/>
              <path id="Trazado_816778" data-name="Trazado 816778" d="M216.249,123.086l1.469.434,5.549-2a3.24,3.24,0,0,0,2.162-3.036v-1.933a3.27,3.27,0,0,0-3.3-3.235,3.366,3.366,0,0,0-2.5,1.067l-3.989,4.328Z" transform="translate(20.53 8.224)" fill="#802f1d"/>
              <path id="Trazado_816779" data-name="Trazado 816779" d="M200.006,124.58h-3.333l-.609-.586a2.4,2.4,0,0,1-.74-1.73v-.621Z" transform="translate(18.596 8.828)" fill="#262626"/>
              <path id="Trazado_816780" data-name="Trazado 816780" d="M196.673,124.381l-.99,1.084a1.371,1.371,0,0,0-.359.922v.87l4.682-2.877Z" transform="translate(18.596 9.027)" fill="#262626"/>
              <path id="Trazado_816799" data-name="Trazado 816799" d="M0,0,15.241.1l.007,1.075L.007,1.075Z" transform="translate(231.138 137.091) rotate(-20.376)" fill="#262626"/>
              <path id="Trazado_816781" data-name="Trazado 816781" d="M200.926,124.986H197.2v-1.073h2.635v-.489h1.1Z" transform="translate(18.774 8.958)" fill="#262626"/>
              <path id="Trazado_816800" data-name="Trazado 816800" d="M0,0,5.6.058l.011,1.084-5.6-.058Z" transform="matrix(0.677, -0.736, 0.736, 0.677, 238.516, 127.213)" fill="#201600"/>
              <path id="Trazado_816801" data-name="Trazado 816801" d="M0,0,21.235.148l.008,1.075L.008,1.075Z" transform="matrix(0.932, -0.361, 0.361, 0.932, 211.423, 367.151)" fill="#262626"/>
            </g>
          </g>
          <rect id="Rectángulo_374900" data-name="Rectángulo 374900" width="279.741" height="4.864" transform="translate(111.484 282.593)" fill="#73716e"/>
          <path id="Trazado_816782" data-name="Trazado 816782" d="M379.129,267.91H98.294v-5.938H379.129ZM99.389,266.837H378.033v-3.793H99.389Z" transform="translate(9.358 19.011)" fill="#262626"/>
          <g id="Grupo_1070876" data-name="Grupo 1070876">
            <g id="Grupo_1070875" data-name="Grupo 1070875" clip-path="url(#clip-path-2)">
              <path id="Trazado_816783" data-name="Trazado 816783" d="M344.512,248.927H239.673a2.218,2.218,0,0,1-1.8-.811,2.249,2.249,0,0,1-.344-2l16.09-59.33a3.572,3.572,0,0,1,3.3-2.534h104.84a2.218,2.218,0,0,1,1.8.812,2.248,2.248,0,0,1,.345,2L347.81,246.392a3.565,3.565,0,0,1-3.3,2.534m-87.589-63.6a2.5,2.5,0,0,0-2.241,1.739l-16.09,59.328a1.188,1.188,0,0,0,.153,1.068,1.14,1.14,0,0,0,.928.394H344.512a2.5,2.5,0,0,0,2.24-1.736l16.092-59.33a1.189,1.189,0,0,0-.154-1.068,1.136,1.136,0,0,0-.927-.394Z" transform="translate(22.605 13.372)" fill="#262626"/>
              <path id="Trazado_816784" data-name="Trazado 816784" d="M346.464,248.354H241.626a1.6,1.6,0,0,1-1.611-2.137l16.091-59.329a3.037,3.037,0,0,1,2.77-2.135H363.714a1.6,1.6,0,0,1,1.611,2.135l-16.091,59.329a3.038,3.038,0,0,1-2.77,2.137" transform="translate(22.843 13.408)" fill="#fff"/>
              <rect id="Rectángulo_374901" data-name="Rectángulo 374901" width="17.713" height="27.296" transform="translate(317.916 234.466)" fill="#73716e"/>
              <path id="Trazado_816785" data-name="Trazado 816785" d="M346.512,248.927H241.673a2.218,2.218,0,0,1-1.8-.811,2.246,2.246,0,0,1-.344-2l16.09-59.33a3.572,3.572,0,0,1,3.3-2.534H363.761a2.219,2.219,0,0,1,1.8.812,2.249,2.249,0,0,1,.345,2L349.81,246.392a3.566,3.566,0,0,1-3.3,2.534m-87.589-63.6a2.5,2.5,0,0,0-2.241,1.739l-16.09,59.328a1.188,1.188,0,0,0,.153,1.068,1.14,1.14,0,0,0,.928.394H346.512a2.5,2.5,0,0,0,2.24-1.736l16.092-59.33a1.189,1.189,0,0,0-.154-1.068,1.137,1.137,0,0,0-.928-.394Z" transform="translate(22.796 13.372)" fill="#262626"/>
              <path id="Trazado_816786" data-name="Trazado 816786" d="M320.152,265.911H302.295L290.053,218.6H307.91Z" transform="translate(27.614 15.864)" fill="#fff"/>
              <path id="Trazado_816787" data-name="Trazado 816787" d="M320.918,266.483H301.931L289.41,218.1H308.4Zm-18.135-1.073h16.727l-11.964-46.235H290.817Z" transform="translate(27.553 15.828)" fill="#262626"/>
              <path id="Trazado_816788" data-name="Trazado 816788" d="M290.053,218.6h0Z" transform="translate(27.615 15.864)" fill="#fff"/>
              <rect id="Rectángulo_374902" data-name="Rectángulo 374902" width="23.619" height="1.073" transform="translate(317.667 233.931)" fill="#262626"/>
              <rect id="Rectángulo_374903" data-name="Rectángulo 374903" width="7.37" height="1.073" transform="translate(284.884 200.982)" fill="#262626"/>
              <rect id="Rectángulo_374904" data-name="Rectángulo 374904" width="1.253" height="1.073" transform="translate(295.496 200.982)" fill="#262626"/>
              <path id="Trazado_816802" data-name="Trazado 816802" d="M0,0,1.095,0l.515,130.944-1.095,0Z" transform="translate(323.88 286.487) rotate(-10.942)" fill="#262626"/>
            </g>
          </g>
          <rect id="Rectángulo_374907" data-name="Rectángulo 374907" width="179.236" height="1.073" transform="translate(0 413.808)" fill="#262626"/>
          <rect id="Rectángulo_374908" data-name="Rectángulo 374908" width="3.633" height="1.073" transform="translate(182.263 413.808)" fill="#262626"/>
        </g>
      </g>
      <g id="Enmascarar_grupo_68" data-name="Enmascarar grupo 68" transform="translate(290.256 371.079)" clip-path="url(#clip-path-6)">
        <path id="Trazado_737287" data-name="Trazado 737287" d="M40.164,0A40.164,40.164,0,1,0,80.327,40.164,40.164,40.164,0,0,0,40.164,0Zm0,67.665a27.5,27.5,0,1,1,27.5-27.5A27.5,27.5,0,0,1,40.164,67.665Z" transform="translate(94.254 6.04) rotate(90)" fill="#ffe323"/>
      </g>
      <path id="Trazado_737285" data-name="Trazado 737285" d="M32.616,0,20.74,11.877,8.864,0,0,8.865,11.876,20.741,0,32.617l8.864,8.864L20.74,29.6,32.616,41.481l8.864-8.864L29.6,20.741,41.48,8.865Z" transform="translate(10.453 18.195)" fill="#78f0f4"/>
      <g id="Grupo_1015070" data-name="Grupo 1015070" transform="translate(268.123 29.003)">
        <g id="Grupo_80127" data-name="Grupo 80127" transform="translate(0 17.59)">
          <path id="Trazado_113527" data-name="Trazado 113527" d="M1003.993,925.806a2.726,2.726,0,1,1-2.726-2.726A2.725,2.725,0,0,1,1003.993,925.806Z" transform="translate(-998.54 -923.08)" fill="#3a3e44"/>
          <path id="Trazado_113528" data-name="Trazado 113528" d="M1034.793,925.806a2.726,2.726,0,1,1-2.726-2.726A2.725,2.725,0,0,1,1034.793,925.806Z" transform="translate(-1011.281 -923.08)" fill="#3a3e44"/>
          <path id="Trazado_113529" data-name="Trazado 113529" d="M1065.593,925.806a2.726,2.726,0,1,1-2.726-2.726A2.725,2.725,0,0,1,1065.593,925.806Z" transform="translate(-1024.022 -923.08)" fill="#3a3e44"/>
          <path id="Trazado_113530" data-name="Trazado 113530" d="M1096.4,925.806a2.726,2.726,0,1,1-2.726-2.726A2.725,2.725,0,0,1,1096.4,925.806Z" transform="translate(-1036.767 -923.08)" fill="#3a3e44"/>
          <path id="Trazado_113531" data-name="Trazado 113531" d="M1127.2,925.806a2.727,2.727,0,1,1-2.727-2.726A2.725,2.725,0,0,1,1127.2,925.806Z" transform="translate(-1049.508 -923.08)" fill="#3a3e44"/>
          <path id="Trazado_113532" data-name="Trazado 113532" d="M1158,925.806a2.726,2.726,0,1,1-2.726-2.726A2.725,2.725,0,0,1,1158,925.806Z" transform="translate(-1062.249 -923.08)" fill="#3a3e44"/>
          <path id="Trazado_113533" data-name="Trazado 113533" d="M1188.813,925.806a2.726,2.726,0,1,1-2.727-2.726A2.725,2.725,0,0,1,1188.813,925.806Z" transform="translate(-1074.995 -923.08)" fill="#3a3e44"/>
          <path id="Trazado_113534" data-name="Trazado 113534" d="M1219.613,925.806a2.727,2.727,0,1,1-2.726-2.726A2.725,2.725,0,0,1,1219.613,925.806Z" transform="translate(-1087.736 -923.08)" fill="#3a3e44"/>
        </g>
        <g id="Grupo_80128" data-name="Grupo 80128" transform="translate(0)">
          <path id="Trazado_113527-2" data-name="Trazado 113527" d="M1003.993,925.806a2.726,2.726,0,1,1-2.726-2.726A2.725,2.725,0,0,1,1003.993,925.806Z" transform="translate(-998.54 -923.08)" fill="#3a3e44"/>
          <path id="Trazado_113528-2" data-name="Trazado 113528" d="M1034.793,925.806a2.726,2.726,0,1,1-2.726-2.726A2.725,2.725,0,0,1,1034.793,925.806Z" transform="translate(-1011.281 -923.08)" fill="#3a3e44"/>
          <path id="Trazado_113529-2" data-name="Trazado 113529" d="M1065.593,925.806a2.726,2.726,0,1,1-2.726-2.726A2.725,2.725,0,0,1,1065.593,925.806Z" transform="translate(-1024.022 -923.08)" fill="#3a3e44"/>
          <path id="Trazado_113530-2" data-name="Trazado 113530" d="M1096.4,925.806a2.726,2.726,0,1,1-2.726-2.726A2.725,2.725,0,0,1,1096.4,925.806Z" transform="translate(-1036.767 -923.08)" fill="#3a3e44"/>
          <path id="Trazado_113531-2" data-name="Trazado 113531" d="M1127.2,925.806a2.727,2.727,0,1,1-2.727-2.726A2.725,2.725,0,0,1,1127.2,925.806Z" transform="translate(-1049.508 -923.08)" fill="#3a3e44"/>
          <path id="Trazado_113532-2" data-name="Trazado 113532" d="M1158,925.806a2.726,2.726,0,1,1-2.726-2.726A2.725,2.725,0,0,1,1158,925.806Z" transform="translate(-1062.249 -923.08)" fill="#3a3e44"/>
          <path id="Trazado_113533-2" data-name="Trazado 113533" d="M1188.813,925.806a2.726,2.726,0,1,1-2.727-2.726A2.725,2.725,0,0,1,1188.813,925.806Z" transform="translate(-1074.995 -923.08)" fill="#3a3e44"/>
          <path id="Trazado_113534-2" data-name="Trazado 113534" d="M1219.613,925.806a2.727,2.727,0,1,1-2.726-2.726A2.725,2.725,0,0,1,1219.613,925.806Z" transform="translate(-1087.736 -923.08)" fill="#3a3e44"/>
        </g>
      </g>
    </g>
  </g>
</svg>
