<svg xmlns="http://www.w3.org/2000/svg" width="295" height="134" viewBox="0 0 295 134">
  <g id="Grupo_1071005" data-name="Grupo 1071005" transform="translate(-180 -8597)">
    <rect id="Rect치ngulo_374743" data-name="Rect치ngulo 374743" width="295" height="60" transform="translate(180 8604)" fill="#fff7bb"/>
    <rect id="Rect치ngulo_375153" data-name="Rect치ngulo 375153" width="117" height="27" transform="translate(237 8704)" fill="#ffe323"/>
    <g id="codigo-" transform="translate(261.892 8597)">
      <path id="Trazado_817138" data-name="Trazado 817138" d="M111.788,8.706V124.3a8.707,8.707,0,0,1-8.708,8.7H17.54a8.7,8.7,0,0,1-8.7-8.7V8.706A8.7,8.7,0,0,1,17.54,0h85.54A8.706,8.706,0,0,1,111.788,8.706Z" transform="translate(0 -0.001)" fill="#424c59"/>
      <path id="Trazado_817139" data-name="Trazado 817139" d="M111.789,8.7V22.373H8.838V8.7a8.7,8.7,0,0,1,8.7-8.7h85.539A8.706,8.706,0,0,1,111.789,8.7Z" transform="translate(-0.001)" fill="#eaeaea"/>
      <circle id="Elipse_9624" data-name="Elipse 9624" cx="4.483" cy="4.483" r="4.483" transform="translate(18.22 6.484)" fill="#f9572b"/>
      <circle id="Elipse_9625" data-name="Elipse 9625" cx="4.483" cy="4.483" r="4.483" transform="translate(33.316 6.484)" fill="#fcc63d"/>
      <g id="Grupo_1071000" data-name="Grupo 1071000" transform="translate(48.408 6.484)">
        <circle id="Elipse_9626" data-name="Elipse 9626" cx="4.483" cy="4.483" r="4.483" transform="translate(0)" fill="#45b8c4"/>
        <circle id="Elipse_9627" data-name="Elipse 9627" cx="25.802" cy="25.802" r="25.802" transform="translate(37.233 8.9)" fill="#45b8c4"/>
      </g>
      <path id="Trazado_817140" data-name="Trazado 817140" d="M131.193,143.915H85.973a2.037,2.037,0,1,1,0-4.074h45.219a2.037,2.037,0,0,1,0,4.074Z" transform="translate(-55.592 -103.515)" fill="#fcc63d"/>
      <path id="Trazado_817141" data-name="Trazado 817141" d="M51,143.958a2.036,2.036,0,1,1,2-1.638A2.051,2.051,0,0,1,51,143.958Z" transform="translate(-29.716 -103.559)" fill="#fff"/>
      <path id="Trazado_817142" data-name="Trazado 817142" d="M131.193,231.537H85.973a2.037,2.037,0,1,1,0-4.074h45.219a2.037,2.037,0,0,1,0,4.074Z" transform="translate(-55.592 -168.376)" fill="#fcc63d"/>
      <g id="Grupo_1071001" data-name="Grupo 1071001" transform="translate(19.249 59.101)">
        <path id="Trazado_817143" data-name="Trazado 817143" d="M50.957,231.578a2.038,2.038,0,1,1,2.027-1.838A2.058,2.058,0,0,1,50.957,231.578Z" transform="translate(-48.921 -227.518)" fill="#fff"/>
        <path id="Trazado_817144" data-name="Trazado 817144" d="M294.252,275.348H281.488a2.037,2.037,0,1,1,0-4.074h12.764a2.037,2.037,0,1,1,0,4.074Z" transform="translate(-219.567 -259.908)" fill="#fff"/>
      </g>
      <path id="Trazado_817145" data-name="Trazado 817145" d="M187.63,275.348H163.867a2.037,2.037,0,1,1,0-4.074H187.63a2.037,2.037,0,0,1,0,4.074Z" transform="translate(-113.251 -200.806)" fill="#f9572b"/>
      <g id="Grupo_1071002" data-name="Grupo 1071002" transform="translate(19.265 70.468)">
        <path id="Trazado_817146" data-name="Trazado 817146" d="M99.417,275.348H85.973a2.037,2.037,0,1,1,0-4.074H99.417a2.037,2.037,0,1,1,0,4.074Z" transform="translate(-74.857 -271.274)" fill="#fff"/>
        <path id="Trazado_817147" data-name="Trazado 817147" d="M51,275.391a2.037,2.037,0,1,1,2.021-1.785A2.053,2.053,0,0,1,51,275.391Z" transform="translate(-48.985 -271.317)" fill="#fff"/>
      </g>
      <path id="Trazado_817148" data-name="Trazado 817148" d="M118.971,319.159h-33a2.037,2.037,0,0,1,0-4.074h33a2.037,2.037,0,0,1,0,4.074Z" transform="translate(-55.592 -233.237)" fill="#fcc63d"/>
      <path id="Trazado_817149" data-name="Trazado 817149" d="M50.962,319.191a2.036,2.036,0,1,1,1.983-1.577A2.057,2.057,0,0,1,50.962,319.191Z" transform="translate(-29.677 -233.269)" fill="#fff"/>
      <path id="Trazado_817150" data-name="Trazado 817150" d="M273.618,362.97h-6.246a2.037,2.037,0,0,1,0-4.074h6.246a2.037,2.037,0,1,1,0,4.074Z" transform="translate(-189.869 -265.667)" fill="#f9572b"/>
      <path id="Trazado_817151" data-name="Trazado 817151" d="M189.768,362.97h-18.06a2.037,2.037,0,1,1,0-4.074h18.06a2.037,2.037,0,0,1,0,4.074Z" transform="translate(-119.056 -265.667)" fill="#fcc63d"/>
      <g id="Grupo_1071003" data-name="Grupo 1071003" transform="translate(19.265 93.229)">
        <path id="Trazado_817152" data-name="Trazado 817152" d="M101.454,362.97H85.973a2.037,2.037,0,0,1,0-4.074h15.48a2.037,2.037,0,0,1,0,4.074Z" transform="translate(-74.856 -358.896)" fill="#fff"/>
        <path id="Trazado_817153" data-name="Trazado 817153" d="M51,363.01a2.037,2.037,0,1,1,2.021-1.784A2.052,2.052,0,0,1,51,363.01Z" transform="translate(-48.982 -358.937)" fill="#fff"/>
        <path id="Trazado_817154" data-name="Trazado 817154" d="M244.679,406.78H215.619a2.037,2.037,0,1,1,0-4.074h29.059a2.037,2.037,0,1,1,0,4.074Z" transform="translate(-170.825 -391.326)" fill="#fff"/>
      </g>
      <path id="Trazado_817155" data-name="Trazado 817155" d="M112.86,406.78H85.973a2.037,2.037,0,1,1,0-4.074H112.86a2.037,2.037,0,1,1,0,4.074Z" transform="translate(-55.592 -298.097)" fill="#f9572b"/>
      <path id="Trazado_817156" data-name="Trazado 817156" d="M51.006,406.823a2.038,2.038,0,1,1,2.027-1.839A2.055,2.055,0,0,1,51.006,406.823Z" transform="translate(-29.721 -298.138)" fill="#fff"/>
      <path id="Trazado_817157" data-name="Trazado 817157" d="M99.417,450.591H85.973a2.037,2.037,0,0,1,0-4.074H99.417a2.037,2.037,0,1,1,0,4.074Z" transform="translate(-55.592 -330.527)" fill="#f9572b"/>
      <path id="Trazado_817158" data-name="Trazado 817158" d="M50.961,450.63a2.037,2.037,0,1,1,2-1.641A2.057,2.057,0,0,1,50.961,450.63Z" transform="translate(-29.676 -330.565)" fill="#fff"/>
      <path id="Trazado_817159" data-name="Trazado 817159" d="M96.157,187.726H85.973a2.037,2.037,0,1,1,0-4.074H96.157a2.037,2.037,0,1,1,0,4.074Z" transform="translate(-55.592 -135.946)" fill="#f9572b"/>
      <g id="Grupo_1071004" data-name="Grupo 1071004" transform="translate(19.25 27.538)">
        <path id="Trazado_817160" data-name="Trazado 817160" d="M172.964,187.726H153.41a2.037,2.037,0,1,1,0-4.074h19.554a2.037,2.037,0,1,1,0,4.074Z" transform="translate(-124.761 -163.483)" fill="#fff"/>
        <path id="Trazado_817161" data-name="Trazado 817161" d="M50.961,187.763a2.037,2.037,0,1,1,2-1.64A2.057,2.057,0,0,1,50.961,187.763Z" transform="translate(-48.926 -163.52)" fill="#fff"/>
        <path id="Trazado_817162" data-name="Trazado 817162" d="M365.467,133.305a2.036,2.036,0,0,1-1.469-.626l-9.777-10.184a2.037,2.037,0,1,1,2.939-2.821l7.821,8.147L375.886,107.1a2.037,2.037,0,0,1,3.605,1.9L367.27,132.218a2.036,2.036,0,0,1-1.518,1.068A2.154,2.154,0,0,1,365.467,133.305Z" transform="translate(-274.496 -106.011)" fill="#fff"/>
      </g>
    </g>
  </g>
</svg>
