<svg xmlns="http://www.w3.org/2000/svg" width="290.218" height="410" viewBox="0 0 290.218 410">
  <g id="Grupo_1070686" data-name="Grupo 1070686" transform="translate(-183 -1347)">
    <rect id="Rectángulo_374606" data-name="Rectángulo 374606" width="194" height="410" transform="translate(279 1347)" fill="#fff7bb"/>
    <g id="Grupo_1070685" data-name="Grupo 1070685" transform="translate(8137.26 11699.842)">
      <path id="Trazado_152014" data-name="Trazado 152014" d="M127.176.407V95.464a.4.4,0,0,0,.8,0V.407a.4.4,0,0,0-.8,0" transform="translate(-8002.582 -10299.846)" fill="#2b244a"/>
      <path id="Trazado_152015" data-name="Trazado 152015" d="M98.176.407V95.464a.4.4,0,0,0,.8,0V.407a.4.4,0,0,0-.8,0" transform="translate(-7996.899 -10299.846)" fill="#2b244a"/>
      <path id="Trazado_152016" data-name="Trazado 152016" d="M69.676.407V95.464a.4.4,0,0,0,.8,0V.407a.4.4,0,0,0-.8,0" transform="translate(-7991.314 -10299.846)" fill="#2b244a"/>
      <path id="Trazado_152017" data-name="Trazado 152017" d="M184.787.407V95.464a.4.4,0,0,0,.8,0V.407a.4.4,0,0,0-.8,0" transform="translate(-8013.871 -10299.846)" fill="#2b244a"/>
      <path id="Trazado_152018" data-name="Trazado 152018" d="M156.287.407V95.464a.4.4,0,0,0,.8,0V.407a.4.4,0,0,0-.8,0" transform="translate(-8008.286 -10299.846)" fill="#2b244a"/>
      <path id="Trazado_152019" data-name="Trazado 152019" d="M174.064,95.059H49.452c-1.576,0-3.155.13-4.59-.69a5.416,5.416,0,0,1-2.662-4.83q0-.948,0-1.9V10.638c0-1.5-.016-3.007,0-4.51A5.337,5.337,0,0,1,47.472.807c.232,0,.466,0,.7,0H173.719a5.749,5.749,0,0,1,3.259.876,5.442,5.442,0,0,1,2.357,4.679V88.42c0,.439,0,.879,0,1.318a5.337,5.337,0,0,1-5.271,5.321.4.4,0,0,0,0,.8,6.153,6.153,0,0,0,6.075-6.079c.006-.369,0-.738,0-1.106v-76.8c0-1.847,0-3.694,0-5.541A6.2,6.2,0,0,0,173.85,0c-1.322,0-2.643,0-3.965,0H48.093c-.333,0-.67-.01-1,.012A6.148,6.148,0,0,0,41.4,6.087c-.018,1.385,0,2.772,0,4.157V87.691c0,.627,0,1.254,0,1.881A6.235,6.235,0,0,0,43.638,94.5c1.671,1.353,3.525,1.364,5.5,1.364H174.064a.4.4,0,0,0,0-.8" transform="translate(-7985.771 -10299.842)" fill="#2b244a"/>
      <path id="Trazado_152020" data-name="Trazado 152020" d="M179.743,59.113H41.8a.4.4,0,0,0,0,.8H179.743a.4.4,0,0,0,0-.8" transform="translate(-7985.777 -10311.425)" fill="#2b244a"/>
      <path id="Trazado_152021" data-name="Trazado 152021" d="M179.743,29.558H41.8a.4.4,0,0,0,0,.8H179.743a.4.4,0,0,0,0-.8" transform="translate(-7985.777 -10305.634)" fill="#2b244a"/>
      <path id="Trazado_152022" data-name="Trazado 152022" d="M179.743,88.669H41.8a.4.4,0,0,0,0,.8H179.743a.4.4,0,0,0,0-.8" transform="translate(-7985.777 -10317.216)" fill="#2b244a"/>
      <path id="Trazado_152023" data-name="Trazado 152023" d="M99.075,34.293H60.48a.8.8,0,0,1-.8-.8V5.973a.8.8,0,0,1,.8-.8H99.075a.8.8,0,0,1,.8.8V33.489a.8.8,0,0,1-.8.8" transform="translate(-7989.355 -10300.854)" fill="#ccb16c"/>
      <path id="Trazado_152024" data-name="Trazado 152024" d="M71.491,15.049a11.122,11.122,0,0,1,2.343-1.266c.311-.12.879-.378,1.124-.042.191.261.121.706.192,1.014a2.621,2.621,0,0,0,3.108,1.677c1.738-.306,2.968-1.815,4.686-2.144a1.461,1.461,0,0,1,.653-.043c.15.067.224.3.32.425a1.261,1.261,0,0,0,.671.449,3.144,3.144,0,0,0,1.91-.281,12.539,12.539,0,0,1,6.237-.766c.507.069.725-.705.214-.776a13.246,13.246,0,0,0-5.544.38,9.522,9.522,0,0,1-2.294.7c-.407.01-.515-.165-.724-.476a1,1,0,0,0-.81-.462c-1.84-.129-3.207,1.417-4.813,2.02a2.43,2.43,0,0,1-2.3-.138c-.69-.5-.428-1.215-.749-1.884-.367-.766-1.235-.732-1.93-.489a11.3,11.3,0,0,0-2.7,1.408c-.421.293-.02.991.406.694" transform="translate(-7991.556 -10302.349)" fill="#2b244a"/>
      <path id="Trazado_152025" data-name="Trazado 152025" d="M71.344,30.87a13.428,13.428,0,0,1,4.394-2.3,3.257,3.257,0,0,1,.574-.161c.273-.027.263-.01.244.232-.024.315-.232.617-.267.941A1.44,1.44,0,0,0,77.136,31a3.46,3.46,0,0,0,2.353-.058l2.8-.67c.194-.046.814-.281,1-.084.064.068.022.34.05.441a.734.734,0,0,0,.256.384,1.31,1.31,0,0,0,.865.174c.5-.008.994-.022,1.491-.032l6.463-.139a.4.4,0,0,0,0-.8l-5.966.129-1.491.032a2.928,2.928,0,0,1-.7.014c-.234-.063-.121-.07-.181-.337-.138-.62-.767-.767-1.323-.7a25.347,25.347,0,0,0-2.7.628c-.748.179-2.218.813-2.825.088-.429-.513.309-1.27.16-1.876-.191-.773-1.03-.638-1.613-.474A14.431,14.431,0,0,0,70.775,30.3c-.406.32.166.885.568.568" transform="translate(-7991.503 -10305.25)" fill="#2b244a"/>
      <path id="Trazado_152026" data-name="Trazado 152026" d="M71.065,21.268c-.2.6-.756,1.487-.118,2.024a2.093,2.093,0,0,0,1.768.126c2.156-.5,4.3-1.083,6.44-1.625L78.66,21.3A1.363,1.363,0,0,0,79.843,23a3.876,3.876,0,0,0,1.635-.243,8.889,8.889,0,0,1,1.8-.306,33.507,33.507,0,0,1,3.492.035l3.859.139c.518.019.517-.785,0-.8-2.016-.072-4.035-.188-6.052-.206a12.976,12.976,0,0,0-2.687.213c-.483.1-.949.289-1.434.367-.417.067-1.241-.068-1.024-.679a.405.405,0,0,0-.494-.494l-4.995,1.261a10.93,10.93,0,0,1-2.025.457c-.239.012-.4.046-.465-.175-.072-.261.3-.831.384-1.078.166-.492-.611-.7-.775-.214" transform="translate(-7991.505 -10303.955)" fill="#2b244a"/>
      <path id="Trazado_152027" data-name="Trazado 152027" d="M144.362,63.027H123.814a.8.8,0,0,1-.8-.8V25.862a.8.8,0,0,1,.8-.8h20.548a.8.8,0,0,1,.8.8V62.223a.8.8,0,0,1-.8.8" transform="translate(-8001.765 -10304.752)" fill="#ffeae0"/>
      <path id="Trazado_152028" data-name="Trazado 152028" d="M140.4,51.731H130.48a.8.8,0,0,1-.8-.8V33.64a.8.8,0,0,1,.8-.8H140.4a.8.8,0,0,1,.8.8V50.927a.8.8,0,0,1-.8.8" transform="translate(-8003.071 -10306.276)" fill="#ccb16c"/>
      <path id="Trazado_152029" data-name="Trazado 152029" d="M135.552,62.459A4.426,4.426,0,0,1,136.641,62a4.248,4.248,0,0,1,.585-.117c.1-.012.44-.086.519,0,.126.142-.283.741-.326.9a.685.685,0,0,0,.369.883,1.769,1.769,0,0,0,1.031-.095,11.491,11.491,0,0,0,1.085-.381,7.53,7.53,0,0,1,2.247-.649c.514-.032.518-.836,0-.8a7.744,7.744,0,0,0-2.353.635c-.375.147-.751.3-1.138.408q-.165.048-.333.087l-.112.024c-.1-.009-.122.012-.058.062.041.127.1-.112.121-.155.047-.1.1-.191.145-.29a.954.954,0,0,0-.862-1.451,4.883,4.883,0,0,0-2.415.714.4.4,0,0,0,.406.694" transform="translate(-8004.105 -10311.805)" fill="#2b244a"/>
      <path id="Trazado_152030" data-name="Trazado 152030" d="M196.506,70.285H173.814a.8.8,0,0,1-.8-.8V39.2a.8.8,0,0,1,.8-.8h22.692a.8.8,0,0,1,.8.8V69.481a.8.8,0,0,1-.8.8" transform="translate(-8011.563 -10307.364)" fill="#ffeae0"/>
      <path id="Trazado_152031" data-name="Trazado 152031" d="M190.327,64.836h4.824a.8.8,0,0,1,.8.8v4.824a.8.8,0,0,1-.8.8h-4.824a.8.8,0,0,1-.8-.8V65.64a.8.8,0,0,1,.8-.8" transform="translate(-8014.798 -10312.546)" fill="#d9a389"/>
      <path id="Trazado_152032" data-name="Trazado 152032" d="M179.592,46.974a16.807,16.807,0,0,1,2.368-.878,7.7,7.7,0,0,1,2.131-.422c.813.01,1,.585,1.161,1.265a2.523,2.523,0,0,0,.723,1.412c.9.761,2.219.393,3.234.125L194,47.215a.4.4,0,0,0-.214-.775L188.9,47.726a4.527,4.527,0,0,1-1.841.249c-.72-.117-.895-.692-1.048-1.318a2.473,2.473,0,0,0-.7-1.391,2.145,2.145,0,0,0-1.692-.362,15.466,15.466,0,0,0-4.436,1.376c-.47.215-.062.908.406.694" transform="translate(-8012.732 -10308.635)" fill="#2b244a"/>
      <path id="Trazado_152033" data-name="Trazado 152033" d="M179.676,62.129a2.013,2.013,0,0,1,2.574-.2,3.277,3.277,0,0,0,1.348.776,1.189,1.189,0,0,0,1.287-.568c.225-.463-.469-.872-.694-.405-.185.38-.7.121-.946-.047a4.879,4.879,0,0,0-1.346-.82,2.84,2.84,0,0,0-2.792.7.4.4,0,0,0,.568.568" transform="translate(-8012.734 -10311.745)" fill="#2b244a"/>
      <path id="Trazado_152034" data-name="Trazado 152034" d="M179.6,55.652a5.537,5.537,0,0,1,2.343-.975c.433-.01.326.242.243.561a1.182,1.182,0,0,0-.034.709c.252.685,1.057.414,1.563.24a13.035,13.035,0,0,0,2.256-1.042c.086-.05.339-.231.441-.181-.056-.027-.127.2-.153.307a.775.775,0,0,0,.162.693c.383.425,1.041.285,1.512.132.847-.277,1.69-.568,2.535-.851a3.855,3.855,0,0,1,2.679-.269c.481.191.69-.587.213-.775a3.676,3.676,0,0,0-2.42.047c-.9.265-1.787.593-2.677.892-.159.053-1.041.473-1.2.3-.035-.039.125-.361.135-.417a.821.821,0,0,0-.006-.331c-.164-.643-.921-.58-1.393-.363a23.717,23.717,0,0,1-2.382,1.116c-.046.015-.557.161-.507.225-.04-.051.1-.381.115-.445a1.215,1.215,0,0,0-.032-.818c-.638-1.347-3.043.1-3.8.556a.4.4,0,0,0,.406.694" transform="translate(-8012.736 -10310.393)" fill="#2b244a"/>
      <path id="Trazado_152035" data-name="Trazado 152035" d="M99.641,114.388H63.369a.8.8,0,0,1-.8-.8V71.862a.8.8,0,0,1,.8-.8H99.641a.8.8,0,0,1,.8.8v41.721a.8.8,0,0,1-.8.8" transform="translate(-7989.921 -10313.766)" fill="#ffeae0"/>
      <path id="Trazado_152036" data-name="Trazado 152036" d="M71.271,84.771a51.225,51.225,0,0,1,5.343-2.75q.714-.316,1.438-.607c.229-.092.458-.184.689-.271.178-.067.437-.215.54-.04s-.148.539-.227.711q-.163.357-.326.714l-.694,1.518a.414.414,0,0,0,.063.487,1.824,1.824,0,0,0,1.742.261c.785-.207,1.555-.5,2.326-.759,1.654-.546,3.3-1.125,4.967-1.631a7.119,7.119,0,0,1,2.381-.4,7.942,7.942,0,0,1,2.386.762c1.556.573,3.1.024,4.556-.586.47-.2.263-.975-.214-.775a10.716,10.716,0,0,1-2.251.753,3.828,3.828,0,0,1-2.263-.326,6.459,6.459,0,0,0-1.949-.612,6.369,6.369,0,0,0-2.154.212c-1.543.384-3.05.964-4.558,1.461l-2.23.736c-.531.174-1.653.769-2.17.338l.063.487.9-1.964a3.653,3.653,0,0,0,.526-1.451c-.035-1.324-1.652-.664-2.314-.4a51.626,51.626,0,0,0-6.974,3.438.4.4,0,0,0,.406.694" transform="translate(-7991.509 -10315.563)" fill="#2b244a"/>
      <path id="Trazado_152037" data-name="Trazado 152037" d="M71.181,94.724q2.261-.937,4.6-1.667c1.2-.371,2.835-1.054,4.072-.482.612.283.848.915,1.245,1.414a2.109,2.109,0,0,0,1.536.8,5.275,5.275,0,0,0,1.982-.353l2.459-.794,5.583-1.8c.491-.158.281-.935-.213-.776l-4.921,1.588-2.46.794a7.534,7.534,0,0,1-2.2.546c-.831,0-1.153-.53-1.57-1.151a2.676,2.676,0,0,0-1.319-1.085,6.173,6.173,0,0,0-3.777.329,52.972,52.972,0,0,0-5.23,1.858c-.471.2-.265.973.215.775" transform="translate(-7991.516 -10317.682)" fill="#2b244a"/>
      <path id="Trazado_152038" data-name="Trazado 152038" d="M95.744,103.059l5.5-.905c.509-.084.293-.86-.214-.776l-5.5.906c-.509.084-.293.859.214.775" transform="translate(-7996.324 -10319.705)" fill="#2b244a"/>
      <path id="Trazado_152039" data-name="Trazado 152039" d="M85.063,112.125h-9.95a.8.8,0,0,1-.8-.8v-9.95a.8.8,0,0,1,.8-.8h9.95a.8.8,0,0,1,.8.8v9.95a.8.8,0,0,1-.8.8" transform="translate(-7992.223 -10319.548)" fill="#d9a389"/>
      <path id="Trazado_152040" data-name="Trazado 152040" d="M276.61,216.789,234.756,397.952h3.361l45.52-178.757Z" transform="translate(-8023.662 -10342.321)" fill="#d9a389"/>
      <path id="Trazado_152041" data-name="Trazado 152041" d="M336.284,216.789l41.854,181.163h-3.361l-45.52-178.757Z" transform="translate(-8042.179 -10342.321)" fill="#d9a389"/>
      <rect id="Rectángulo_35058" data-name="Rectángulo 35058" width="106.741" height="4.557" transform="translate(-7780.077 -9977.186)" fill="#d9a389"/>
      <path id="Trazado_152042" data-name="Trazado 152042" d="M174.931,290.226l22.826,123.485h-2.68L165.858,290.226Z" transform="translate(-8010.161 -10356.712)" fill="#31313c"/>
      <path id="Trazado_152043" data-name="Trazado 152043" d="M214.708,290.226l22.826,123.485h-2.68L205.635,290.226Z" transform="translate(-8017.956 -10356.712)" fill="#31313c"/>
      <path id="Trazado_152044" data-name="Trazado 152044" d="M112.763,290.226,89.937,413.711h2.68l29.219-123.485Z" transform="translate(-7995.285 -10356.712)" fill="#31313c"/>
      <path id="Trazado_152045" data-name="Trazado 152045" d="M117.775,303.941,150.224,323.6l9.247,5.6a.4.4,0,0,0,.406-.694l-32.449-19.655-9.247-5.6a.4.4,0,0,0-.406.694" transform="translate(-8000.702 -10359.25)" fill="#31313c"/>
      <path id="Trazado_152046" data-name="Trazado 152046" d="M158.4,302.1l-17.859,10.817-18.355,11.118-9.873,5.98a.4.4,0,0,0,.405.695l17.859-10.817,18.356-11.118,9.873-5.98a.4.4,0,0,0-.406-.694" transform="translate(-7999.632 -10359.025)" fill="#31313c"/>
      <path id="Trazado_152047" data-name="Trazado 152047" d="M103.049,192.785s-14.639,56.167-4.056,74.75S161,280.4,171.315,273.968,148.937,207.5,148.937,207.5Z" transform="translate(-7996.307 -10337.618)" fill="#31313c"/>
      <path id="Trazado_152048" data-name="Trazado 152048" d="M109.095,233.625c.386,7.023,1.332,14.47,4.935,20.655,2.636,4.525,7.22,7.706,12.062,9.489a31.711,31.711,0,0,0,10.879,1.862.4.4,0,0,0,0-.8,28.644,28.644,0,0,1-16.924-5.175,19.764,19.764,0,0,1-4.921-5.124,29.851,29.851,0,0,1-3.644-9.066,64.012,64.012,0,0,1-1.584-11.838c-.028-.515-.832-.518-.8,0" transform="translate(-7999.039 -10345.544)" fill="#8c75b5"/>
      <path id="Trazado_152049" data-name="Trazado 152049" d="M221.41,159.93l19.726,17.322-5.673,27.6s-23.566,2.772-34.676-22.579S221.41,159.93,221.41,159.93" transform="translate(-8016.543 -10331.158)" fill="#e0785e"/>
      <path id="Trazado_152050" data-name="Trazado 152050" d="M286.3,358.043c-.789-2.791-1.91-5.492-2.924-8.206L271,316.724l-12.37-33.113-6.2-16.61a149.932,149.932,0,0,0-6.035-14.555c-4.19-8.4-10.375-16.385-19.259-20.108a26.71,26.71,0,0,0-3.305-1.135.37.37,0,0,0-.449.454,4.022,4.022,0,0,0-.657.154c-5.571,1.807-10.917,4.131-13.432,9.794s-1.919,12.248-5.466,17.507c-2.06,3.054,1.233,5.956,4.094,5.383q5.382,14.946,10.765,29.891,5.941,16.494,11.881,32.99l5.941,16.5c1.8,5.006,3.507,10.062,5.47,15.008,3.034,7.647,7.441,15.858,15.809,18.533.165.053.333.1.5.146.568,1.787,1.705,4.573,3.388,5.1,2.513.782,12.825,1.261,18.9-2.275,2.746-1.6,2.591-4.456,1.6-7.11a16.783,16.783,0,0,0,4.607-7.5,14.693,14.693,0,0,0-.483-7.726" transform="translate(-8017.475 -10345.143)" fill="#ffe323"/>
      <path id="Trazado_152051" data-name="Trazado 152051" d="M214.265,228.86c-3.971-4.518-17.438-3.212-25.3-3.212-.236-.394,1.441-17.359.482-21.713H138.538c-1.291-.831-4.77-1.831-5.55.027-3.762,8.958-7.025,25.414-8.928,34.033-1.758,7.965.133,15.649,6.487,20.421,6.223,4.674,14.178,5.887,21.72,6.658,1.1.113,2.254.251,3.432.392-.136.179-.277.344-.409.533-2.066,18.1-6.226,39.71-11.653,57.254-3.335,10.781-7.185,22.885-4.645,34.245a21.073,21.073,0,0,0,7.638,12.187c-.423,2.767-.075,6.166,3.838,7.03,6.865,1.514,18.22-.567,19.928-2.646a5.008,5.008,0,0,0,.773-3.2,15.194,15.194,0,0,0,2.524-.762c4.565-1.877,6.519-6.668,7.695-11.1,3.523-13.275,6.592-25.654,9.371-39.078,2.788-13.473,5.557-27.967,9.786-41.038,3.726-11.515,8.541-24.049,5.609-36.3q-.289-1.212-.666-2.4,2.586-1.36,5.166-2.714c-.979-2.106,5.177-6.835,3.611-8.617" transform="translate(-8001.849 -10339.602)" fill="#ffe323"/>
      <path id="Trazado_152052" data-name="Trazado 152052" d="M215.9,287.085a90.78,90.78,0,0,0,3.338-13.724c.4-2.383.72-4.781.946-7.187a49.847,49.847,0,0,0,.3-5.958,28.873,28.873,0,0,0-2.091-10.182,21.4,21.4,0,0,0-2.913-5.074,13.023,13.023,0,0,0-3.011-2.928,50.184,50.184,0,0,0-11.693-5.335c-.493-.162-.7.614-.214.775a53.67,53.67,0,0,1,10.811,4.824,11.2,11.2,0,0,1,2.7,2.238,19.223,19.223,0,0,1,3.135,4.787,27.422,27.422,0,0,1,2.441,10.143,40.629,40.629,0,0,1-.146,5.253c-.182,2.381-.463,4.754-.828,7.113a91.883,91.883,0,0,1-3.551,15.041c-.165.492.612.7.775.214" transform="translate(-8016.907 -10346.218)" fill="#2b244a"/>
      <path id="Trazado_152053" data-name="Trazado 152053" d="M203.2,151.753l-5.234-11.641c-1.589-3.534-3.14-7.093-4.888-10.542-6.547-12.92-15.8-17.467-29.943-16.452a166.629,166.629,0,0,0-27.179,4.429c-5.5,1.517-10.4,5.1-13.766,8.085-10.888,9.661-25.479,25.95-25.479,25.95,3.313,4.018,7.455,9.329,11.2,13.02,1.881,1.856,4.128,3.275,5.677,5.46a39.7,39.7,0,0,1,2.085,3.41,4.981,4.981,0,0,0,2.711,2.509,15.935,15.935,0,0,0,2.555.529q1.277.206,2.563.349c.529.058,1.06.09,1.59.131-.44,3.536-.775,5.964-1.434,9.883,3.568.761,16.991,2.605,25.607,3.2,16.786,1.161,33.5-2.485,33.526-2.861.461-5.9,1-13.083,1.465-18.985.546-.641,15.274-13.114,18.947-16.476" transform="translate(-7996.612 -10321.98)" fill="#ffeae0"/>
      <path id="Trazado_152054" data-name="Trazado 152054" d="M148.527,153.332l-8.611,11.1c-.314.4.252.977.568.568l8.611-11.1c.314-.4-.252-.977-.568-.568" transform="translate(-8005.06 -10329.859)" fill="#2b244a"/>
      <path id="Trazado_152055" data-name="Trazado 152055" d="M178.3,115.5c.256,4.253.363,8.517.416,12.777.064,5.128.042,10.258-.035,15.386q-.124,8.209-.439,16.412c-.2,5.194-.453,10.388-.791,15.575-.284,4.374-.62,8.746-1.094,13.1q-.077.7-.159,1.4c-.06.513.745.509.8,0,.5-4.232.842-8.482,1.135-12.733.354-5.117.619-10.24.831-15.364q.338-8.2.486-16.411c.093-5.2.132-10.4.087-15.595-.038-4.384-.127-8.768-.355-13.146q-.037-.706-.08-1.41c-.031-.515-.835-.518-.8,0" transform="translate(-8012.188 -10322.398)" fill="#2b244a"/>
      <path id="Trazado_152056" data-name="Trazado 152056" d="M101.866,155.679l15.257,15.732c.361.372.929-.2.568-.569L102.434,155.11c-.361-.372-.929.2-.568.568" transform="translate(-7997.6 -10330.212)" fill="#2b244a"/>
      <path id="Trazado_152057" data-name="Trazado 152057" d="M165.131,115.411q.686,3.492,1.286,7c.087.509.862.293.775-.214q-.6-3.507-1.286-7c-.1-.507-.875-.293-.775.214" transform="translate(-8010.017 -10322.358)" fill="#2b244a"/>
      <path id="Trazado_152058" data-name="Trazado 152058" d="M167.226,123.736q4.934-1.269,9.823-2.706a.4.4,0,0,0-.214-.775q-4.888,1.436-9.823,2.706a.4.4,0,0,0,.214.775" transform="translate(-8010.332 -10323.402)" fill="#2b244a"/>
      <path id="Trazado_152059" data-name="Trazado 152059" d="M190.977,113.251q-.1,3.946-.11,7.894a.4.4,0,0,0,.8,0q.006-3.947.11-7.894a.4.4,0,0,0-.8,0" transform="translate(-8015.062 -10321.957)" fill="#2b244a"/>
      <path id="Trazado_152060" data-name="Trazado 152060" d="M188.946,122.238q-5-.956-9.973-2.082c-.5-.114-.719.66-.214.774q4.969,1.126,9.973,2.083c.506.1.722-.678.214-.775" transform="translate(-8012.633 -10323.384)" fill="#2b244a"/>
      <path id="Trazado_152061" data-name="Trazado 152061" d="M167.039,179.98c-.4-3.092-7.453-11.586-10.644-14.79a17.033,17.033,0,0,0-10.087-5.072c-4.993-.366-10.631,1.462-15.192,2.737-5.811,1.625-11.547,3.5-17.256,5.451-2.723.93-6.969,2.228-9.749,3.249-1.339-.86-7.561-7.576-9.505-9.636-.728.952-5,6.151-5.693,7.131-3.248,4.6-6.687,9.743-7.65,15.392a16.436,16.436,0,0,0,17.873,19.128c1.466-.15,17.963-7.638,25.02-11.678a208.387,208.387,0,0,1,20.83-10.42c.073,1.456.4,2.913,1.311,3.59,2.162,1.6,4.886.519,7.093-.952a4.074,4.074,0,0,0,2.119-3.286c3.46.086,3.184-2.422,3.184-2.422,5.26,4.54,8.752,4.67,8.348,1.578" transform="translate(-7993.538 -10331.208)" fill="#e0785e"/>
      <path id="Trazado_152062" data-name="Trazado 152062" d="M298.892,156.494c.316-5.351-3.248-10.824-8.869-11.187-3.75-.242-7.264,2.03-10.448,3.712-3.517,1.857-6.982,3.811-10.475,5.712-5.093,2.771-30.956,15.157-33.615,17.592-4.5,4.12-9.659,9.574-10.465,15.906-.759,5.97,3.122,11.066,8.686,12.9,6.658,2.189,13.356-.716,19.207-3.8,12.975-6.842,24.252-16.226,35.287-25.786,4.623-4.006,10.3-8.412,10.692-15.042" transform="translate(-8021.736 -10328.311)" fill="#e0785e"/>
      <path id="Trazado_152063" data-name="Trazado 152063" d="M167.329,260.3a70.849,70.849,0,0,0-4.778,16.456c-.082.506.692.724.775.214a70.133,70.133,0,0,1,4.7-16.263c.2-.471-.491-.881-.694-.406" transform="translate(-8009.512 -10350.807)" fill="#2b244a"/>
      <path id="Trazado_152064" data-name="Trazado 152064" d="M272.294,412.755c6.529,1.135,13.6.928,19.661-2a19.521,19.521,0,0,0,3.748-2.365c.4-.325-.17-.89-.569-.568-4.544,3.658-10.7,4.862-16.409,4.767a40.3,40.3,0,0,1-6.217-.605c-.507-.088-.724.687-.214.775" transform="translate(-8030.96 -10379.734)" fill="#2b244a"/>
      <path id="Trazado_152065" data-name="Trazado 152065" d="M168.354,177.326a18.815,18.815,0,0,1,3.838,6.765.4.4,0,0,0,.775-.213,19.762,19.762,0,0,0-4.044-7.12c-.331-.4-.9.173-.568.568" transform="translate(-8010.631 -10334.451)" fill="#2b244a"/>
      <path id="Trazado_152066" data-name="Trazado 152066" d="M172.182,174.125a13.078,13.078,0,0,1,3.838,6.765c.1.507.876.292.775-.214a13.829,13.829,0,0,0-4.044-7.12c-.369-.363-.938.2-.568.568" transform="translate(-8011.377 -10333.827)" fill="#2b244a"/>
      <path id="Trazado_152067" data-name="Trazado 152067" d="M160.668,186.916a51.093,51.093,0,0,1,4.568-2.89.4.4,0,0,0-.406-.695,51.28,51.28,0,0,0-4.568,2.891.413.413,0,0,0-.144.55.406.406,0,0,0,.55.144" transform="translate(-8009.026 -10335.754)" fill="#2b244a"/>
      <path id="Trazado_152068" data-name="Trazado 152068" d="M297.689,141.665s4.067-8.663,9.172-17.913c4.622-8.374,5.545-9.254,7.191-8.777,2.4.7-.179,9.626-.965,11.809a60.928,60.928,0,0,1,9.883-6.231c4.32-1.913,9.8-3.978,10.857-2.815,1.82,2-.5,3.551-.5,3.551s3.147.181,3.73,1.627a3.35,3.35,0,0,1-1.036,3.556c-.343.2-8.8,4.344-8.8,4.344s9.168-2.119,9.772-2.029a1.993,1.993,0,0,1,1.939,1.688c.214,2.037-9.7,8.015-12.492,10.057S315,153.856,308.274,160.284c0,0-8.879-13.321-10.585-18.619" transform="translate(-8035.994 -10322.351)" fill="#e0785e"/>
      <path id="Trazado_152069" data-name="Trazado 152069" d="M338.756,122.7c-3.884,3.266-7.639,6.682-11.522,9.948-.4.334.174.9.568.568,3.884-3.266,7.639-6.681,11.522-9.948.4-.334-.174-.9-.568-.568" transform="translate(-8041.756 -10323.865)" fill="#2b244a"/>
      <path id="Trazado_152070" data-name="Trazado 152070" d="M322.636,130.747a23.1,23.1,0,0,1,6.071,9.883c.15.494.927.283.775-.214a23.935,23.935,0,0,0-6.278-10.237c-.373-.359-.942.209-.568.568" transform="translate(-8040.858 -10325.327)" fill="#2b244a"/>
      <path id="Trazado_152071" data-name="Trazado 152071" d="M315.918,131.049a23.244,23.244,0,0,1-.99,13.535c-.187.483.59.692.775.214a24,24,0,0,0,.99-13.962c-.115-.5-.89-.291-.775.214" transform="translate(-8039.366 -10325.422)" fill="#2b244a"/>
      <path id="Trazado_152072" data-name="Trazado 152072" d="M328.991,138.008a54.391,54.391,0,0,1,5.181-3.08c.459-.239.053-.933-.406-.694a54.217,54.217,0,0,0-5.181,3.079c-.427.287-.025.983.406.694" transform="translate(-8042.012 -10326.136)" fill="#2b244a"/>
      <path id="Trazado_152073" data-name="Trazado 152073" d="M91.516,180.33q7.077-2.989,14.237-5.772c.477-.186.269-.963-.214-.775q-7.258,2.822-14.429,5.854c-.475.2-.065.893.406.694" transform="translate(-7995.473 -10333.889)" fill="#2b244a"/>
      <path id="Trazado_152074" data-name="Trazado 152074" d="M182.853,112.991c-1.131,2.312-3.91,7.429-5.644,6.868a57.4,57.4,0,0,1-8.433-5.843c3.391-.433,6.393-.753,8.586-.915a50.042,50.042,0,0,1,5.491-.11" transform="translate(-8010.733 -10321.977)" fill="#e0785e"/>
      <path id="Trazado_152075" data-name="Trazado 152075" d="M183.149,105.509l-.745,5.637-13.629.379,1.621-11.278Z" transform="translate(-8010.733 -10319.485)" fill="#e0785e"/>
      <path id="Trazado_152076" data-name="Trazado 152076" d="M152.424,410.878a59.93,59.93,0,0,0,18.592,1.7,51.163,51.163,0,0,0,5.468-.591c.51-.084.293-.858-.214-.775a59.937,59.937,0,0,1-19.128-.161,45.928,45.928,0,0,1-4.505-.947.4.4,0,0,0-.214.775" transform="translate(-8007.473 -10380.198)" fill="#2b244a"/>
      <path id="Trazado_152077" data-name="Trazado 152077" d="M178.852,80.086a7.425,7.425,0,1,0,7.425-7.425,7.425,7.425,0,0,0-7.425,7.425" transform="translate(-8012.708 -10314.079)" fill="#2b244a"/>
      <path id="Trazado_152078" data-name="Trazado 152078" d="M171.337,97.866a29.612,29.612,0,0,0,13.7,5.518c5.94.8,7.748-3.826,7.432-5.841a129.506,129.506,0,0,0-3.945-15.419c-2-6.087-4.343-8.854-12.046-9.4s-14.323,2.232-14.035,10.227,6.659,13.253,8.892,14.914" transform="translate(-8009.491 -10314.079)" fill="#e0785e"/>
      <path id="Trazado_152079" data-name="Trazado 152079" d="M184.867,69.752a5.73,5.73,0,0,0-2.93.8,11.152,11.152,0,0,0-7.285-2.492c-4.06,0-7.516,1.868-8.886,4.492l-.015.01a.482.482,0,0,0-.08.083,7.262,7.262,0,0,0-6.665,4.163,8.13,8.13,0,0,0,1.25,8.582,8.532,8.532,0,0,0,1.27,1.192,28.831,28.831,0,0,0,3.428,6.794,13.974,13.974,0,0,0,2.7,2.812c.736.566,2.78,2.078,3.9,1.508a6.212,6.212,0,0,0,3.329-4.131,12.556,12.556,0,0,0,.393-8.049c3.654.62,7.585-2.205,9.015-5.786.189.018.38.029.575.029a5.018,5.018,0,1,0,0-10" transform="translate(-8008.681 -10313.177)" fill="#2b244a"/>
      <path id="Trazado_152080" data-name="Trazado 152080" d="M162.26,90.173a3.476,3.476,0,0,0,2.3,2.3,4.091,4.091,0,0,0,3.658-.821c.471-.347,1.055-.86,1.68-.638.314.111.591.326.9.452a3.406,3.406,0,0,0,.839.221,3.76,3.76,0,0,0,3.153-1.045c.369-.363-.2-.932-.568-.568a2.95,2.95,0,0,1-2.893.731,14.464,14.464,0,0,0-1.437-.62,2,2,0,0,0-1.323.261c-.449.241-.824.593-1.253.864a3.2,3.2,0,0,1-1.757.511,2.665,2.665,0,0,1-2.521-1.864c-.15-.494-.927-.283-.775.214" transform="translate(-8009.452 -10317.414)" fill="#8c75b5"/>
      <path id="Trazado_152081" data-name="Trazado 152081" d="M167.244,76.27a3.507,3.507,0,0,0,5.254,2.664,3.876,3.876,0,0,0,.659-.514c.231-.218.476-.548.806-.6s.788.22,1.143.271a3.106,3.106,0,0,0,.864,0,6,6,0,0,0,3.5-2.371c.339-.389-.228-.96-.568-.568a5.43,5.43,0,0,1-2.981,2.14,2.28,2.28,0,0,1-.918-.03,5.105,5.105,0,0,0-.867-.244,1.649,1.649,0,0,0-1.228.531,3.905,3.905,0,0,1-1.248.909,2.753,2.753,0,0,1-1.6.107,2.72,2.72,0,0,1-2.009-2.288c-.062-.507-.867-.513-.8,0" transform="translate(-8010.432 -10314.54)" fill="#8c75b5"/>
      <path id="Trazado_152082" data-name="Trazado 152082" d="M185.519,80.717a3.631,3.631,0,0,0,3.863,1.567c.5-.121.289-.9-.214-.775a2.811,2.811,0,0,1-2.955-1.2c-.276-.436-.972-.033-.695.406" transform="translate(-8014.001 -10315.542)" fill="#8c75b5"/>
      <path id="Trazado_152083" data-name="Trazado 152083" d="M170.244,101.845l-.523,3.642s7.468.713,7.192-6.48-6.669,2.837-6.669,2.837" transform="translate(-8010.918 -10318.733)" fill="#2b244a"/>
      <path id="Trazado_152084" data-name="Trazado 152084" d="M195.74,89.065s2.328,1.84,3.516,2.955c.678.636.568,1.2.222,1.582a23.7,23.7,0,0,1-1.973,1.8l-2.971-1.941Z" transform="translate(-8015.78 -10317.294)" fill="#e0785e"/>
      <path id="Trazado_152085" data-name="Trazado 152085" d="M183.426,94a4.563,4.563,0,1,1-4.563-4.563A4.563,4.563,0,0,1,183.426,94" transform="translate(-8011.815 -10317.367)" fill="#e0785e"/>
      <path id="Trazado_152086" data-name="Trazado 152086" d="M192.867,89.923a.983.983,0,0,0-.9-.265.928.928,0,0,0-.613.838,3.216,3.216,0,0,0,.133,1.143,2.053,2.053,0,0,0,.675,1.148.862.862,0,0,0,1.349-.671,2.85,2.85,0,0,0-.64-2.193" transform="translate(-8015.154 -10317.404)" fill="#2b244a"/>
      <path id="Trazado_152087" data-name="Trazado 152087" d="M193.367,87.092c-.109,1.39-1.407.719-2.74,1.489-1.225.708-2.144.806-2.324.064-.218-.9.794-2.274,2.672-2.757,1.759-.453,2.472.19,2.393,1.2" transform="translate(-8014.553 -10316.643)" fill="#2b244a"/>
      <path id="Trazado_152088" data-name="Trazado 152088" d="M197.788,98.327c-1.726.566-3.536,1.151-3.769,1.244a6.823,6.823,0,0,0,4.261.993c-.14-.659-.306-1.411-.492-2.237" transform="translate(-8015.679 -10319.109)" fill="#fff"/>
      <path id="Trazado_152089" data-name="Trazado 152089" d="M179.855,107.622a33.991,33.991,0,0,0,4.507,2.2.4.4,0,0,0,.494-.281.412.412,0,0,0-.281-.494,32.6,32.6,0,0,1-4.315-2.12.4.4,0,0,0-.406.694" transform="translate(-8012.866 -10320.782)" fill="#2b244a"/>
      <path id="Trazado_152090" data-name="Trazado 152090" d="M178.382,92.215a3.171,3.171,0,0,0-1.323,2.258,3.118,3.118,0,0,0,.909,2.477.4.4,0,0,0,.569-.568,2.3,2.3,0,0,1,.252-3.473.413.413,0,0,0,.144-.55.4.4,0,0,0-.55-.144" transform="translate(-8012.353 -10317.899)" fill="#2b244a"/>
      <path id="Trazado_152091" data-name="Trazado 152091" d="M275.794,417.967a64.4,64.4,0,0,0,.377,19.485h48.914s.278-9.409-5.579-12.39c-3.057-1.557-14.42-5.009-15.845-6.617a19.788,19.788,0,0,1-3.99-4.152c-3.157-4.8-7.146-3.092-8.709,1.1a29.869,29.869,0,0,1-15.168,2.571" transform="translate(-8031.597 -10380.453)" fill="#f5e3d9"/>
      <path id="Trazado_152092" data-name="Trazado 152092" d="M276.094,438.719H324.43a.389.389,0,0,0,0-.778H276.094a.389.389,0,0,0,0,.778" transform="translate(-8031.688 -10385.656)" fill="#2e1616"/>
      <path id="Trazado_152093" data-name="Trazado 152093" d="M316.554,436.022a15.74,15.74,0,0,1,1.743-5.469,9.207,9.207,0,0,1,4.49-3.736c.464-.175.263-.928-.207-.751a10.132,10.132,0,0,0-4.8,3.844,15.541,15.541,0,0,0-1.981,5.906c-.091.49.659.7.751.207" transform="translate(-8039.542 -10383.324)" fill="#2e1616"/>
      <path id="Trazado_152094" data-name="Trazado 152094" d="M294.526,416.885a25.813,25.813,0,0,0,5.885,6.015,37.735,37.735,0,0,0,8.018,4.174c1.635.667,3.286,1.29,4.926,1.943.466.185.668-.568.207-.751-5.4-2.151-11.041-4.044-15.3-8.181a25.726,25.726,0,0,1-3.059-3.593c-.288-.405-.963-.017-.672.393" transform="translate(-8035.359 -10381.42)" fill="#2e1616"/>
      <path id="Trazado_152095" data-name="Trazado 152095" d="M311.582,427.9c.574-.746,1.234-1.487,1.883-2.192s1.332-1.426,2.057-2.076c.373-.335-.178-.884-.551-.55-.741.664-1.43,1.391-2.1,2.124s-1.345,1.5-1.959,2.3a.392.392,0,0,0,.14.533.4.4,0,0,0,.532-.14" transform="translate(-8038.573 -10382.724)" fill="#2e1616"/>
      <path id="Trazado_152096" data-name="Trazado 152096" d="M306.2,425.144a24.931,24.931,0,0,1,1.908-2.168,17.528,17.528,0,0,1,2.083-1.733.4.4,0,0,0,.139-.532.392.392,0,0,0-.532-.14,18.848,18.848,0,0,0-2.2,1.815,24.436,24.436,0,0,0-1.95,2.208.4.4,0,0,0,0,.551.393.393,0,0,0,.551,0" transform="translate(-8037.531 -10382.241)" fill="#2e1616"/>
      <path id="Trazado_152097" data-name="Trazado 152097" d="M300.483,421.444a22.676,22.676,0,0,1,2.577-2,18.183,18.183,0,0,1,2.824-1.646.393.393,0,0,0,.14-.533.4.4,0,0,0-.532-.139,18.411,18.411,0,0,0-2.894,1.693,23.884,23.884,0,0,0-2.665,2.071c-.37.339.182.889.551.55" transform="translate(-8036.409 -10381.569)" fill="#2e1616"/>
      <path id="Trazado_152098" data-name="Trazado 152098" d="M154.1,416.564a67.565,67.565,0,0,0,.023,20.889h48.914s.278-9.408-5.579-12.39c-3.057-1.557-14.42-5.009-15.845-6.617a19.8,19.8,0,0,1-3.99-4.151c-3.157-4.8-7.146-3.092-8.71,1.1a40.332,40.332,0,0,1-14.814,1.167" transform="translate(-8007.702 -10380.453)" fill="#f5e3d9"/>
      <path id="Trazado_152099" data-name="Trazado 152099" d="M154.019,438.719h48.335a.389.389,0,0,0,0-.778H154.019a.389.389,0,0,0,0,.778" transform="translate(-8007.768 -10385.656)" fill="#2e1616"/>
      <path id="Trazado_152100" data-name="Trazado 152100" d="M194.479,436.022a15.741,15.741,0,0,1,1.743-5.469,9.207,9.207,0,0,1,4.49-3.736c.464-.175.263-.928-.207-.751a10.132,10.132,0,0,0-4.8,3.844,15.54,15.54,0,0,0-1.981,5.906c-.091.49.659.7.751.207" transform="translate(-8015.621 -10383.324)" fill="#2e1616"/>
      <path id="Trazado_152101" data-name="Trazado 152101" d="M172.451,416.885a25.815,25.815,0,0,0,5.885,6.015,37.737,37.737,0,0,0,8.018,4.174c1.635.667,3.286,1.29,4.926,1.943.466.185.668-.568.207-.751-5.4-2.151-11.041-4.044-15.3-8.181a25.776,25.776,0,0,1-3.059-3.593c-.288-.405-.963-.017-.672.393" transform="translate(-8011.439 -10381.42)" fill="#2e1616"/>
      <path id="Trazado_152102" data-name="Trazado 152102" d="M189.507,427.9c.574-.746,1.234-1.487,1.883-2.192s1.332-1.426,2.057-2.076c.373-.335-.179-.884-.551-.55-.741.664-1.43,1.391-2.1,2.124s-1.345,1.5-1.959,2.3a.392.392,0,0,0,.14.533.4.4,0,0,0,.532-.14" transform="translate(-8014.652 -10382.724)" fill="#2e1616"/>
      <path id="Trazado_152103" data-name="Trazado 152103" d="M184.12,425.144a24.81,24.81,0,0,1,1.909-2.168,17.455,17.455,0,0,1,2.082-1.733.4.4,0,0,0,.139-.532.392.392,0,0,0-.532-.14,18.856,18.856,0,0,0-2.2,1.815,24.431,24.431,0,0,0-1.949,2.208.4.4,0,0,0,0,.551.392.392,0,0,0,.55,0" transform="translate(-8013.61 -10382.241)" fill="#2e1616"/>
      <path id="Trazado_152104" data-name="Trazado 152104" d="M178.408,421.444a22.68,22.68,0,0,1,2.577-2,18.183,18.183,0,0,1,2.824-1.646.393.393,0,0,0,.14-.533.4.4,0,0,0-.532-.139,18.377,18.377,0,0,0-2.894,1.693,23.885,23.885,0,0,0-2.665,2.071c-.37.339.182.889.551.55" transform="translate(-8012.489 -10381.569)" fill="#2e1616"/>
      <path id="Trazado_152105" data-name="Trazado 152105" d="M72.251,218.491,30.4,399.654h3.361L79.277,220.9Z" transform="translate(-7983.618 -10342.655)" fill="#d9a389"/>
      <path id="Trazado_152106" data-name="Trazado 152106" d="M131.925,218.491l41.854,181.163h-3.361L124.9,220.9Z" transform="translate(-8002.135 -10342.655)" fill="#d9a389"/>
      <path id="Trazado_152107" data-name="Trazado 152107" d="M129.705,239.111h6.473a.4.4,0,0,0,0-.8h-6.473a.4.4,0,0,0,0,.8" transform="translate(-8003.001 -10346.537)" fill="#2b244a"/>
      <path id="Trazado_152108" data-name="Trazado 152108" d="M78.285,239.111h6.473a.4.4,0,0,0,0-.8H78.285a.4.4,0,0,0,0,.8" transform="translate(-7992.925 -10346.537)" fill="#2b244a"/>
      <path id="Trazado_152109" data-name="Trazado 152109" d="M303.646,215.765H41.6a2,2,0,0,1-2-2v-.56a2,2,0,0,1,2-2H303.646a2,2,0,0,1,2,2v.56a2,2,0,0,1-2,2" transform="translate(-7985.421 -10341.228)" fill="#d9a389"/>
      <rect id="Rectángulo_35059" data-name="Rectángulo 35059" width="213.077" height="17.158" transform="translate(-7915.031 -10125.462)" fill="#d9a389"/>
      <path id="Trazado_152110" data-name="Trazado 152110" d="M138.154,234.446v-17.5a.4.4,0,0,0-.8,0v17.5a.4.4,0,0,0,.8,0" transform="translate(-8004.575 -10342.274)" fill="#2b244a"/>
      <path id="Trazado_152111" data-name="Trazado 152111" d="M334.492,239.111h6.473a.4.4,0,0,0,0-.8h-6.473a.4.4,0,0,0,0,.8" transform="translate(-8043.129 -10346.537)" fill="#2b244a"/>
      <path id="Trazado_152112" data-name="Trazado 152112" d="M283.071,239.111h6.473a.4.4,0,0,0,0-.8h-6.473a.4.4,0,0,0,0,.8" transform="translate(-8033.053 -10346.537)" fill="#2b244a"/>
      <path id="Trazado_152113" data-name="Trazado 152113" d="M78.324,217.18H290.566a.4.4,0,0,0,0-.8H78.324a.4.4,0,0,0,0,.8" transform="translate(-7992.933 -10342.24)" fill="#2b244a"/>
      <rect id="Rectángulo_35060" data-name="Rectángulo 35060" width="106.741" height="4.557" transform="translate(-7944.159 -9975.816)" fill="#d9a389"/>
      <path id="Trazado_152114" data-name="Trazado 152114" d="M164.194,211.841a3.419,3.419,0,0,1-.059,2.972.412.412,0,0,0,.145.55.406.406,0,0,0,.55-.145,4.279,4.279,0,0,0,.058-3.783.405.405,0,0,0-.55-.144.411.411,0,0,0-.144.55" transform="translate(-8009.814 -10341.234)" fill="#2b244a"/>
      <path id="Trazado_152115" data-name="Trazado 152115" d="M261.82,142.35H197.978a1.834,1.834,0,0,0-1.7,1.147l-21.886,54.219h67.8L263.52,144.87a1.833,1.833,0,0,0-1.7-2.52" transform="translate(-8011.833 -10327.735)" fill="#31313c"/>
      <path id="Trazado_152116" data-name="Trazado 152116" d="M184.474,207.491H142.232a1.962,1.962,0,0,0-1.962,1.962v1.028h44.2Z" transform="translate(-8005.147 -10340.5)" fill="#31313c"/>
      <path id="Trazado_152117" data-name="Trazado 152117" d="M179.814,195.991l8.293-20.58q4.372-10.851,8.746-21.7l2.23-5.534q.534-1.327,1.069-2.654a4.3,4.3,0,0,1,2.118-2.45c.466-.224.059-.918-.406-.695a4.767,4.767,0,0,0-2.025,1.885,18.011,18.011,0,0,0-.978,2.325l-2.016,5-4.279,10.62q-4.479,11.115-8.958,22.23-2.286,5.67-4.569,11.34c-.194.48.584.688.775.214" transform="translate(-8012.738 -10327.731)" fill="#12263f"/>
      <path id="Trazado_152118" data-name="Trazado 152118" d="M176.5,207.394a2.78,2.78,0,0,1,.471.109,1.79,1.79,0,0,1,.388.168,2.688,2.688,0,0,1,.742.571c.056.059.11.121.162.184l.039.047c-.018-.023-.019-.023,0,0s.047.067.071.1a3.165,3.165,0,0,1,.24.414,2.226,2.226,0,0,1,.137.38c.019.074.036.149.049.225,0,.018.006.038.009.056q-.007-.057,0-.012c0,.043.007.088.01.132a.411.411,0,0,0,.4.4.406.406,0,0,0,.4-.4,3.511,3.511,0,0,0-2.9-3.148.416.416,0,0,0-.494.281.4.4,0,0,0,.281.495" transform="translate(-8012.188 -10340.327)" fill="#12263f"/>
      <path id="Trazado_152119" data-name="Trazado 152119" d="M232.1,181.286a4.258,4.258,0,0,1-3.612-1.685,4.808,4.808,0,0,1-.383-4.407,9.069,9.069,0,0,1,7.877-5.826,4.261,4.261,0,0,1,3.613,1.684,4.808,4.808,0,0,1,.383,4.407,9.069,9.069,0,0,1-7.878,5.826m3.883-11.114a8.209,8.209,0,0,0-7.118,5.287,3.971,3.971,0,0,0,.279,3.676,3.482,3.482,0,0,0,2.956,1.346,8.207,8.207,0,0,0,7.118-5.287,3.968,3.968,0,0,0-.279-3.676,3.481,3.481,0,0,0-2.956-1.346" transform="translate(-8022.291 -10333.029)" fill="#12263f"/>
      <path id="Trazado_152120" data-name="Trazado 152120" d="M290.378,190.86h0a1.352,1.352,0,0,1-1.352-1.352V166.628a1.352,1.352,0,1,1,2.7,0v22.881a1.351,1.351,0,0,1-1.352,1.352" transform="translate(-8034.296 -10332.228)" fill="#ffeae0"/>
      <path id="Trazado_152121" data-name="Trazado 152121" d="M296.353,184.958h0a1.352,1.352,0,0,1-1.165-1.515l3.394-25.972a1.351,1.351,0,0,1,2.68.351l-3.394,25.972a1.351,1.351,0,0,1-1.515,1.165" transform="translate(-8035.501 -10330.468)" fill="#ffeae0"/>
      <path id="Trazado_152122" data-name="Trazado 152122" d="M299.219,188.89h0a1.352,1.352,0,0,1-1.028-1.611l4.94-22.341a1.351,1.351,0,0,1,2.639.583l-4.94,22.342a1.352,1.352,0,0,1-1.611,1.028" transform="translate(-8036.086 -10331.953)" fill="#ffeae0"/>
      <path id="Trazado_152123" data-name="Trazado 152123" d="M286.493,183.642l1.332,22.036h11.9l1.332-22.036a.623.623,0,0,0-.622-.661H287.115a.623.623,0,0,0-.622.661" transform="translate(-8033.799 -10335.697)" fill="#785549"/>
      <g id="Grupo_1070684" data-name="Grupo 1070684" transform="translate(31.841)">
        <path id="Trazado_152124" data-name="Trazado 152124" d="M64.916,359.1q-1.022,10.156-2.147,20.3c-.671,6.1-1.355,12.193-2.007,18.291q-.645,6.041-1.254,12.085c-.051.515.753.511.8,0q1.022-10.156,2.147-20.3c.671-6.1,1.355-12.193,2.007-18.291q.646-6.041,1.254-12.085c.051-.515-.753-.511-.8,0" transform="translate(-7989.322 -10370.132)" fill="#2b244a"/>
        <path id="Trazado_152125" data-name="Trazado 152125" d="M51.177,439.48c1.884-.024,3.166-1.59,3.988-3.12a28.3,28.3,0,0,0,2.519-8.1c.389-2.03.678-4.079.92-6.132.06-.513-.745-.508-.8,0a64.319,64.319,0,0,1-1.722,9.545c-.564,2.051-1.272,4.393-2.784,5.967a3,3,0,0,1-2.116,1.031.4.4,0,0,0,0,.8" transform="translate(-7987.614 -10382.483)" fill="#2b244a"/>
        <path id="Trazado_152126" data-name="Trazado 152126" d="M44.259,442.8H15.87a.4.4,0,0,0,0,.8H44.259a.4.4,0,0,0,0-.8" transform="translate(-7980.695 -10386.608)" fill="#2b244a"/>
        <path id="Trazado_152127" data-name="Trazado 152127" d="M53.661,358.7H.408a.4.4,0,0,0,0,.8H53.661a.4.4,0,0,0,0-.8" transform="translate(-7977.666 -10370.128)" fill="#2b244a"/>
        <path id="Trazado_152128" data-name="Trazado 152128" d="M0,359.1q1.022,10.156,2.147,20.3C2.821,385.5,3.5,391.6,4.156,397.7q.645,6.041,1.254,12.085c.051.51.856.515.8,0q-1.022-10.156-2.147-20.3c-.671-6.1-1.355-12.193-2.007-18.291Q1.414,365.148.806,359.1c-.051-.51-.856-.515-.8,0" transform="translate(-7977.662 -10370.132)" fill="#2b244a"/>
        <path id="Trazado_152129" data-name="Trazado 152129" d="M14.154,438.676c-1.693-.022-2.764-1.662-3.445-3.013a29.148,29.148,0,0,1-2.3-7.693c-.367-1.933-.646-3.882-.876-5.837-.06-.507-.864-.514-.8,0A63.4,63.4,0,0,0,8.6,432.306c.612,2.123,1.415,4.568,3.085,6.115a3.7,3.7,0,0,0,2.474,1.06.4.4,0,0,0,0-.8" transform="translate(-7978.979 -10382.483)" fill="#2b244a"/>
        <path id="Trazado_152130" data-name="Trazado 152130" d="M33.118,359.1v67.623a.4.4,0,0,0,.8,0V359.1a.4.4,0,0,0-.8,0" transform="translate(-7984.151 -10370.132)" fill="#2b244a"/>
        <path id="Trazado_152131" data-name="Trazado 152131" d="M16.15,359.1q.85,12.961,1.7,25.921.911,13.877,1.82,27.755.456,6.942.91,13.884c.034.514.839.517.8,0q-.849-12.961-1.7-25.921-.909-13.877-1.82-27.755-.456-6.942-.911-13.884c-.034-.514-.838-.518-.8,0" transform="translate(-7980.826 -10370.132)" fill="#2b244a"/>
        <path id="Trazado_152132" data-name="Trazado 152132" d="M49.007,359.1q-.85,12.961-1.7,25.921Q46.4,398.9,45.487,412.78q-.455,6.942-.91,13.884c-.035.516.77.515.8,0q.849-12.961,1.7-25.921.909-13.877,1.82-27.755.455-6.942.91-13.884c.034-.517-.77-.515-.8,0" transform="translate(-7986.396 -10370.132)" fill="#2b244a"/>
        <path id="Trazado_152133" data-name="Trazado 152133" d="M8.735,432.223H48.613a.4.4,0,0,0,0-.8H8.735a.4.4,0,0,0,0,.8" transform="translate(-7979.297 -10384.378)" fill="#2b244a"/>
      </g>
      <path id="Trazado_152134" data-name="Trazado 152134" d="M349.46,288.307H300.377a6.141,6.141,0,0,1-6.141-6.141V214.229a6.141,6.141,0,0,1,6.141-6.141h31.128l24.1,24.835v49.243a6.141,6.141,0,0,1-6.141,6.141" transform="translate(-8035.317 -10340.616)" fill="#ececec"/>
      <path id="Trazado_152135" data-name="Trazado 152135" d="M340.588,208.088v19.12a5.712,5.712,0,0,0,5.711,5.712l18.385,0Z" transform="translate(-8044.4 -10340.616)" fill="#f5f5f5"/>
      <path id="Trazado_152136" data-name="Trazado 152136" d="M340.9,233.954s-.242,4.637,5.037,6.161a5.708,5.708,0,0,0,.6.137c2.4.429,18.2,3.24,18.2,2.877v-5.138H346.36s-4.59-.157-5.46-4.037" transform="translate(-8044.46 -10345.685)" fill="#e1e1e1"/>
      <path id="Trazado_152137" data-name="Trazado 152137" d="M349.408,288.256c0-.029.368.008,1.06-.125a6.146,6.146,0,0,0,2.785-1.3,6.068,6.068,0,0,0,2.2-4.331c.031-1.981,0-4.28,0-6.846-.018-10.286-.043-25-.074-42.784l.049.122L331.31,208.176l.144.061-17.963.006-9.4,0h-2.384a15.717,15.717,0,0,0-2.357.086,5.937,5.937,0,0,0-3.853,2.4,5.854,5.854,0,0,0-1.086,3.02c-.043,1.089-.012,2.226-.022,3.331q0,3.337,0,6.627,0,6.58,0,12.956c0,8.494-.009,16.687-.012,24.492q0,5.853-.009,11.4,0,2.774-.006,5.464,0,1.345,0,2.669a14.076,14.076,0,0,0,.113,2.583,5.988,5.988,0,0,0,2.78,3.949,5.919,5.919,0,0,0,2.265.8,22.745,22.745,0,0,0,2.415.064l9.264.014,27.958.067,7.6.039,1.976.021c.446.007.674.022.674.022s-.228.014-.674.022l-1.976.021-7.6.039L311.2,288.4l-9.264.014a22.878,22.878,0,0,1-2.46-.061,6.247,6.247,0,0,1-2.394-.839,6.327,6.327,0,0,1-2.948-4.168,14.415,14.415,0,0,1-.125-2.651q0-1.324,0-2.669,0-2.691,0-5.464,0-5.546-.009-11.4c0-7.8-.008-16-.012-24.492q0-6.37,0-12.956,0-3.29,0-6.627c.01-1.118-.023-2.213.022-3.361a6.274,6.274,0,0,1,1.163-3.234,6.355,6.355,0,0,1,4.126-2.572,15.867,15.867,0,0,1,2.426-.092H304.1l9.4,0,17.963.006h.085l.059.061,24.077,24.853.05.051v.07c-.031,17.781-.055,32.5-.074,42.784-.016,2.57,0,4.855-.043,6.855a6.175,6.175,0,0,1-2.287,4.4,6.1,6.1,0,0,1-2.842,1.27,4.662,4.662,0,0,1-.8.072c-.18,0-.271,0-.271,0" transform="translate(-8035.265 -10340.565)" fill="#1a2e35"/>
      <path id="Trazado_152138" data-name="Trazado 152138" d="M364.633,232.923a2.037,2.037,0,0,1-.472.042l-1.354.039-4.98.066-7.386.043-4.367,0a5.926,5.926,0,0,1-5.472-4.13,6.854,6.854,0,0,1-.269-2.345c0-1.511.008-2.97.012-4.362.017-2.767.032-5.267.045-7.387.027-2.06.05-3.747.067-4.979.015-.55.029-1,.039-1.354a2,2,0,0,1,.043-.472,2.035,2.035,0,0,1,.042.472c.01.355.023.8.039,1.354.017,1.233.039,2.919.067,4.979.013,2.12.028,4.62.045,7.387,0,1.392.008,2.851.012,4.362A6.457,6.457,0,0,0,341,228.86a5.534,5.534,0,0,0,5.087,3.846l4.355.021,7.386.047,4.98.067,1.354.039a2,2,0,0,1,.472.043" transform="translate(-8044.348 -10340.616)" fill="#1a2e35"/>
      <path id="Trazado_152139" data-name="Trazado 152139" d="M333.124,229.256c0,.116-5.8.209-12.948.209s-12.948-.093-12.948-.209,5.8-.209,12.948-.209,12.948.093,12.948.209" transform="translate(-8037.863 -10344.724)" fill="#1a2e35"/>
      <path id="Trazado_152140" data-name="Trazado 152140" d="M345.41,241.119c0,.116-8.548.209-19.091.209s-19.092-.093-19.092-.209,8.546-.209,19.092-.209,19.091.093,19.091.209" transform="translate(-8037.862 -10347.048)" fill="#1a2e35"/>
      <path id="Trazado_152141" data-name="Trazado 152141" d="M345.41,252.981c0,.116-8.548.209-19.091.209s-19.092-.093-19.092-.209,8.546-.209,19.092-.209,19.091.093,19.091.209" transform="translate(-8037.862 -10349.373)" fill="#1a2e35"/>
      <path id="Trazado_152142" data-name="Trazado 152142" d="M345.41,264.844c0,.116-8.548.209-19.091.209s-19.092-.093-19.092-.209,8.546-.209,19.092-.209,19.091.093,19.091.209" transform="translate(-8037.862 -10351.696)" fill="#1a2e35"/>
      <path id="Trazado_152143" data-name="Trazado 152143" d="M345.41,276.706c0,.116-8.548.209-19.091.21s-19.092-.094-19.092-.21,8.546-.209,19.092-.209,19.091.093,19.091.209" transform="translate(-8037.862 -10354.021)" fill="#1a2e35"/>
      <path id="Trazado_152144" data-name="Trazado 152144" d="M345.41,288.569c0,.116-8.548.209-19.091.209s-19.092-.093-19.092-.209,8.546-.209,19.092-.209,19.091.093,19.091.209" transform="translate(-8037.862 -10356.346)" fill="#1a2e35"/>
      <g id="Grupo_1070081" data-name="Grupo 1070081" transform="translate(-7790.949 -10273.46)">
        <path id="Trazado_152149" data-name="Trazado 152149" d="M283.814,78.121H239.3a5.569,5.569,0,0,1-5.57-5.57V10.935a5.57,5.57,0,0,1,5.569-5.57H267.53l21.854,22.524V72.551a5.57,5.57,0,0,1-5.57,5.57" transform="translate(-233.535 -5.173)" fill="#ececec"/>
        <path id="Trazado_152150" data-name="Trazado 152150" d="M280.08,5.364V22.705a5.18,5.18,0,0,0,5.18,5.181l16.674,0Z" transform="translate(-246.085 -5.173)" fill="#f5f5f5"/>
        <path id="Trazado_152151" data-name="Trazado 152151" d="M280.391,31.231a5.759,5.759,0,0,0,4.569,5.588,5.224,5.224,0,0,0,.548.124c2.177.389,16.509,2.938,16.509,2.609v-4.66H285.344s-4.163-.142-4.952-3.662" transform="translate(-246.169 -12.177)" fill="#e1e1e1"/>
        <path id="Trazado_152152" data-name="Trazado 152152" d="M283.743,78.05c0-.026.334.007.962-.113a5.586,5.586,0,0,0,2.526-1.178,5.506,5.506,0,0,0,1.994-3.928c.028-1.8,0-3.881,0-6.209-.016-9.329-.039-22.677-.067-38.8l.044.111L267.328,5.42l.131.055-16.291.006H240.484a14.258,14.258,0,0,0-2.138.078,5.385,5.385,0,0,0-3.495,2.18,5.309,5.309,0,0,0-.985,2.739c-.039.987-.011,2.019-.02,3.022q0,3.026,0,6.01,0,5.968,0,11.75c0,7.7-.008,15.135-.011,22.213q0,5.309-.008,10.344,0,2.515-.005,4.955,0,1.22,0,2.42a12.762,12.762,0,0,0,.1,2.343,5.431,5.431,0,0,0,2.521,3.581,5.368,5.368,0,0,0,2.054.725,20.616,20.616,0,0,0,2.191.058l8.4.012,25.358.061,6.894.036,1.792.018c.4.007.611.02.611.02s-.207.013-.611.02l-1.792.019-6.894.035-25.358.061-8.4.012a20.759,20.759,0,0,1-2.231-.055,5.666,5.666,0,0,1-2.171-.761,5.736,5.736,0,0,1-2.673-3.78,13.074,13.074,0,0,1-.114-2.4q0-1.2,0-2.42,0-2.44,0-4.955,0-5.031-.008-10.344c0-7.079-.007-14.51-.011-22.213q0-5.778,0-11.75,0-2.984,0-6.01c.009-1.014-.021-2.008.02-3.049a5.7,5.7,0,0,1,1.055-2.933,5.764,5.764,0,0,1,3.742-2.333,14.392,14.392,0,0,1,2.2-.083h10.684l16.291.006h.077l.053.055,21.837,22.541.045.047v.063c-.028,16.127-.051,29.475-.067,38.8-.015,2.331,0,4.4-.039,6.218a5.6,5.6,0,0,1-2.074,3.994,5.534,5.534,0,0,1-2.578,1.151,4.158,4.158,0,0,1-.725.065c-.163,0-.246,0-.246,0" transform="translate(-233.465 -5.102)" fill="#1a2e35"/>
        <path id="Trazado_152153" data-name="Trazado 152153" d="M301.863,27.889a1.847,1.847,0,0,1-.428.038l-1.228.036-4.517.06-6.7.039-3.961,0a5.374,5.374,0,0,1-4.963-3.747,6.211,6.211,0,0,1-.244-2.126c0-1.37.007-2.694.011-3.956.015-2.509.029-4.777.041-6.7.025-1.868.045-3.4.061-4.516.014-.5.026-.906.035-1.228a1.817,1.817,0,0,1,.039-.428,1.851,1.851,0,0,1,.038.428c.009.322.021.729.036,1.228.015,1.118.036,2.648.061,4.516.012,1.923.026,4.19.041,6.7,0,1.262.007,2.586.011,3.956a5.859,5.859,0,0,0,.233,2.013,5.019,5.019,0,0,0,4.614,3.488l3.95.019,6.7.042,4.517.061,1.228.036a1.847,1.847,0,0,1,.428.038" transform="translate(-246.015 -5.173)" fill="#1a2e35"/>
        <path id="Trazado_152154" data-name="Trazado 152154" d="M270.207,26.514c0,.105-5.259.19-11.744.19s-11.743-.085-11.743-.19,5.257-.19,11.743-.19,11.744.085,11.744.19" transform="translate(-237.053 -10.848)" fill="#1a2e35"/>
        <path id="Trazado_152155" data-name="Trazado 152155" d="M281.35,38.376c0,.105-7.753.19-17.315.19s-17.316-.085-17.316-.19,7.751-.19,17.316-.19,17.315.085,17.315.19" transform="translate(-237.053 -14.06)" fill="#1a2e35"/>
        <path id="Trazado_152156" data-name="Trazado 152156" d="M281.35,50.239c0,.105-7.753.19-17.315.19s-17.316-.085-17.316-.19,7.751-.19,17.316-.19,17.315.085,17.315.19" transform="translate(-237.053 -17.272)" fill="#1a2e35"/>
        <path id="Trazado_152157" data-name="Trazado 152157" d="M281.35,62.1c0,.105-7.753.19-17.315.19s-17.316-.085-17.316-.19,7.751-.19,17.316-.19,17.315.085,17.315.19" transform="translate(-237.053 -20.483)" fill="#1a2e35"/>
        <path id="Trazado_152158" data-name="Trazado 152158" d="M281.35,73.964c0,.105-7.753.19-17.315.19s-17.316-.085-17.316-.19,7.751-.19,17.316-.19,17.315.085,17.315.19" transform="translate(-237.053 -23.696)" fill="#1a2e35"/>
        <path id="Trazado_152159" data-name="Trazado 152159" d="M281.35,85.826c0,.105-7.753.19-17.315.19s-17.316-.085-17.316-.19,7.751-.19,17.316-.19,17.315.085,17.315.19" transform="translate(-237.053 -26.907)" fill="#1a2e35"/>
      </g>
      <path id="Trazado_152164" data-name="Trazado 152164" d="M84.593,172.7H35.51a6.141,6.141,0,0,1-6.141-6.141V98.617a6.141,6.141,0,0,1,6.141-6.141H66.638l24.1,24.835v49.243a6.141,6.141,0,0,1-6.141,6.141" transform="translate(-7983.416 -10317.963)" fill="#ececec"/>
      <path id="Trazado_152165" data-name="Trazado 152165" d="M75.721,92.476V111.6a5.712,5.712,0,0,0,5.711,5.712l18.385,0Z" transform="translate(-7992.499 -10317.963)" fill="#f5f5f5"/>
      <path id="Trazado_152166" data-name="Trazado 152166" d="M76.033,118.343s-.242,4.637,5.037,6.161a5.721,5.721,0,0,0,.6.137c2.4.429,18.2,3.24,18.2,2.877V122.38H81.493s-4.59-.157-5.46-4.037" transform="translate(-7992.56 -10323.031)" fill="#e1e1e1"/>
      <path id="Trazado_152167" data-name="Trazado 152167" d="M84.541,172.644c0-.029.368.008,1.061-.125a6.146,6.146,0,0,0,2.785-1.3,6.068,6.068,0,0,0,2.2-4.331c.031-1.981,0-4.28,0-6.846-.018-10.286-.043-25-.074-42.784l.049.123c-7.3-7.509-15.431-15.882-24.114-24.818l.144.06-17.962.006-9.4,0H36.845a15.718,15.718,0,0,0-2.357.087,5.933,5.933,0,0,0-3.853,2.4,5.854,5.854,0,0,0-1.086,3.021c-.043,1.089-.012,2.226-.022,3.331q0,3.337,0,6.626,0,6.582,0,12.956c0,8.494-.009,16.687-.012,24.492q0,5.854-.009,11.405,0,2.773-.006,5.464,0,1.345,0,2.669a14.085,14.085,0,0,0,.113,2.584,5.988,5.988,0,0,0,2.78,3.948,5.919,5.919,0,0,0,2.265.8,22.738,22.738,0,0,0,2.415.064l9.264.014,27.958.067,7.6.039,1.976.021c.445.007.674.022.674.022s-.228.014-.674.022l-1.976.021-7.6.039-27.958.067-9.264.014a22.889,22.889,0,0,1-2.46-.061,6.247,6.247,0,0,1-2.394-.839,6.327,6.327,0,0,1-2.948-4.168,14.41,14.41,0,0,1-.125-2.651q0-1.323,0-2.669,0-2.69,0-5.464,0-5.547-.009-11.405c0-7.8-.008-16-.012-24.492q0-6.369,0-12.956,0-3.29,0-6.626c.01-1.118-.023-2.214.022-3.362a6.282,6.282,0,0,1,1.163-3.234,6.351,6.351,0,0,1,4.126-2.571,15.869,15.869,0,0,1,2.426-.092h2.384l9.4,0c6.182,0,12.191,0,17.962.006h.085l.059.06,24.077,24.853.05.051v.07c-.031,17.782-.055,32.5-.074,42.784-.016,2.571,0,4.855-.043,6.855a6.175,6.175,0,0,1-2.287,4.4,6.1,6.1,0,0,1-2.842,1.27,4.664,4.664,0,0,1-.8.072c-.18,0-.271,0-.271,0" transform="translate(-7983.365 -10317.91)" fill="#1a2e35"/>
      <path id="Trazado_152168" data-name="Trazado 152168" d="M99.766,117.312a2.037,2.037,0,0,1-.472.042l-1.354.039-4.98.066-7.386.043-4.367,0a5.925,5.925,0,0,1-5.472-4.131,6.847,6.847,0,0,1-.269-2.344c0-1.511.008-2.97.012-4.362.017-2.767.032-5.267.045-7.387.027-2.06.05-3.747.066-4.979.016-.551.03-1,.039-1.354a2,2,0,0,1,.043-.472,2.037,2.037,0,0,1,.042.472c.01.355.023.8.039,1.354.017,1.233.039,2.92.067,4.979.013,2.12.028,4.62.045,7.387,0,1.392.008,2.851.012,4.362a6.459,6.459,0,0,0,.257,2.219,5.534,5.534,0,0,0,5.087,3.846l4.355.021,7.386.047,4.98.067,1.354.04a2.037,2.037,0,0,1,.472.042" transform="translate(-7992.448 -10317.963)" fill="#1a2e35"/>
      <path id="Trazado_152169" data-name="Trazado 152169" d="M68.257,113.645c0,.116-5.8.209-12.948.209s-12.948-.093-12.948-.209,5.8-.209,12.948-.209,12.948.093,12.948.209" transform="translate(-7985.962 -10322.069)" fill="#1a2e35"/>
      <path id="Trazado_152170" data-name="Trazado 152170" d="M80.543,125.507c0,.116-8.548.209-19.091.209s-19.092-.093-19.092-.209,8.546-.209,19.092-.209,19.091.093,19.091.209" transform="translate(-7985.962 -10324.394)" fill="#1a2e35"/>
      <path id="Trazado_152171" data-name="Trazado 152171" d="M80.543,137.37c0,.116-8.548.209-19.091.209s-19.092-.093-19.092-.209,8.546-.209,19.092-.209,19.091.093,19.091.209" transform="translate(-7985.962 -10326.718)" fill="#1a2e35"/>
      <path id="Trazado_152172" data-name="Trazado 152172" d="M80.543,149.232c0,.116-8.548.209-19.091.209s-19.092-.093-19.092-.209,8.546-.209,19.092-.209,19.091.093,19.091.209" transform="translate(-7985.962 -10329.043)" fill="#1a2e35"/>
      <path id="Trazado_152173" data-name="Trazado 152173" d="M80.543,161.094c0,.116-8.548.209-19.091.209s-19.092-.093-19.092-.209,8.546-.209,19.092-.209,19.091.093,19.091.209" transform="translate(-7985.962 -10331.367)" fill="#1a2e35"/>
      <path id="Trazado_152174" data-name="Trazado 152174" d="M80.543,172.957c0,.116-8.548.209-19.091.209s-19.092-.093-19.092-.209,8.546-.209,19.092-.209,19.091.093,19.091.209" transform="translate(-7985.962 -10333.692)" fill="#1a2e35"/>
      <path id="Trazado_152178" data-name="Trazado 152178" d="M88.139,324.723H39.056a6.141,6.141,0,0,1-6.141-6.141V250.645a6.141,6.141,0,0,1,6.141-6.141H70.184l24.1,24.836v49.243a6.141,6.141,0,0,1-6.141,6.141" transform="translate(-7984.111 -10347.752)" fill="#ececec"/>
      <path id="Trazado_152179" data-name="Trazado 152179" d="M79.267,244.5v19.12a5.712,5.712,0,0,0,5.711,5.712l18.385,0Z" transform="translate(-7993.194 -10347.752)" fill="#f5f5f5"/>
      <path id="Trazado_152180" data-name="Trazado 152180" d="M79.579,270.371s-.242,4.637,5.037,6.161a5.721,5.721,0,0,0,.6.137c2.4.429,18.2,3.24,18.2,2.877v-5.138H85.039s-4.59-.157-5.46-4.037" transform="translate(-7993.255 -10352.821)" fill="#e1e1e1"/>
      <path id="Trazado_152181" data-name="Trazado 152181" d="M88.087,324.672c0-.029.368.008,1.061-.125a6.146,6.146,0,0,0,2.785-1.3,6.068,6.068,0,0,0,2.2-4.331c.031-1.981,0-4.28,0-6.846-.018-10.286-.043-25-.074-42.784l.049.122L69.989,244.592l.144.061-17.963.006-9.4,0H40.391a15.715,15.715,0,0,0-2.357.086,5.937,5.937,0,0,0-3.853,2.4,5.853,5.853,0,0,0-1.086,3.02c-.043,1.089-.012,2.226-.022,3.331q0,3.337,0,6.627,0,6.58,0,12.956c0,8.494-.009,16.687-.012,24.492q0,5.853-.009,11.4,0,2.774-.006,5.464,0,1.345,0,2.669a14.079,14.079,0,0,0,.113,2.583,5.988,5.988,0,0,0,2.78,3.949,5.919,5.919,0,0,0,2.265.8,22.721,22.721,0,0,0,2.415.064l9.264.014,27.958.067,7.6.039,1.976.021c.445.007.674.022.674.022s-.228.014-.674.022l-1.976.021-7.6.039-27.958.067-9.264.014a22.877,22.877,0,0,1-2.46-.061,6.248,6.248,0,0,1-2.394-.839,6.327,6.327,0,0,1-2.948-4.168,14.413,14.413,0,0,1-.125-2.651q0-1.324,0-2.669,0-2.691,0-5.464,0-5.545-.009-11.4c0-7.8-.008-16-.012-24.492q0-6.371,0-12.956,0-3.29,0-6.627c.01-1.118-.023-2.213.022-3.361a6.282,6.282,0,0,1,1.163-3.234,6.356,6.356,0,0,1,4.126-2.572,15.87,15.87,0,0,1,2.426-.092h2.384l9.4,0,17.963.006h.085l.059.061,24.077,24.853.05.051v.07c-.031,17.781-.055,32.5-.074,42.784-.016,2.571,0,4.855-.043,6.855a6.175,6.175,0,0,1-2.287,4.4,6.09,6.09,0,0,1-2.842,1.269,4.608,4.608,0,0,1-.8.072c-.18,0-.271,0-.271,0" transform="translate(-7984.06 -10347.701)" fill="#1a2e35"/>
      <path id="Trazado_152182" data-name="Trazado 152182" d="M103.312,269.34a1.976,1.976,0,0,1-.472.042l-1.354.039-4.98.066-7.386.043-4.367,0a5.926,5.926,0,0,1-5.472-4.13,6.854,6.854,0,0,1-.269-2.345c0-1.511.008-2.97.012-4.362.017-2.767.032-5.267.045-7.387.027-2.06.05-3.747.067-4.979.015-.55.029-1,.039-1.354a2,2,0,0,1,.043-.472,2.037,2.037,0,0,1,.042.472c.01.355.023.8.039,1.354.017,1.233.039,2.919.067,4.979.013,2.12.028,4.62.045,7.387,0,1.392.008,2.851.012,4.362a6.459,6.459,0,0,0,.257,2.219,5.534,5.534,0,0,0,5.087,3.846l4.355.021,7.386.047,4.98.067,1.354.039a2.061,2.061,0,0,1,.472.043" transform="translate(-7993.143 -10347.752)" fill="#1a2e35"/>
      <path id="Trazado_152183" data-name="Trazado 152183" d="M71.8,265.672c0,.116-5.8.209-12.948.209s-12.948-.093-12.948-.209,5.8-.209,12.948-.209,12.948.093,12.948.209" transform="translate(-7986.657 -10351.859)" fill="#1a2e35"/>
      <path id="Trazado_152184" data-name="Trazado 152184" d="M84.089,277.535c0,.116-8.548.209-19.091.209s-19.092-.093-19.092-.209,8.546-.209,19.092-.209,19.091.093,19.091.209" transform="translate(-7986.657 -10354.184)" fill="#1a2e35"/>
      <path id="Trazado_152185" data-name="Trazado 152185" d="M84.089,289.4c0,.116-8.548.209-19.091.209s-19.092-.093-19.092-.209,8.546-.209,19.092-.209,19.091.093,19.091.209" transform="translate(-7986.657 -10356.508)" fill="#1a2e35"/>
      <path id="Trazado_152186" data-name="Trazado 152186" d="M84.089,301.26c0,.116-8.548.209-19.091.209s-19.092-.093-19.092-.209,8.546-.209,19.092-.209,19.091.093,19.091.209" transform="translate(-7986.657 -10358.832)" fill="#1a2e35"/>
      <path id="Trazado_152187" data-name="Trazado 152187" d="M84.089,313.122c0,.116-8.548.209-19.091.209s-19.092-.093-19.092-.209,8.546-.209,19.092-.209,19.091.093,19.091.209" transform="translate(-7986.657 -10361.156)" fill="#1a2e35"/>
      <path id="Trazado_152188" data-name="Trazado 152188" d="M84.089,324.985c0,.116-8.548.209-19.091.209s-19.092-.093-19.092-.209,8.546-.209,19.092-.209,19.091.093,19.091.209" transform="translate(-7986.657 -10363.481)" fill="#1a2e35"/>
    </g>
  </g>
</svg>
