<svg xmlns="http://www.w3.org/2000/svg" width="505" height="198" viewBox="0 0 505 198">
  <g id="Grupo_1071476" data-name="Grupo 1071476" transform="translate(-705 -1552)">
    <path id="Trazado_818002" data-name="Trazado 818002" d="M0,0H505V198H0Z" transform="translate(705 1552)" fill="#fff"/>
    <g id="Grupo_1070420" data-name="Grupo 1070420" transform="translate(714.5 1564)">
      <line id="Línea_3726" data-name="Línea 3726" y2="165" transform="translate(9.5 6.5)" fill="none" stroke="#12263f" stroke-width="3"/>
      <path id="Polígono_1" data-name="Polígono 1" d="M9,0l9,15H0Z" fill="#12263f"/>
    </g>
    <g id="Grupo_1070421" data-name="Grupo 1070421" transform="translate(918.75 1717.5) rotate(90)">
      <line id="Línea_3726-2" data-name="Línea 3726" y2="200.25" transform="translate(9.5 6.5)" fill="none" stroke="#12263f" stroke-width="3"/>
      <path id="Polígono_1-2" data-name="Polígono 1" d="M9,0l9,15H0Z" fill="#12263f"/>
    </g>
    <g id="Grupo_1070420-2" data-name="Grupo 1070420" transform="translate(986.37 1564)">
      <line id="Línea_3726-3" data-name="Línea 3726" y2="165" transform="translate(9.5 6.5)" fill="none" stroke="#12263f" stroke-width="3"/>
      <path id="Polígono_1-3" data-name="Polígono 1" d="M9,0l9,15H0Z" fill="#12263f"/>
    </g>
    <g id="Grupo_1070421-2" data-name="Grupo 1070421" transform="translate(1190.62 1717.5) rotate(90)">
      <line id="Línea_3726-4" data-name="Línea 3726" y2="200.25" transform="translate(9.5 6.5)" fill="none" stroke="#12263f" stroke-width="3"/>
      <path id="Polígono_1-4" data-name="Polígono 1" d="M9,0l9,15H0Z" fill="#12263f"/>
    </g>
    <path id="Trazado_818003" data-name="Trazado 818003" d="M7,0A7,7,0,1,1,0,7,7,7,0,0,1,7,0Z" transform="translate(746.5 1698)" fill="#0f7f83"/>
    <path id="Trazado_818004" data-name="Trazado 818004" d="M6,0A6,6,0,1,1,0,6,6,6,0,0,1,6,0Z" transform="translate(1031.089 1699)" fill="#0f7f83"/>
    <path id="Trazado_818005" data-name="Trazado 818005" d="M7,0A7,7,0,1,1,0,7,7,7,0,0,1,7,0Z" transform="translate(885.45 1697)" fill="#0f7f83"/>
    <path id="Trazado_818006" data-name="Trazado 818006" d="M6,0A6,6,0,1,1,0,6,6,6,0,0,1,6,0Z" transform="translate(1169.87 1681)" fill="#3a3e44"/>
    <path id="Trazado_818007" data-name="Trazado 818007" d="M7,0A7,7,0,1,1,0,7,7,7,0,0,1,7,0Z" transform="translate(746.5 1679)" fill="#0f7f83"/>
    <path id="Trazado_818008" data-name="Trazado 818008" d="M6,0A6,6,0,1,1,0,6,6,6,0,0,1,6,0Z" transform="translate(1031.089 1682)" fill="#0f7f83"/>
    <path id="Trazado_818009" data-name="Trazado 818009" d="M7,0A7,7,0,1,1,0,7,7,7,0,0,1,7,0Z" transform="translate(885.45 1678)" fill="#0f7f83"/>
    <path id="Trazado_818010" data-name="Trazado 818010" d="M6,0A6,6,0,1,1,0,6,6,6,0,0,1,6,0Z" transform="translate(1169.87 1666)" fill="#3a3e44"/>
    <path id="Trazado_818011" data-name="Trazado 818011" d="M7,0A7,7,0,1,1,0,7,7,7,0,0,1,7,0Z" transform="translate(728.5 1672)" fill="#0f7f83"/>
    <path id="Trazado_818012" data-name="Trazado 818012" d="M6,0A6,6,0,1,1,0,6,6,6,0,0,1,6,0Z" transform="translate(1015.962 1676)" fill="#0f7f83"/>
    <path id="Trazado_818013" data-name="Trazado 818013" d="M7,0A7,7,0,1,1,0,7,7,7,0,0,1,7,0Z" transform="translate(902.464 1671)" fill="#0f7f83"/>
    <path id="Trazado_818014" data-name="Trazado 818014" d="M5.5,0A5.766,5.766,0,0,1,11,6a5.766,5.766,0,0,1-5.5,6A5.766,5.766,0,0,1,0,6,5.766,5.766,0,0,1,5.5,0Z" transform="translate(1184.87 1660)" fill="#3a3e44"/>
    <path id="Trazado_818015" data-name="Trazado 818015" d="M7,0A7,7,0,1,1,0,7,7,7,0,0,1,7,0Z" transform="translate(735.5 1650)" fill="#0f7f83"/>
    <path id="Trazado_818016" data-name="Trazado 818016" d="M6,0A6,6,0,1,1,0,6,6,6,0,0,1,6,0Z" transform="translate(1021.634 1658)" fill="#0f7f83"/>
    <path id="Trazado_818017" data-name="Trazado 818017" d="M7,0A7,7,0,1,1,0,7,7,7,0,0,1,7,0Z" transform="translate(895.848 1649)" fill="#0f7f83"/>
    <path id="Trazado_818018" data-name="Trazado 818018" d="M6,0a5.766,5.766,0,0,1,6,5.5A5.766,5.766,0,0,1,6,11,5.766,5.766,0,0,1,0,5.5,5.766,5.766,0,0,1,6,0Z" transform="translate(1178.87 1643)" fill="#3a3e44"/>
    <path id="Trazado_818019" data-name="Trazado 818019" d="M7,0A7,7,0,1,1,0,7,7,7,0,0,1,7,0Z" transform="translate(753.5 1622)" fill="#0f7f83"/>
    <path id="Trazado_818020" data-name="Trazado 818020" d="M7,0A7,7,0,1,1,0,7,7,7,0,0,1,7,0Z" transform="translate(1035.742 1624)" fill="#e141f2"/>
    <path id="Trazado_818021" data-name="Trazado 818021" d="M7,0A7,7,0,1,1,0,7,7,7,0,0,1,7,0Z" transform="translate(878.833 1621)" fill="#0f7f83"/>
    <path id="Trazado_818022" data-name="Trazado 818022" d="M6,0a5.766,5.766,0,0,1,6,5.5A5.766,5.766,0,0,1,6,11,5.766,5.766,0,0,1,0,5.5,5.766,5.766,0,0,1,6,0Z" transform="translate(1163.87 1620)" fill="#3a3e44"/>
    <path id="Trazado_818023" data-name="Trazado 818023" d="M7,0A7,7,0,1,1,0,7,7,7,0,0,1,7,0Z" transform="translate(753.5 1582)" fill="#0f7f83"/>
    <path id="Trazado_818024" data-name="Trazado 818024" d="M7,0A7,7,0,1,1,0,7,7,7,0,0,1,7,0Z" transform="translate(1035.742 1584)" fill="#e141f2"/>
    <path id="Trazado_818025" data-name="Trazado 818025" d="M7,0A7,7,0,1,1,0,7,7,7,0,0,1,7,0Z" transform="translate(878.833 1581)" fill="#0f7f83"/>
    <path id="Trazado_818026" data-name="Trazado 818026" d="M6,0A6,6,0,1,1,0,6,6,6,0,0,1,6,0Z" transform="translate(1163.87 1587)" fill="#3a3e44"/>
    <path id="Trazado_818027" data-name="Trazado 818027" d="M7,0A7,7,0,1,1,0,7,7,7,0,0,1,7,0Z" transform="translate(766.5 1604)" fill="#0f7f83"/>
    <path id="Trazado_818028" data-name="Trazado 818028" d="M7,0A7,7,0,1,1,0,7,7,7,0,0,1,7,0Z" transform="translate(1048.03 1606)" fill="#e141f2"/>
    <path id="Trazado_818029" data-name="Trazado 818029" d="M7,0A7,7,0,1,1,0,7,7,7,0,0,1,7,0Z" transform="translate(866.545 1603)" fill="#0f7f83"/>
    <path id="Trazado_818030" data-name="Trazado 818030" d="M5.5,0A5.5,5.5,0,1,1,0,5.5,5.5,5.5,0,0,1,5.5,0Z" transform="translate(1153.87 1605)" fill="#3a3e44"/>
    <path id="Trazado_818031" data-name="Trazado 818031" d="M7,0A7,7,0,1,1,0,7,7,7,0,0,1,7,0Z" transform="translate(798.5 1582)" fill="#0f7f83"/>
    <path id="Trazado_818032" data-name="Trazado 818032" d="M7,0A7,7,0,1,1,0,7,7,7,0,0,1,7,0Z" transform="translate(1078.277 1584)" fill="#e141f2"/>
    <path id="Trazado_818033" data-name="Trazado 818033" d="M7,0A7,7,0,1,1,0,7,7,7,0,0,1,7,0Z" transform="translate(836.298 1581)" fill="#0f7f83"/>
    <path id="Trazado_818034" data-name="Trazado 818034" d="M6,0A6,6,0,1,1,0,6,6,6,0,0,1,6,0Z" transform="translate(1127.87 1587)" fill="#3a3e44"/>
    <path id="Trazado_818035" data-name="Trazado 818035" d="M7,0A7,7,0,1,1,0,7,7,7,0,0,1,7,0Z" transform="translate(789.5 1611)" fill="#0f7f83"/>
    <path id="Trazado_818036" data-name="Trazado 818036" d="M7,0A7,7,0,1,1,0,7,7,7,0,0,1,7,0Z" transform="translate(1069.771 1613)" fill="#e141f2"/>
    <path id="Trazado_818037" data-name="Trazado 818037" d="M7,0A7,7,0,1,1,0,7,7,7,0,0,1,7,0Z" transform="translate(844.805 1610)" fill="#0f7f83"/>
    <path id="Trazado_818038" data-name="Trazado 818038" d="M6,0a5.766,5.766,0,0,1,6,5.5A5.766,5.766,0,0,1,6,11,5.766,5.766,0,0,1,0,5.5,5.766,5.766,0,0,1,6,0Z" transform="translate(1134.87 1611)" fill="#3a3e44"/>
    <path id="Trazado_818039" data-name="Trazado 818039" d="M7,0A7,7,0,1,1,0,7,7,7,0,0,1,7,0Z" transform="translate(773.5 1625)" fill="#0f7f83"/>
    <path id="Trazado_818040" data-name="Trazado 818040" d="M7,0A7,7,0,1,1,0,7,7,7,0,0,1,7,0Z" transform="translate(1054.646 1627)" fill="#e141f2"/>
    <path id="Trazado_818041" data-name="Trazado 818041" d="M7,0A7,7,0,1,1,0,7,7,7,0,0,1,7,0Z" transform="translate(859.929 1624)" fill="#0f7f83"/>
    <path id="Trazado_818042" data-name="Trazado 818042" d="M6,0A6,6,0,1,1,0,6,6,6,0,0,1,6,0Z" transform="translate(1147.87 1622)" fill="#3a3e44"/>
    <path id="Trazado_818043" data-name="Trazado 818043" d="M7,0A7,7,0,1,1,0,7,7,7,0,0,1,7,0Z" transform="translate(798.5 1636)" fill="#0f7f83"/>
    <path id="Trazado_818044" data-name="Trazado 818044" d="M7,0A7,7,0,1,1,0,7,7,7,0,0,1,7,0Z" transform="translate(1078.277 1638)" fill="#e141f2"/>
    <path id="Trazado_818045" data-name="Trazado 818045" d="M7,0A7,7,0,1,1,0,7,7,7,0,0,1,7,0Z" transform="translate(836.298 1635)" fill="#0f7f83"/>
    <path id="Trazado_818046" data-name="Trazado 818046" d="M6,0A6,6,0,1,1,0,6,6,6,0,0,1,6,0Z" transform="translate(1127.87 1631)" fill="#3a3e44"/>
    <path id="Trazado_818047" data-name="Trazado 818047" d="M7,0A7,7,0,1,1,0,7,7,7,0,0,1,7,0Z" transform="translate(803.215 1611)" fill="#0f7f83"/>
    <path id="Trazado_818048" data-name="Trazado 818048" d="M7,0A7,7,0,1,1,0,7,7,7,0,0,1,7,0Z" transform="translate(1087.729 1613)" fill="#e141f2"/>
    <path id="Trazado_818049" data-name="Trazado 818049" d="M7,0A7,7,0,1,1,0,7,7,7,0,0,1,7,0Z" transform="translate(826.846 1610)" fill="#0f7f83"/>
    <path id="Trazado_818050" data-name="Trazado 818050" d="M5.5,0A5.5,5.5,0,1,1,0,5.5,5.5,5.5,0,0,1,5.5,0Z" transform="translate(1119.87 1611)" fill="#3a3e44"/>
    <path id="Trazado_818051" data-name="Trazado 818051" d="M7,0A7,7,0,1,1,0,7,7,7,0,0,1,7,0Z" transform="translate(760.5 1657)" fill="#0f7f83"/>
    <path id="Trazado_818052" data-name="Trazado 818052" d="M6,0A6,6,0,1,1,0,6,6,6,0,0,1,6,0Z" transform="translate(1042.434 1663)" fill="#0f7f83"/>
    <path id="Trazado_818053" data-name="Trazado 818053" d="M7,0A7,7,0,1,1,0,7,7,7,0,0,1,7,0Z" transform="translate(872.217 1656)" fill="#0f7f83"/>
    <path id="Trazado_818054" data-name="Trazado 818054" d="M5.5,0A5.5,5.5,0,1,1,0,5.5,5.5,5.5,0,0,1,5.5,0Z" transform="translate(1158.87 1648)" fill="#3a3e44"/>
    <path id="Trazado_818055" data-name="Trazado 818055" d="M7,0A7,7,0,1,1,0,7,7,7,0,0,1,7,0Z" transform="translate(760.5 1675)" fill="#0f7f83"/>
    <path id="Trazado_818056" data-name="Trazado 818056" d="M6,0A6,6,0,1,1,0,6,6,6,0,0,1,6,0Z" transform="translate(1042.434 1679)" fill="#0f7f83"/>
    <path id="Trazado_818057" data-name="Trazado 818057" d="M7,0A7,7,0,1,1,0,7,7,7,0,0,1,7,0Z" transform="translate(872.217 1674)" fill="#0f7f83"/>
    <path id="Trazado_818058" data-name="Trazado 818058" d="M5.5,0A5.5,5.5,0,1,1,0,5.5,5.5,5.5,0,0,1,5.5,0Z" transform="translate(1158.87 1663)" fill="#3a3e44"/>
    <path id="Trazado_818059" data-name="Trazado 818059" d="M7,0A7,7,0,1,1,0,7,7,7,0,0,1,7,0Z" transform="translate(791.5 1675)" fill="#0f7f83"/>
    <path id="Trazado_818060" data-name="Trazado 818060" d="M6,0A6,6,0,1,1,0,6,6,6,0,0,1,6,0Z" transform="translate(1067.016 1679)" fill="#0f7f83"/>
    <path id="Trazado_818061" data-name="Trazado 818061" d="M7,0A7,7,0,1,1,0,7,7,7,0,0,1,7,0Z" transform="translate(842.915 1674)" fill="#0f7f83"/>
    <path id="Trazado_818062" data-name="Trazado 818062" d="M6,0a5.766,5.766,0,0,1,6,5.5A5.766,5.766,0,0,1,6,11,5.766,5.766,0,0,1,0,5.5,5.766,5.766,0,0,1,6,0Z" transform="translate(1132.87 1663)" fill="#3a3e44"/>
    <path id="Trazado_818063" data-name="Trazado 818063" d="M7,0A7,7,0,1,1,0,7,7,7,0,0,1,7,0Z" transform="translate(796.5 1698)" fill="#0f7f83"/>
    <path id="Trazado_818064" data-name="Trazado 818064" d="M6,0A6,6,0,1,1,0,6,6,6,0,0,1,6,0Z" transform="translate(1071.743 1699)" fill="#0f7f83"/>
    <path id="Trazado_818065" data-name="Trazado 818065" d="M7,0A7,7,0,1,1,0,7,7,7,0,0,1,7,0Z" transform="translate(838.188 1697)" fill="#0f7f83"/>
    <path id="Trazado_818066" data-name="Trazado 818066" d="M5.5,0A5.766,5.766,0,0,1,11,6a5.766,5.766,0,0,1-5.5,6A5.766,5.766,0,0,1,0,6,5.766,5.766,0,0,1,5.5,0Z" transform="translate(1129.87 1681)" fill="#3a3e44"/>
    <path id="Trazado_818067" data-name="Trazado 818067" d="M7,0A7,7,0,1,1,0,7,7,7,0,0,1,7,0Z" transform="translate(766.5 1697)" fill="#0f7f83"/>
    <path id="Trazado_818068" data-name="Trazado 818068" d="M6,0A6,6,0,1,1,0,6,6,6,0,0,1,6,0Z" transform="translate(1047.162 1698)" fill="#0f7f83"/>
    <path id="Trazado_818069" data-name="Trazado 818069" d="M7,0A7,7,0,1,1,0,7,7,7,0,0,1,7,0Z" transform="translate(866.545 1696)" fill="#0f7f83"/>
    <path id="Trazado_818070" data-name="Trazado 818070" d="M5.5,0A5.766,5.766,0,0,1,11,6a5.766,5.766,0,0,1-5.5,6A5.766,5.766,0,0,1,0,6,5.766,5.766,0,0,1,5.5,0Z" transform="translate(1153.87 1680)" fill="#3a3e44"/>
    <path id="Trazado_818071" data-name="Trazado 818071" d="M7.72,72V35.614H0L22,0,44,35.614H33.966V72Z" transform="translate(995.545 1647) rotate(90)" fill="#0f7f83"/>
    <path id="Trazado_818072" data-name="Trazado 818072" d="M2.861-2.852l-.762.82V0H.635V-7.109H2.1v3.223l.645-.884L4.556-7.109h1.8L3.833-3.95,6.431,0H4.688Zm5.972.376H6.084V-3.613H8.833Zm3.14-4.634L13.8-1.953l1.816-5.156h1.924V0h-1.47V-1.943L16.216-5.3,14.3,0H13.291L11.377-5.293l.146,3.35V0H10.059V-7.109ZM23.1-3.081H20.283v1.9h3.3V0H18.818V-7.109h4.756v1.187H20.283v1.694H23.1Zm5.361,1.616H25.889L25.4,0H23.843l2.646-7.109h1.357L30.508,0H28.95ZM26.284-2.651h1.777l-.894-2.661ZM36.953,0H35.488L32.637-4.678V0H31.172V-7.109h1.465l2.856,4.688V-7.109h1.46Zm4.966-1.865a.752.752,0,0,0-.293-.637,3.843,3.843,0,0,0-1.055-.469,7.477,7.477,0,0,1-1.206-.486A1.971,1.971,0,0,1,38.154-5.22a1.717,1.717,0,0,1,.325-1.028,2.118,2.118,0,0,1,.933-.706,3.51,3.51,0,0,1,1.365-.254,3.2,3.2,0,0,1,1.357.276,2.161,2.161,0,0,1,.925.779,2.038,2.038,0,0,1,.33,1.143H41.924a.959.959,0,0,0-.308-.759,1.265,1.265,0,0,0-.864-.271,1.351,1.351,0,0,0-.835.227.716.716,0,0,0-.3.6.686.686,0,0,0,.349.581A3.944,3.944,0,0,0,41-4.194a4.441,4.441,0,0,1,1.821.933,1.857,1.857,0,0,1,.571,1.387,1.711,1.711,0,0,1-.7,1.448A3.057,3.057,0,0,1,40.811.1a3.63,3.63,0,0,1-1.494-.3,2.364,2.364,0,0,1-1.028-.823,2.107,2.107,0,0,1-.354-1.211H39.4q0,1.177,1.406,1.177a1.368,1.368,0,0,0,.815-.212A.691.691,0,0,0,41.919-1.865Z" transform="translate(928.545 1671)" fill="#fff"/>
    <g id="Trazado_818073" data-name="Trazado 818073" transform="matrix(0.53, -0.848, 0.848, 0.53, 988.253, 1690.144)" fill="none">
      <path d="M32,0C49.673,0,64,22.162,64,49.5S49.673,99,32,99,0,76.838,0,49.5,14.327,0,32,0Z" stroke="none"/>
      <path d="M 32 2 C 28.07559967041016 2 24.25325775146484 3.198959350585938 20.63915634155273 5.563568115234375 C 17.06388473510742 7.90277099609375 13.83835601806641 11.27413177490234 11.05216979980469 15.58401489257812 C 8.224815368652344 19.95758819580078 6.001472473144531 25.06348419189453 4.443901062011719 30.75985717773438 C 2.822242736816406 36.69061279296875 2 42.99570083618164 2 49.5 C 2 56.00429916381836 2.822242736816406 62.30938720703125 4.443901062011719 68.24014282226562 C 6.001472473144531 73.93651580810547 8.224815368652344 79.04241180419922 11.05216979980469 83.41598510742188 C 13.83835601806641 87.72586822509766 17.06388473510742 91.09722900390625 20.63915634155273 93.43643188476562 C 24.25325775146484 95.80104064941406 28.07559967041016 97 32 97 C 35.92440032958984 97 39.74674224853516 95.80104064941406 43.36084365844727 93.43643188476562 C 46.93611145019531 91.09722900390625 50.16164398193359 87.72586822509766 52.94783020019531 83.41598510742188 C 55.77518463134766 79.04241180419922 57.99852752685547 73.93651580810547 59.55609893798828 68.24014282226562 C 61.17775726318359 62.30938720703125 62 56.00429916381836 62 49.5 C 62 42.99570083618164 61.17775726318359 36.69061279296875 59.55609893798828 30.75985717773438 C 57.99852752685547 25.06348419189453 55.77518463134766 19.95758819580078 52.94783020019531 15.58401489257812 C 50.16164398193359 11.27413177490234 46.93611145019531 7.90277099609375 43.36084365844727 5.563568115234375 C 39.74674224853516 3.198959350585938 35.92440032958984 2 32 2 M 32 0 C 49.67311477661133 0 64 22.16190338134766 64 49.5 C 64 76.83810424804688 49.67311477661133 99 32 99 C 14.32688522338867 99 0 76.83810424804688 0 49.5 C 0 22.16190338134766 14.32688522338867 0 32 0 Z" stroke="none" fill="#e141f2"/>
    </g>
    <g id="Trazado_818074" data-name="Trazado 818074" transform="translate(1021.039 1559)" fill="none">
      <path d="M46.5,0C72.181,0,93,21.938,93,49S72.181,98,46.5,98,0,76.062,0,49,20.819,0,46.5,0Z" stroke="none"/>
      <path d="M 46.5 2 C 40.50490188598633 2 34.68914413452148 3.237274169921875 29.21429824829102 5.67742919921875 C 23.91796875 8.03802490234375 19.15922546386719 11.41968536376953 15.07027435302734 15.72848510742188 C 10.97431182861328 20.04465484619141 7.757858276367188 25.0723876953125 5.510269165039062 30.67198944091797 C 3.1810302734375 36.47499847412109 2 42.64144134521484 2 49 C 2 55.35855865478516 3.1810302734375 61.52498626708984 5.510269165039062 67.32801818847656 C 7.757858276367188 72.9276123046875 10.97431182861328 77.95532989501953 15.07027435302734 82.27151489257812 C 19.15922546386719 86.58029937744141 23.91796875 89.96197509765625 29.21429824829102 92.32257080078125 C 34.68914413452148 94.76272583007812 40.50490188598633 96 46.5 96 C 52.49509811401367 96 58.31084442138672 94.76272583007812 63.78569793701172 92.32257080078125 C 69.08203125 89.96197509765625 73.84075927734375 86.58029937744141 77.92972564697266 82.27151489257812 C 82.02568817138672 77.95532989501953 85.24214172363281 72.9276123046875 87.48973083496094 67.32801818847656 C 89.8189697265625 61.52498626708984 91 55.35855865478516 91 49 C 91 42.64144134521484 89.8189697265625 36.47499847412109 87.48973083496094 30.67198944091797 C 85.24214172363281 25.0723876953125 82.02568817138672 20.04465484619141 77.92972564697266 15.72848510742188 C 73.84075927734375 11.41968536376953 69.08203125 8.03802490234375 63.78569793701172 5.67742919921875 C 58.31084442138672 3.237274169921875 52.49509811401367 2 46.5 2 M 46.5 0 C 72.18122863769531 0 93 21.93804168701172 93 49 C 93 76.06194305419922 72.18122863769531 98 46.5 98 C 20.81875610351562 98 0 76.06194305419922 0 49 C 0 21.93804168701172 20.81875610351562 0 46.5 0 Z" stroke="none" fill="#e141f2"/>
    </g>
    <g id="Trazado_818075" data-name="Trazado 818075" transform="translate(1105.87 1566)" fill="none">
      <path d="M48.5,0C75.286,0,97,34.25,97,76.5S75.286,153,48.5,153,0,118.75,0,76.5,21.714,0,48.5,0Z" stroke="none"/>
      <path d="M 48.5 2 C 42.3546028137207 2 36.37643814086914 3.909500122070312 30.73155975341797 7.67547607421875 C 27.98460388183594 9.50811767578125 25.33001708984375 11.78187561035156 22.84158325195312 14.43359375 C 20.35933685302734 17.07872009277344 18.02198028564453 20.12142944335938 15.89445495605469 23.47720336914062 C 13.7568359375 26.84893035888672 11.81452178955078 30.56276702880859 10.12149810791016 34.51554107666016 C 8.407188415527344 38.51801300048828 6.93408203125 42.79939270019531 5.743125915527344 47.24072265625 C 3.259376525878906 56.50314331054688 2 66.34737396240234 2 76.49995422363281 C 2 86.65253448486328 3.259376525878906 96.49676513671875 5.743125915527344 105.7591857910156 C 6.93408203125 110.2005157470703 8.407188415527344 114.4818878173828 10.12149810791016 118.484375 C 11.81452178955078 122.437141418457 13.7568359375 126.1509704589844 15.89445495605469 129.522705078125 C 18.02198028564453 132.8784790039062 20.35933685302734 135.9211883544922 22.84158325195312 138.5663146972656 C 25.33001708984375 141.2180328369141 27.98460388183594 143.4917907714844 30.73155975341797 145.3244323730469 C 36.37643814086914 149.0904083251953 42.3546028137207 150.9999084472656 48.5 150.9999084472656 C 54.6453971862793 150.9999084472656 60.62356185913086 149.0904083251953 66.26844024658203 145.3244323730469 C 69.01539611816406 143.4917907714844 71.66998291015625 141.2180328369141 74.15841674804688 138.5663146972656 C 76.64067077636719 135.9211883544922 78.97801971435547 132.8784790039062 81.10554504394531 129.522705078125 C 83.2431640625 126.1509704589844 85.18547821044922 122.437141418457 86.87850189208984 118.484375 C 88.59281158447266 114.4818878173828 90.06591796875 110.2005157470703 91.25687408447266 105.7591857910156 C 93.74062347412109 96.49676513671875 95 86.65253448486328 95 76.49995422363281 C 95 66.34737396240234 93.74062347412109 56.50314331054688 91.25687408447266 47.24072265625 C 90.06591796875 42.79939270019531 88.59281158447266 38.51801300048828 86.87850189208984 34.51554107666016 C 85.18547821044922 30.56276702880859 83.2431640625 26.84893035888672 81.10554504394531 23.47720336914062 C 78.97801971435547 20.12142944335938 76.64067077636719 17.07872009277344 74.15841674804688 14.43359375 C 71.66998291015625 11.78187561035156 69.01539611816406 9.50811767578125 66.26844024658203 7.67547607421875 C 60.62356185913086 3.909500122070312 54.6453971862793 2 48.5 2 M 48.5 0 C 75.28581237792969 0 97 34.25020599365234 97 76.49995422363281 C 97 118.7497024536133 75.28581237792969 152.9999084472656 48.5 152.9999084472656 C 21.71418762207031 152.9999084472656 0 118.7497024536133 0 76.49995422363281 C 0 34.25020599365234 21.71418762207031 0 48.5 0 Z" stroke="none" fill="#3a3e44"/>
    </g>
  </g>
</svg>
