<svg xmlns="http://www.w3.org/2000/svg" width="91" height="91" viewBox="0 0 91 91">
  <g id="Grupo_1070830" data-name="Grupo 1070830" transform="translate(-721.333 -451)">
    <rect id="Rectángulo_374757" data-name="Rectángulo 374757" width="91" height="91" rx="8" transform="translate(721.333 451)" fill="#3a3e44"/>
    <g id="procesador" transform="translate(728.466 458.001)">
      <g id="Grupo_1070811" data-name="Grupo 1070811" transform="translate(35.139 10.223)">
        <path id="Trazado_816339" data-name="Trazado 816339" d="M43.915,32.463a1.343,1.343,0,0,1-1.344-1.344V25.927H29.251a1.343,1.343,0,0,1-1.344-1.344v-14.1a1.344,1.344,0,1,1,2.687,0V23.24h13.32a1.343,1.343,0,0,1,1.344,1.344v6.536A1.343,1.343,0,0,1,43.915,32.463Z" transform="translate(-27.907 -9.143)" fill="#ffe323"/>
      </g>
      <g id="Grupo_1070812" data-name="Grupo 1070812" transform="translate(51.431 44.569)">
        <path id="Trazado_816340" data-name="Trazado 816340" d="M53.44,37.391H41.376a1.344,1.344,0,0,1,0-2.687H53.44a1.344,1.344,0,0,1,0,2.687Z" transform="translate(-40.032 -34.703)" fill="#ffe323"/>
      </g>
      <g id="Grupo_1070813" data-name="Grupo 1070813" transform="translate(35.139 53.51)">
        <path id="Trazado_816341" data-name="Trazado 816341" d="M29.251,52.337a1.343,1.343,0,0,1-1.344-1.344V42.7a1.344,1.344,0,0,1,2.687,0v8.292A1.343,1.343,0,0,1,29.251,52.337Z" transform="translate(-27.907 -41.357)" fill="#ffe323"/>
      </g>
      <g id="Grupo_1070814" data-name="Grupo 1070814" transform="translate(21.252 5.999)">
        <path id="Trazado_816342" data-name="Trazado 816342" d="M25.583,30.876H18.916a1.344,1.344,0,1,1,0-2.687H24.24V7.343a1.344,1.344,0,0,1,2.687,0V29.532A1.343,1.343,0,0,1,25.583,30.876Z" transform="translate(-17.572 -5.999)" fill="#ffe323"/>
      </g>
      <g id="Grupo_1070815" data-name="Grupo 1070815" transform="translate(15.546 25.334)">
        <path id="Trazado_816343" data-name="Trazado 816343" d="M17.521,28.778a4.194,4.194,0,1,1,4.194-4.194A4.2,4.2,0,0,1,17.521,28.778Zm0-5.7a1.507,1.507,0,1,0,1.506,1.508A1.509,1.509,0,0,0,17.521,23.076Z" transform="translate(-13.326 -20.389)" fill="#ffe323"/>
      </g>
      <g id="Grupo_1070816" data-name="Grupo 1070816" transform="translate(46.951 30.856)">
        <path id="Trazado_816344" data-name="Trazado 816344" d="M40.893,32.888a4.2,4.2,0,1,1,4.194-4.2A4.2,4.2,0,0,1,40.893,32.888Zm0-5.7A1.508,1.508,0,1,0,42.4,28.693,1.509,1.509,0,0,0,40.893,27.185Z" transform="translate(-36.698 -24.498)" fill="#ffe323"/>
      </g>
      <g id="Grupo_1070817" data-name="Grupo 1070817" transform="translate(56.279 24.681)">
        <path id="Trazado_816345" data-name="Trazado 816345" d="M47.836,28.293a4.2,4.2,0,1,1,4.2-4.2A4.2,4.2,0,0,1,47.836,28.293Zm0-5.7A1.508,1.508,0,1,0,49.343,24.1,1.509,1.509,0,0,0,47.836,22.59Z" transform="translate(-43.641 -19.902)" fill="#ffe323"/>
      </g>
      <g id="Grupo_1070818" data-name="Grupo 1070818" transform="translate(45.729 41.718)">
        <path id="Trazado_816346" data-name="Trazado 816346" d="M39.984,40.971a4.194,4.194,0,1,1,4.194-4.2A4.2,4.2,0,0,1,39.984,40.971Zm0-5.7a1.507,1.507,0,1,0,1.506,1.506A1.508,1.508,0,0,0,39.984,35.269Z" transform="translate(-35.789 -32.582)" fill="#ffe323"/>
      </g>
      <g id="Grupo_1070819" data-name="Grupo 1070819" transform="translate(32.288 47.808)">
        <path id="Trazado_816347" data-name="Trazado 816347" d="M29.98,45.5a4.194,4.194,0,1,1,4.2-4.194A4.2,4.2,0,0,1,29.98,45.5Zm0-5.7a1.507,1.507,0,1,0,1.508,1.508A1.508,1.508,0,0,0,29.98,39.8Z" transform="translate(-25.786 -37.114)" fill="#ffe323"/>
      </g>
      <g id="Grupo_1070820" data-name="Grupo 1070820" transform="translate(60.644 52.939)">
        <path id="Trazado_816348" data-name="Trazado 816348" d="M51.084,49.323a4.2,4.2,0,1,1,4.2-4.2A4.2,4.2,0,0,1,51.084,49.323Zm0-5.7a1.508,1.508,0,1,0,1.508,1.508A1.509,1.509,0,0,0,51.084,43.62Z" transform="translate(-46.889 -40.933)" fill="#ffe323"/>
      </g>
      <g id="Grupo_1070821" data-name="Grupo 1070821" transform="translate(42.878 54.028)">
        <path id="Trazado_816349" data-name="Trazado 816349" d="M37.862,50.132a4.194,4.194,0,1,1,4.2-4.194A4.2,4.2,0,0,1,37.862,50.132Zm0-5.7a1.507,1.507,0,1,0,1.508,1.508A1.509,1.509,0,0,0,37.862,44.431Z" transform="translate(-33.667 -41.743)" fill="#ffe323"/>
      </g>
      <g id="Grupo_1070822" data-name="Grupo 1070822" transform="translate(32.288 30.224)">
        <path id="Trazado_816350" data-name="Trazado 816350" d="M29.98,32.416a4.194,4.194,0,1,1,4.2-4.194A4.2,4.2,0,0,1,29.98,32.416Zm0-5.7a1.507,1.507,0,1,0,1.508,1.508A1.508,1.508,0,0,0,29.98,26.715Z" transform="translate(-25.786 -24.027)" fill="#ffe323"/>
      </g>
      <g id="Grupo_1070823" data-name="Grupo 1070823" transform="translate(18.398 35.925)">
        <path id="Trazado_816351" data-name="Trazado 816351" d="M16.792,62.842A1.343,1.343,0,0,1,15.448,61.5V37.049a1.343,1.343,0,0,1,1.344-1.344h15.4V29.614a1.344,1.344,0,1,1,2.687,0v7.435a1.343,1.343,0,0,1-1.344,1.344h-15.4V61.5A1.343,1.343,0,0,1,16.792,62.842Z" transform="translate(-15.448 -28.271)" fill="#ffe323"/>
      </g>
      <g id="Grupo_1070824" data-name="Grupo 1070824" transform="translate(43.904 6.002)">
        <path id="Trazado_816352" data-name="Trazado 816352" d="M51,27.368a1.343,1.343,0,0,1-1.344-1.344V19.795H35.774a1.343,1.343,0,0,1-1.344-1.344V7.345a1.344,1.344,0,1,1,2.687,0v9.763H51a1.343,1.343,0,0,1,1.344,1.344v7.573A1.343,1.343,0,0,1,51,27.368Z" transform="translate(-34.431 -6.001)" fill="#ffe323"/>
      </g>
      <g id="Grupo_1070825" data-name="Grupo 1070825" transform="translate(25.987 56.882)">
        <path id="Trazado_816353" data-name="Trazado 816353" d="M42.179,57.484H22.44A1.343,1.343,0,0,1,21.1,56.14V45.211a1.344,1.344,0,0,1,2.687,0V54.8H40.835V48.054a1.344,1.344,0,1,1,2.687,0V56.14A1.343,1.343,0,0,1,42.179,57.484Z" transform="translate(-21.097 -43.867)" fill="#ffe323"/>
      </g>
      <g id="Grupo_1070826" data-name="Grupo 1070826" transform="translate(54.446 55.791)">
        <path id="Trazado_816354" data-name="Trazado 816354" d="M43.62,57.763a1.343,1.343,0,0,1-1.344-1.344V44.4a1.343,1.343,0,0,1,1.344-1.344h6.2a1.344,1.344,0,0,1,0,2.687H44.964V56.419A1.343,1.343,0,0,1,43.62,57.763Z" transform="translate(-42.276 -43.055)" fill="#ffe323"/>
      </g>
      <g id="Grupo_1070829" data-name="Grupo 1070829" transform="translate(6.867 34.063)">
        <g id="Grupo_1070827" data-name="Grupo 1070827">
          <path id="Trazado_816355" data-name="Trazado 816355" d="M11.062,35.275a4.2,4.2,0,1,1,4.2-4.2A4.2,4.2,0,0,1,11.062,35.275Zm0-5.7A1.508,1.508,0,1,0,12.57,31.08,1.509,1.509,0,0,0,11.062,29.572Z" transform="translate(-6.867 -26.885)" fill="#ffe323"/>
        </g>
        <g id="Grupo_1070828" data-name="Grupo 1070828" transform="translate(5.703 2.851)">
          <path id="Trazado_816356" data-name="Trazado 816356" d="M25.116,31.694H12.455a1.344,1.344,0,1,1,0-2.687H25.116a1.344,1.344,0,1,1,0,2.687Z" transform="translate(-11.111 -29.007)" fill="#ffe323"/>
        </g>
      </g>
    </g>
  </g>
</svg>
