<svg xmlns="http://www.w3.org/2000/svg" width="356.735" height="29.869" viewBox="0 0 356.735 29.869">
  <path id="Trazado_816222" data-name="Trazado 816222" d="M12.352,12.112,8.6,12.69l.1.361a4.863,4.863,0,0,1,.649-.072c.625,0,.794.168.794.481a1.207,1.207,0,0,1-.048.289L8.817,18.774H8.769c-.024-.577-.577-1.2-1.948-1.2-3.7,0-6.181,5.363-6.181,7.84,0,1.275.361,3.054,2.116,3.054.89,0,2.333-.289,4.112-2.525h.12a5.231,5.231,0,0,0-.24,1.539.894.894,0,0,0,.962.986c1.13,0,2.4-1.443,3.126-2.525l-.265-.289C10.236,26.157,9.562,27,9.081,27q-.361,0-.361-.216a1.207,1.207,0,0,1,.048-.289ZM8.408,20a8.837,8.837,0,0,1-.385,2.525C7.35,24.738,5.762,27,4.079,27c-.673,0-1.347-.409-1.347-1.587,0-2.309,1.948-7.119,4.329-7.119C8.047,18.293,8.408,18.87,8.408,20Zm21.62-1.488H20.234V16.587h9.793Zm0,4.885H20.234V21.472h9.793Zm9.488-2.161a15.718,15.718,0,0,1,1.867-7.9A10.808,10.808,0,0,1,45.3,8.966l.07.012.446,1.362a10.018,10.018,0,0,0-2.8,4.028,17.346,17.346,0,0,0-1.192,6.846v.153a17.422,17.422,0,0,0,1.186,6.846,10.9,10.9,0,0,0,2.807,4.133l-.446,1.268H45.3a10.812,10.812,0,0,1-3.922-4.362,15.711,15.711,0,0,1-1.867-7.909Zm13.95,0a15.718,15.718,0,0,1,1.867-7.9,10.808,10.808,0,0,1,3.922-4.368l.07.012.446,1.362a10.018,10.018,0,0,0-2.8,4.028,17.346,17.346,0,0,0-1.192,6.846v.153a17.422,17.422,0,0,0,1.186,6.846,10.9,10.9,0,0,0,2.807,4.133l-.446,1.268h-.07a10.812,10.812,0,0,1-3.922-4.362,15.711,15.711,0,0,1-1.867-7.909Zm12.508-1.958-.072-.048.433-1.659-3.8.577.048.385a3.248,3.248,0,0,1,.673-.1c.721,0,.746.337.746.794L61.188,30.39c-.289,1.106-.457,1.828-1.948,1.9l-.072.289H64.8l.072-.289h-.385c-1.2,0-1.467-.505-1.467-1.034a3.731,3.731,0,0,1,.12-.842l.577-2.4a2.141,2.141,0,0,0,1.467.457c3.463,0,6.108-4.064,6.108-7.167,0-2.429-.794-3.728-2.261-3.728a4.243,4.243,0,0,0-2.718,1.395Zm-.938,3.174c.481-2.068,1.732-3.535,3.006-3.535.553,0,1.227.481,1.227,2,0,2.694-1.8,6.854-4.233,6.854a1.534,1.534,0,0,1-1.106-.505Zm14.951,5.724H77.662V13.217l-3.722.035V11.467l6.048-.634Zm16.98-7.609H87.162v-1.82h9.805Zm13.1-2.684h-1.948l-.168.938h-.072c-.048-.625-.577-1.251-1.732-1.251a4.122,4.122,0,0,0-2.188.818A9.353,9.353,0,0,0,99.89,25.7c0,1.371.6,2.766,2.14,2.766.866,0,2.309-.24,3.92-2.477h.144l-1.058,4.425A2.059,2.059,0,0,1,102.8,32.29h-.457l-.072.289h6.012l.072-.289h-.337a1.08,1.08,0,0,1-1.178-1.154,2.376,2.376,0,0,1,.072-.7Zm-2.525,2.164a8.686,8.686,0,0,1-2.958,6.541,2.449,2.449,0,0,1-1.395.409c-1.034,0-1.251-.866-1.251-1.515a10.154,10.154,0,0,1,2.958-6.565,2.432,2.432,0,0,1,1.467-.649C107.225,18.269,107.537,19.015,107.537,20.049Zm10.742,8.129h-2.325V13.217l-3.722.035V11.467l6.048-.634Zm11.578-6.834a15.671,15.671,0,0,1-1.873,7.909,10.888,10.888,0,0,1-3.916,4.362H124l-.446-1.268a10,10,0,0,0,2.789-4.057,17.659,17.659,0,0,0,1.2-6.922v-.153a17.066,17.066,0,0,0-1.239-6.852,11.321,11.321,0,0,0-2.754-4.128L124,8.966h.07a10.884,10.884,0,0,1,3.916,4.368,15.679,15.679,0,0,1,1.873,7.9Zm17.595-3.687h-8.514V16.384l4.3-5.133A12.931,12.931,0,0,0,144.8,9.034a3.7,3.7,0,0,0,.41-1.662,2.22,2.22,0,0,0-.556-1.559,1.976,1.976,0,0,0-1.535-.607,2.3,2.3,0,0,0-1.851.744,2.756,2.756,0,0,0-.636,1.855h-1.789l-.019-.057a3.7,3.7,0,0,1,1.121-2.84,4.3,4.3,0,0,1,3.174-1.163,3.991,3.991,0,0,1,2.891,1.017,3.488,3.488,0,0,1,1.055,2.628,4.191,4.191,0,0,1-.6,2.119,23.643,23.643,0,0,1-1.822,2.6l-3.456,4.05.019.047h6.244Zm20.836,1.327h4.685v2.09h-4.685v5.39h-2.313v-5.39h-4.721v-2.09h4.721V14.016h2.313Zm13.222,2.255a15.718,15.718,0,0,1,1.867-7.9A10.808,10.808,0,0,1,187.3,8.966l.07.012.446,1.362a10.019,10.019,0,0,0-2.8,4.028,17.346,17.346,0,0,0-1.192,6.846v.153a17.422,17.422,0,0,0,1.186,6.846,10.9,10.9,0,0,0,2.807,4.133l-.446,1.268h-.07a10.812,10.812,0,0,1-3.922-4.362,15.711,15.711,0,0,1-1.867-7.909Zm12.508-1.958-.072-.048.433-1.659-3.8.577.048.385a3.248,3.248,0,0,1,.673-.1c.721,0,.746.337.746.794L189.234,30.39c-.289,1.106-.457,1.828-1.948,1.9l-.072.289h5.628l.072-.289h-.385c-1.2,0-1.467-.505-1.467-1.034a3.731,3.731,0,0,1,.12-.842l.577-2.4a2.141,2.141,0,0,0,1.467.457c3.463,0,6.109-4.064,6.109-7.167,0-2.429-.794-3.728-2.261-3.728a4.243,4.243,0,0,0-2.718,1.395Zm-.938,3.174c.481-2.068,1.732-3.535,3.006-3.535.553,0,1.227.481,1.227,2,0,2.694-1.8,6.854-4.233,6.854a1.534,1.534,0,0,1-1.106-.505Zm18.99,5.724H201.456V26.592l5.366-6.4a16.124,16.124,0,0,0,1.943-2.765,4.615,4.615,0,0,0,.511-2.073,2.767,2.767,0,0,0-.693-1.943,2.464,2.464,0,0,0-1.914-.757,2.867,2.867,0,0,0-2.307.928,3.437,3.437,0,0,0-.793,2.313h-2.231l-.023-.07a4.612,4.612,0,0,1,1.4-3.54,5.36,5.36,0,0,1,3.957-1.45,4.976,4.976,0,0,1,3.605,1.268,4.349,4.349,0,0,1,1.315,3.276,5.225,5.225,0,0,1-.746,2.642,29.481,29.481,0,0,1-2.272,3.241l-4.31,5.049.023.059h7.785Zm18.918-7.609h-9.805v-1.82h9.805Zm19.073-2.684h-1.948l-.168.938h-.072c-.048-.625-.577-1.251-1.732-1.251a4.123,4.123,0,0,0-2.188.818,9.354,9.354,0,0,0-4.064,7.311c0,1.371.6,2.766,2.14,2.766.866,0,2.309-.24,3.92-2.477h.144l-1.058,4.425A2.059,2.059,0,0,1,242.8,32.29h-.457l-.072.289h6.012l.072-.289h-.337a1.08,1.08,0,0,1-1.178-1.154,2.375,2.375,0,0,1,.072-.7Zm-2.525,2.164a8.686,8.686,0,0,1-2.958,6.541,2.449,2.449,0,0,1-1.395.409c-1.034,0-1.251-.866-1.251-1.515a10.154,10.154,0,0,1,2.958-6.565,2.432,2.432,0,0,1,1.467-.649C247.224,18.269,247.537,19.015,247.537,20.049Zm14.782,8.129H251.7V26.592l5.366-6.4a16.123,16.123,0,0,0,1.943-2.765,4.615,4.615,0,0,0,.511-2.073,2.767,2.767,0,0,0-.693-1.943,2.464,2.464,0,0,0-1.914-.757,2.867,2.867,0,0,0-2.307.928,3.437,3.437,0,0,0-.793,2.313h-2.231l-.023-.07a4.612,4.612,0,0,1,1.4-3.54,5.36,5.36,0,0,1,3.957-1.45,4.976,4.976,0,0,1,3.605,1.268,4.349,4.349,0,0,1,1.315,3.276,5.225,5.225,0,0,1-.746,2.642,29.482,29.482,0,0,1-2.272,3.241l-4.31,5.049.023.059h7.785Zm7.539-6.834a15.671,15.671,0,0,1-1.873,7.909,10.888,10.888,0,0,1-3.916,4.362H264l-.446-1.268a10,10,0,0,0,2.789-4.057,17.659,17.659,0,0,0,1.2-6.922v-.153a17.066,17.066,0,0,0-1.239-6.852,11.321,11.321,0,0,0-2.754-4.128L264,8.966h.07a10.884,10.884,0,0,1,3.916,4.368,15.679,15.679,0,0,1,1.873,7.9ZM287,17.656h-8.127V16.442l4.108-4.9a12.344,12.344,0,0,0,1.488-2.117,3.533,3.533,0,0,0,.391-1.587,2.119,2.119,0,0,0-.53-1.488,1.886,1.886,0,0,0-1.465-.58,2.2,2.2,0,0,0-1.767.71,2.631,2.631,0,0,0-.607,1.771h-1.708l-.018-.054a3.53,3.53,0,0,1,1.07-2.71,4.1,4.1,0,0,1,3.03-1.11,3.809,3.809,0,0,1,2.76.971,3.33,3.33,0,0,1,1.007,2.508,4,4,0,0,1-.571,2.023,22.569,22.569,0,0,1-1.74,2.481l-3.3,3.866.018.045H287Zm11.842,3.687a15.671,15.671,0,0,1-1.873,7.909,10.888,10.888,0,0,1-3.916,4.362h-.07l-.446-1.268a10,10,0,0,0,2.789-4.057,17.659,17.659,0,0,0,1.2-6.922v-.153a17.066,17.066,0,0,0-1.239-6.852,11.321,11.321,0,0,0-2.754-4.128l.446-1.268h.07a10.883,10.883,0,0,1,3.916,4.368,15.679,15.679,0,0,1,1.873,7.9Zm20.021,0a15.671,15.671,0,0,1-1.873,7.909,10.888,10.888,0,0,1-3.916,4.362h-.07l-.446-1.268a10,10,0,0,0,2.789-4.057,17.659,17.659,0,0,0,1.2-6.922v-.153a17.066,17.066,0,0,0-1.239-6.852,11.322,11.322,0,0,0-2.754-4.128l.446-1.268h.07a10.884,10.884,0,0,1,3.916,4.368,15.679,15.679,0,0,1,1.873,7.9Zm19.42-2.184h-1.61V8.8l-2.578.024V7.584l4.189-.439Zm5.1,1.017h-1.366l4.945-12.86h1.358Zm13.99-1.017h-7.353v-1.1l3.717-4.433a11.165,11.165,0,0,0,1.346-1.916,3.2,3.2,0,0,0,.354-1.436,1.917,1.917,0,0,0-.48-1.346,1.707,1.707,0,0,0-1.326-.525,1.986,1.986,0,0,0-1.6.643,2.38,2.38,0,0,0-.549,1.6h-1.545l-.016-.049a3.194,3.194,0,0,1,.968-2.452,3.712,3.712,0,0,1,2.741-1,3.447,3.447,0,0,1,2.5.878,3.013,3.013,0,0,1,.911,2.269,3.62,3.62,0,0,1-.517,1.83,20.419,20.419,0,0,1-1.574,2.245l-2.985,3.5.016.041h5.393Z" transform="translate(-0.64 -3.745)" fill="#3a3e44"/>
</svg>
