<svg xmlns="http://www.w3.org/2000/svg" width="400" height="357" viewBox="0 0 400 357">
  <g id="Grupo_1071480" data-name="Grupo 1071480" transform="translate(-600 -4921)">
    <rect id="Rectángulo_375511" data-name="Rectángulo 375511" width="400" height="357" transform="translate(600 4921)" fill="#fff"/>
    <g id="Grupo_1071479" data-name="Grupo 1071479" transform="translate(4.441 7.367)">
      <rect id="Rectángulo_375505" data-name="Rectángulo 375505" width="188" height="35" rx="6" transform="translate(787.559 5053.633)" fill="#78f0f4"/>
      <rect id="Rectángulo_375507" data-name="Rectángulo 375507" width="156" height="35" rx="6" transform="translate(787.559 5101.633)" fill="#fda729"/>
      <rect id="Rectángulo_375508" data-name="Rectángulo 375508" width="156" height="34" rx="6" transform="translate(787.559 5141.633)" fill="#fda729"/>
      <rect id="Rectángulo_375509" data-name="Rectángulo 375509" width="156" height="35" rx="6" transform="translate(787.559 5179.633)" fill="#fda729"/>
      <path id="Trazado_818002" data-name="Trazado 818002" d="M6.482-3.2h.044l2.41-7.463h3.274V0H9.734V-6.87L9.69-6.877,7.339,0H5.676L3.369-6.775l-.044.007V0H.85V-10.664H4.094ZM17.278.154A3.679,3.679,0,0,1,14.454-.937,3.881,3.881,0,0,1,13.433-3.7v-.278A4.434,4.434,0,0,1,14.4-6.936a3.421,3.421,0,0,1,2.787-1.135,3.209,3.209,0,0,1,2.487.959,3.735,3.735,0,0,1,.883,2.629v1.3H16.011L16-3.142a1.539,1.539,0,0,0,.461,1.007,1.611,1.611,0,0,0,1.157.385A5.016,5.016,0,0,0,18.8-1.868a7.456,7.456,0,0,0,1.08-.374l.593,1.509a4.53,4.53,0,0,1-1.377.63A6.355,6.355,0,0,1,17.278.154Zm-.1-6.321a1.021,1.021,0,0,0-.875.377,1.893,1.893,0,0,0-.326,1.022L16-4.731h2.139v-.19a1.647,1.647,0,0,0-.216-.93A.828.828,0,0,0,17.183-6.167ZM24.441-9.9v1.97h1.252v1.714H24.441v3.633a.889.889,0,0,0,.172.612.6.6,0,0,0,.465.187,2.488,2.488,0,0,0,.3-.015,2.632,2.632,0,0,0,.289-.059L25.84-.022a5.976,5.976,0,0,1-.674.135,5.427,5.427,0,0,1-.71.04A2.474,2.474,0,0,1,22.6-.5a2.877,2.877,0,0,1-.634-2.065V-6.211H20.859V-7.925h1.106V-9.9ZM31.472-.007a2.99,2.99,0,0,1-.238-.564,4.324,4.324,0,0,1-.15-.659,3.028,3.028,0,0,1-.795,1.007,1.918,1.918,0,0,1-1.234.377,2.744,2.744,0,0,1-1.937-.641,2.264,2.264,0,0,1-.692-1.747,2.113,2.113,0,0,1,.886-1.82A4.594,4.594,0,0,1,30-4.695h1.018v-.564a1.129,1.129,0,0,0-.242-.776.941.941,0,0,0-.74-.271.893.893,0,0,0-.641.2.835.835,0,0,0-.209.626l-2.4-.007L26.77-5.53a2.067,2.067,0,0,1,.9-1.813A4.053,4.053,0,0,1,30.2-8.071a3.691,3.691,0,0,1,2.384.732,2.531,2.531,0,0,1,.912,2.095v2.988A6.1,6.1,0,0,0,33.6-1.084,6.276,6.276,0,0,0,33.918,0Zm-1.743-1.6a1.508,1.508,0,0,0,.8-.212,1.216,1.216,0,0,0,.487-.505V-3.376h-1a1.119,1.119,0,0,0-.857.286,1.027,1.027,0,0,0-.264.725.7.7,0,0,0,.231.546A.856.856,0,0,0,29.729-1.611Zm4.79-2.336a5.039,5.039,0,0,1,.809-2.988A2.639,2.639,0,0,1,37.61-8.071a1.968,1.968,0,0,1,.992.253A2.625,2.625,0,0,1,39.4-7.1v-4.329h2.476V0H39.7l-.168-.967a2.665,2.665,0,0,1-.839.831,2.092,2.092,0,0,1-1.1.289A2.664,2.664,0,0,1,35.325-.93a4.686,4.686,0,0,1-.806-2.864Zm2.476.154a3.291,3.291,0,0,0,.282,1.505.985.985,0,0,0,.948.538,1.561,1.561,0,0,0,.685-.143,1.227,1.227,0,0,0,.487-.421v-3.2A1.348,1.348,0,0,0,38.914-6a1.327,1.327,0,0,0-.674-.168.988.988,0,0,0-.952.608,3.742,3.742,0,0,0-.293,1.611ZM47.856-.007a2.99,2.99,0,0,1-.238-.564,4.324,4.324,0,0,1-.15-.659,3.028,3.028,0,0,1-.795,1.007,1.918,1.918,0,0,1-1.234.377A2.744,2.744,0,0,1,43.5-.487a2.264,2.264,0,0,1-.692-1.747,2.113,2.113,0,0,1,.886-1.82,4.594,4.594,0,0,1,2.688-.641H47.4v-.564a1.129,1.129,0,0,0-.242-.776.941.941,0,0,0-.74-.271.893.893,0,0,0-.641.2.835.835,0,0,0-.209.626l-2.4-.007-.015-.044a2.067,2.067,0,0,1,.9-1.813,4.053,4.053,0,0,1,2.523-.729,3.691,3.691,0,0,1,2.384.732,2.531,2.531,0,0,1,.912,2.095v2.988a6.1,6.1,0,0,0,.106,1.172A6.276,6.276,0,0,0,50.3,0Zm-1.743-1.6a1.508,1.508,0,0,0,.8-.212,1.216,1.216,0,0,0,.487-.505V-3.376h-1a1.119,1.119,0,0,0-.857.286,1.027,1.027,0,0,0-.264.725.7.7,0,0,0,.231.546A.856.856,0,0,0,46.113-1.611ZM54.075-9.9v1.97h1.252v1.714H54.075v3.633a.889.889,0,0,0,.172.612.6.6,0,0,0,.465.187,2.488,2.488,0,0,0,.3-.015,2.632,2.632,0,0,0,.289-.059l.168,1.831A5.976,5.976,0,0,1,54.8.114a5.427,5.427,0,0,1-.71.04A2.474,2.474,0,0,1,52.233-.5,2.877,2.877,0,0,1,51.6-2.563V-6.211H50.493V-7.925H51.6V-9.9ZM56.2-4.036a4.189,4.189,0,0,1,1.011-2.911,3.6,3.6,0,0,1,2.82-1.124,3.606,3.606,0,0,1,2.827,1.124,4.189,4.189,0,0,1,1.011,2.911v.154A4.186,4.186,0,0,1,62.856-.967,3.594,3.594,0,0,1,60.044.154,3.621,3.621,0,0,1,57.209-.967,4.186,4.186,0,0,1,56.2-3.882Zm2.476.154a3.276,3.276,0,0,0,.311,1.564,1.107,1.107,0,0,0,1.058.568,1.1,1.1,0,0,0,1.04-.571,3.248,3.248,0,0,0,.315-1.56v-.154a3.26,3.26,0,0,0-.315-1.549,1.1,1.1,0,0,0-1.055-.582,1.088,1.088,0,0,0-1.044.586,3.3,3.3,0,0,0-.311,1.545ZM69.089-2.227a.646.646,0,0,0-.333-.524,3.594,3.594,0,0,0-1.212-.414A4.785,4.785,0,0,1,65.457-4a1.9,1.9,0,0,1-.7-1.564,2.228,2.228,0,0,1,.879-1.776,3.615,3.615,0,0,1,2.38-.729,4.088,4.088,0,0,1,2.52.707,2.078,2.078,0,0,1,.894,1.827l-.015.044h-2.4a.982.982,0,0,0-.234-.71,1.037,1.037,0,0,0-.769-.242,1.006,1.006,0,0,0-.652.212.666.666,0,0,0-.264.542.645.645,0,0,0,.3.535,3.438,3.438,0,0,0,1.227.4,4.928,4.928,0,0,1,2.153.853,1.957,1.957,0,0,1,.7,1.608,2.1,2.1,0,0,1-.948,1.761,4.16,4.16,0,0,1-2.509.692,3.762,3.762,0,0,1-2.56-.82,2.26,2.26,0,0,1-.9-1.831l.015-.044h2.241a.993.993,0,0,0,.341.813,1.5,1.5,0,0,0,.927.249,1.237,1.237,0,0,0,.754-.194A.652.652,0,0,0,69.089-2.227ZM76.04-3.948a5.039,5.039,0,0,1,.809-2.988,2.639,2.639,0,0,1,2.281-1.135,1.968,1.968,0,0,1,.992.253,2.625,2.625,0,0,1,.795.721v-4.329h2.476V0H81.226l-.168-.967a2.665,2.665,0,0,1-.839.831,2.092,2.092,0,0,1-1.1.289A2.664,2.664,0,0,1,76.846-.93a4.686,4.686,0,0,1-.806-2.864Zm2.476.154A3.291,3.291,0,0,0,78.8-2.289a.985.985,0,0,0,.948.538,1.561,1.561,0,0,0,.685-.143,1.227,1.227,0,0,0,.487-.421v-3.2A1.348,1.348,0,0,0,80.435-6a1.327,1.327,0,0,0-.674-.168.988.988,0,0,0-.952.608,3.742,3.742,0,0,0-.293,1.611Zm9.8,3.948A3.679,3.679,0,0,1,85.492-.937,3.881,3.881,0,0,1,84.47-3.7v-.278a4.434,4.434,0,0,1,.963-2.959A3.421,3.421,0,0,1,88.22-8.071a3.209,3.209,0,0,1,2.487.959,3.735,3.735,0,0,1,.883,2.629v1.3H87.048l-.015.044A1.539,1.539,0,0,0,87.5-2.135a1.611,1.611,0,0,0,1.157.385,5.016,5.016,0,0,0,1.183-.117,7.456,7.456,0,0,0,1.08-.374l.593,1.509a4.53,4.53,0,0,1-1.377.63A6.355,6.355,0,0,1,88.315.154Zm-.1-6.321a1.021,1.021,0,0,0-.875.377,1.893,1.893,0,0,0-.326,1.022l.015.037h2.139v-.19a1.647,1.647,0,0,0-.216-.93A.828.828,0,0,0,88.22-6.167Zm8.547,3.94a.646.646,0,0,0-.333-.524,3.594,3.594,0,0,0-1.212-.414A4.785,4.785,0,0,1,93.135-4a1.9,1.9,0,0,1-.7-1.564,2.228,2.228,0,0,1,.879-1.776,3.615,3.615,0,0,1,2.38-.729,4.088,4.088,0,0,1,2.52.707A2.078,2.078,0,0,1,99.1-5.537l-.015.044h-2.4a.982.982,0,0,0-.234-.71,1.037,1.037,0,0,0-.769-.242,1.006,1.006,0,0,0-.652.212.666.666,0,0,0-.264.542.645.645,0,0,0,.3.535,3.438,3.438,0,0,0,1.227.4,4.928,4.928,0,0,1,2.153.853,1.957,1.957,0,0,1,.7,1.608A2.1,2.1,0,0,1,98.2-.538a4.16,4.16,0,0,1-2.509.692,3.762,3.762,0,0,1-2.56-.82,2.26,2.26,0,0,1-.9-1.831l.015-.044H94.49a.993.993,0,0,0,.341.813,1.5,1.5,0,0,0,.927.249,1.237,1.237,0,0,0,.754-.194A.652.652,0,0,0,96.768-2.227Zm6.936.476a.968.968,0,0,0,.754-.275,1.144,1.144,0,0,0,.249-.795h2.256l.015.044a2.6,2.6,0,0,1-.9,2.113A3.462,3.462,0,0,1,103.7.154a3.506,3.506,0,0,1-2.787-1.117,4.259,4.259,0,0,1-.978-2.911v-.168a4.272,4.272,0,0,1,.974-2.908,3.48,3.48,0,0,1,2.776-1.121,3.409,3.409,0,0,1,2.413.839,2.893,2.893,0,0,1,.875,2.3l-.015.044h-2.256a1.534,1.534,0,0,0-.256-.919.879.879,0,0,0-.762-.355,1.018,1.018,0,0,0-1,.575,3.555,3.555,0,0,0-.282,1.549v.168a3.542,3.542,0,0,0,.282,1.56A1.033,1.033,0,0,0,103.7-1.75Zm8.665-4.065-.806-.007a1.372,1.372,0,0,0-.7.157.971.971,0,0,0-.4.443V0h-2.476V-7.925h2.329l.088,1.165a2.39,2.39,0,0,1,.659-.967,1.447,1.447,0,0,1,.959-.344,1.841,1.841,0,0,1,.3.022,2.271,2.271,0,0,1,.278.066ZM115.869,0h-2.483V-7.925h2.483Zm0-9.763h-2.483v-1.663h2.483Zm8.855,5.969a4.683,4.683,0,0,1-.806,2.867,2.667,2.667,0,0,1-2.271,1.08,2.254,2.254,0,0,1-1.014-.22,2.258,2.258,0,0,1-.773-.637v3.75h-2.476V-7.925h2.336l.073.864a2.408,2.408,0,0,1,.787-.747,2.068,2.068,0,0,1,1.051-.264,2.639,2.639,0,0,1,2.281,1.135,5.039,5.039,0,0,1,.809,2.988Zm-2.468-.154a3.742,3.742,0,0,0-.293-1.611.978.978,0,0,0-.937-.608,1.49,1.49,0,0,0-.707.154,1.135,1.135,0,0,0-.458.447v3.311a1.061,1.061,0,0,0,.465.381,1.808,1.808,0,0,0,.714.125.973.973,0,0,0,.934-.538,3.291,3.291,0,0,0,.282-1.505Zm6.4-5.947v1.97h1.252v1.714h-1.252v3.633a.889.889,0,0,0,.172.612.6.6,0,0,0,.465.187,2.488,2.488,0,0,0,.3-.015,2.632,2.632,0,0,0,.289-.059l.168,1.831a5.976,5.976,0,0,1-.674.135,5.427,5.427,0,0,1-.71.04A2.474,2.474,0,0,1,126.815-.5a2.877,2.877,0,0,1-.634-2.065V-6.211h-1.106V-7.925h1.106V-9.9ZM133.7,0h-2.483V-7.925H133.7Zm0-9.763h-2.483v-1.663H133.7Zm4.482,6.5.146.842.044.007.161-.85,1.047-4.658h2.6L139.607,0h-2.512l-2.578-7.925h2.607Zm4.307-.769A4.189,4.189,0,0,1,143.5-6.947a3.6,3.6,0,0,1,2.82-1.124,3.606,3.606,0,0,1,2.827,1.124,4.189,4.189,0,0,1,1.011,2.911v.154A4.186,4.186,0,0,1,149.15-.967,3.594,3.594,0,0,1,146.338.154,3.621,3.621,0,0,1,143.5-.967a4.186,4.186,0,0,1-1.011-2.915Zm2.476.154a3.276,3.276,0,0,0,.311,1.564,1.107,1.107,0,0,0,1.058.568,1.1,1.1,0,0,0,1.04-.571,3.248,3.248,0,0,0,.315-1.56v-.154a3.26,3.26,0,0,0-.315-1.549,1.1,1.1,0,0,0-1.055-.582,1.088,1.088,0,0,0-1.044.586,3.3,3.3,0,0,0-.311,1.545Zm10.415,1.655a.646.646,0,0,0-.333-.524,3.594,3.594,0,0,0-1.212-.414A4.785,4.785,0,0,1,151.75-4a1.9,1.9,0,0,1-.7-1.564,2.228,2.228,0,0,1,.879-1.776,3.615,3.615,0,0,1,2.38-.729,4.088,4.088,0,0,1,2.52.707,2.078,2.078,0,0,1,.894,1.827l-.015.044h-2.4a.982.982,0,0,0-.234-.71,1.037,1.037,0,0,0-.769-.242,1.006,1.006,0,0,0-.652.212.666.666,0,0,0-.264.542.645.645,0,0,0,.3.535,3.438,3.438,0,0,0,1.227.4,4.928,4.928,0,0,1,2.153.853,1.957,1.957,0,0,1,.7,1.608,2.1,2.1,0,0,1-.948,1.761,4.16,4.16,0,0,1-2.509.692,3.762,3.762,0,0,1-2.56-.82,2.26,2.26,0,0,1-.9-1.831l.015-.044h2.241a.993.993,0,0,0,.341.813,1.5,1.5,0,0,0,.927.249,1.237,1.237,0,0,0,.754-.194A.652.652,0,0,0,155.383-2.227Z" transform="translate(795.559 5074.633)" fill="#12263f"/>
      <path id="Trazado_818007" data-name="Trazado 818007" d="M1.245,0V-10.664H4.6A4.511,4.511,0,0,1,7.958-9.379,4.523,4.523,0,0,1,9.229-6.057V-4.6A4.507,4.507,0,0,1,7.958-1.278,4.525,4.525,0,0,1,4.6,0ZM2.688-9.529v8.4H4.6A2.941,2.941,0,0,0,6.932-2.1a3.652,3.652,0,0,0,.853-2.5V-6.072a3.631,3.631,0,0,0-.853-2.483A2.941,2.941,0,0,0,4.6-9.529ZM12.766,0H11.323V-7.925h1.443Zm0-9.954H11.323v-1.472h1.443ZM19.856,0q-.073-.359-.114-.634a4.65,4.65,0,0,1-.048-.553,3.364,3.364,0,0,1-1.051.956,2.688,2.688,0,0,1-1.4.385A2.59,2.59,0,0,1,15.363-.48a2.33,2.33,0,0,1-.648-1.747A2.047,2.047,0,0,1,15.634-4a4.293,4.293,0,0,1,2.494-.641h1.567v-.784a1.454,1.454,0,0,0-.425-1.1,1.668,1.668,0,0,0-1.2-.406,1.743,1.743,0,0,0-1.135.352,1.055,1.055,0,0,0-.432.842l-1.37.015-.015-.044a1.9,1.9,0,0,1,.809-1.582,3.354,3.354,0,0,1,2.223-.718,3.272,3.272,0,0,1,2.168.685,2.426,2.426,0,0,1,.82,1.974V-1.6a7.428,7.428,0,0,0,.044.82A4.218,4.218,0,0,0,21.343,0Zm-2.4-1.055a2.568,2.568,0,0,0,1.414-.4,1.915,1.915,0,0,0,.82-.923V-3.669H18.076a2.1,2.1,0,0,0-1.4.439A1.314,1.314,0,0,0,16.157-2.2a1.087,1.087,0,0,0,.33.835A1.38,1.38,0,0,0,17.461-1.055Zm5.515-2.761A5.289,5.289,0,0,1,23.793-6.9a2.624,2.624,0,0,1,2.281-1.172,2.781,2.781,0,0,1,1.326.3,2.667,2.667,0,0,1,.959.875l.176-1.033h1.15V.044a3.023,3.023,0,0,1-.886,2.34,3.641,3.641,0,0,1-2.556.817,5.359,5.359,0,0,1-1.234-.157,4.825,4.825,0,0,1-1.168-.428l.22-1.121a4.172,4.172,0,0,0,1.007.355,5.172,5.172,0,0,0,1.161.135,2.1,2.1,0,0,0,1.534-.48,1.988,1.988,0,0,0,.48-1.461v-.9a2.555,2.555,0,0,1-.93.754A2.9,2.9,0,0,1,26.06.154,2.71,2.71,0,0,1,23.793-.9a4.382,4.382,0,0,1-.817-2.765Zm1.443.154a3.368,3.368,0,0,0,.491,1.919,1.7,1.7,0,0,0,1.516.725,1.907,1.907,0,0,0,1.091-.3,2.251,2.251,0,0,0,.725-.839V-5.8a2.238,2.238,0,0,0-.725-.8,1.9,1.9,0,0,0-1.077-.3,1.643,1.643,0,0,0-1.527.857,4.423,4.423,0,0,0-.494,2.227ZM35.508-6.65l-.74-.044a1.652,1.652,0,0,0-.963.271,1.739,1.739,0,0,0-.6.762V0H31.758V-7.925h1.289l.139,1.157a2.751,2.751,0,0,1,.831-.959,1.944,1.944,0,0,1,1.139-.344,1.783,1.783,0,0,1,.308.026,2.039,2.039,0,0,1,.242.055ZM41.88,0q-.073-.359-.114-.634a4.65,4.65,0,0,1-.048-.553,3.364,3.364,0,0,1-1.051.956,2.688,2.688,0,0,1-1.4.385A2.59,2.59,0,0,1,37.386-.48a2.33,2.33,0,0,1-.648-1.747A2.047,2.047,0,0,1,37.657-4a4.293,4.293,0,0,1,2.494-.641h1.567v-.784a1.454,1.454,0,0,0-.425-1.1,1.668,1.668,0,0,0-1.2-.406,1.743,1.743,0,0,0-1.135.352,1.055,1.055,0,0,0-.432.842l-1.37.015-.015-.044a1.9,1.9,0,0,1,.809-1.582,3.354,3.354,0,0,1,2.223-.718,3.272,3.272,0,0,1,2.168.685,2.426,2.426,0,0,1,.82,1.974V-1.6a7.428,7.428,0,0,0,.044.82A4.218,4.218,0,0,0,43.367,0Zm-2.4-1.055a2.568,2.568,0,0,0,1.414-.4,1.915,1.915,0,0,0,.82-.923V-3.669H40.1a2.1,2.1,0,0,0-1.4.439A1.314,1.314,0,0,0,38.181-2.2a1.087,1.087,0,0,0,.33.835A1.38,1.38,0,0,0,39.485-1.055Zm7.061-6.87.1,1.04a2.692,2.692,0,0,1,.985-.875,2.96,2.96,0,0,1,1.388-.311,2.452,2.452,0,0,1,1.359.366,2.215,2.215,0,0,1,.853,1.1,2.965,2.965,0,0,1,.992-1.073,2.6,2.6,0,0,1,1.432-.392,2.373,2.373,0,0,1,1.912.831,3.8,3.8,0,0,1,.7,2.5V0H54.829V-4.753a2.634,2.634,0,0,0-.4-1.659,1.469,1.469,0,0,0-1.2-.487,1.529,1.529,0,0,0-1.2.513,2.232,2.232,0,0,0-.538,1.3V0h-1.45V-4.753a2.6,2.6,0,0,0-.414-1.63,1.436,1.436,0,0,0-1.19-.516,1.982,1.982,0,0,0-1.084.271,1.751,1.751,0,0,0-.652.762V0H45.256V-7.925ZM63.237,0q-.073-.359-.114-.634a4.65,4.65,0,0,1-.048-.553,3.364,3.364,0,0,1-1.051.956,2.688,2.688,0,0,1-1.4.385A2.59,2.59,0,0,1,58.744-.48,2.33,2.33,0,0,1,58.1-2.227,2.047,2.047,0,0,1,59.015-4a4.293,4.293,0,0,1,2.494-.641h1.567v-.784a1.454,1.454,0,0,0-.425-1.1,1.668,1.668,0,0,0-1.2-.406,1.743,1.743,0,0,0-1.135.352,1.055,1.055,0,0,0-.432.842l-1.37.015L58.5-5.771a1.9,1.9,0,0,1,.809-1.582,3.354,3.354,0,0,1,2.223-.718,3.272,3.272,0,0,1,2.168.685,2.426,2.426,0,0,1,.82,1.974V-1.6a7.428,7.428,0,0,0,.044.82A4.218,4.218,0,0,0,64.724,0Zm-2.4-1.055a2.568,2.568,0,0,0,1.414-.4,1.915,1.915,0,0,0,.82-.923V-3.669H61.458a2.1,2.1,0,0,0-1.4.439A1.314,1.314,0,0,0,59.539-2.2a1.087,1.087,0,0,0,.33.835A1.38,1.38,0,0,0,60.842-1.055ZM73.623.154A3.353,3.353,0,0,1,70.961-.937,4.2,4.2,0,0,1,70-3.809v-.322a4.112,4.112,0,0,1,.985-2.823A3.089,3.089,0,0,1,73.4-8.071a2.876,2.876,0,0,1,2.384.989,4.074,4.074,0,0,1,.795,2.629v.762H71.506l-.022.037a3.276,3.276,0,0,0,.527,1.937,1.843,1.843,0,0,0,1.611.743,3.63,3.63,0,0,0,1.285-.209,2.869,2.869,0,0,0,.948-.575l.564.938A3.468,3.468,0,0,1,75.3-.128,4.464,4.464,0,0,1,73.623.154ZM73.4-6.936a1.568,1.568,0,0,0-1.249.582,2.755,2.755,0,0,0-.6,1.49l.015.037h3.574v-.117a2.308,2.308,0,0,0-.425-1.428A1.535,1.535,0,0,0,73.4-6.936Zm9.4,4.8a.962.962,0,0,0-.363-.776,3.5,3.5,0,0,0-1.373-.527,5.762,5.762,0,0,1-2.15-.842,1.7,1.7,0,0,1-.751-1.45,2.09,2.09,0,0,1,.824-1.655,3.218,3.218,0,0,1,2.135-.688,3.189,3.189,0,0,1,2.183.732,2.1,2.1,0,0,1,.8,1.707l-.015.044H82.712a1.248,1.248,0,0,0-.45-.93,1.61,1.61,0,0,0-1.139-.417,1.642,1.642,0,0,0-1.139.344,1.074,1.074,0,0,0-.377.82.869.869,0,0,0,.326.725,3.608,3.608,0,0,0,1.344.469,5.679,5.679,0,0,1,2.212.872,1.755,1.755,0,0,1,.754,1.472A2.087,2.087,0,0,1,83.39-.513a3.52,3.52,0,0,1-2.23.667,3.483,3.483,0,0,1-2.388-.769,2.195,2.195,0,0,1-.828-1.794l.015-.044h1.377a1.335,1.335,0,0,0,.571,1.124,2.21,2.21,0,0,0,1.252.355,1.973,1.973,0,0,0,1.2-.326A1,1,0,0,0,82.8-2.131Zm2.908-1.685A5.289,5.289,0,0,1,86.525-6.9a2.631,2.631,0,0,1,2.289-1.172,2.8,2.8,0,0,1,1.267.275A2.628,2.628,0,0,1,91.018-7l.205-.923h1.106V3.047H90.886V-.747a2.473,2.473,0,0,1-.9.674A2.939,2.939,0,0,1,88.8.154,2.72,2.72,0,0,1,86.528-.9a4.368,4.368,0,0,1-.82-2.765Zm1.443.154a3.454,3.454,0,0,0,.494,1.945,1.7,1.7,0,0,0,1.52.743,1.873,1.873,0,0,0,1.014-.264,2.168,2.168,0,0,0,.707-.74v-4a2.183,2.183,0,0,0-.707-.7,1.886,1.886,0,0,0-1-.256,1.644,1.644,0,0,0-1.531.875,4.5,4.5,0,0,0-.5,2.245Zm12.444,2.49a2.684,2.684,0,0,1-.959.981A2.625,2.625,0,0,1,97.28.154a2.546,2.546,0,0,1-2.021-.828,3.843,3.843,0,0,1-.725-2.578V-7.925h1.443v4.688a2.95,2.95,0,0,0,.374,1.743,1.389,1.389,0,0,0,1.165.476,2.373,2.373,0,0,0,1.271-.311,1.948,1.948,0,0,0,.758-.883V-7.925h1.443V0h-1.3ZM106.37.154a3.353,3.353,0,0,1-2.662-1.091,4.2,4.2,0,0,1-.956-2.871v-.322a4.112,4.112,0,0,1,.985-2.823,3.089,3.089,0,0,1,2.406-1.117,2.876,2.876,0,0,1,2.384.989,4.074,4.074,0,0,1,.795,2.629v.762h-5.068l-.022.037a3.276,3.276,0,0,0,.527,1.937,1.843,1.843,0,0,0,1.611.743,3.63,3.63,0,0,0,1.285-.209,2.869,2.869,0,0,0,.948-.575l.564.938a3.468,3.468,0,0,1-1.121.692A4.464,4.464,0,0,1,106.37.154Zm-.227-7.09a1.568,1.568,0,0,0-1.249.582,2.755,2.755,0,0,0-.6,1.49l.015.037h3.574v-.117a2.308,2.308,0,0,0-.425-1.428A1.535,1.535,0,0,0,106.143-6.936Zm6.086-.989.1,1.04a2.692,2.692,0,0,1,.985-.875,2.96,2.96,0,0,1,1.388-.311,2.452,2.452,0,0,1,1.359.366,2.215,2.215,0,0,1,.853,1.1,2.965,2.965,0,0,1,.992-1.073,2.6,2.6,0,0,1,1.432-.392,2.373,2.373,0,0,1,1.912.831,3.8,3.8,0,0,1,.7,2.5V0h-1.443V-4.753a2.634,2.634,0,0,0-.4-1.659,1.469,1.469,0,0,0-1.2-.487,1.529,1.529,0,0,0-1.2.513,2.232,2.232,0,0,0-.538,1.3V0h-1.45V-4.753a2.6,2.6,0,0,0-.414-1.63,1.436,1.436,0,0,0-1.19-.516,1.982,1.982,0,0,0-1.084.271,1.751,1.751,0,0,0-.652.762V0H110.94V-7.925ZM128.921,0q-.073-.359-.114-.634a4.65,4.65,0,0,1-.048-.553,3.364,3.364,0,0,1-1.051.956,2.688,2.688,0,0,1-1.4.385,2.59,2.59,0,0,1-1.886-.634,2.33,2.33,0,0,1-.648-1.747A2.047,2.047,0,0,1,124.7-4a4.293,4.293,0,0,1,2.494-.641h1.567v-.784a1.454,1.454,0,0,0-.425-1.1,1.668,1.668,0,0,0-1.2-.406A1.743,1.743,0,0,0,126-6.584a1.055,1.055,0,0,0-.432.842l-1.37.015-.015-.044a1.9,1.9,0,0,1,.809-1.582,3.354,3.354,0,0,1,2.223-.718,3.272,3.272,0,0,1,2.168.685,2.426,2.426,0,0,1,.82,1.974V-1.6a7.428,7.428,0,0,0,.044.82,4.218,4.218,0,0,0,.161.776Zm-2.4-1.055a2.568,2.568,0,0,0,1.414-.4,1.915,1.915,0,0,0,.82-.923V-3.669h-1.619a2.1,2.1,0,0,0-1.4.439,1.314,1.314,0,0,0-.524,1.033,1.087,1.087,0,0,0,.33.835A1.38,1.38,0,0,0,126.526-1.055Zm1.238-10.232h1.685l.015.044-1.97,1.9h-1.084Zm6.541,1.45v1.912h1.5v1.069h-1.5v4.812a1.077,1.077,0,0,0,.231.784.834.834,0,0,0,.612.227,1.34,1.34,0,0,0,.278-.033,2.064,2.064,0,0,0,.256-.07l.2.989A1.275,1.275,0,0,1,135.4.07a2.4,2.4,0,0,1-.623.084,1.869,1.869,0,0,1-1.4-.531,2.306,2.306,0,0,1-.52-1.666V-6.855H131.6V-7.925h1.26V-9.836ZM138.911,0h-1.443V-7.925h1.443Zm0-9.954h-1.443v-1.472h1.443ZM144.28-.974a1.7,1.7,0,0,0,1.165-.443,1.4,1.4,0,0,0,.5-1.088h1.3l.022.044a2.276,2.276,0,0,1-.879,1.82,3.105,3.105,0,0,1-2.109.795A3.111,3.111,0,0,1,141.7-.981a4.382,4.382,0,0,1-.908-2.827v-.308a4.363,4.363,0,0,1,.912-2.816,3.109,3.109,0,0,1,2.574-1.139,2.99,2.99,0,0,1,2.172.82,2.6,2.6,0,0,1,.817,2.014l-.015.044h-1.311a1.749,1.749,0,0,0-.472-1.234,1.555,1.555,0,0,0-1.19-.509,1.666,1.666,0,0,0-1.549.824,3.857,3.857,0,0,0-.487,2v.308a3.93,3.93,0,0,0,.48,2.014A1.665,1.665,0,0,0,144.28-.974Zm4.365-3.062a4.363,4.363,0,0,1,.952-2.9,3.193,3.193,0,0,1,2.585-1.139,3.224,3.224,0,0,1,2.6,1.135,4.349,4.349,0,0,1,.956,2.9v.161a4.342,4.342,0,0,1-.952,2.9A3.215,3.215,0,0,1,152.2.154a3.221,3.221,0,0,1-2.6-1.132,4.334,4.334,0,0,1-.956-2.9Zm1.443.161a3.759,3.759,0,0,0,.531,2.08,1.758,1.758,0,0,0,1.578.82,1.753,1.753,0,0,0,1.567-.82,3.739,3.739,0,0,0,.535-2.08v-.161a3.728,3.728,0,0,0-.538-2.073,1.764,1.764,0,0,0-1.578-.828,1.74,1.74,0,0,0-1.564.828,3.767,3.767,0,0,0-.531,2.073Zm10.818.059a5.289,5.289,0,0,1,.817-3.083,2.631,2.631,0,0,1,2.289-1.172,2.838,2.838,0,0,1,1.234.256,2.53,2.53,0,0,1,.919.747v-4.358h1.443V0H166.5l-.22-1a2.572,2.572,0,0,1-.959.864A2.866,2.866,0,0,1,164,.154,2.72,2.72,0,0,1,161.726-.9a4.368,4.368,0,0,1-.82-2.765Zm1.443.154a3.364,3.364,0,0,0,.491,1.923,1.714,1.714,0,0,0,1.523.721,1.911,1.911,0,0,0,1.084-.293,2.188,2.188,0,0,0,.718-.82v-3.7a2.222,2.222,0,0,0-.721-.78,1.906,1.906,0,0,0-1.066-.289,1.649,1.649,0,0,0-1.534.857,4.423,4.423,0,0,0-.494,2.227ZM173.042.154A3.353,3.353,0,0,1,170.38-.937a4.2,4.2,0,0,1-.956-2.871v-.322a4.112,4.112,0,0,1,.985-2.823,3.089,3.089,0,0,1,2.406-1.117,2.876,2.876,0,0,1,2.384.989,4.074,4.074,0,0,1,.795,2.629v.762h-5.068l-.022.037a3.276,3.276,0,0,0,.527,1.937,1.843,1.843,0,0,0,1.611.743,3.63,3.63,0,0,0,1.285-.209,2.869,2.869,0,0,0,.948-.575l.564.938a3.468,3.468,0,0,1-1.121.692A4.464,4.464,0,0,1,173.042.154Zm-.227-7.09a1.568,1.568,0,0,0-1.249.582,2.755,2.755,0,0,0-.6,1.49l.015.037h3.574v-.117a2.308,2.308,0,0,0-.425-1.428A1.535,1.535,0,0,0,172.815-6.936Zm13.557,5.764a2.684,2.684,0,0,1-.959.981,2.625,2.625,0,0,1-1.355.344,2.546,2.546,0,0,1-2.021-.828,3.843,3.843,0,0,1-.725-2.578V-7.925h1.443v4.688a2.95,2.95,0,0,0,.374,1.743,1.389,1.389,0,0,0,1.165.476,2.373,2.373,0,0,0,1.271-.311,1.948,1.948,0,0,0,.758-.883V-7.925h1.443V0h-1.3Zm4.783-6.753.1,1.179a2.878,2.878,0,0,1,.992-.978,2.648,2.648,0,0,1,1.359-.348,2.587,2.587,0,0,1,1.985.751A3.3,3.3,0,0,1,196.3-5V0h-1.443V-4.973a2.144,2.144,0,0,0-.414-1.487,1.658,1.658,0,0,0-1.263-.439,2.237,2.237,0,0,0-1.132.267,1.943,1.943,0,0,0-.736.751V0h-1.443V-7.925ZM201.731,0l1.6-10.664h3.354a3.894,3.894,0,0,1,3.127,1.3,3.945,3.945,0,0,1,.813,3.307L210.4-4.6a5.321,5.321,0,0,1-1.761,3.358A5.253,5.253,0,0,1,205.085,0ZM204.6-9.529l-1.26,8.4h1.912a3.421,3.421,0,0,0,2.45-.985A4.208,4.208,0,0,0,208.96-4.6l.22-1.472a3.258,3.258,0,0,0-.469-2.509,2.555,2.555,0,0,0-2.2-.948ZM216.563,0q-.015-.41-.015-.663a4.675,4.675,0,0,1,.029-.516,4.279,4.279,0,0,1-1.2.948,2.993,2.993,0,0,1-1.447.385,2.259,2.259,0,0,1-1.769-.641,2.02,2.02,0,0,1-.406-1.74,2.423,2.423,0,0,1,1.172-1.794,4.869,4.869,0,0,1,2.6-.623H217.1l.117-.784a1.284,1.284,0,0,0-.253-1.117,1.494,1.494,0,0,0-1.146-.392,2,2,0,0,0-1.172.352,1.223,1.223,0,0,0-.571.842l-1.377.015-.007-.044a2.271,2.271,0,0,1,1.047-1.6,3.846,3.846,0,0,1,2.329-.7,2.863,2.863,0,0,1,2.036.692,2.117,2.117,0,0,1,.557,1.967L218.086-1.6A6.268,6.268,0,0,0,218-.765a4.229,4.229,0,0,0,.048.765Zm-2.234-1.055a2.842,2.842,0,0,0,1.45-.41,2.45,2.45,0,0,0,.974-.923l.2-1.282h-1.619a2.381,2.381,0,0,0-1.45.447,1.548,1.548,0,0,0-.688,1.025.948.948,0,0,0,.194.846A1.257,1.257,0,0,0,214.329-1.055Zm9.089-8.782-.286,1.912h1.5l-.161,1.069h-1.5l-.718,4.812a.986.986,0,0,0,.106.795.743.743,0,0,0,.582.216,1.473,1.473,0,0,0,.282-.033,1.964,1.964,0,0,0,.267-.07l.051.989a1.531,1.531,0,0,1-.509.216,2.528,2.528,0,0,1-.634.084,1.627,1.627,0,0,1-1.307-.535,2.019,2.019,0,0,1-.282-1.663l.718-4.812h-1.26l.161-1.069h1.26l.286-1.912ZM229.863,0q-.015-.41-.015-.663a4.675,4.675,0,0,1,.029-.516,4.279,4.279,0,0,1-1.2.948,2.993,2.993,0,0,1-1.447.385,2.259,2.259,0,0,1-1.769-.641,2.02,2.02,0,0,1-.406-1.74,2.423,2.423,0,0,1,1.172-1.794,4.869,4.869,0,0,1,2.6-.623H230.4l.117-.784a1.284,1.284,0,0,0-.253-1.117,1.494,1.494,0,0,0-1.146-.392,2,2,0,0,0-1.172.352,1.223,1.223,0,0,0-.571.842L226-5.728l-.007-.044a2.271,2.271,0,0,1,1.047-1.6,3.846,3.846,0,0,1,2.329-.7,2.863,2.863,0,0,1,2.036.692,2.117,2.117,0,0,1,.557,1.967L231.387-1.6a6.268,6.268,0,0,0-.084.831A4.229,4.229,0,0,0,231.35,0Zm-2.234-1.055a2.842,2.842,0,0,0,1.45-.41,2.45,2.45,0,0,0,.974-.923l.2-1.282h-1.619a2.381,2.381,0,0,0-1.45.447,1.548,1.548,0,0,0-.688,1.025.948.948,0,0,0,.194.846A1.257,1.257,0,0,0,227.629-1.055Zm10.554-1.077a.851.851,0,0,0-.249-.784,3.066,3.066,0,0,0-1.3-.52,5.01,5.01,0,0,1-2.04-.842,1.465,1.465,0,0,1-.546-1.45A2.442,2.442,0,0,1,235.1-7.4a3.689,3.689,0,0,1,2.238-.667,2.818,2.818,0,0,1,2.051.74,1.821,1.821,0,0,1,.593,1.7l-.015.044h-1.384a1.089,1.089,0,0,0-.315-.937,1.421,1.421,0,0,0-1.084-.41A1.851,1.851,0,0,0,236-6.588a1.251,1.251,0,0,0-.509.817.77.77,0,0,0,.22.732A3.231,3.231,0,0,0,237-4.578a4.891,4.891,0,0,1,2.087.872,1.53,1.53,0,0,1,.549,1.472,2.457,2.457,0,0,1-1.091,1.74,4,4,0,0,1-2.329.648,3.078,3.078,0,0,1-2.245-.776,1.906,1.906,0,0,1-.612-1.787l.015-.044h1.384a1.167,1.167,0,0,0,.417,1.124,1.973,1.973,0,0,0,1.2.355,2.16,2.16,0,0,0,1.23-.33A1.219,1.219,0,0,0,238.184-2.131Zm6.16,2.285a2.877,2.877,0,0,1-2.465-1.106,3.688,3.688,0,0,1-.56-2.856l.051-.322a4.745,4.745,0,0,1,1.4-2.856,3.647,3.647,0,0,1,2.582-1.084,2.46,2.46,0,0,1,2.2,1,3.605,3.605,0,0,1,.432,2.615l-.11.762h-5.127A3.145,3.145,0,0,0,243-1.7a1.6,1.6,0,0,0,1.516.729,3.916,3.916,0,0,0,1.307-.212,3.432,3.432,0,0,0,1.044-.571l.425.938a4.169,4.169,0,0,1-1.223.692A4.818,4.818,0,0,1,244.343.154Zm.835-7.09a1.826,1.826,0,0,0-1.315.586,3.338,3.338,0,0,0-.846,1.479l.015.044H246.6l.015-.117a2.115,2.115,0,0,0-.205-1.439A1.322,1.322,0,0,0,245.178-6.936Zm7.236-2.9-.286,1.912h1.5l-.161,1.069h-1.5l-.718,4.812a.986.986,0,0,0,.106.795.743.743,0,0,0,.582.216,1.473,1.473,0,0,0,.282-.033,1.964,1.964,0,0,0,.267-.07l.051.989a1.531,1.531,0,0,1-.509.216,2.528,2.528,0,0,1-.634.084,1.627,1.627,0,0,1-1.307-.535,2.019,2.019,0,0,1-.282-1.663l.718-4.812h-1.26l.161-1.069h1.26l.286-1.912Zm9.17,9.99a3.353,3.353,0,0,1-2.662-1.091,4.2,4.2,0,0,1-.956-2.871v-.322a4.112,4.112,0,0,1,.985-2.823,3.089,3.089,0,0,1,2.406-1.117,2.876,2.876,0,0,1,2.384.989,4.074,4.074,0,0,1,.795,2.629v.762h-5.068l-.022.037a3.276,3.276,0,0,0,.527,1.937,1.843,1.843,0,0,0,1.611.743,3.63,3.63,0,0,0,1.285-.209,2.869,2.869,0,0,0,.948-.575l.564.938a3.468,3.468,0,0,1-1.121.692A4.464,4.464,0,0,1,261.584.154Zm-.227-7.09a1.568,1.568,0,0,0-1.249.582,2.755,2.755,0,0,0-.6,1.49l.015.037h3.574v-.117a2.308,2.308,0,0,0-.425-1.428A1.535,1.535,0,0,0,261.357-6.936Zm6.086-.989.1,1.179a2.878,2.878,0,0,1,.992-.978,2.648,2.648,0,0,1,1.359-.348,2.587,2.587,0,0,1,1.985.751,3.3,3.3,0,0,1,.7,2.318V0h-1.443V-4.973a2.144,2.144,0,0,0-.414-1.487,1.658,1.658,0,0,0-1.263-.439,2.237,2.237,0,0,0-1.132.267,1.943,1.943,0,0,0-.736.751V0h-1.443V-7.925Zm10.62,4.109a6.01,6.01,0,0,1,1.274-3.12,3.125,3.125,0,0,1,2.468-1.135,2.453,2.453,0,0,1,1.183.271,2.147,2.147,0,0,1,.817.784l.659-4.409h1.443L284.194,0h-1.106l-.066-1a3.218,3.218,0,0,1-1.091.864,3.145,3.145,0,0,1-1.37.293,2.318,2.318,0,0,1-2.087-1.062,3.872,3.872,0,0,1-.432-2.754Zm1.421.154a3.078,3.078,0,0,0,.194,1.941,1.477,1.477,0,0,0,1.425.7,2.09,2.09,0,0,0,1.113-.3,2.839,2.839,0,0,0,.857-.835l.549-3.669a1.787,1.787,0,0,0-.6-.787A1.7,1.7,0,0,0,282-6.9a1.974,1.974,0,0,0-1.644.868,4.808,4.808,0,0,0-.846,2.216ZM291.218,0q-.015-.41-.015-.663a4.675,4.675,0,0,1,.029-.516,4.279,4.279,0,0,1-1.2.948,2.993,2.993,0,0,1-1.447.385,2.259,2.259,0,0,1-1.769-.641,2.02,2.02,0,0,1-.406-1.74,2.423,2.423,0,0,1,1.172-1.794,4.869,4.869,0,0,1,2.6-.623h1.567l.117-.784a1.284,1.284,0,0,0-.253-1.117,1.494,1.494,0,0,0-1.146-.392,2,2,0,0,0-1.172.352,1.223,1.223,0,0,0-.571.842l-1.377.015-.007-.044a2.271,2.271,0,0,1,1.047-1.6,3.846,3.846,0,0,1,2.329-.7,2.863,2.863,0,0,1,2.036.692,2.117,2.117,0,0,1,.557,1.967L292.742-1.6a6.268,6.268,0,0,0-.084.831,4.229,4.229,0,0,0,.048.765Zm-2.234-1.055a2.842,2.842,0,0,0,1.45-.41,2.45,2.45,0,0,0,.974-.923l.2-1.282h-1.619a2.381,2.381,0,0,0-1.45.447,1.548,1.548,0,0,0-.688,1.025.948.948,0,0,0,.194.846A1.257,1.257,0,0,0,288.984-1.055Zm9.089-8.782-.286,1.912h1.5l-.161,1.069h-1.5l-.718,4.812a.986.986,0,0,0,.106.795.743.743,0,0,0,.582.216,1.473,1.473,0,0,0,.282-.033,1.964,1.964,0,0,0,.267-.07l.051.989a1.531,1.531,0,0,1-.509.216,2.528,2.528,0,0,1-.634.084,1.627,1.627,0,0,1-1.307-.535,2.019,2.019,0,0,1-.282-1.663l.718-4.812h-1.26l.161-1.069h1.26l.286-1.912ZM304.519,0q-.015-.41-.015-.663a4.675,4.675,0,0,1,.029-.516,4.279,4.279,0,0,1-1.2.948,2.993,2.993,0,0,1-1.447.385,2.259,2.259,0,0,1-1.769-.641,2.02,2.02,0,0,1-.406-1.74,2.423,2.423,0,0,1,1.172-1.794,4.869,4.869,0,0,1,2.6-.623h1.567l.117-.784a1.284,1.284,0,0,0-.253-1.117,1.494,1.494,0,0,0-1.146-.392,2,2,0,0,0-1.172.352,1.223,1.223,0,0,0-.571.842l-1.377.015-.007-.044a2.271,2.271,0,0,1,1.047-1.6,3.846,3.846,0,0,1,2.329-.7,2.863,2.863,0,0,1,2.036.692,2.117,2.117,0,0,1,.557,1.967L306.042-1.6a6.268,6.268,0,0,0-.084.831,4.229,4.229,0,0,0,.048.765Zm-2.234-1.055a2.842,2.842,0,0,0,1.45-.41,2.45,2.45,0,0,0,.974-.923l.2-1.282h-1.619a2.381,2.381,0,0,0-1.45.447A1.548,1.548,0,0,0,301.15-2.2a.948.948,0,0,0,.194.846A1.257,1.257,0,0,0,302.285-1.055Zm8.5-1.282.044.557.044.007.22-.564,2.659-5.588h1.472L311.118,0h-1.091l-1.765-7.925h1.479Zm7.712,2.49a2.877,2.877,0,0,1-2.465-1.106,3.688,3.688,0,0,1-.56-2.856l.051-.322a4.745,4.745,0,0,1,1.4-2.856A3.647,3.647,0,0,1,319.5-8.071a2.46,2.46,0,0,1,2.2,1,3.605,3.605,0,0,1,.432,2.615l-.11.762H316.9a3.145,3.145,0,0,0,.249,1.989,1.6,1.6,0,0,0,1.516.729,3.916,3.916,0,0,0,1.307-.212,3.432,3.432,0,0,0,1.044-.571l.425.938a4.169,4.169,0,0,1-1.223.692A4.818,4.818,0,0,1,318.494.154Zm.835-7.09a1.826,1.826,0,0,0-1.315.586,3.338,3.338,0,0,0-.846,1.479l.015.044h3.567l.015-.117a2.115,2.115,0,0,0-.205-1.439A1.322,1.322,0,0,0,319.329-6.936Zm8.5.286-.732-.044a1.782,1.782,0,0,0-1,.282,2.334,2.334,0,0,0-.732.795L324.529,0h-1.443l1.187-7.925h1.289L325.532-6.8a3.33,3.33,0,0,1,.967-.934,2.235,2.235,0,0,1,1.194-.333,1.8,1.8,0,0,1,.3.026,1.675,1.675,0,0,1,.238.055Zm5.449,4.519a.851.851,0,0,0-.249-.784,3.066,3.066,0,0,0-1.3-.52,5.01,5.01,0,0,1-2.04-.842,1.465,1.465,0,0,1-.546-1.45A2.442,2.442,0,0,1,330.194-7.4a3.689,3.689,0,0,1,2.238-.667,2.818,2.818,0,0,1,2.051.74,1.821,1.821,0,0,1,.593,1.7l-.015.044h-1.384a1.089,1.089,0,0,0-.315-.937,1.421,1.421,0,0,0-1.084-.41,1.851,1.851,0,0,0-1.176.348,1.251,1.251,0,0,0-.509.817.77.77,0,0,0,.22.732,3.231,3.231,0,0,0,1.289.461,4.891,4.891,0,0,1,2.087.872,1.53,1.53,0,0,1,.549,1.472,2.457,2.457,0,0,1-1.091,1.74,4,4,0,0,1-2.329.648,3.078,3.078,0,0,1-2.245-.776,1.906,1.906,0,0,1-.612-1.787l.015-.044h1.384a1.167,1.167,0,0,0,.417,1.124,1.973,1.973,0,0,0,1.2.355,2.16,2.16,0,0,0,1.23-.33A1.219,1.219,0,0,0,333.281-2.131Zm6.16,2.285a2.877,2.877,0,0,1-2.465-1.106,3.688,3.688,0,0,1-.56-2.856l.051-.322a4.745,4.745,0,0,1,1.4-2.856,3.647,3.647,0,0,1,2.582-1.084,2.46,2.46,0,0,1,2.2,1,3.605,3.605,0,0,1,.432,2.615l-.11.762h-5.127a3.145,3.145,0,0,0,.249,1.989,1.6,1.6,0,0,0,1.516.729,3.916,3.916,0,0,0,1.307-.212,3.432,3.432,0,0,0,1.044-.571l.425.938a4.169,4.169,0,0,1-1.223.692A4.818,4.818,0,0,1,339.441.154Zm.835-7.09a1.826,1.826,0,0,0-1.315.586,3.338,3.338,0,0,0-.846,1.479l.015.044H341.7l.015-.117a2.115,2.115,0,0,0-.205-1.439A1.322,1.322,0,0,0,340.276-6.936ZM353.84-3.589h1.472v1.128H353.84V0H352.4V-2.461h-4.578v-.813l4.49-7.39h1.523Zm-4.468,0H352.4v-5l-.044-.007-.139.366ZM358.367,0h-1.443V-1.479h1.443Zm9.009-3.765A4.208,4.208,0,0,1,366.456-.9,3.113,3.113,0,0,1,363.984.154,3.127,3.127,0,0,1,361.512-.9a4.187,4.187,0,0,1-.927-2.864V-6.9a4.214,4.214,0,0,1,.919-2.856,3.1,3.1,0,0,1,2.465-1.062,3.125,3.125,0,0,1,2.479,1.062,4.193,4.193,0,0,1,.927,2.856ZM365.933-7.2a2.909,2.909,0,0,0-.513-1.816,1.723,1.723,0,0,0-1.45-.667,1.7,1.7,0,0,0-1.436.667,2.939,2.939,0,0,0-.505,1.816v3.728a2.926,2.926,0,0,0,.516,1.824,1.71,1.71,0,0,0,1.439.674,1.7,1.7,0,0,0,1.443-.67,2.969,2.969,0,0,0,.505-1.827Z" transform="translate(603.559 4954.633)" fill="#12263f"/>
      <path id="Trazado_818008" data-name="Trazado 818008" d="M8.855-3.413l.015.044A3.2,3.2,0,0,1,7.815-.857,4.031,4.031,0,0,1,4.951.154,3.761,3.761,0,0,1,2-1.128,4.714,4.714,0,0,1,.864-4.38v-1.9A4.727,4.727,0,0,1,2-9.532a3.756,3.756,0,0,1,2.948-1.285,4.14,4.14,0,0,1,2.878.963A3.184,3.184,0,0,1,8.87-7.3l-.015.044H7.471a2.38,2.38,0,0,0-.659-1.772,2.532,2.532,0,0,0-1.86-.652,2.272,2.272,0,0,0-1.926.974,3.963,3.963,0,0,0-.718,2.417V-4.38a3.988,3.988,0,0,0,.718,2.432,2.272,2.272,0,0,0,1.926.974,2.541,2.541,0,0,0,1.86-.648,2.4,2.4,0,0,0,.659-1.791Zm1.355-.623a4.363,4.363,0,0,1,.952-2.9,3.193,3.193,0,0,1,2.585-1.139,3.224,3.224,0,0,1,2.6,1.135,4.349,4.349,0,0,1,.956,2.9v.161a4.342,4.342,0,0,1-.952,2.9A3.215,3.215,0,0,1,13.762.154a3.221,3.221,0,0,1-2.6-1.132,4.334,4.334,0,0,1-.956-2.9Zm1.443.161a3.759,3.759,0,0,0,.531,2.08,1.758,1.758,0,0,0,1.578.82,1.753,1.753,0,0,0,1.567-.82,3.739,3.739,0,0,0,.535-2.08v-.161a3.728,3.728,0,0,0-.538-2.073,1.764,1.764,0,0,0-1.578-.828,1.74,1.74,0,0,0-1.564.828,3.767,3.767,0,0,0-.531,2.073Zm8.708-4.05.1,1.179a2.878,2.878,0,0,1,.992-.978,2.648,2.648,0,0,1,1.359-.348,2.587,2.587,0,0,1,1.985.751A3.3,3.3,0,0,1,25.5-5V0H24.06V-4.973a2.144,2.144,0,0,0-.414-1.487A1.658,1.658,0,0,0,22.383-6.9a2.237,2.237,0,0,0-1.132.267,1.943,1.943,0,0,0-.736.751V0H19.072V-7.925ZM29.6-9.836v1.912h1.5v1.069H29.6v4.812a1.077,1.077,0,0,0,.231.784.834.834,0,0,0,.612.227,1.34,1.34,0,0,0,.278-.033,2.064,2.064,0,0,0,.256-.07l.2.989A1.275,1.275,0,0,1,30.7.07a2.4,2.4,0,0,1-.623.084,1.869,1.869,0,0,1-1.4-.531,2.306,2.306,0,0,1-.52-1.666V-6.855H26.9V-7.925h1.26V-9.836ZM35.933.154A3.353,3.353,0,0,1,33.27-.937a4.2,4.2,0,0,1-.956-2.871v-.322A4.112,4.112,0,0,1,33.3-6.954a3.089,3.089,0,0,1,2.406-1.117,2.876,2.876,0,0,1,2.384.989,4.074,4.074,0,0,1,.795,2.629v.762H33.816l-.022.037a3.276,3.276,0,0,0,.527,1.937,1.843,1.843,0,0,0,1.611.743,3.63,3.63,0,0,0,1.285-.209,2.869,2.869,0,0,0,.948-.575l.564.938a3.468,3.468,0,0,1-1.121.692A4.464,4.464,0,0,1,35.933.154Zm-.227-7.09a1.568,1.568,0,0,0-1.249.582,2.755,2.755,0,0,0-.6,1.49l.015.037h3.574v-.117a2.308,2.308,0,0,0-.425-1.428A1.535,1.535,0,0,0,35.706-6.936Zm6.086-.989.1,1.179a2.878,2.878,0,0,1,.992-.978,2.648,2.648,0,0,1,1.359-.348,2.587,2.587,0,0,1,1.985.751A3.3,3.3,0,0,1,46.934-5V0H45.491V-4.973a2.144,2.144,0,0,0-.414-1.487A1.658,1.658,0,0,0,43.813-6.9a2.237,2.237,0,0,0-1.132.267,1.943,1.943,0,0,0-.736.751V0H40.5V-7.925ZM52.31.154A3.353,3.353,0,0,1,49.647-.937a4.2,4.2,0,0,1-.956-2.871v-.322a4.112,4.112,0,0,1,.985-2.823,3.089,3.089,0,0,1,2.406-1.117,2.876,2.876,0,0,1,2.384.989,4.074,4.074,0,0,1,.795,2.629v.762H50.193l-.022.037A3.276,3.276,0,0,0,50.7-1.718a1.843,1.843,0,0,0,1.611.743,3.63,3.63,0,0,0,1.285-.209,2.869,2.869,0,0,0,.948-.575l.564.938a3.468,3.468,0,0,1-1.121.692A4.464,4.464,0,0,1,52.31.154Zm-.227-7.09a1.568,1.568,0,0,0-1.249.582,2.755,2.755,0,0,0-.6,1.49l.015.037h3.574v-.117a2.308,2.308,0,0,0-.425-1.428A1.535,1.535,0,0,0,52.083-6.936Zm4.468,3.12A5.289,5.289,0,0,1,57.367-6.9a2.631,2.631,0,0,1,2.289-1.172,2.838,2.838,0,0,1,1.234.256,2.53,2.53,0,0,1,.919.747v-4.358h1.443V0H62.146l-.22-1a2.572,2.572,0,0,1-.959.864,2.866,2.866,0,0,1-1.326.293A2.72,2.72,0,0,1,57.371-.9a4.368,4.368,0,0,1-.82-2.765Zm1.443.154a3.364,3.364,0,0,0,.491,1.923,1.714,1.714,0,0,0,1.523.721,1.911,1.911,0,0,0,1.084-.293,2.188,2.188,0,0,0,.718-.82v-3.7a2.222,2.222,0,0,0-.721-.78A1.906,1.906,0,0,0,60.022-6.9a1.649,1.649,0,0,0-1.534.857,4.423,4.423,0,0,0-.494,2.227Zm7.075-.374a4.363,4.363,0,0,1,.952-2.9,3.193,3.193,0,0,1,2.585-1.139,3.224,3.224,0,0,1,2.6,1.135,4.349,4.349,0,0,1,.956,2.9v.161a4.342,4.342,0,0,1-.952,2.9A3.215,3.215,0,0,1,68.621.154a3.221,3.221,0,0,1-2.6-1.132,4.334,4.334,0,0,1-.956-2.9Zm1.443.161a3.759,3.759,0,0,0,.531,2.08,1.758,1.758,0,0,0,1.578.82,1.753,1.753,0,0,0,1.567-.82,3.739,3.739,0,0,0,.535-2.08v-.161a3.728,3.728,0,0,0-.538-2.073,1.764,1.764,0,0,0-1.578-.828,1.74,1.74,0,0,0-1.564.828,3.767,3.767,0,0,0-.531,2.073ZM77.681-6.65l-.74-.044a1.652,1.652,0,0,0-.963.271,1.739,1.739,0,0,0-.6.762V0H73.931V-7.925H75.22l.139,1.157a2.751,2.751,0,0,1,.831-.959,1.944,1.944,0,0,1,1.139-.344,1.783,1.783,0,0,1,.308.026,2.039,2.039,0,0,1,.242.055ZM89.663-3.662A4.368,4.368,0,0,1,88.843-.9,2.712,2.712,0,0,1,86.58.154a3.144,3.144,0,0,1-1.285-.245,2.458,2.458,0,0,1-.941-.736V3.047H82.91V-7.925h1.106L84.243-6.9a2.617,2.617,0,0,1,.967-.872,2.886,2.886,0,0,1,1.348-.3A2.634,2.634,0,0,1,88.846-6.9a5.285,5.285,0,0,1,.817,3.087ZM88.22-3.816a4.188,4.188,0,0,0-.531-2.216A1.721,1.721,0,0,0,86.125-6.9a1.925,1.925,0,0,0-1.062.282,2.109,2.109,0,0,0-.71.773v3.831a2.049,2.049,0,0,0,.71.765,1.993,1.993,0,0,0,1.077.275,1.776,1.776,0,0,0,1.553-.751,3.3,3.3,0,0,0,.527-1.937ZM96.306,0q-.073-.359-.114-.634a4.65,4.65,0,0,1-.048-.553,3.364,3.364,0,0,1-1.051.956,2.688,2.688,0,0,1-1.4.385A2.59,2.59,0,0,1,91.813-.48a2.33,2.33,0,0,1-.648-1.747A2.047,2.047,0,0,1,92.084-4a4.293,4.293,0,0,1,2.494-.641h1.567v-.784a1.454,1.454,0,0,0-.425-1.1,1.668,1.668,0,0,0-1.2-.406,1.743,1.743,0,0,0-1.135.352,1.055,1.055,0,0,0-.432.842l-1.37.015-.015-.044a1.9,1.9,0,0,1,.809-1.582A3.354,3.354,0,0,1,94.6-8.071a3.272,3.272,0,0,1,2.168.685,2.426,2.426,0,0,1,.82,1.974V-1.6a7.428,7.428,0,0,0,.044.82A4.218,4.218,0,0,0,97.793,0Zm-2.4-1.055a2.568,2.568,0,0,0,1.414-.4,1.915,1.915,0,0,0,.82-.923V-3.669H94.526a2.1,2.1,0,0,0-1.4.439A1.314,1.314,0,0,0,92.607-2.2a1.087,1.087,0,0,0,.33.835A1.38,1.38,0,0,0,93.911-1.055Zm9.521-5.6-.74-.044a1.652,1.652,0,0,0-.963.271,1.739,1.739,0,0,0-.6.762V0H99.683V-7.925h1.289l.139,1.157a2.751,2.751,0,0,1,.831-.959,1.944,1.944,0,0,1,1.139-.344,1.783,1.783,0,0,1,.308.026,2.039,2.039,0,0,1,.242.055ZM109.8,0q-.073-.359-.114-.634a4.65,4.65,0,0,1-.048-.553,3.364,3.364,0,0,1-1.051.956,2.688,2.688,0,0,1-1.4.385,2.59,2.59,0,0,1-1.886-.634,2.33,2.33,0,0,1-.648-1.747A2.047,2.047,0,0,1,105.582-4a4.293,4.293,0,0,1,2.494-.641h1.567v-.784a1.454,1.454,0,0,0-.425-1.1,1.668,1.668,0,0,0-1.2-.406,1.743,1.743,0,0,0-1.135.352,1.055,1.055,0,0,0-.432.842l-1.37.015-.015-.044a1.9,1.9,0,0,1,.809-1.582,3.354,3.354,0,0,1,2.223-.718,3.272,3.272,0,0,1,2.168.685,2.426,2.426,0,0,1,.82,1.974V-1.6a7.428,7.428,0,0,0,.044.82,4.218,4.218,0,0,0,.161.776Zm-2.4-1.055a2.568,2.568,0,0,0,1.414-.4,1.915,1.915,0,0,0,.82-.923V-3.669h-1.619a2.1,2.1,0,0,0-1.4.439,1.314,1.314,0,0,0-.524,1.033,1.087,1.087,0,0,0,.33.835A1.38,1.38,0,0,0,107.41-1.055ZM118.469,0h-1.443V-11.426h1.443Zm7.09,0q-.073-.359-.114-.634a4.65,4.65,0,0,1-.048-.553,3.364,3.364,0,0,1-1.051.956,2.688,2.688,0,0,1-1.4.385,2.59,2.59,0,0,1-1.886-.634,2.33,2.33,0,0,1-.648-1.747A2.047,2.047,0,0,1,121.337-4a4.293,4.293,0,0,1,2.494-.641H125.4v-.784a1.454,1.454,0,0,0-.425-1.1,1.668,1.668,0,0,0-1.2-.406,1.743,1.743,0,0,0-1.135.352,1.055,1.055,0,0,0-.432.842l-1.37.015-.015-.044a1.9,1.9,0,0,1,.809-1.582,3.354,3.354,0,0,1,2.223-.718,3.272,3.272,0,0,1,2.168.685,2.426,2.426,0,0,1,.82,1.974V-1.6a7.428,7.428,0,0,0,.044.82,4.218,4.218,0,0,0,.161.776Zm-2.4-1.055a2.568,2.568,0,0,0,1.414-.4,1.915,1.915,0,0,0,.82-.923V-3.669h-1.619a2.1,2.1,0,0,0-1.4.439A1.314,1.314,0,0,0,121.86-2.2a1.087,1.087,0,0,0,.33.835A1.38,1.38,0,0,0,123.164-1.055Zm9.17-2.761a5.289,5.289,0,0,1,.817-3.083,2.631,2.631,0,0,1,2.289-1.172,2.838,2.838,0,0,1,1.234.256,2.53,2.53,0,0,1,.919.747v-4.358h1.443V0H137.93l-.22-1a2.572,2.572,0,0,1-.959.864,2.866,2.866,0,0,1-1.326.293A2.72,2.72,0,0,1,133.154-.9a4.368,4.368,0,0,1-.82-2.765Zm1.443.154a3.364,3.364,0,0,0,.491,1.923,1.714,1.714,0,0,0,1.523.721,1.911,1.911,0,0,0,1.084-.293,2.188,2.188,0,0,0,.718-.82v-3.7a2.222,2.222,0,0,0-.721-.78,1.906,1.906,0,0,0-1.066-.289,1.649,1.649,0,0,0-1.534.857,4.423,4.423,0,0,0-.494,2.227Zm7.075-.374a4.363,4.363,0,0,1,.952-2.9,3.193,3.193,0,0,1,2.585-1.139,3.224,3.224,0,0,1,2.6,1.135,4.349,4.349,0,0,1,.956,2.9v.161A4.342,4.342,0,0,1,147-.974,3.215,3.215,0,0,1,144.4.154a3.221,3.221,0,0,1-2.6-1.132,4.334,4.334,0,0,1-.956-2.9Zm1.443.161a3.759,3.759,0,0,0,.531,2.08,1.758,1.758,0,0,0,1.578.82,1.753,1.753,0,0,0,1.567-.82,3.739,3.739,0,0,0,.535-2.08v-.161a3.728,3.728,0,0,0-.538-2.073,1.764,1.764,0,0,0-1.578-.828,1.74,1.74,0,0,0-1.564.828,3.767,3.767,0,0,0-.531,2.073Zm10.569,2.9a1.7,1.7,0,0,0,1.165-.443,1.4,1.4,0,0,0,.5-1.088h1.3l.022.044a2.276,2.276,0,0,1-.879,1.82,3.105,3.105,0,0,1-2.109.795,3.111,3.111,0,0,1-2.578-1.135,4.382,4.382,0,0,1-.908-2.827v-.308a4.363,4.363,0,0,1,.912-2.816,3.109,3.109,0,0,1,2.574-1.139,2.99,2.99,0,0,1,2.172.82,2.6,2.6,0,0,1,.817,2.014l-.015.044h-1.311a1.749,1.749,0,0,0-.472-1.234,1.555,1.555,0,0,0-1.19-.509,1.666,1.666,0,0,0-1.549.824,3.857,3.857,0,0,0-.487,2v.308a3.93,3.93,0,0,0,.48,2.014A1.665,1.665,0,0,0,152.864-.974Zm9.734-.2a2.684,2.684,0,0,1-.959.981,2.625,2.625,0,0,1-1.355.344,2.546,2.546,0,0,1-2.021-.828,3.843,3.843,0,0,1-.725-2.578V-7.925h1.443v4.688a2.95,2.95,0,0,0,.374,1.743,1.389,1.389,0,0,0,1.165.476,2.373,2.373,0,0,0,1.271-.311,1.948,1.948,0,0,0,.758-.883V-7.925h1.443V0h-1.3Zm4.783-6.753.1,1.04a2.692,2.692,0,0,1,.985-.875,2.96,2.96,0,0,1,1.388-.311,2.452,2.452,0,0,1,1.359.366,2.215,2.215,0,0,1,.853,1.1,2.965,2.965,0,0,1,.992-1.073,2.6,2.6,0,0,1,1.432-.392,2.373,2.373,0,0,1,1.912.831,3.8,3.8,0,0,1,.7,2.5V0h-1.443V-4.753a2.634,2.634,0,0,0-.4-1.659,1.469,1.469,0,0,0-1.2-.487,1.529,1.529,0,0,0-1.2.513,2.232,2.232,0,0,0-.538,1.3V0h-1.45V-4.753a2.6,2.6,0,0,0-.414-1.63,1.436,1.436,0,0,0-1.19-.516,1.982,1.982,0,0,0-1.084.271,1.751,1.751,0,0,0-.652.762V0h-1.443V-7.925Zm15.1,8.079a3.353,3.353,0,0,1-2.662-1.091,4.2,4.2,0,0,1-.956-2.871v-.322a4.112,4.112,0,0,1,.985-2.823,3.089,3.089,0,0,1,2.406-1.117,2.876,2.876,0,0,1,2.384.989,4.074,4.074,0,0,1,.795,2.629v.762h-5.068l-.022.037a3.276,3.276,0,0,0,.527,1.937,1.843,1.843,0,0,0,1.611.743,3.63,3.63,0,0,0,1.285-.209,2.869,2.869,0,0,0,.948-.575l.564.938a3.468,3.468,0,0,1-1.121.692A4.464,4.464,0,0,1,182.483.154Zm-.227-7.09a1.568,1.568,0,0,0-1.249.582,2.755,2.755,0,0,0-.6,1.49l.015.037h3.574v-.117a2.308,2.308,0,0,0-.425-1.428A1.535,1.535,0,0,0,182.256-6.936Zm6.086-.989.1,1.179a2.878,2.878,0,0,1,.992-.978,2.648,2.648,0,0,1,1.359-.348,2.587,2.587,0,0,1,1.985.751,3.3,3.3,0,0,1,.7,2.318V0h-1.443V-4.973a2.144,2.144,0,0,0-.414-1.487,1.658,1.658,0,0,0-1.263-.439,2.237,2.237,0,0,0-1.132.267,1.943,1.943,0,0,0-.736.751V0h-1.443V-7.925Zm9.243-1.912v1.912h1.5v1.069h-1.5v4.812a1.077,1.077,0,0,0,.231.784.834.834,0,0,0,.612.227,1.34,1.34,0,0,0,.278-.033,2.064,2.064,0,0,0,.256-.07l.2.989a1.275,1.275,0,0,1-.476.216,2.4,2.4,0,0,1-.623.084,1.869,1.869,0,0,1-1.4-.531,2.306,2.306,0,0,1-.52-1.666V-6.855h-1.26V-7.925h1.26V-9.836ZM205.5,0q-.073-.359-.114-.634a4.65,4.65,0,0,1-.048-.553,3.364,3.364,0,0,1-1.051.956,2.688,2.688,0,0,1-1.4.385A2.59,2.59,0,0,1,201.01-.48a2.33,2.33,0,0,1-.648-1.747A2.047,2.047,0,0,1,201.281-4a4.293,4.293,0,0,1,2.494-.641h1.567v-.784a1.454,1.454,0,0,0-.425-1.1,1.668,1.668,0,0,0-1.2-.406,1.743,1.743,0,0,0-1.135.352,1.055,1.055,0,0,0-.432.842l-1.37.015-.015-.044a1.9,1.9,0,0,1,.809-1.582,3.354,3.354,0,0,1,2.223-.718,3.272,3.272,0,0,1,2.168.685,2.426,2.426,0,0,1,.82,1.974V-1.6a7.428,7.428,0,0,0,.044.82A4.218,4.218,0,0,0,206.99,0Zm-2.4-1.055a2.568,2.568,0,0,0,1.414-.4,1.915,1.915,0,0,0,.82-.923V-3.669h-1.619a2.1,2.1,0,0,0-1.4.439A1.314,1.314,0,0,0,201.8-2.2a1.087,1.087,0,0,0,.33.835A1.38,1.38,0,0,0,203.108-1.055Zm8.921.081a1.7,1.7,0,0,0,1.165-.443,1.4,1.4,0,0,0,.5-1.088H215l.022.044a2.276,2.276,0,0,1-.879,1.82,3.105,3.105,0,0,1-2.109.795,3.111,3.111,0,0,1-2.578-1.135,4.382,4.382,0,0,1-.908-2.827v-.308a4.363,4.363,0,0,1,.912-2.816,3.109,3.109,0,0,1,2.574-1.139,2.99,2.99,0,0,1,2.172.82,2.6,2.6,0,0,1,.817,2.014L215-5.193h-1.311a1.749,1.749,0,0,0-.472-1.234,1.555,1.555,0,0,0-1.19-.509,1.666,1.666,0,0,0-1.549.824,3.857,3.857,0,0,0-.487,2v.308a3.93,3.93,0,0,0,.48,2.014A1.665,1.665,0,0,0,212.029-.974ZM218.291,0h-1.443V-7.925h1.443Zm0-9.954h-1.443v-1.472h1.443Zm1.882,5.918a4.363,4.363,0,0,1,.952-2.9,3.193,3.193,0,0,1,2.585-1.139,3.224,3.224,0,0,1,2.6,1.135,4.349,4.349,0,0,1,.956,2.9v.161a4.342,4.342,0,0,1-.952,2.9A3.215,3.215,0,0,1,223.726.154a3.221,3.221,0,0,1-2.6-1.132,4.334,4.334,0,0,1-.956-2.9Zm1.443.161a3.759,3.759,0,0,0,.531,2.08,1.758,1.758,0,0,0,1.578.82,1.753,1.753,0,0,0,1.567-.82,3.739,3.739,0,0,0,.535-2.08v-.161a3.728,3.728,0,0,0-.538-2.073,1.764,1.764,0,0,0-1.578-.828,1.74,1.74,0,0,0-1.564.828,3.767,3.767,0,0,0-.531,2.073Zm2.805-7.412h1.685l.015.044-1.97,1.9h-1.084Zm5.9,3.362.1,1.179a2.878,2.878,0,0,1,.992-.978,2.648,2.648,0,0,1,1.359-.348,2.587,2.587,0,0,1,1.985.751,3.3,3.3,0,0,1,.7,2.318V0h-1.443V-4.973a2.144,2.144,0,0,0-.414-1.487,1.658,1.658,0,0,0-1.263-.439,2.237,2.237,0,0,0-1.132.267,1.943,1.943,0,0,0-.736.751V0h-1.443V-7.925Zm13.389,4.988.256,1h.044l1.948-5.984h1.6l-3.333,9.141a4.109,4.109,0,0,1-.861,1.392,1.981,1.981,0,0,1-1.512.593,3.153,3.153,0,0,1-.447-.04q-.271-.04-.417-.077l.146-1.135a1.933,1.933,0,0,1,.26.015q.3.022.385.022a.891.891,0,0,0,.754-.41,4.259,4.259,0,0,0,.491-.908l.344-.828-2.944-7.764h1.611Zm12,1.963a1.7,1.7,0,0,0,1.165-.443,1.4,1.4,0,0,0,.5-1.088h1.3l.022.044a2.276,2.276,0,0,1-.879,1.82,3.105,3.105,0,0,1-2.109.795,3.111,3.111,0,0,1-2.578-1.135,4.382,4.382,0,0,1-.908-2.827v-.308a4.363,4.363,0,0,1,.912-2.816,3.109,3.109,0,0,1,2.574-1.139,2.99,2.99,0,0,1,2.172.82,2.6,2.6,0,0,1,.817,2.014l-.015.044h-1.311a1.749,1.749,0,0,0-.472-1.234,1.555,1.555,0,0,0-1.19-.509,1.666,1.666,0,0,0-1.549.824,3.857,3.857,0,0,0-.487,2v.308a3.93,3.93,0,0,0,.48,2.014A1.665,1.665,0,0,0,255.71-.974Zm4.365-3.062a4.363,4.363,0,0,1,.952-2.9,3.193,3.193,0,0,1,2.585-1.139,3.224,3.224,0,0,1,2.6,1.135,4.349,4.349,0,0,1,.956,2.9v.161a4.342,4.342,0,0,1-.952,2.9A3.215,3.215,0,0,1,263.628.154a3.221,3.221,0,0,1-2.6-1.132,4.334,4.334,0,0,1-.956-2.9Zm1.443.161a3.759,3.759,0,0,0,.531,2.08,1.758,1.758,0,0,0,1.578.82,1.753,1.753,0,0,0,1.567-.82,3.739,3.739,0,0,0,.535-2.08v-.161a3.728,3.728,0,0,0-.538-2.073,1.764,1.764,0,0,0-1.578-.828,1.74,1.74,0,0,0-1.564.828,3.767,3.767,0,0,0-.531,2.073Zm2.805-7.412h1.685l.015.044-1.97,1.9h-1.084Zm4.285,7.471a5.289,5.289,0,0,1,.817-3.083,2.631,2.631,0,0,1,2.289-1.172,2.838,2.838,0,0,1,1.234.256,2.53,2.53,0,0,1,.919.747v-4.358h1.443V0H274.2l-.22-1a2.572,2.572,0,0,1-.959.864A2.866,2.866,0,0,1,271.7.154,2.72,2.72,0,0,1,269.429-.9a4.368,4.368,0,0,1-.82-2.765Zm1.443.154a3.364,3.364,0,0,0,.491,1.923,1.714,1.714,0,0,0,1.523.721,1.911,1.911,0,0,0,1.084-.293,2.188,2.188,0,0,0,.718-.82v-3.7a2.222,2.222,0,0,0-.721-.78A1.906,1.906,0,0,0,272.08-6.9a1.649,1.649,0,0,0-1.534.857,4.423,4.423,0,0,0-.494,2.227ZM279.023,0h-1.443V-7.925h1.443Zm0-9.954h-1.443v-1.472h1.443Zm1.963,6.138A5.289,5.289,0,0,1,281.8-6.9a2.624,2.624,0,0,1,2.281-1.172,2.781,2.781,0,0,1,1.326.3,2.667,2.667,0,0,1,.959.875l.176-1.033h1.15V.044a3.023,3.023,0,0,1-.886,2.34,3.641,3.641,0,0,1-2.556.817,5.359,5.359,0,0,1-1.234-.157,4.825,4.825,0,0,1-1.168-.428l.22-1.121a4.172,4.172,0,0,0,1.007.355,5.172,5.172,0,0,0,1.161.135,2.1,2.1,0,0,0,1.534-.48,1.988,1.988,0,0,0,.48-1.461v-.9a2.555,2.555,0,0,1-.93.754,2.9,2.9,0,0,1-1.252.256A2.71,2.71,0,0,1,281.8-.9a4.382,4.382,0,0,1-.817-2.765Zm1.443.154a3.368,3.368,0,0,0,.491,1.919,1.7,1.7,0,0,0,1.516.725,1.907,1.907,0,0,0,1.091-.3,2.251,2.251,0,0,0,.725-.839V-5.8a2.238,2.238,0,0,0-.725-.8,1.9,1.9,0,0,0-1.077-.3,1.643,1.643,0,0,0-1.527.857,4.423,4.423,0,0,0-.494,2.227Zm7-.374a4.363,4.363,0,0,1,.952-2.9,3.193,3.193,0,0,1,2.585-1.139,3.224,3.224,0,0,1,2.6,1.135,4.349,4.349,0,0,1,.956,2.9v.161a4.342,4.342,0,0,1-.952,2.9A3.215,3.215,0,0,1,292.983.154a3.221,3.221,0,0,1-2.6-1.132,4.334,4.334,0,0,1-.956-2.9Zm1.443.161a3.759,3.759,0,0,0,.531,2.08,1.758,1.758,0,0,0,1.578.82,1.753,1.753,0,0,0,1.567-.82,3.739,3.739,0,0,0,.535-2.08v-.161a3.728,3.728,0,0,0-.538-2.073,1.764,1.764,0,0,0-1.578-.828,1.74,1.74,0,0,0-1.564.828,3.767,3.767,0,0,0-.531,2.073Zm10.818.059a5.289,5.289,0,0,1,.817-3.083A2.631,2.631,0,0,1,304.8-8.071a2.838,2.838,0,0,1,1.234.256,2.53,2.53,0,0,1,.919.747v-4.358h1.443V0h-1.106l-.22-1a2.572,2.572,0,0,1-.959.864,2.866,2.866,0,0,1-1.326.293A2.72,2.72,0,0,1,302.512-.9a4.368,4.368,0,0,1-.82-2.765Zm1.443.154a3.364,3.364,0,0,0,.491,1.923,1.714,1.714,0,0,0,1.523.721,1.911,1.911,0,0,0,1.084-.293,2.188,2.188,0,0,0,.718-.82v-3.7a2.222,2.222,0,0,0-.721-.78,1.906,1.906,0,0,0-1.066-.289,1.649,1.649,0,0,0-1.534.857,4.423,4.423,0,0,0-.494,2.227ZM313.828.154a3.353,3.353,0,0,1-2.662-1.091,4.2,4.2,0,0,1-.956-2.871v-.322a4.112,4.112,0,0,1,.985-2.823A3.089,3.089,0,0,1,313.6-8.071a2.876,2.876,0,0,1,2.384.989,4.074,4.074,0,0,1,.795,2.629v.762h-5.068l-.022.037a3.276,3.276,0,0,0,.527,1.937,1.843,1.843,0,0,0,1.611.743,3.63,3.63,0,0,0,1.285-.209,2.869,2.869,0,0,0,.948-.575l.564.938a3.468,3.468,0,0,1-1.121.692A4.464,4.464,0,0,1,313.828.154Zm-.227-7.09a1.568,1.568,0,0,0-1.249.582,2.755,2.755,0,0,0-.6,1.49l.015.037h3.574v-.117a2.308,2.308,0,0,0-.425-1.428A1.535,1.535,0,0,0,313.6-6.936Zm10.532-2.9v1.912h1.5v1.069h-1.5v4.812a1.077,1.077,0,0,0,.231.784.834.834,0,0,0,.612.227,1.34,1.34,0,0,0,.278-.033,2.064,2.064,0,0,0,.256-.07l.2.989a1.275,1.275,0,0,1-.476.216,2.4,2.4,0,0,1-.623.084,1.869,1.869,0,0,1-1.4-.531,2.306,2.306,0,0,1-.52-1.666V-6.855h-1.26V-7.925h1.26V-9.836Zm8.079,8.665a2.684,2.684,0,0,1-.959.981A2.625,2.625,0,0,1,329.9.154a2.546,2.546,0,0,1-2.021-.828,3.843,3.843,0,0,1-.725-2.578V-7.925h1.443v4.688a2.95,2.95,0,0,0,.374,1.743,1.389,1.389,0,0,0,1.165.476,2.373,2.373,0,0,0,1.271-.311,1.948,1.948,0,0,0,.758-.883V-7.925H333.6V0h-1.3Zm8.1-.959a.962.962,0,0,0-.363-.776,3.5,3.5,0,0,0-1.373-.527,5.762,5.762,0,0,1-2.15-.842,1.7,1.7,0,0,1-.751-1.45,2.09,2.09,0,0,1,.824-1.655,3.218,3.218,0,0,1,2.135-.688,3.189,3.189,0,0,1,2.183.732,2.1,2.1,0,0,1,.8,1.707l-.015.044h-1.377a1.248,1.248,0,0,0-.45-.93,1.61,1.61,0,0,0-1.139-.417,1.642,1.642,0,0,0-1.139.344,1.074,1.074,0,0,0-.377.82.869.869,0,0,0,.326.725,3.608,3.608,0,0,0,1.344.469A5.679,5.679,0,0,1,341-3.706a1.755,1.755,0,0,1,.754,1.472A2.087,2.087,0,0,1,340.9-.513a3.52,3.52,0,0,1-2.23.667,3.483,3.483,0,0,1-2.388-.769,2.195,2.195,0,0,1-.828-1.794l.015-.044h1.377a1.335,1.335,0,0,0,.571,1.124,2.21,2.21,0,0,0,1.252.355,1.973,1.973,0,0,0,1.2-.326A1,1,0,0,0,340.313-2.131Zm6.636-1.685a5.289,5.289,0,0,1,.817-3.083,2.631,2.631,0,0,1,2.289-1.172,2.838,2.838,0,0,1,1.234.256,2.53,2.53,0,0,1,.919.747v-4.358h1.443V0h-1.106l-.22-1a2.572,2.572,0,0,1-.959.864,2.866,2.866,0,0,1-1.326.293A2.72,2.72,0,0,1,347.769-.9a4.368,4.368,0,0,1-.82-2.765Zm1.443.154a3.364,3.364,0,0,0,.491,1.923,1.714,1.714,0,0,0,1.523.721,1.911,1.911,0,0,0,1.084-.293,2.188,2.188,0,0,0,.718-.82v-3.7a2.222,2.222,0,0,0-.721-.78A1.906,1.906,0,0,0,350.42-6.9a1.649,1.649,0,0,0-1.534.857,4.423,4.423,0,0,0-.494,2.227ZM360.674,0q-.073-.359-.114-.634a4.65,4.65,0,0,1-.048-.553,3.364,3.364,0,0,1-1.051.956,2.688,2.688,0,0,1-1.4.385A2.59,2.59,0,0,1,356.18-.48a2.33,2.33,0,0,1-.648-1.747A2.047,2.047,0,0,1,356.451-4a4.293,4.293,0,0,1,2.494-.641h1.567v-.784a1.454,1.454,0,0,0-.425-1.1,1.668,1.668,0,0,0-1.2-.406,1.743,1.743,0,0,0-1.135.352,1.055,1.055,0,0,0-.432.842l-1.37.015-.015-.044a1.9,1.9,0,0,1,.809-1.582,3.354,3.354,0,0,1,2.223-.718,3.272,3.272,0,0,1,2.168.685,2.426,2.426,0,0,1,.82,1.974V-1.6a7.428,7.428,0,0,0,.044.82,4.218,4.218,0,0,0,.161.776Zm-2.4-1.055a2.568,2.568,0,0,0,1.414-.4,1.915,1.915,0,0,0,.82-.923V-3.669h-1.619a2.1,2.1,0,0,0-1.4.439,1.314,1.314,0,0,0-.524,1.033,1.087,1.087,0,0,0,.33.835A1.38,1.38,0,0,0,358.279-1.055Zm7.778-8.782v1.912h1.5v1.069h-1.5v4.812a1.077,1.077,0,0,0,.231.784.834.834,0,0,0,.612.227,1.34,1.34,0,0,0,.278-.033,2.064,2.064,0,0,0,.256-.07l.2.989a1.275,1.275,0,0,1-.476.216,2.4,2.4,0,0,1-.623.084,1.869,1.869,0,0,1-1.4-.531,2.306,2.306,0,0,1-.52-1.666V-6.855h-1.26V-7.925h1.26V-9.836Zm2.71,5.8a4.363,4.363,0,0,1,.952-2.9A3.193,3.193,0,0,1,372.3-8.071a3.224,3.224,0,0,1,2.6,1.135,4.349,4.349,0,0,1,.956,2.9v.161a4.342,4.342,0,0,1-.952,2.9A3.215,3.215,0,0,1,372.319.154a3.221,3.221,0,0,1-2.6-1.132,4.334,4.334,0,0,1-.956-2.9Zm1.443.161a3.759,3.759,0,0,0,.531,2.08,1.758,1.758,0,0,0,1.578.82,1.753,1.753,0,0,0,1.567-.82,3.739,3.739,0,0,0,.535-2.08v-.161a3.728,3.728,0,0,0-.538-2.073,1.764,1.764,0,0,0-1.578-.828,1.74,1.74,0,0,0-1.564.828,3.767,3.767,0,0,0-.531,2.073Zm12.026,1.743a.962.962,0,0,0-.363-.776,3.5,3.5,0,0,0-1.373-.527,5.762,5.762,0,0,1-2.15-.842,1.7,1.7,0,0,1-.751-1.45,2.09,2.09,0,0,1,.824-1.655,3.218,3.218,0,0,1,2.135-.688,3.189,3.189,0,0,1,2.183.732,2.1,2.1,0,0,1,.8,1.707l-.015.044h-1.377a1.248,1.248,0,0,0-.45-.93,1.61,1.61,0,0,0-1.139-.417,1.642,1.642,0,0,0-1.139.344,1.074,1.074,0,0,0-.377.82.869.869,0,0,0,.326.725,3.608,3.608,0,0,0,1.344.469,5.679,5.679,0,0,1,2.212.872,1.755,1.755,0,0,1,.754,1.472,2.087,2.087,0,0,1-.853,1.721,3.52,3.52,0,0,1-2.23.667,3.483,3.483,0,0,1-2.388-.769,2.195,2.195,0,0,1-.828-1.794l.015-.044h1.377a1.335,1.335,0,0,0,.571,1.124,2.21,2.21,0,0,0,1.252.355,1.973,1.973,0,0,0,1.2-.326A1,1,0,0,0,382.236-2.131ZM387.048,0h-1.443V-1.479h1.443Z" transform="translate(603.559 5237.633)" fill="#12263f"/>
      <g id="Unión_27" data-name="Unión 27" transform="translate(639.559 5077.633)" fill="#fff">
        <path d="M 51.50141525268555 116.5 C 44.5721549987793 116.5 37.85120010375977 116.0402374267578 31.52526092529297 115.1334533691406 C 25.42281532287598 114.2587127685547 19.9451847076416 113.0073852539062 15.24452304840088 111.4142684936523 C 10.57015419006348 109.8300323486328 6.907999992370605 107.9914016723633 4.359753608703613 105.9494323730469 C 1.798615336418152 103.8971252441406 0.5 101.742431640625 0.5 99.54521942138672 C 0.5 99.40060424804688 0.5057076811790466 99.25455474853516 0.5169692039489746 99.11116027832031 L 0.5593076944351196 98.57200622558594 L 0.5 98.57200622558594 L 0.5 0.5000038146972656 L 102.5 0.5000038146972656 L 102.5 98.57200622558594 L 102.4402160644531 98.57200622558594 L 102.482551574707 99.11116027832031 C 102.4941253662109 99.25859069824219 102.5 99.40463256835938 102.5 99.54521942138672 C 102.5 101.7424163818359 101.2014007568359 103.8971099853516 98.64027404785156 105.9494323730469 C 96.09210968017578 107.9914016723633 92.43004608154297 109.8300323486328 87.75581359863281 111.4142684936523 C 83.05535125732422 113.0073852539062 77.57801818847656 114.2586975097656 71.47593688964844 115.1334533691406 C 65.15039825439453 116.0402374267578 58.43000030517578 116.5 51.50141525268555 116.5 Z" stroke="none"/>
        <path d="M 51.50141525268555 116 C 58.40635299682617 116 65.10287475585938 115.5419235229492 71.40498352050781 114.6385116577148 C 77.47669219970703 113.7681121826172 82.92390441894531 112.5240020751953 87.59532165527344 110.9407272338867 C 92.21418762207031 109.3752517700195 95.82504272460938 107.5646667480469 98.32761383056641 105.5592651367188 C 100.7644271850586 103.6065444946289 102 101.5831298828125 102 99.54521942138672 C 102 99.41763305664062 101.9946441650391 99.28475952148438 101.9840927124023 99.15029907226562 L 101.8993988037109 98.07200622558594 L 102 98.07200622558594 L 102 1.000003814697266 L 1 1.000003814697266 L 1 98.07200622558594 L 1.100123047828674 98.07200622558594 L 1.015430808067322 99.15029907226562 C 1.005200028419495 99.28073883056641 1 99.41360473632812 1 99.54521942138672 C 1 101.5831451416016 2.235584497451782 103.606559753418 4.672415256500244 105.5592498779297 C 7.175045967102051 107.5646820068359 10.78601551055908 109.3752670288086 15.40501499176025 110.9407119750977 C 20.07661628723145 112.5240020751953 25.52412223815918 113.7681121826172 31.59620094299316 114.6385116577148 C 37.89872360229492 115.5419235229492 44.59579849243164 116 51.50141525268555 116 M 51.50141525268555 117 C 23.05695343017578 117 0 109.1857299804688 0 99.54521942138672 C 0 99.38716125488281 0.006169230677187443 99.22911071777344 0.0185076929628849 99.07200622558594 L 0 99.07200622558594 L 0 3.814697265625e-06 L 103 3.814697265625e-06 L 103 99.07200622558594 L 102.9810180664062 99.07200622558594 C 102.9933547973633 99.22911071777344 103 99.38716125488281 103 99.54521942138672 C 103 109.1857299804688 79.94304656982422 117 51.50141525268555 117 Z" stroke="none" fill="#707070"/>
      </g>
      <g id="Elipse_9648" data-name="Elipse 9648" transform="translate(639.559 5060.633)" fill="#fff" stroke="#707070" stroke-width="1">
        <ellipse cx="51.5" cy="17" rx="51.5" ry="17" stroke="none"/>
        <ellipse cx="51.5" cy="17" rx="51" ry="16.5" fill="none"/>
      </g>
      <g id="Grupo_1071477" data-name="Grupo 1071477" transform="translate(707.677 5040.946)">
        <path id="Trazado_818002-2" data-name="Trazado 818002" d="M-6574.477-6676.475c-.092-2.19-.023-4.442.047-6.828.183-6.1.356-11.872-2-15.948-2.511-4.335-7.823-6.63-15.792-6.823-7.742-.182-13.068,2.135-15.83,6.9-2.987,5.156-2.616,12.831-2.345,18.437.072,1.5.134,2.837.139,3.955l-5.242.05c0-.946-.059-2.08-.121-3.343-.307-6.366-.821-17.02,3.75-24.908,3.866-6.672,10.32-9.812,19.727-9.578,9.577.232,15.966,3.339,19.536,9.5,3.882,6.7,3.625,15.279,3.417,22.17-.062,2.072-.129,4.054-.054,5.846Z" transform="translate(6624.643 6714.575)" fill="#ffa700"/>
        <path id="Polígono_13" data-name="Polígono 13" d="M12.818,0,25.636,14.15H0Z" transform="translate(25.636 42.776) rotate(180)" fill="#ffa700"/>
      </g>
      <g id="Grupo_1071478" data-name="Grupo 1071478" transform="translate(651.615 5122.742)">
        <rect id="Rectángulo_375510" data-name="Rectángulo 375510" width="79" height="35" rx="6" transform="translate(-0.056 -0.109)" fill="#3a3e44"/>
        <path id="Trazado_818003" data-name="Trazado 818003" d="M.422,0l1.7-11.375H6.094a4.05,4.05,0,0,1,3.2,1.344,4.006,4.006,0,0,1,.883,3.406L9.891-4.742A5.388,5.388,0,0,1,8.031-1.285,5.482,5.482,0,0,1,4.391,0ZM4.141-9.617,2.961-1.75h1.7A2.617,2.617,0,0,0,6.57-2.6,3.761,3.761,0,0,0,7.6-4.742l.289-1.9A2.972,2.972,0,0,0,7.527-8.8a1.914,1.914,0,0,0-1.691-.812ZM15.82,0A3.7,3.7,0,0,1,15.7-.613a4.615,4.615,0,0,1-.031-.66A3.883,3.883,0,0,1,14.582-.242a2.609,2.609,0,0,1-1.434.406,2.5,2.5,0,0,1-1.922-.691,2.114,2.114,0,0,1-.461-1.855A2.637,2.637,0,0,1,12-4.332a5.433,5.433,0,0,1,2.906-.66h1.281l.1-.672a1.182,1.182,0,0,0-.176-.957,1.124,1.124,0,0,0-.91-.324,1.425,1.425,0,0,0-.887.27,1.063,1.063,0,0,0-.418.738H11.7L11.7-5.984A2.573,2.573,0,0,1,12.9-7.852a4.614,4.614,0,0,1,2.7-.758,3.321,3.321,0,0,1,2.32.773,2.306,2.306,0,0,1,.641,2.188l-.523,3.492a6.259,6.259,0,0,0-.078,1.125A5.486,5.486,0,0,0,18.094,0ZM13.961-1.523a2.165,2.165,0,0,0,1.094-.3,2.036,2.036,0,0,0,.758-.691l.18-1.187H14.711a1.718,1.718,0,0,0-1.137.367,1.4,1.4,0,0,0-.52.875.762.762,0,0,0,.172.691A.989.989,0,0,0,13.961-1.523Zm9.781-9-.312,2.07h1.43l-.234,1.6H23.188l-.641,4.3a.9.9,0,0,0,.094.715.644.644,0,0,0,.516.2,2.371,2.371,0,0,0,.316-.02,2.468,2.468,0,0,0,.316-.066L23.727-.07a5.086,5.086,0,0,1-.691.176,4.116,4.116,0,0,1-.715.059,2.108,2.108,0,0,1-1.7-.656,2.509,2.509,0,0,1-.348-2.047l.641-4.312H19.688l.234-1.6h1.234l.313-2.07ZM29.984,0a3.7,3.7,0,0,1-.125-.613,4.615,4.615,0,0,1-.031-.66A3.883,3.883,0,0,1,28.746-.242a2.609,2.609,0,0,1-1.434.406,2.5,2.5,0,0,1-1.922-.691,2.114,2.114,0,0,1-.461-1.855,2.637,2.637,0,0,1,1.234-1.949,5.433,5.433,0,0,1,2.906-.66h1.281l.1-.672a1.182,1.182,0,0,0-.176-.957,1.124,1.124,0,0,0-.91-.324,1.425,1.425,0,0,0-.887.27,1.063,1.063,0,0,0-.418.738h-2.2l-.008-.047a2.573,2.573,0,0,1,1.207-1.867,4.614,4.614,0,0,1,2.7-.758,3.321,3.321,0,0,1,2.32.773,2.306,2.306,0,0,1,.641,2.188L32.2-2.156a6.258,6.258,0,0,0-.078,1.125A5.486,5.486,0,0,0,32.258,0ZM28.125-1.523a2.165,2.165,0,0,0,1.094-.3,2.036,2.036,0,0,0,.758-.691l.18-1.187H28.875a1.718,1.718,0,0,0-1.137.367,1.4,1.4,0,0,0-.52.875.762.762,0,0,0,.172.691A.989.989,0,0,0,28.125-1.523Zm10.406-.82a.665.665,0,0,0-.27-.648,3.443,3.443,0,0,0-1.285-.469,4.649,4.649,0,0,1-2.125-.9A1.721,1.721,0,0,1,34.3-5.992,2.733,2.733,0,0,1,35.48-7.863a4.231,4.231,0,0,1,2.566-.746,3.565,3.565,0,0,1,2.426.773,1.937,1.937,0,0,1,.691,1.9l-.016.047h-2.2a.992.992,0,0,0-.211-.836,1.165,1.165,0,0,0-.906-.312,1.466,1.466,0,0,0-.895.273.987.987,0,0,0-.426.672.653.653,0,0,0,.238.641,3.46,3.46,0,0,0,1.293.438,4.721,4.721,0,0,1,2.184.918,1.784,1.784,0,0,1,.535,1.668A2.645,2.645,0,0,1,39.52-.539a4.778,4.778,0,0,1-2.684.7A3.456,3.456,0,0,1,34.32-.7a2.076,2.076,0,0,1-.7-1.937l.023-.047h2.086a1.041,1.041,0,0,0,.309.984,1.648,1.648,0,0,0,1.059.3,1.728,1.728,0,0,0,.984-.258A.971.971,0,0,0,38.531-2.344ZM45.484.164a3.285,3.285,0,0,1-2.742-1.176,3.672,3.672,0,0,1-.648-2.973l.047-.312a5.343,5.343,0,0,1,1.488-3.145,4.111,4.111,0,0,1,3.02-1.168,2.826,2.826,0,0,1,2.426,1.055,3.614,3.614,0,0,1,.52,2.8l-.172,1.18H44.375l-.016.039a1.983,1.983,0,0,0,.3,1.426,1.546,1.546,0,0,0,1.328.527,5.011,5.011,0,0,0,1.32-.16,6.029,6.029,0,0,0,1.188-.473L48.9-.812a5.183,5.183,0,0,1-1.484.7A6.475,6.475,0,0,1,45.484.164Zm.906-7.016a1.459,1.459,0,0,0-1.105.477,2.831,2.831,0,0,0-.652,1.242l.016.047h2.766l.023-.172a1.824,1.824,0,0,0-.121-1.18A.975.975,0,0,0,46.391-6.852Zm8.133-3.672-.312,2.07h1.43l-.234,1.6H53.969l-.641,4.3a.9.9,0,0,0,.094.715.644.644,0,0,0,.516.2,2.371,2.371,0,0,0,.316-.02,2.468,2.468,0,0,0,.316-.066L54.508-.07a5.086,5.086,0,0,1-.691.176A4.116,4.116,0,0,1,53.1.164a2.108,2.108,0,0,1-1.7-.656,2.509,2.509,0,0,1-.348-2.047L51.7-6.852H50.469l.234-1.6h1.234l.313-2.07Z" transform="translate(10.944 21.891)" fill="#fff"/>
      </g>
      <line id="Línea_3873" data-name="Línea 3873" y2="117.319" transform="translate(760.269 5080.437)" fill="none" stroke="#ffa700" stroke-width="7"/>
      <line id="Línea_3874" data-name="Línea 3874" x1="45.989" transform="translate(760.269 5194.939)" fill="none" stroke="#ffa700" stroke-width="7"/>
      <line id="Línea_3875" data-name="Línea 3875" x1="45.989" transform="translate(760.269 5158.336)" fill="none" stroke="#ffa700" stroke-width="7"/>
      <line id="Línea_3876" data-name="Línea 3876" x1="45.989" transform="translate(760.269 5118.917)" fill="none" stroke="#ffa700" stroke-width="7"/>
      <path id="Polígono_14" data-name="Polígono 14" d="M10,0,20,17H0Z" transform="translate(750.559 5070.633)" fill="#ffa700"/>
      <path id="Unión_26" data-name="Unión 26" d="M0,58.4H12.969c-.069-12.2,1.347-27.034,9.038-38.842C30.873,5.95,45.678-.452,67.256.025,89.22.5,103.879,6.837,112.065,19.412c8.9,13.675,8.314,31.172,7.84,45.232-.145,4.225-.3,8.269-.125,11.928l-11.992,1.163c-.208-4.467-.052-9.064.112-13.934.419-12.454.817-24.22-4.6-32.538-5.759-8.846-17.945-13.528-36.224-13.92C49.318,16.976,37.1,21.7,30.769,31.419c-4.892,7.508-5.857,17.64-5.783,26.985H37.659L25.7,76.739c0,.123,0,.246,0,.367l-.242,0L18.829,87.274Z" transform="translate(683.777 4986.592)" fill="#78f0f4"/>
      <path id="Trazado_818006" data-name="Trazado 818006" d="M6.859-2.211H3.477L2.82,0H.039L3.75-11.375H5.164v.008l.008-.008H6.586L10.3,0H7.523ZM4.086-4.242H6.25L5.188-7.773H5.141ZM15.633-6.2l-.859-.008a1.463,1.463,0,0,0-.742.168,1.036,1.036,0,0,0-.43.473V0H10.961V-8.453h2.484l.094,1.242a2.549,2.549,0,0,1,.7-1.031,1.543,1.543,0,0,1,1.023-.367,1.963,1.963,0,0,1,.32.023,2.423,2.423,0,0,1,.3.07ZM20.07-1.867a1.033,1.033,0,0,0,.8-.293,1.221,1.221,0,0,0,.266-.848h2.406l.016.047a2.775,2.775,0,0,1-.957,2.254A3.693,3.693,0,0,1,20.07.164,3.74,3.74,0,0,1,17.1-1.027a4.543,4.543,0,0,1-1.043-3.105v-.18a4.557,4.557,0,0,1,1.039-3.1,3.712,3.712,0,0,1,2.961-1.2,3.636,3.636,0,0,1,2.574.895,3.085,3.085,0,0,1,.934,2.449l-.016.047H21.141a1.636,1.636,0,0,0-.273-.98.937.937,0,0,0-.812-.379,1.085,1.085,0,0,0-1.066.613,3.792,3.792,0,0,0-.3,1.652v.18a3.778,3.778,0,0,0,.3,1.664A1.1,1.1,0,0,0,20.07-1.867ZM27.2-7.406a2.8,2.8,0,0,1,.934-.887,2.4,2.4,0,0,1,1.215-.316,2.523,2.523,0,0,1,2.063.914,4.427,4.427,0,0,1,.75,2.836V0H29.523V-4.875a2.536,2.536,0,0,0-.25-1.336.855.855,0,0,0-.758-.367,2.11,2.11,0,0,0-.773.129,1.4,1.4,0,0,0-.539.363V0H24.563V-12.187H27.2ZM36.4,0H33.75V-8.453H36.4Zm0-10.414H33.75v-1.773H36.4Zm4.781,6.93.156.9.047.008.172-.906,1.117-4.969h2.773L42.7,0h-2.68l-2.75-8.453h2.781Zm4.594-.82A4.468,4.468,0,0,1,46.852-7.41a3.837,3.837,0,0,1,3.008-1.2,3.847,3.847,0,0,1,3.016,1.2A4.468,4.468,0,0,1,53.953-4.3v.164a4.465,4.465,0,0,1-1.078,3.109,3.834,3.834,0,0,1-3,1.2,3.863,3.863,0,0,1-3.023-1.2,4.465,4.465,0,0,1-1.078-3.109Zm2.641.164a3.5,3.5,0,0,0,.332,1.668,1.181,1.181,0,0,0,1.129.605,1.168,1.168,0,0,0,1.109-.609,3.465,3.465,0,0,0,.336-1.664V-4.3a3.478,3.478,0,0,0-.336-1.652,1.177,1.177,0,0,0-1.125-.621,1.16,1.16,0,0,0-1.113.625A3.517,3.517,0,0,0,48.414-4.3ZM59.523-2.375a.689.689,0,0,0-.355-.559,3.834,3.834,0,0,0-1.293-.441,5.1,5.1,0,0,1-2.227-.895,2.026,2.026,0,0,1-.75-1.668,2.377,2.377,0,0,1,.938-1.895,3.856,3.856,0,0,1,2.539-.777,4.36,4.36,0,0,1,2.688.754,2.217,2.217,0,0,1,.953,1.949L62-5.859H59.438a1.047,1.047,0,0,0-.25-.758,1.106,1.106,0,0,0-.82-.258,1.073,1.073,0,0,0-.7.227.71.71,0,0,0-.281.578.688.688,0,0,0,.324.57,3.668,3.668,0,0,0,1.309.422,5.257,5.257,0,0,1,2.3.91,2.088,2.088,0,0,1,.742,1.715A2.239,2.239,0,0,1,61.051-.574a4.438,4.438,0,0,1-2.676.738,4.013,4.013,0,0,1-2.73-.875,2.41,2.41,0,0,1-.957-1.953l.016-.047h2.391a1.06,1.06,0,0,0,.363.867,1.6,1.6,0,0,0,.988.266,1.319,1.319,0,0,0,.8-.207A.7.7,0,0,0,59.523-2.375Zm7.414-1.836A5.375,5.375,0,0,1,67.8-7.4a2.815,2.815,0,0,1,2.434-1.211,2.1,2.1,0,0,1,1.059.27,2.8,2.8,0,0,1,.848.77v-4.617h2.641V0H72.469l-.18-1.031a2.842,2.842,0,0,1-.895.887,2.232,2.232,0,0,1-1.176.309A2.842,2.842,0,0,1,67.8-.992a5,5,0,0,1-.859-3.055Zm2.641.164a3.51,3.51,0,0,0,.3,1.605,1.051,1.051,0,0,0,1.012.574,1.665,1.665,0,0,0,.73-.152,1.309,1.309,0,0,0,.52-.449V-5.883a1.438,1.438,0,0,0-.516-.516,1.416,1.416,0,0,0-.719-.18,1.054,1.054,0,0,0-1.016.648,3.992,3.992,0,0,0-.312,1.719ZM80.031.164A3.924,3.924,0,0,1,77.02-1a4.14,4.14,0,0,1-1.09-2.945v-.3A4.73,4.73,0,0,1,76.957-7.4,3.649,3.649,0,0,1,79.93-8.609a3.423,3.423,0,0,1,2.652,1.023,3.984,3.984,0,0,1,.941,2.8V-3.4H78.68l-.016.047a1.641,1.641,0,0,0,.492,1.074,1.719,1.719,0,0,0,1.234.41,5.35,5.35,0,0,0,1.262-.125,7.953,7.953,0,0,0,1.152-.4l.633,1.609a4.832,4.832,0,0,1-1.469.672A6.778,6.778,0,0,1,80.031.164Zm-.1-6.742a1.09,1.09,0,0,0-.934.4,2.019,2.019,0,0,0-.348,1.09l.016.039h2.281v-.2a1.757,1.757,0,0,0-.23-.992A.883.883,0,0,0,79.93-6.578Zm8.344,2.367A5.375,5.375,0,0,1,89.137-7.4,2.815,2.815,0,0,1,91.57-8.609a2.1,2.1,0,0,1,1.059.27,2.8,2.8,0,0,1,.848.77v-4.617h2.641V0H93.8l-.18-1.031a2.842,2.842,0,0,1-.895.887,2.232,2.232,0,0,1-1.176.309A2.842,2.842,0,0,1,89.133-.992a5,5,0,0,1-.859-3.055Zm2.641.164a3.51,3.51,0,0,0,.3,1.605,1.051,1.051,0,0,0,1.012.574,1.665,1.665,0,0,0,.73-.152,1.309,1.309,0,0,0,.52-.449V-5.883a1.438,1.438,0,0,0-.516-.516,1.416,1.416,0,0,0-.719-.18,1.054,1.054,0,0,0-1.016.648,3.992,3.992,0,0,0-.312,1.719ZM102.5-.008a3.189,3.189,0,0,1-.254-.6,4.612,4.612,0,0,1-.16-.7,3.23,3.23,0,0,1-.848,1.074,2.046,2.046,0,0,1-1.316.4A2.927,2.927,0,0,1,97.855-.52a2.415,2.415,0,0,1-.738-1.863,2.254,2.254,0,0,1,.945-1.941,4.9,4.9,0,0,1,2.867-.684h1.086v-.6a1.2,1.2,0,0,0-.258-.828,1,1,0,0,0-.789-.289.952.952,0,0,0-.684.215.891.891,0,0,0-.223.668L97.5-5.852,97.484-5.9a2.2,2.2,0,0,1,.965-1.934,4.324,4.324,0,0,1,2.691-.777,3.937,3.937,0,0,1,2.543.781,2.7,2.7,0,0,1,.973,2.234v3.188a6.5,6.5,0,0,0,.113,1.25A6.7,6.7,0,0,0,105.109,0Zm-1.859-1.711a1.609,1.609,0,0,0,.855-.227,1.3,1.3,0,0,0,.52-.539V-3.6h-1.062a1.194,1.194,0,0,0-.914.3,1.1,1.1,0,0,0-.281.773.748.748,0,0,0,.246.582A.913.913,0,0,0,100.641-1.719Zm8.492-8.836v2.1h1.336v1.828h-1.336V-2.75a.948.948,0,0,0,.184.652.642.642,0,0,0,.5.2,2.654,2.654,0,0,0,.324-.016,2.807,2.807,0,0,0,.309-.062l.18,1.953a6.375,6.375,0,0,1-.719.145,5.789,5.789,0,0,1-.758.043,2.639,2.639,0,0,1-1.98-.7,3.069,3.069,0,0,1-.676-2.2V-6.625h-1.18V-8.453h1.18v-2.1ZM111.4-4.3a4.468,4.468,0,0,1,1.078-3.105,3.837,3.837,0,0,1,3.008-1.2,3.847,3.847,0,0,1,3.016,1.2A4.468,4.468,0,0,1,119.578-4.3v.164A4.465,4.465,0,0,1,118.5-1.031a3.834,3.834,0,0,1-3,1.2,3.863,3.863,0,0,1-3.023-1.2A4.465,4.465,0,0,1,111.4-4.141Zm2.641.164a3.5,3.5,0,0,0,.332,1.668,1.181,1.181,0,0,0,1.129.605,1.168,1.168,0,0,0,1.109-.609,3.465,3.465,0,0,0,.336-1.664V-4.3a3.478,3.478,0,0,0-.336-1.652,1.177,1.177,0,0,0-1.125-.621,1.16,1.16,0,0,0-1.113.625,3.517,3.517,0,0,0-.332,1.648Zm11.109,1.766a.689.689,0,0,0-.355-.559,3.834,3.834,0,0,0-1.293-.441,5.1,5.1,0,0,1-2.227-.895,2.026,2.026,0,0,1-.75-1.668,2.377,2.377,0,0,1,.938-1.895A3.856,3.856,0,0,1,124-8.609a4.36,4.36,0,0,1,2.688.754,2.217,2.217,0,0,1,.953,1.949l-.016.047h-2.562a1.047,1.047,0,0,0-.25-.758,1.106,1.106,0,0,0-.82-.258,1.073,1.073,0,0,0-.7.227.71.71,0,0,0-.281.578.688.688,0,0,0,.324.57,3.668,3.668,0,0,0,1.309.422,5.257,5.257,0,0,1,2.3.91,2.088,2.088,0,0,1,.742,1.715,2.239,2.239,0,0,1-1.012,1.879A4.438,4.438,0,0,1,124,.164a4.013,4.013,0,0,1-2.73-.875,2.41,2.41,0,0,1-.957-1.953l.016-.047h2.391a1.06,1.06,0,0,0,.363.867,1.6,1.6,0,0,0,.988.266,1.319,1.319,0,0,0,.8-.207A.7.7,0,0,0,125.148-2.375Z" transform="translate(798.559 5123.633)" fill="#12263f"/>
      <path id="Trazado_818005" data-name="Trazado 818005" d="M.906,0V-11.375H5.07A4.64,4.64,0,0,1,8.43-10.066,4.467,4.467,0,0,1,9.781-6.711v2.047A4.463,4.463,0,0,1,8.43-1.3,4.647,4.647,0,0,1,5.07,0ZM3.547-9.344v7.313H5.07a1.81,1.81,0,0,0,1.48-.734,2.964,2.964,0,0,0,.582-1.9V-6.727a2.939,2.939,0,0,0-.582-1.883,1.81,1.81,0,0,0-1.48-.734Zm7.3,5.039A4.468,4.468,0,0,1,11.93-7.41a3.837,3.837,0,0,1,3.008-1.2,3.847,3.847,0,0,1,3.016,1.2A4.468,4.468,0,0,1,19.031-4.3v.164a4.465,4.465,0,0,1-1.078,3.109,3.834,3.834,0,0,1-3,1.2,3.863,3.863,0,0,1-3.023-1.2,4.465,4.465,0,0,1-1.078-3.109Zm2.641.164a3.5,3.5,0,0,0,.332,1.668,1.181,1.181,0,0,0,1.129.605,1.168,1.168,0,0,0,1.109-.609A3.465,3.465,0,0,0,16.4-4.141V-4.3a3.478,3.478,0,0,0-.336-1.652,1.177,1.177,0,0,0-1.125-.621,1.16,1.16,0,0,0-1.113.625A3.517,3.517,0,0,0,13.492-4.3Zm10.32,2.273a1.033,1.033,0,0,0,.8-.293,1.221,1.221,0,0,0,.266-.848h2.406l.016.047a2.775,2.775,0,0,1-.957,2.254,3.693,3.693,0,0,1-2.535.871A3.74,3.74,0,0,1,20.84-1.027,4.543,4.543,0,0,1,19.8-4.133v-.18a4.557,4.557,0,0,1,1.039-3.1,3.712,3.712,0,0,1,2.961-1.2,3.636,3.636,0,0,1,2.574.895A3.085,3.085,0,0,1,27.3-5.266l-.016.047H24.883a1.636,1.636,0,0,0-.273-.98.937.937,0,0,0-.812-.379,1.085,1.085,0,0,0-1.066.613,3.792,3.792,0,0,0-.3,1.652v.18a3.778,3.778,0,0,0,.3,1.664A1.1,1.1,0,0,0,23.813-1.867Zm9.664.6A2.779,2.779,0,0,1,32.5-.207a2.56,2.56,0,0,1-1.379.371,2.5,2.5,0,0,1-2.059-.922,4.494,4.494,0,0,1-.746-2.852V-8.453h2.633v4.859a2.563,2.563,0,0,0,.254,1.359.889.889,0,0,0,.785.367,2.155,2.155,0,0,0,.742-.117,1.434,1.434,0,0,0,.547-.352V-8.453h2.641V0H33.8Zm6.383-7.187.094,1.117a2.8,2.8,0,0,1,1-.941,2.837,2.837,0,0,1,1.387-.332,2.584,2.584,0,0,1,1.359.344,2.112,2.112,0,0,1,.859,1.047,2.837,2.837,0,0,1,1-1.027A2.76,2.76,0,0,1,47-8.609a2.348,2.348,0,0,1,1.941.887,4.347,4.347,0,0,1,.707,2.73V0H47V-4.992a2.2,2.2,0,0,0-.254-1.246.89.89,0,0,0-.762-.34,1.582,1.582,0,0,0-.676.137,1.426,1.426,0,0,0-.5.379q0,.133.008.23t.008.191V0H42.188V-4.992a2.221,2.221,0,0,0-.25-1.25.9.9,0,0,0-.773-.336,1.524,1.524,0,0,0-.652.137,1.426,1.426,0,0,0-.5.379V0H37.375V-8.453ZM54.906.164A3.924,3.924,0,0,1,51.895-1,4.14,4.14,0,0,1,50.8-3.945v-.3A4.73,4.73,0,0,1,51.832-7.4,3.649,3.649,0,0,1,54.8-8.609a3.423,3.423,0,0,1,2.652,1.023,3.984,3.984,0,0,1,.941,2.8V-3.4H53.555l-.016.047a1.641,1.641,0,0,0,.492,1.074,1.719,1.719,0,0,0,1.234.41,5.35,5.35,0,0,0,1.262-.125,7.953,7.953,0,0,0,1.152-.4l.633,1.609a4.832,4.832,0,0,1-1.469.672A6.778,6.778,0,0,1,54.906.164Zm-.1-6.742a1.09,1.09,0,0,0-.934.4,2.019,2.019,0,0,0-.348,1.09l.016.039H55.82v-.2a1.757,1.757,0,0,0-.23-.992A.883.883,0,0,0,54.8-6.578Zm7.141-1.875.1,1.188a3.06,3.06,0,0,1,1.023-.988,2.648,2.648,0,0,1,1.359-.355,2.383,2.383,0,0,1,1.941.844,4.174,4.174,0,0,1,.7,2.68V0H64.43V-5.094a1.937,1.937,0,0,0-.258-1.145.884.884,0,0,0-.75-.34,1.856,1.856,0,0,0-.758.148,1.513,1.513,0,0,0-.562.422V0H59.469V-8.453Zm9.594-2.1v2.1h1.336v1.828H71.539V-2.75a.948.948,0,0,0,.184.652.642.642,0,0,0,.5.2,2.654,2.654,0,0,0,.324-.016,2.807,2.807,0,0,0,.309-.062l.18,1.953a6.375,6.375,0,0,1-.719.145,5.789,5.789,0,0,1-.758.043,2.639,2.639,0,0,1-1.98-.7,3.069,3.069,0,0,1-.676-2.2V-6.625h-1.18V-8.453H68.9v-2.1Zm7.5,10.547a3.189,3.189,0,0,1-.254-.6,4.612,4.612,0,0,1-.16-.7,3.23,3.23,0,0,1-.848,1.074,2.046,2.046,0,0,1-1.316.4A2.927,2.927,0,0,1,74.395-.52a2.415,2.415,0,0,1-.738-1.863A2.254,2.254,0,0,1,74.6-4.324a4.9,4.9,0,0,1,2.867-.684h1.086v-.6a1.2,1.2,0,0,0-.258-.828,1,1,0,0,0-.789-.289.952.952,0,0,0-.684.215.891.891,0,0,0-.223.668l-2.562-.008L74.023-5.9a2.2,2.2,0,0,1,.965-1.934,4.324,4.324,0,0,1,2.691-.777,3.937,3.937,0,0,1,2.543.781A2.7,2.7,0,0,1,81.2-5.594v3.188a6.5,6.5,0,0,0,.113,1.25A6.7,6.7,0,0,0,81.648,0ZM77.18-1.719a1.609,1.609,0,0,0,.855-.227,1.3,1.3,0,0,0,.52-.539V-3.6H77.492a1.194,1.194,0,0,0-.914.3,1.1,1.1,0,0,0-.281.773.748.748,0,0,0,.246.582A.913.913,0,0,0,77.18-1.719Zm9.078-.148a1.033,1.033,0,0,0,.8-.293,1.221,1.221,0,0,0,.266-.848h2.406l.016.047a2.775,2.775,0,0,1-.957,2.254,3.693,3.693,0,0,1-2.535.871,3.74,3.74,0,0,1-2.973-1.191,4.543,4.543,0,0,1-1.043-3.105v-.18a4.557,4.557,0,0,1,1.039-3.1,3.712,3.712,0,0,1,2.961-1.2,3.636,3.636,0,0,1,2.574.895,3.085,3.085,0,0,1,.934,2.449l-.016.047H87.328a1.636,1.636,0,0,0-.273-.98.937.937,0,0,0-.812-.379,1.085,1.085,0,0,0-1.066.613,3.792,3.792,0,0,0-.3,1.652v.18a3.778,3.778,0,0,0,.3,1.664A1.1,1.1,0,0,0,86.258-1.867ZM93.594,0H90.945V-8.453h2.648Zm0-10.414H90.945v-1.773h2.648ZM94.859-4.3A4.468,4.468,0,0,1,95.938-7.41a3.837,3.837,0,0,1,3.008-1.2,3.847,3.847,0,0,1,3.016,1.2A4.468,4.468,0,0,1,103.039-4.3v.164a4.465,4.465,0,0,1-1.078,3.109,3.834,3.834,0,0,1-3,1.2,3.863,3.863,0,0,1-3.023-1.2,4.465,4.465,0,0,1-1.078-3.109Zm2.641.164a3.5,3.5,0,0,0,.332,1.668,1.181,1.181,0,0,0,1.129.605,1.168,1.168,0,0,0,1.109-.609,3.465,3.465,0,0,0,.336-1.664V-4.3a3.478,3.478,0,0,0-.336-1.652,1.177,1.177,0,0,0-1.125-.621,1.16,1.16,0,0,0-1.113.625A3.517,3.517,0,0,0,97.5-4.3Zm1.766-7.93h2.9l.016.047-2.2,2.031H97.656Zm7.367,3.617.1,1.188a3.06,3.06,0,0,1,1.023-.988,2.648,2.648,0,0,1,1.359-.355,2.383,2.383,0,0,1,1.941.844,4.174,4.174,0,0,1,.7,2.68V0h-2.641V-5.094a1.937,1.937,0,0,0-.258-1.145.884.884,0,0,0-.75-.34,1.856,1.856,0,0,0-.758.148,1.513,1.513,0,0,0-.562.422V0h-2.633V-8.453Z" transform="translate(804.559 5162.633)" fill="#12263f"/>
      <path id="Trazado_818004" data-name="Trazado 818004" d="M9.641-3.836l.016.047A3.656,3.656,0,0,1,8.559-.84a4.656,4.656,0,0,1-3.2,1A4.555,4.555,0,0,1,1.973-1.125,4.587,4.587,0,0,1,.7-4.5V-6.875a4.688,4.688,0,0,1,1.23-3.371A4.284,4.284,0,0,1,5.18-11.539a5.015,5.015,0,0,1,3.348,1.008A3.553,3.553,0,0,1,9.68-7.6l-.023.047H7.086a2.091,2.091,0,0,0-.445-1.5A1.987,1.987,0,0,0,5.18-9.508a1.545,1.545,0,0,0-1.367.715,3.38,3.38,0,0,0-.477,1.9V-4.5a3.181,3.181,0,0,0,.523,1.914,1.743,1.743,0,0,0,1.5.719A1.67,1.67,0,0,0,6.668-2.32a2.272,2.272,0,0,0,.4-1.516Zm.969-.469A4.468,4.468,0,0,1,11.688-7.41a3.837,3.837,0,0,1,3.008-1.2,3.847,3.847,0,0,1,3.016,1.2A4.468,4.468,0,0,1,18.789-4.3v.164a4.465,4.465,0,0,1-1.078,3.109,3.834,3.834,0,0,1-3,1.2,3.863,3.863,0,0,1-3.023-1.2,4.465,4.465,0,0,1-1.078-3.109Zm2.641.164a3.5,3.5,0,0,0,.332,1.668,1.181,1.181,0,0,0,1.129.605,1.168,1.168,0,0,0,1.109-.609,3.465,3.465,0,0,0,.336-1.664V-4.3a3.478,3.478,0,0,0-.336-1.652A1.177,1.177,0,0,0,14.7-6.578a1.16,1.16,0,0,0-1.113.625A3.517,3.517,0,0,0,13.25-4.3Zm1.766-7.93h2.9l.016.047-2.2,2.031H13.406ZM19.6-4.211A5.375,5.375,0,0,1,20.465-7.4,2.815,2.815,0,0,1,22.9-8.609a2.1,2.1,0,0,1,1.059.27,2.8,2.8,0,0,1,.848.77v-4.617h2.641V0H25.133l-.18-1.031a2.842,2.842,0,0,1-.895.887,2.232,2.232,0,0,1-1.176.309A2.842,2.842,0,0,1,20.461-.992,5,5,0,0,1,19.6-4.047Zm2.641.164a3.51,3.51,0,0,0,.3,1.605,1.051,1.051,0,0,0,1.012.574,1.665,1.665,0,0,0,.73-.152,1.309,1.309,0,0,0,.52-.449V-5.883a1.438,1.438,0,0,0-.516-.516,1.416,1.416,0,0,0-.719-.18,1.054,1.054,0,0,0-1.016.648,3.992,3.992,0,0,0-.312,1.719ZM31.711,0H29.063V-8.453h2.648Zm0-10.414H29.063v-1.773h2.648Zm1.258,6.2A5.375,5.375,0,0,1,33.832-7.4a2.815,2.815,0,0,1,2.434-1.211,2.17,2.17,0,0,1,1.172.316,2.793,2.793,0,0,1,.875.895l.172-1.055h2.328V-.094A3.131,3.131,0,0,1,39.668,2.5a4.907,4.907,0,0,1-3.152.918,5.669,5.669,0,0,1-1.375-.18,7.68,7.68,0,0,1-1.375-.484L34.219.8a6.276,6.276,0,0,0,1.09.371,5.276,5.276,0,0,0,1.191.121A1.954,1.954,0,0,0,37.754.953a1.3,1.3,0,0,0,.41-1.062V-.766a2.414,2.414,0,0,1-.832.7A2.4,2.4,0,0,1,36.25.164,2.842,2.842,0,0,1,33.828-.992a5,5,0,0,1-.859-3.055Zm2.633.164a3.51,3.51,0,0,0,.3,1.605,1.058,1.058,0,0,0,1.02.574A1.861,1.861,0,0,0,37.66-2a1.2,1.2,0,0,0,.5-.4V-5.953a1.315,1.315,0,0,0-.5-.465,1.542,1.542,0,0,0-.727-.16,1.061,1.061,0,0,0-1.02.652A3.954,3.954,0,0,0,35.6-4.211ZM41.969-4.3A4.468,4.468,0,0,1,43.047-7.41a3.837,3.837,0,0,1,3.008-1.2,3.847,3.847,0,0,1,3.016,1.2A4.468,4.468,0,0,1,50.148-4.3v.164A4.465,4.465,0,0,1,49.07-1.031a3.834,3.834,0,0,1-3,1.2,3.863,3.863,0,0,1-3.023-1.2,4.465,4.465,0,0,1-1.078-3.109Zm2.641.164a3.5,3.5,0,0,0,.332,1.668,1.181,1.181,0,0,0,1.129.605,1.168,1.168,0,0,0,1.109-.609,3.465,3.465,0,0,0,.336-1.664V-4.3a3.478,3.478,0,0,0-.336-1.652,1.177,1.177,0,0,0-1.125-.621,1.16,1.16,0,0,0-1.113.625A3.517,3.517,0,0,0,44.609-4.3Z" transform="translate(837.559 5201.633)" fill="#12263f"/>
    </g>
  </g>
</svg>
