<svg xmlns="http://www.w3.org/2000/svg" width="295" height="241" viewBox="0 0 295 241">
  <g id="Grupo_1071476" data-name="Grupo 1071476" transform="translate(-810 -8920)">
    <path id="Trazado_818002" data-name="Trazado 818002" d="M0,0H295V241H0Z" transform="translate(810 8920)" fill="#fff"/>
    <g id="Grupo_1070736" data-name="Grupo 1070736" transform="translate(859.785 8930.032)">
      <g id="Grupo_1070735" data-name="Grupo 1070735" transform="translate(40.155)">
        <path id="Trazado_816221" data-name="Trazado 816221" d="M-6961.537-3645.19l32.8-45.824v-142.492" transform="translate(6961.537 3833.506)" fill="none" stroke="#3a3e44" stroke-width="1"/>
        <line id="Línea_3729" data-name="Línea 3729" x1="121.247" y2="1.276" transform="translate(33.231 141.674)" fill="none" stroke="#3a3e44" stroke-width="1"/>
      </g>
      <circle id="Elipse_9257" data-name="Elipse 9257" cx="6.381" cy="6.381" r="6.381" transform="translate(111.036 23.619)" fill="#0f7f83"/>
      <circle id="Elipse_9258" data-name="Elipse 9258" cx="6.381" cy="6.381" r="6.381" transform="translate(130.18 21.066)" fill="#0f7f83"/>
      <circle id="Elipse_9259" data-name="Elipse 9259" cx="6.381" cy="6.381" r="6.381" transform="translate(121.247 37.658)" fill="#0f7f83"/>
      <circle id="Elipse_9260" data-name="Elipse 9260" cx="6.381" cy="6.381" r="6.381" transform="translate(108.484 54.249)" fill="#0f7f83"/>
      <circle id="Elipse_9261" data-name="Elipse 9261" cx="6.381" cy="6.381" r="6.381" transform="translate(136.562 41.487)" fill="#0f7f83"/>
      <circle id="Elipse_9262" data-name="Elipse 9262" cx="6.381" cy="6.381" r="6.381" transform="translate(142.943 27.447)" fill="#0f7f83"/>
      <circle id="Elipse_9263" data-name="Elipse 9263" cx="6.381" cy="6.381" r="6.381" transform="translate(153.153 41.487)" fill="#0f7f83"/>
      <circle id="Elipse_9264" data-name="Elipse 9264" cx="6.381" cy="6.381" r="6.381" transform="translate(142.943 55.526)" fill="#0f7f83"/>
      <circle id="Elipse_9265" data-name="Elipse 9265" cx="6.381" cy="6.381" r="6.381" transform="translate(121.247 81.051)" fill="#0f7f83"/>
      <circle id="Elipse_9273" data-name="Elipse 9273" cx="6.381" cy="6.381" r="6.381" transform="translate(146.772 116.787)" fill="#ffe323"/>
      <circle id="Elipse_9275" data-name="Elipse 9275" cx="6.381" cy="6.381" r="6.381" transform="translate(162.087 116.787)" fill="#ffe323"/>
      <circle id="Elipse_9276" data-name="Elipse 9276" cx="6.381" cy="6.381" r="6.381" transform="translate(155.706 138.484)" fill="#ffe323"/>
      <circle id="Elipse_9277" data-name="Elipse 9277" cx="6.381" cy="6.381" r="6.381" transform="translate(159.535 155.075)" fill="#ffe323"/>
      <circle id="Elipse_9278" data-name="Elipse 9278" cx="6.381" cy="6.381" r="6.381" transform="translate(142.943 152.523)" fill="#ffe323"/>
      <circle id="Elipse_9274" data-name="Elipse 9274" cx="6.381" cy="6.381" r="6.381" transform="translate(140.391 134.655)" fill="#ffe323"/>
      <circle id="Elipse_9266" data-name="Elipse 9266" cx="6.381" cy="6.381" r="6.381" transform="translate(33.183 74.67)" fill="#e141f2"/>
      <circle id="Elipse_9267" data-name="Elipse 9267" cx="6.381" cy="6.381" r="6.381" transform="translate(48.499 93.814)" fill="#e141f2"/>
      <circle id="Elipse_9270" data-name="Elipse 9270" cx="6.381" cy="6.381" r="6.381" transform="translate(48.499 112.958)" fill="#e141f2"/>
      <circle id="Elipse_9268" data-name="Elipse 9268" cx="6.381" cy="6.381" r="6.381" transform="translate(33.183 93.814)" fill="#e141f2"/>
      <circle id="Elipse_9271" data-name="Elipse 9271" cx="6.381" cy="6.381" r="6.381" transform="translate(33.183 112.958)" fill="#e141f2"/>
      <circle id="Elipse_9269" data-name="Elipse 9269" cx="6.381" cy="6.381" r="6.381" transform="translate(16.592 87.433)" fill="#e141f2"/>
      <circle id="Elipse_9272" data-name="Elipse 9272" cx="6.381" cy="6.381" r="6.381" transform="translate(16.592 105.3)" fill="#e141f2"/>
      <g id="Elipse_9279" data-name="Elipse 9279" transform="translate(90.616 13.408)" fill="none" stroke="#3a3e44" stroke-width="2">
        <circle cx="43.393" cy="43.393" r="43.393" stroke="none"/>
        <circle cx="43.393" cy="43.393" r="42.393" fill="none"/>
      </g>
      <g id="Elipse_9281" data-name="Elipse 9281" transform="translate(0 64.46)" fill="none" stroke="#3a3e44" stroke-width="2">
        <circle cx="37.012" cy="37.012" r="37.012" stroke="none"/>
        <circle cx="37.012" cy="37.012" r="36.012" fill="none"/>
      </g>
      <g id="Elipse_9280" data-name="Elipse 9280" transform="translate(134.009 105.3)" fill="none" stroke="#3a3e44" stroke-width="2">
        <ellipse cx="26.802" cy="40.841" rx="26.802" ry="40.841" stroke="none"/>
        <ellipse cx="26.802" cy="40.841" rx="25.802" ry="39.841" fill="none"/>
      </g>
      <line id="Línea_3730" data-name="Línea 3730" x2="12.763" y2="25.526" transform="translate(143.581 88.071)" fill="none" stroke="#3a3e44" stroke-width="1"/>
      <line id="Línea_3731" data-name="Línea 3731" x1="10.21" y2="10.21" transform="translate(25.526 74.67)" fill="none" stroke="#3a3e44" stroke-width="1"/>
    </g>
    <path id="Trazado_818003" data-name="Trazado 818003" d="M11.8-6.135a7.546,7.546,0,0,1-.694,3.313A5.132,5.132,0,0,1,9.136-.6,5.494,5.494,0,0,1,6.223.176a5.572,5.572,0,0,1-2.9-.751A5.123,5.123,0,0,1,1.349-2.725,7.329,7.329,0,0,1,.606-5.933v-.721A7.58,7.58,0,0,1,1.3-9.971,5.119,5.119,0,0,1,3.274-12.19a5.533,5.533,0,0,1,2.931-.782,5.479,5.479,0,0,1,2.9.773A5.211,5.211,0,0,1,11.087-10,7.362,7.362,0,0,1,11.8-6.724ZM8.666-6.671a5.381,5.381,0,0,0-.637-2.9,2.044,2.044,0,0,0-1.824-.989q-2.32,0-2.452,3.48l-.009.94a5.535,5.535,0,0,0,.624,2.892A2.041,2.041,0,0,0,6.223-2.232a2.016,2.016,0,0,0,1.8-.993,5.383,5.383,0,0,0,.642-2.856Zm13.421,2a5.8,5.8,0,0,1-.967,3.595A3.238,3.238,0,0,1,18.4.176,2.81,2.81,0,0,1,16.058-.976L15.935,0H13.28V-13.5h2.962v4.755a2.711,2.711,0,0,1,2.136-.94A3.239,3.239,0,0,1,21.12-8.411a5.826,5.826,0,0,1,.967,3.586Zm-2.971-.189a3.866,3.866,0,0,0-.365-1.952A1.229,1.229,0,0,0,17.631-7.4a1.418,1.418,0,0,0-1.389.763v3.773a1.426,1.426,0,0,0,1.406.755,1.258,1.258,0,0,0,1.327-1.018A7.309,7.309,0,0,0,19.116-4.865Zm7.726-7.009V-9.51h1.564v2.057H26.842V-3.1a1.111,1.111,0,0,0,.193.747,1.037,1.037,0,0,0,.765.211,4.345,4.345,0,0,0,.738-.053V-.079a5.466,5.466,0,0,1-1.67.255,3.1,3.1,0,0,1-2.259-.721,2.954,2.954,0,0,1-.729-2.188v-4.72H22.667V-9.51H23.88v-2.364ZM34.172.176A4.889,4.889,0,0,1,30.63-1.129a4.507,4.507,0,0,1-1.354-3.4v-.246a5.84,5.84,0,0,1,.541-2.575,3.955,3.955,0,0,1,1.578-1.727,4.763,4.763,0,0,1,2.461-.611A4.117,4.117,0,0,1,37.02-8.442a4.887,4.887,0,0,1,1.16,3.467v1.151H32.291a2.135,2.135,0,0,0,.694,1.257,2.066,2.066,0,0,0,1.389.457,2.662,2.662,0,0,0,2.2-.984l1.354,1.6A3.784,3.784,0,0,1,36.356-.277,5.3,5.3,0,0,1,34.172.176ZM33.838-7.4q-1.3,0-1.547,1.723h2.988v-.229a1.467,1.467,0,0,0-.36-1.1A1.434,1.434,0,0,0,33.838-7.4ZM42.091-9.51l.1,1.116A3.225,3.225,0,0,1,44.9-9.686a2.713,2.713,0,0,1,2.219.888,4.226,4.226,0,0,1,.76,2.672V0H44.912V-6a1.6,1.6,0,0,0-.29-1.059A1.342,1.342,0,0,0,43.567-7.4a1.413,1.413,0,0,0-1.292.686V0H39.313V-9.51Zm11.452,7.4a1.317,1.317,0,0,0,.967-.338,1.241,1.241,0,0,0,.334-.945h2.777A3.288,3.288,0,0,1,56.5-.826a4.168,4.168,0,0,1-2.887,1,4.22,4.22,0,0,1-3.27-1.3,5.125,5.125,0,0,1-1.2-3.6v-.123A5.792,5.792,0,0,1,49.68-7.4a3.872,3.872,0,0,1,1.534-1.7,4.573,4.573,0,0,1,2.373-.593,4.116,4.116,0,0,1,2.944,1.028,3.647,3.647,0,0,1,1.09,2.786H54.844A1.626,1.626,0,0,0,54.483-7a1.244,1.244,0,0,0-.967-.4q-1.151,0-1.345,1.468a10.357,10.357,0,0,0-.062,1.283,4.068,4.068,0,0,0,.343,1.986A1.187,1.187,0,0,0,53.543-2.109ZM62,0H59.027V-9.51H62ZM58.852-11.962A1.322,1.322,0,0,1,59.309-13a1.724,1.724,0,0,1,1.187-.4,1.724,1.724,0,0,1,1.187.4,1.322,1.322,0,0,1,.457,1.037,1.322,1.322,0,0,1-.457,1.037,1.724,1.724,0,0,1-1.187.4,1.724,1.724,0,0,1-1.187-.4A1.322,1.322,0,0,1,58.852-11.962Zm4.6,7.119A5.613,5.613,0,0,1,64-7.378a3.96,3.96,0,0,1,1.591-1.709,4.791,4.791,0,0,1,2.435-.6,4.373,4.373,0,0,1,3.366,1.323,5.076,5.076,0,0,1,1.23,3.6v.105a4.925,4.925,0,0,1-1.235,3.529A4.384,4.384,0,0,1,68.045.176a4.434,4.434,0,0,1-3.261-1.217,4.761,4.761,0,0,1-1.327-3.3Zm2.962.185a3.538,3.538,0,0,0,.413,1.934,1.376,1.376,0,0,0,1.222.615q1.582,0,1.617-2.435v-.3q0-2.558-1.635-2.558-1.485,0-1.608,2.206ZM68.432-13.5h3.129l-2.443,2.76-2.417,0Zm8.218,3.99.1,1.116a3.225,3.225,0,0,1,2.716-1.292,2.713,2.713,0,0,1,2.219.888,4.226,4.226,0,0,1,.76,2.672V0H79.471V-6a1.6,1.6,0,0,0-.29-1.059A1.342,1.342,0,0,0,78.126-7.4a1.413,1.413,0,0,0-1.292.686V0H73.872V-9.51Zm11.54,4.685a5.809,5.809,0,0,1,.976-3.56,3.211,3.211,0,0,1,2.725-1.3,2.731,2.731,0,0,1,2.145,1V-13.5H97V0H94.342l-.149-1.02a2.8,2.8,0,0,1-2.32,1.2,3.205,3.205,0,0,1-2.689-1.3A5.993,5.993,0,0,1,88.189-4.825Zm2.962.185q0,2.531,1.477,2.531a1.458,1.458,0,0,0,1.406-.826V-6.557A1.419,1.419,0,0,0,92.646-7.4q-1.371,0-1.485,2.215ZM103.289.176a4.889,4.889,0,0,1-3.542-1.305,4.507,4.507,0,0,1-1.354-3.4v-.246a5.84,5.84,0,0,1,.541-2.575,3.955,3.955,0,0,1,1.578-1.727,4.763,4.763,0,0,1,2.461-.611,4.117,4.117,0,0,1,3.164,1.244,4.887,4.887,0,0,1,1.16,3.467v1.151h-5.889a2.135,2.135,0,0,0,.694,1.257,2.066,2.066,0,0,0,1.389.457,2.662,2.662,0,0,0,2.2-.984l1.354,1.6a3.784,3.784,0,0,1-1.569,1.217A5.3,5.3,0,0,1,103.289.176ZM102.955-7.4q-1.3,0-1.547,1.723H104.4v-.229a1.467,1.467,0,0,0-.36-1.1A1.434,1.434,0,0,0,102.955-7.4ZM115.77-9.51l.1,1.116a3.27,3.27,0,0,1,2.716-1.292,2.407,2.407,0,0,1,2.435,1.433,3.165,3.165,0,0,1,2.795-1.433q2.892,0,2.971,3.5V0h-2.971V-6a1.813,1.813,0,0,0-.246-1.063,1.048,1.048,0,0,0-.9-.334,1.4,1.4,0,0,0-1.31.782l.009.123V0H118.4V-5.985a1.906,1.906,0,0,0-.237-1.081,1.045,1.045,0,0,0-.905-.334,1.42,1.42,0,0,0-1.3.782V0h-2.962V-9.51ZM133.075.176a4.889,4.889,0,0,1-3.542-1.305,4.507,4.507,0,0,1-1.354-3.4v-.246a5.84,5.84,0,0,1,.541-2.575A3.955,3.955,0,0,1,130.3-9.075a4.763,4.763,0,0,1,2.461-.611,4.117,4.117,0,0,1,3.164,1.244,4.887,4.887,0,0,1,1.16,3.467v1.151h-5.889a2.135,2.135,0,0,0,.694,1.257,2.066,2.066,0,0,0,1.389.457,2.662,2.662,0,0,0,2.2-.984l1.354,1.6a3.784,3.784,0,0,1-1.569,1.217A5.3,5.3,0,0,1,133.075.176ZM132.741-7.4q-1.3,0-1.547,1.723h2.988v-.229a1.467,1.467,0,0,0-.36-1.1A1.434,1.434,0,0,0,132.741-7.4ZM137.9-4.825a5.809,5.809,0,0,1,.976-3.56,3.211,3.211,0,0,1,2.725-1.3,2.731,2.731,0,0,1,2.145,1V-13.5h2.971V0h-2.663L143.9-1.02a2.8,2.8,0,0,1-2.32,1.2,3.205,3.205,0,0,1-2.689-1.3A5.993,5.993,0,0,1,137.9-4.825Zm2.962.185q0,2.531,1.477,2.531a1.458,1.458,0,0,0,1.406-.826V-6.557a1.419,1.419,0,0,0-1.389-.844q-1.371,0-1.485,2.215ZM151.523,0h-2.971V-9.51h2.971Zm-3.146-11.962A1.322,1.322,0,0,1,148.834-13a1.724,1.724,0,0,1,1.187-.4,1.724,1.724,0,0,1,1.187.4,1.322,1.322,0,0,1,.457,1.037,1.322,1.322,0,0,1-.457,1.037,1.724,1.724,0,0,1-1.187.4,1.724,1.724,0,0,1-1.187-.4A1.322,1.322,0,0,1,148.377-11.962ZM158.7,0a3.344,3.344,0,0,1-.281-.853A2.754,2.754,0,0,1,156.138.176a3.374,3.374,0,0,1-2.285-.813,2.588,2.588,0,0,1-.94-2.043,2.66,2.66,0,0,1,1.143-2.338,5.821,5.821,0,0,1,3.322-.791h.914v-.5q0-1.316-1.134-1.316A.927.927,0,0,0,156.1-6.587h-2.962a2.655,2.655,0,0,1,1.173-2.239,4.931,4.931,0,0,1,2.993-.86,4.323,4.323,0,0,1,2.874.888,3.086,3.086,0,0,1,1.081,2.435v4.21a4.311,4.311,0,0,0,.4,2V0ZM156.85-1.934a1.652,1.652,0,0,0,.918-.237,1.487,1.487,0,0,0,.523-.536V-4.228h-.861q-1.547,0-1.547,1.389a.848.848,0,0,0,.272.655A.986.986,0,0,0,156.85-1.934Z" transform="translate(866.167 9146.225)" fill="#12263f"/>
  </g>
</svg>
