<svg xmlns="http://www.w3.org/2000/svg" xmlns:xlink="http://www.w3.org/1999/xlink" width="516.25" height="392" viewBox="0 0 516.25 392">
  <defs>
    <clipPath id="clip-path">
      <rect id="Rectángulo_375152" data-name="Rectángulo 375152" width="498.095" height="347.571" fill="none"/>
    </clipPath>
    <clipPath id="clip-path-3">
      <rect id="Rectángulo_375120" data-name="Rectángulo 375120" width="483.195" height="336.883" fill="none"/>
    </clipPath>
    <clipPath id="clip-path-5">
      <rect id="Rectángulo_375122" data-name="Rectángulo 375122" width="132.619" height="92.048" fill="none"/>
    </clipPath>
    <clipPath id="clip-path-13">
      <rect id="Rectángulo_348331" data-name="Rectángulo 348331" width="48" height="110" transform="translate(110) rotate(90)" fill="#e141f2" opacity="0.58"/>
    </clipPath>
  </defs>
  <g id="Grupo_1071066" data-name="Grupo 1071066" transform="translate(-168.75 -7376)">
    <rect id="Rectángulo_374742" data-name="Rectángulo 374742" width="459" height="358" rx="20" transform="translate(203 7393)" fill="#e8e8e8"/>
    <g id="Grupo_1070998" data-name="Grupo 1070998" transform="translate(183 7398)">
      <g id="Grupo_1070997" data-name="Grupo 1070997" clip-path="url(#clip-path)">
        <g id="Grupo_1070977" data-name="Grupo 1070977">
          <g id="Grupo_1070976" data-name="Grupo 1070976" clip-path="url(#clip-path)">
            <path id="Trazado_817063" data-name="Trazado 817063" d="M483.73,185.907s7.145-132.128-100.749-168.5-162.2-9.65-196.5,24.5-45.73,56.414-85.029,60.868-75.74,11.877-94.318,61.61,5,89.075,40.728,113.571,77.169-1.485,110.038,14.1,53.59,41.568,120.756,44.538,69.309-17.073,103.607-48.249S477.3,289.828,483.73,185.907" transform="translate(-0.181 0)" fill="#fff7bb"/>
            <g id="Grupo_1070975" data-name="Grupo 1070975" transform="translate(0.452)" opacity="0.7">
              <g id="Grupo_1070974" data-name="Grupo 1070974">
                <g id="Grupo_1070973" data-name="Grupo 1070973" clip-path="url(#clip-path-3)">
                  <path id="Trazado_817064" data-name="Trazado 817064" d="M483.73,185.907s7.145-132.128-100.749-168.5-162.2-9.65-196.5,24.5-45.73,56.414-85.029,60.868-75.74,11.877-94.318,61.61,5,89.075,40.728,113.571,77.169-1.485,110.038,14.1,53.59,41.568,120.756,44.538,69.309-17.073,103.607-48.249S477.3,289.828,483.73,185.907" transform="translate(-0.633 0)" fill="#fff"/>
                </g>
              </g>
            </g>
          </g>
        </g>
        <g id="Grupo_1070982" data-name="Grupo 1070982">
          <g id="Grupo_1070981" data-name="Grupo 1070981" clip-path="url(#clip-path)">
            <g id="Grupo_1070980" data-name="Grupo 1070980" transform="translate(21.266 11.903)" opacity="0.3">
              <g id="Grupo_1070979" data-name="Grupo 1070979">
                <g id="Grupo_1070978" data-name="Grupo 1070978" clip-path="url(#clip-path-5)">
                  <path id="Trazado_817065" data-name="Trazado 817065" d="M113.076,73.241V60.276l-12.462-1.44a31.526,31.526,0,0,0-3.056-7.716L105.431,40.9l-8.825-9.167-9.8,8.142A29.137,29.137,0,0,0,79.4,36.646L78.007,23.64H65.528L64.141,36.587a29.1,29.1,0,0,0-7.426,3.174l-9.843-8.178-8.824,9.168,7.838,10.18a31.54,31.54,0,0,0-3.1,7.695l-12.52,1.446V73.037l12.463,1.44a31.555,31.555,0,0,0,3.056,7.716L37.908,92.418l8.825,9.167,9.8-8.142a29.127,29.127,0,0,0,7.408,3.223l1.392,13.006h12.48L79.2,96.725a29.07,29.07,0,0,0,7.428-3.174l9.843,8.178,8.824-9.167L97.454,82.381a31.545,31.545,0,0,0,3.1-7.694ZM71.67,82.129c-8.226,0-14.894-6.927-14.894-15.472S63.444,51.184,71.67,51.184s14.893,6.927,14.893,15.473S79.895,82.129,71.67,82.129Z" transform="translate(-29.905 -17.996)" fill="none" stroke="#000" stroke-miterlimit="10" stroke-width="1"/>
                  <path id="Trazado_817066" data-name="Trazado 817066" d="M192.332,45.4l-1.383-8.583-8.4.481a20.87,20.87,0,0,0-2.846-4.757l4.121-7.675L177,19.815l-5.619,6.519a19.333,19.333,0,0,0-5.248-1.281L163.824,16.6l-8.262,1.437.463,8.731a19.828,19.828,0,0,0-4.578,2.957l-7.389-4.281-4.865,7.085,6.275,5.837a21.4,21.4,0,0,0-1.233,5.451l-8.134,2.4,1.383,8.583,8.4-.481a20.87,20.87,0,0,0,2.846,4.757l-4.121,7.675,6.82,5.054,5.619-6.519a19.3,19.3,0,0,0,5.247,1.281l2.309,8.451,8.263-1.437-.464-8.731a19.833,19.833,0,0,0,4.579-2.957l7.388,4.281,4.865-7.084-6.275-5.838A21.368,21.368,0,0,0,184.2,47.8ZM165.867,56.054a10.046,10.046,0,0,1-11.511-8.529,10.352,10.352,0,0,1,8.21-11.958A10.045,10.045,0,0,1,174.077,44.1,10.351,10.351,0,0,1,165.867,56.054Z" transform="translate(-60.119 -16.182)" fill="none" stroke="#000" stroke-miterlimit="10" stroke-width="1"/>
                </g>
              </g>
            </g>
          </g>
        </g>
        <g id="Grupo_1070984" data-name="Grupo 1070984">
          <g id="Grupo_1070983" data-name="Grupo 1070983" clip-path="url(#clip-path)">
            <path id="Trazado_817067" data-name="Trazado 817067" d="M462.146,294.867H122.327V73.486a7.62,7.62,0,0,1,7.471-7.761H454.675a7.62,7.62,0,0,1,7.471,7.761Z" transform="translate(-34.921 -16.938)" fill="#fff7bb"/>
            <path id="Trazado_817068" data-name="Trazado 817068" d="M462.146,294.867H122.327V73.486a7.62,7.62,0,0,1,7.471-7.761H454.675a7.62,7.62,0,0,1,7.471,7.761Z" transform="translate(-34.921 -16.938)" fill="none" stroke="#263238" stroke-linecap="round" stroke-linejoin="round" stroke-width="1"/>
            <rect id="Rectángulo_375124" data-name="Rectángulo 375124" width="233.541" height="11.954" transform="translate(141.324 266.898)" fill="#263238"/>
            <rect id="Rectángulo_375125" data-name="Rectángulo 375125" width="233.541" height="11.954" transform="translate(141.324 266.898)" fill="none" stroke="#263238" stroke-linecap="round" stroke-linejoin="round" stroke-width="1"/>
            <rect id="Rectángulo_375126" data-name="Rectángulo 375126" width="233.541" height="6.198" transform="translate(141.324 272.654)" fill="#fff"/>
            <rect id="Rectángulo_375127" data-name="Rectángulo 375127" width="233.541" height="6.198" transform="translate(141.324 272.654)" fill="none" stroke="#263238" stroke-linecap="round" stroke-linejoin="round" stroke-width="1"/>
            <path id="Trazado_817069" data-name="Trazado 817069" d="M83.867,385.206s3.836,4.87,15.342,8.854H464.863s8.524-2.213,12.359-8.412Z" transform="translate(-23.942 -99.27)" fill="#263238"/>
            <path id="Trazado_817070" data-name="Trazado 817070" d="M83.867,385.206s3.836,4.87,15.342,8.854H464.863s8.524-2.213,12.359-8.412Z" transform="translate(-23.942 -99.27)" fill="none" stroke="#263238" stroke-linecap="round" stroke-linejoin="round" stroke-width="1"/>
            <path id="Trazado_817071" data-name="Trazado 817071" d="M476.383,382.764H84.129a1.381,1.381,0,0,1-1.354-1.407v-6.5a1.381,1.381,0,0,1,1.354-1.407H476.383a1.381,1.381,0,0,1,1.354,1.407v6.5a1.381,1.381,0,0,1-1.354,1.407" transform="translate(-23.63 -96.242)" fill="#fff7bb"/>
            <rect id="Rectángulo_375128" data-name="Rectángulo 375128" width="394.962" height="9.309" rx="1.895" transform="translate(59.145 277.213)" fill="none" stroke="#263238" stroke-linecap="round" stroke-linejoin="round" stroke-width="1"/>
            <path id="Trazado_817072" data-name="Trazado 817072" d="M361.808,73.984a2.985,2.985,0,1,0-2.983,3.1,3.043,3.043,0,0,0,2.983-3.1" transform="translate(-101.582 -18.268)" fill="#263238"/>
            <rect id="Rectángulo_375129" data-name="Rectángulo 375129" width="312.247" height="183.314" transform="translate(101.192 66.689)" fill="#fff"/>
            <rect id="Rectángulo_375130" data-name="Rectángulo 375130" width="312.247" height="183.314" transform="translate(101.192 66.689)" fill="none" stroke="#263238" stroke-linecap="round" stroke-linejoin="round" stroke-width="1"/>
            <rect id="Rectángulo_375131" data-name="Rectángulo 375131" width="312.247" height="11.094" transform="translate(101.192 66.688)" fill="#c9c9c9"/>
            <rect id="Rectángulo_375132" data-name="Rectángulo 375132" width="312.247" height="11.094" transform="translate(101.192 66.688)" fill="none" stroke="#263238" stroke-linecap="round" stroke-linejoin="round" stroke-width="1"/>
          </g>
        </g>
        <g id="Grupo_1070986" data-name="Grupo 1070986">
          <g id="Grupo_1070985" data-name="Grupo 1070985" clip-path="url(#clip-path)">
            <line id="Línea_3836" data-name="Línea 3836" x2="497.38" transform="translate(0.357 294.79)" fill="none" stroke="#263238" stroke-linecap="round" stroke-linejoin="round" stroke-width="1"/>
          </g>
        </g>
        <rect id="Rectángulo_375135" data-name="Rectángulo 375135" width="9.371" height="70.8" transform="translate(127.22 164.955)" fill="none" stroke="#263238" stroke-linecap="round" stroke-linejoin="round" stroke-width="1"/>
        <rect id="Rectángulo_375136" data-name="Rectángulo 375136" width="9.371" height="38.94" transform="translate(140.85 196.815)" fill="none" stroke="#263238" stroke-linecap="round" stroke-linejoin="round" stroke-width="1"/>
        <rect id="Rectángulo_375137" data-name="Rectángulo 375137" width="9.371" height="27.878" transform="translate(154.481 207.877)" fill="none" stroke="#263238" stroke-linecap="round" stroke-linejoin="round" stroke-width="1"/>
        <rect id="Rectángulo_375138" data-name="Rectángulo 375138" width="9.371" height="50.002" transform="translate(168.111 185.752)" fill="none" stroke="#263238" stroke-linecap="round" stroke-linejoin="round" stroke-width="1"/>
        <rect id="Rectángulo_375139" data-name="Rectángulo 375139" width="9.371" height="45.134" transform="translate(181.741 190.619)" fill="none" stroke="#263238" stroke-linecap="round" stroke-linejoin="round" stroke-width="1"/>
        <rect id="Rectángulo_375140" data-name="Rectángulo 375140" width="9.371" height="9.735" transform="translate(195.372 226.019)" fill="none" stroke="#263238" stroke-linecap="round" stroke-linejoin="round" stroke-width="1"/>
        <line id="Línea_3837" data-name="Línea 3837" x2="26.835" transform="translate(210.706 170.265)" fill="none" stroke="#263238" stroke-linecap="round" stroke-linejoin="round" stroke-width="1"/>
        <line id="Línea_3838" data-name="Línea 3838" x2="26.835" transform="translate(210.706 179.557)" fill="none" stroke="#263238" stroke-linecap="round" stroke-linejoin="round" stroke-width="1"/>
        <line id="Línea_3839" data-name="Línea 3839" x2="26.835" transform="translate(210.706 188.85)" fill="none" stroke="#263238" stroke-linecap="round" stroke-linejoin="round" stroke-width="1"/>
        <line id="Línea_3840" data-name="Línea 3840" x2="26.835" transform="translate(210.706 198.142)" fill="none" stroke="#263238" stroke-linecap="round" stroke-linejoin="round" stroke-width="1"/>
        <line id="Línea_3841" data-name="Línea 3841" x2="26.835" transform="translate(210.706 207.435)" fill="none" stroke="#263238" stroke-linecap="round" stroke-linejoin="round" stroke-width="1"/>
        <line id="Línea_3842" data-name="Línea 3842" x2="26.835" transform="translate(210.706 216.727)" fill="none" stroke="#263238" stroke-linecap="round" stroke-linejoin="round" stroke-width="1"/>
        <line id="Línea_3843" data-name="Línea 3843" x2="26.835" transform="translate(210.706 226.019)" fill="none" stroke="#263238" stroke-linecap="round" stroke-linejoin="round" stroke-width="1"/>
        <line id="Línea_3844" data-name="Línea 3844" x2="26.835" transform="translate(210.706 235.312)" fill="none" stroke="#263238" stroke-linecap="round" stroke-linejoin="round" stroke-width="1"/>
        <line id="Línea_3845" data-name="Línea 3845" x2="144.848" transform="translate(256.855 97.102)" fill="none" stroke="#263238" stroke-linecap="round" stroke-linejoin="round" stroke-width="1"/>
        <line id="Línea_3846" data-name="Línea 3846" x2="144.848" transform="translate(256.855 106.395)" fill="none" stroke="#263238" stroke-linecap="round" stroke-linejoin="round" stroke-width="1"/>
        <line id="Línea_3847" data-name="Línea 3847" x2="144.848" transform="translate(256.855 115.687)" fill="none" stroke="#263238" stroke-linecap="round" stroke-linejoin="round" stroke-width="1"/>
        <line id="Línea_3848" data-name="Línea 3848" x2="144.848" transform="translate(256.855 124.979)" fill="none" stroke="#263238" stroke-linecap="round" stroke-linejoin="round" stroke-width="1"/>
        <line id="Línea_3849" data-name="Línea 3849" x2="144.848" transform="translate(256.855 134.272)" fill="none" stroke="#263238" stroke-linecap="round" stroke-linejoin="round" stroke-width="1"/>
        <line id="Línea_3850" data-name="Línea 3850" x2="82.913" transform="translate(256.855 152.857)" fill="none" stroke="#263238" stroke-linecap="round" stroke-linejoin="round" stroke-width="1"/>
        <line id="Línea_3851" data-name="Línea 3851" x2="82.913" transform="translate(256.855 161.605)" fill="none" stroke="#263238" stroke-linecap="round" stroke-linejoin="round" stroke-width="1"/>
        <line id="Línea_3852" data-name="Línea 3852" x2="84.911" transform="translate(256.855 168.708)" fill="none" stroke="#263238" stroke-linecap="round" stroke-linejoin="round" stroke-width="1"/>
        <line id="Línea_3853" data-name="Línea 3853" x2="84.911" transform="translate(256.855 178)" fill="none" stroke="#263238" stroke-linecap="round" stroke-linejoin="round" stroke-width="1"/>
        <line id="Línea_3854" data-name="Línea 3854" x2="84.911" transform="translate(256.855 187.293)" fill="none" stroke="#263238" stroke-linecap="round" stroke-linejoin="round" stroke-width="1"/>
        <line id="Línea_3855" data-name="Línea 3855" x2="84.911" transform="translate(256.855 196.585)" fill="none" stroke="#263238" stroke-linecap="round" stroke-linejoin="round" stroke-width="1"/>
        <line id="Línea_3856" data-name="Línea 3856" x2="84.911" transform="translate(256.855 205.878)" fill="none" stroke="#263238" stroke-linecap="round" stroke-linejoin="round" stroke-width="1"/>
        <line id="Línea_3857" data-name="Línea 3857" x2="84.911" transform="translate(256.855 215.17)" fill="none" stroke="#263238" stroke-linecap="round" stroke-linejoin="round" stroke-width="1"/>
        <line id="Línea_3858" data-name="Línea 3858" x2="84.911" transform="translate(256.855 224.463)" fill="none" stroke="#263238" stroke-linecap="round" stroke-linejoin="round" stroke-width="1"/>
        <line id="Línea_3859" data-name="Línea 3859" x2="84.911" transform="translate(256.855 233.755)" fill="none" stroke="#263238" stroke-linecap="round" stroke-linejoin="round" stroke-width="1"/>
        <path id="Trazado_817073" data-name="Trazado 817073" d="M182.45,165.723,176.6,128.452h4.164l3.853,26.78,4.827-26.641h3.543l4.872,26.779,3.764-26.918H205.7l-5.758,37.271h-3.632l-5-27.607-5.05,27.607Z" transform="translate(-50.415 -33.103)" fill="#263238"/>
        <line id="Línea_3860" data-name="Línea 3860" x2="74.307" transform="translate(165.128 97.287)" fill="none" stroke="#263238" stroke-linecap="round" stroke-linejoin="round" stroke-width="1"/>
        <line id="Línea_3861" data-name="Línea 3861" x2="74.307" transform="translate(165.128 105.475)" fill="none" stroke="#263238" stroke-linecap="round" stroke-linejoin="round" stroke-width="1"/>
        <line id="Línea_3862" data-name="Línea 3862" x2="74.307" transform="translate(165.128 113.662)" fill="none" stroke="#263238" stroke-linecap="round" stroke-linejoin="round" stroke-width="1"/>
        <line id="Línea_3863" data-name="Línea 3863" x2="74.307" transform="translate(165.128 121.849)" fill="none" stroke="#263238" stroke-linecap="round" stroke-linejoin="round" stroke-width="1"/>
        <line id="Línea_3864" data-name="Línea 3864" x2="74.307" transform="translate(165.128 130.036)" fill="none" stroke="#263238" stroke-linecap="round" stroke-linejoin="round" stroke-width="1"/>
        <g id="Grupo_1070988" data-name="Grupo 1070988">
          <g id="Grupo_1070987" data-name="Grupo 1070987" clip-path="url(#clip-path)">
            <path id="Trazado_817074" data-name="Trazado 817074" d="M538.586,195.994H495.4c-2.414,0-4.39,2.524-4.39,5.607v29.937c0,3.084,1.976,5.607,4.39,5.607h10.346l-6.767,15.488,18.047-15.488h21.56c2.414,0,4.39-2.523,4.39-5.607V201.6c0-3.083-1.976-5.607-4.39-5.607" transform="translate(-140.169 -50.509)" fill="#263238"/>
            <path id="Trazado_817075" data-name="Trazado 817075" d="M538.586,195.994H495.4c-2.414,0-4.39,2.524-4.39,5.607v29.937c0,3.084,1.976,5.607,4.39,5.607h10.346l-6.767,15.488,18.047-15.488h21.56c2.414,0,4.39-2.523,4.39-5.607V201.6C542.977,198.518,541,195.994,538.586,195.994Z" transform="translate(-140.169 -50.509)" fill="none" stroke="#263238" stroke-linecap="round" stroke-linejoin="round" stroke-width="1"/>
            <path id="Trazado_817076" data-name="Trazado 817076" d="M513.269,230.623l-9.085-6.666v-3.531l9.085-6.733v3.564l-6.512,4.917,6.512,4.917Z" transform="translate(-143.93 -55.07)" fill="#fff7bb"/>
            <path id="Trazado_817077" data-name="Trazado 817077" d="M520.766,228.821l6.925-26.731h2.954l-6.956,26.731Z" transform="translate(-148.663 -52.08)" fill="#fff7bb"/>
            <path id="Trazado_817078" data-name="Trazado 817078" d="M538.461,230.623v-3.531l6.544-4.95-6.544-4.884v-3.564l9.117,6.7v3.531Z" transform="translate(-153.715 -55.07)" fill="#fff7bb"/>
          </g>
        </g>
        <g id="Grupo_1070990" data-name="Grupo 1070990">
          <g id="Grupo_1070989" data-name="Grupo 1070989" clip-path="url(#clip-path)">
            <path id="Trazado_817079" data-name="Trazado 817079" d="M534.654,60.825H491.469c-2.414,0-4.39,2.524-4.39,5.607V96.37c0,3.084,1.976,5.607,4.39,5.607h10.346l-6.767,15.488,18.047-15.488h21.56c2.414,0,4.39-2.523,4.39-5.607V66.432c0-3.083-1.976-5.607-4.39-5.607" transform="translate(-139.047 -15.675)" fill="#263238"/>
            <path id="Trazado_817080" data-name="Trazado 817080" d="M534.654,60.825H491.469c-2.414,0-4.39,2.524-4.39,5.607V96.37c0,3.084,1.976,5.607,4.39,5.607h10.346l-6.767,15.488,18.047-15.488h21.56c2.414,0,4.39-2.523,4.39-5.607V66.432C539.045,63.349,537.069,60.825,534.654,60.825Z" transform="translate(-139.047 -15.675)" fill="none" stroke="#263238" stroke-linecap="round" stroke-linejoin="round" stroke-width="1"/>
            <path id="Trazado_817081" data-name="Trazado 817081" d="M509.337,95.454l-9.085-6.666V85.257l9.085-6.732v3.564l-6.512,4.917,6.512,4.917Z" transform="translate(-142.807 -20.236)" fill="#fff7bb"/>
            <path id="Trazado_817082" data-name="Trazado 817082" d="M516.833,93.652l6.925-26.731h2.954l-6.956,26.731Z" transform="translate(-147.541 -17.246)" fill="#fff7bb"/>
            <path id="Trazado_817083" data-name="Trazado 817083" d="M534.528,95.454V91.923l6.544-4.95-6.544-4.884V78.525l9.117,6.7v3.531Z" transform="translate(-152.592 -20.236)" fill="#fff7bb"/>
          </g>
        </g>
        <g id="Grupo_1070992" data-name="Grupo 1070992">
          <g id="Grupo_1070991" data-name="Grupo 1070991" clip-path="url(#clip-path)">
            <path id="Trazado_817084" data-name="Trazado 817084" d="M297.158,164.995H253.972c-2.414,0-4.39,2.524-4.39,5.607V200.54c0,3.084,1.976,5.607,4.39,5.607h10.346l-6.767,15.488L275.6,206.147h21.56c2.414,0,4.39-2.523,4.39-5.607V170.6c0-3.083-1.976-5.607-4.39-5.607" transform="translate(-71.248 -42.52)" fill="#263238"/>
            <path id="Trazado_817085" data-name="Trazado 817085" d="M297.158,164.995H253.972c-2.414,0-4.39,2.524-4.39,5.607V200.54c0,3.084,1.976,5.607,4.39,5.607h10.346l-6.767,15.488L275.6,206.147h21.56c2.414,0,4.39-2.523,4.39-5.607V170.6C301.548,167.519,299.572,164.995,297.158,164.995Z" transform="translate(-71.248 -42.52)" fill="none" stroke="#263238" stroke-linecap="round" stroke-linejoin="round" stroke-width="1"/>
            <path id="Trazado_817086" data-name="Trazado 817086" d="M271.84,199.625l-9.085-6.666v-3.531l9.085-6.733v3.564l-6.512,4.917,6.512,4.917Z" transform="translate(-75.009 -47.082)" fill="#fff7bb"/>
            <path id="Trazado_817087" data-name="Trazado 817087" d="M279.336,197.823l6.925-26.731h2.954l-6.956,26.731Z" transform="translate(-79.742 -44.092)" fill="#fff7bb"/>
            <path id="Trazado_817088" data-name="Trazado 817088" d="M297.031,199.625v-3.531l6.544-4.95-6.544-4.884V182.7l9.117,6.7v3.531Z" transform="translate(-84.794 -47.082)" fill="#fff7bb"/>
          </g>
        </g>
        <g id="Grupo_1070994" data-name="Grupo 1070994">
          <g id="Grupo_1070993" data-name="Grupo 1070993" clip-path="url(#clip-path)">
            <path id="Trazado_817089" data-name="Trazado 817089" d="M165.068,365.521c-.032,0-.065,0-.1,0-.414-.039-4.071-.454-4.879-2.971-.626-1.951-.642-7.419.819-9.154,1.333-1.583,3.393-.817,4.294-.193a1.139,1.139,0,0,1,.3,1.544,1.047,1.047,0,0,1-1.481.313c-.024-.016-1.08-.688-1.5-.2-.7.827-.95,5.264-.4,6.983.262.817,1.97,1.352,3.042,1.459a1.1,1.1,0,0,1,.967,1.211,1.088,1.088,0,0,1-1.065,1.01" transform="translate(-45.586 -90.83)" fill="#263238"/>
            <rect id="Rectángulo_375144" data-name="Rectángulo 375144" width="12.862" height="16.409" transform="translate(118.871 260.563)" fill="#263238"/>
            <rect id="Rectángulo_375145" data-name="Rectángulo 375145" width="12.862" height="16.409" transform="translate(118.871 260.563)" fill="none" stroke="#263238" stroke-linecap="round" stroke-linejoin="round" stroke-width="1"/>
            <path id="Trazado_817090" data-name="Trazado 817090" d="M170.738,343.566a7.214,7.214,0,0,1,.763-5.233c1.527-2.538,4.58-3.014,4.427-7.454" transform="translate(-48.686 -85.27)" fill="none" stroke="#263238" stroke-linecap="round" stroke-linejoin="round" stroke-width="1"/>
            <path id="Trazado_817091" data-name="Trazado 817091" d="M180.7,338.785a24.341,24.341,0,0,1-1.984,3.013,6.284,6.284,0,0,0-1.069,3.806" transform="translate(-50.712 -87.307)" fill="none" stroke="#263238" stroke-linecap="round" stroke-linejoin="round" stroke-width="1"/>
            <path id="Trazado_817092" data-name="Trazado 817092" d="M183.847,333.232a10.431,10.431,0,0,0,.611-4.916" transform="translate(-52.483 -84.609)" fill="none" stroke="#263238" stroke-linecap="round" stroke-linejoin="round" stroke-width="1"/>
          </g>
        </g>
        <g id="Grupo_1070996" data-name="Grupo 1070996">
          <g id="Grupo_1070995" data-name="Grupo 1070995" clip-path="url(#clip-path)">
            <path id="Trazado_817093" data-name="Trazado 817093" d="M114.526,214.116s-.625-2.843-2.23-2.643-1.1.752-2.627.328-1.833-1.77-2.585-.6.666,1.916-.682,1.777-1.891-.994-2.422-.466a4.222,4.222,0,0,0-.77,1.018l-.222.643a1.435,1.435,0,0,1,2.154-.577c1.436.9,2.492,1.073,2.7.278s1.989-.71,2.042-.255a2.371,2.371,0,0,0,.561,1.007s-3.957.341-5.125.486-2.019-.824-3.7,0-3.07,1.614-3.693,2.614.847,2.2.643,3-3.2,1.783-3.075,2.844,1.471,1.2.1,2.14-2.579,2.014-2.182,2.887,1.4,1.825,1.21,2.77-1.762,2.68-.927,3.5,1.348.139,1.2,1.388-.892,3.8.036,4.147,2.019.824,2.014,2.055-.192,2.176.625,2.844,2.731.58,2.942,2.4.427,2.407,1.209,2.77,2.008-.559,2.621.9,2.382,1.393,3.222.981,1.5-1.11,2.276.485,1.687,1.788,2.819,1.339a3.35,3.35,0,0,1,3.479.641c.689.837,2.294.636,3.1-.079s1.376-2.171,2.1-1.032,2.469,2.152,3.093,1.151,1.033-2.589,2.013-1.79a2.026,2.026,0,0,0,2.9-.516,3.038,3.038,0,0,1,2.777-1.577c1.2.157,2.679.127,2.649-1.407s-.152-2.6,1.05-2.438,3.023.545,2.994-.989-.136-2.444.74-2.553,2.211-1.352,1.961-2.244-.912-4.037-.474-4.092,1.027-1.358.413-2.819-.753-2.674-.333-2.879.81-1.947-.205-3.05-1.413-1.976-.608-2.692a2.076,2.076,0,0,0-.059-3.068,4.321,4.321,0,0,1-1.611-2.412c-.088-.758-2.049-2.358-2.686-2.74a3.983,3.983,0,0,1-1.536-3.037c-.193-1.667-.5-1.782-3.269-2.667a12.8,12.8,0,0,1-4.564-2.351c-1.127-.782-3.9-.435-5,.317s-5.415.523-7.055,4.264" transform="translate(-26.644 -53.884)" fill="#263238"/>
            <path id="Trazado_817094" data-name="Trazado 817094" d="M114.526,214.116s-.625-2.843-2.23-2.643-1.1.752-2.627.328-1.833-1.77-2.585-.6.666,1.916-.682,1.777-1.891-.994-2.422-.466a4.222,4.222,0,0,0-.77,1.018l-.222.643a1.435,1.435,0,0,1,2.154-.577c1.436.9,2.492,1.073,2.7.278s1.989-.71,2.042-.255a2.371,2.371,0,0,0,.561,1.007s-3.957.341-5.125.486-2.019-.824-3.7,0-3.07,1.614-3.693,2.614.847,2.2.643,3-3.2,1.783-3.075,2.844,1.471,1.2.1,2.14-2.579,2.014-2.182,2.887,1.4,1.825,1.21,2.77-1.762,2.68-.927,3.5,1.348.139,1.2,1.388-.892,3.8.036,4.147,2.019.824,2.014,2.055-.192,2.176.625,2.844,2.731.58,2.942,2.4.427,2.407,1.209,2.77,2.008-.559,2.621.9,2.382,1.393,3.222.981,1.5-1.11,2.276.485,1.687,1.788,2.819,1.339a3.35,3.35,0,0,1,3.479.641c.689.837,2.294.636,3.1-.079s1.376-2.171,2.1-1.032,2.469,2.152,3.093,1.151,1.033-2.589,2.013-1.79a2.026,2.026,0,0,0,2.9-.516,3.038,3.038,0,0,1,2.777-1.577c1.2.157,2.679.127,2.649-1.407s-.152-2.6,1.05-2.438,3.023.545,2.994-.989-.136-2.444.74-2.553,2.211-1.352,1.961-2.244-.912-4.037-.474-4.092,1.027-1.358.413-2.819-.753-2.674-.333-2.879.81-1.947-.205-3.05-1.413-1.976-.608-2.692a2.076,2.076,0,0,0-.059-3.068,4.321,4.321,0,0,1-1.611-2.412c-.088-.758-2.049-2.358-2.686-2.74a3.983,3.983,0,0,1-1.536-3.037c-.193-1.667-.5-1.782-3.269-2.667a12.8,12.8,0,0,1-4.564-2.351c-1.127-.782-3.9-.435-5,.317S116.165,210.375,114.526,214.116Z" transform="translate(-26.644 -53.884)" fill="none" stroke="#263238" stroke-linecap="round" stroke-linejoin="round" stroke-width="1"/>
            <path id="Trazado_817095" data-name="Trazado 817095" d="M78.177,304.549c4.723-3.8,14.711-21.029,14.711-21.029s1.206,8.8,2.607,13,3.305,6.954,2.828,11.781c0,.017-.041-.745-.044-.728l25.614.781c-.784-1.469-1.285-1.74-1.4-2.38-.415-2.27,1.818-7.291,1.843-9.586s1.7-6.672,1.7-6.672,7.387,17.008,9.082,18.439,6.448,2.228,6.163-3.107-8.893-25.942-10.409-29.524-3.415-6.073-7.075-5.709-4.508,1.024-7,1.168-1.393-12.3-1.393-12.3a8.857,8.857,0,0,1-9.048,1.439s.643,6.537-.425,8.586-1.622,2.693-4.174,1.77-6.545-4.057-8.982-2.846-19.55,30.788-20.887,33.311c-.884,1.668-3.27,5.948-2.557,7.09Z" transform="translate(-19.755 -66.663)" fill="#fff"/>
            <path id="Trazado_817096" data-name="Trazado 817096" d="M78.177,304.549c4.723-3.8,14.711-21.029,14.711-21.029s1.206,8.8,2.607,13,3.305,6.954,2.828,11.781c0,.017-.041-.745-.044-.728l25.614.781c-.784-1.469-1.285-1.74-1.4-2.38-.415-2.27,1.818-7.291,1.843-9.586s1.7-6.672,1.7-6.672,7.387,17.008,9.082,18.439,6.448,2.228,6.163-3.107-8.893-25.942-10.409-29.524-3.415-6.073-7.075-5.709-4.508,1.024-7,1.168-1.393-12.3-1.393-12.3a8.857,8.857,0,0,1-9.048,1.439s.643,6.537-.425,8.586-1.622,2.693-4.174,1.77-6.545-4.057-8.982-2.846-19.55,30.788-20.887,33.311c-.884,1.668-3.27,5.948-2.557,7.09Z" transform="translate(-19.755 -66.663)" fill="none" stroke="#263238" stroke-linecap="round" stroke-linejoin="round" stroke-width="1"/>
            <path id="Trazado_817097" data-name="Trazado 817097" d="M109.942,325.274c.024-.248.039-.488.051-.725l-.1,0c0-.017.042.745.044.728" transform="translate(-31.373 -83.638)" fill="#fff7bb"/>
            <path id="Trazado_817098" data-name="Trazado 817098" d="M109.942,325.274c.024-.248.039-.488.051-.725l-.1,0C109.9,324.529,109.94,325.291,109.942,325.274Z" transform="translate(-31.373 -83.638)" fill="none" stroke="#263238" stroke-linecap="round" stroke-linejoin="round" stroke-width="1"/>
            <path id="Trazado_817099" data-name="Trazado 817099" d="M92.776,270.637c-2.437,1.211-19.55,30.788-20.887,33.311-.884,1.669-3.27,5.949-2.557,7.09l8.844-3.477c4.723-3.8,14.711-21.029,14.711-21.029s1.206,8.8,2.607,13c1.33,3.984,3.107,6.67,2.88,11.055l25.519.778c-.784-1.468-1.285-1.739-1.4-2.38-.415-2.269,1.818-7.291,1.843-9.586s1.7-6.672,1.7-6.672,7.387,17.008,9.082,18.439,6.448,2.228,6.163-3.107-8.893-25.942-10.409-29.525-3.415-6.072-7.075-5.708a27.414,27.414,0,0,0-3.883.654l-10.608,13.415-7.55-13.411c-2.551-.923-6.545-4.057-8.982-2.847" transform="translate(-19.755 -69.674)" fill="#263238"/>
            <path id="Trazado_817100" data-name="Trazado 817100" d="M92.776,270.637c-2.437,1.211-19.55,30.788-20.887,33.311-.884,1.669-3.27,5.949-2.557,7.09l8.844-3.477c4.723-3.8,14.711-21.029,14.711-21.029s1.206,8.8,2.607,13c1.33,3.984,3.107,6.67,2.88,11.055l25.519.778c-.784-1.468-1.285-1.739-1.4-2.38-.415-2.269,1.818-7.291,1.843-9.586s1.7-6.672,1.7-6.672,7.387,17.008,9.082,18.439,6.448,2.228,6.163-3.107-8.893-25.942-10.409-29.525-3.415-6.072-7.075-5.708a27.414,27.414,0,0,0-3.883.654l-10.608,13.415-7.55-13.411C99.208,272.56,95.214,269.426,92.776,270.637Z" transform="translate(-19.755 -69.674)" fill="none" stroke="#263238" stroke-linecap="round" stroke-linejoin="round" stroke-width="1"/>
            <path id="Trazado_817101" data-name="Trazado 817101" d="M104.832,322.77S91.318,334.9,91.011,346.332c-.106,3.963.625,12.818,7.135,13.75s35.42,0,35.42,0,2.245-.7,3.592-8.628-8.531-28.218-8.531-28.218Z" transform="translate(-25.978 -83.18)" fill="#263238"/>
            <path id="Trazado_817102" data-name="Trazado 817102" d="M104.832,322.77S91.318,334.9,91.011,346.332c-.106,3.963.625,12.818,7.135,13.75s35.42,0,35.42,0,2.245-.7,3.592-8.628-8.531-28.218-8.531-28.218Z" transform="translate(-25.978 -83.18)" fill="none" stroke="#263238" stroke-linecap="round" stroke-linejoin="round" stroke-width="1"/>
            <path id="Trazado_817103" data-name="Trazado 817103" d="M122.257,329.261a34.665,34.665,0,0,1-2.835,3.334c-.374.155-.821,1.395-1.642,3.256s-.6,2.015.373,1.55,1.94-2.558,1.94-2.558l1.866-1.24s1.866-4.884.3-4.341" transform="translate(-33.479 -84.842)" fill="#fff"/>
            <path id="Trazado_817104" data-name="Trazado 817104" d="M122.257,329.261a34.665,34.665,0,0,1-2.835,3.334c-.374.155-.821,1.395-1.642,3.256s-.6,2.015.373,1.55,1.94-2.558,1.94-2.558l1.866-1.24S123.824,328.719,122.257,329.261Z" transform="translate(-33.479 -84.842)" fill="none" stroke="#263238" stroke-linecap="round" stroke-linejoin="round" stroke-width="1"/>
            <path id="Trazado_817105" data-name="Trazado 817105" d="M149.115,317.345a20.245,20.245,0,0,1-7.675,5.724c-5.365,2.479-10.575,1.741-13.511,1.877s-3.378-.547-4.626,1.894-.139,9.144.469,9.575.68-2.66.68-2.66.539,2.97,1.394,3.023,1.128-2.528,1.128-2.528.755,1.83,1.451,1.584.553-2.2.553-2.2.844,1.153,1.258.523-.584-4.464-.584-4.464,3.8.648,5.195.156a4.625,4.625,0,0,0,2.137-1.627,84.029,84.029,0,0,0,11.127-.687c4.206-.714,10.042-5.262,8.687-8.072s-5.812-3.443-5.812-3.443" transform="translate(-35.037 -81.441)" fill="#fff"/>
            <path id="Trazado_817106" data-name="Trazado 817106" d="M149.115,317.345a20.245,20.245,0,0,1-7.675,5.724c-5.365,2.479-10.575,1.741-13.511,1.877s-3.378-.547-4.626,1.894-.139,9.144.469,9.575.68-2.66.68-2.66.539,2.97,1.394,3.023,1.128-2.528,1.128-2.528.755,1.83,1.451,1.584.553-2.2.553-2.2.844,1.153,1.258.523-.584-4.464-.584-4.464,3.8.648,5.195.156a4.625,4.625,0,0,0,2.137-1.627,84.029,84.029,0,0,0,11.127-.687c4.206-.714,10.042-5.262,8.687-8.072s-5.812-3.443-5.812-3.443" transform="translate(-35.037 -81.441)" fill="none" stroke="#263238" stroke-linecap="round" stroke-linejoin="round" stroke-width="1"/>
            <path id="Trazado_817107" data-name="Trazado 817107" d="M131.086,337.751s-1.383-4.123-.835-5.768" transform="translate(-37.146 -85.554)" fill="none" stroke="#263238" stroke-linecap="round" stroke-linejoin="round" stroke-width="1"/>
            <path id="Trazado_817108" data-name="Trazado 817108" d="M128.359,338.342a27.6,27.6,0,0,1-.747-6.445" transform="translate(-36.422 -85.532)" fill="none" stroke="#263238" stroke-linecap="round" stroke-linejoin="round" stroke-width="1"/>
            <path id="Trazado_817109" data-name="Trazado 817109" d="M124.984,338.059s-.687-4.369-.229-5.338" transform="translate(-35.569 -85.744)" fill="none" stroke="#263238" stroke-linecap="round" stroke-linejoin="round" stroke-width="1"/>
            <path id="Trazado_817110" data-name="Trazado 817110" d="M158.088,317.345a17.141,17.141,0,0,1-3.923,3.581,9.616,9.616,0,0,1,3.417,6.51c4.151-.965,9.49-5.27,8.187-7.97-1.356-2.81-5.812-3.443-5.812-3.443" transform="translate(-44.01 -81.441)" fill="#263238"/>
            <path id="Trazado_817111" data-name="Trazado 817111" d="M158.088,317.345a17.141,17.141,0,0,1-3.923,3.581,9.616,9.616,0,0,1,3.417,6.51c4.151-.965,9.49-5.27,8.187-7.97-1.356-2.81-5.812-3.443-5.812-3.443" transform="translate(-44.01 -81.441)" fill="none" stroke="#263238" stroke-linecap="round" stroke-linejoin="round" stroke-width="1"/>
            <path id="Trazado_817112" data-name="Trazado 817112" d="M100.55,304.507a17.219,17.219,0,0,0,3.1-1.119c1.59-.762,2.69-2.414,3.18-1.779s.135,1.8-.789,2.613a26.7,26.7,0,0,1-3.614,2.214s-2.9-.583-1.873-1.93" transform="translate(-28.641 -77.69)" fill="#fff"/>
            <path id="Trazado_817113" data-name="Trazado 817113" d="M100.55,304.507a17.219,17.219,0,0,0,3.1-1.119c1.59-.762,2.69-2.414,3.18-1.779s.135,1.8-.789,2.613a26.7,26.7,0,0,1-3.614,2.214S99.521,305.853,100.55,304.507Z" transform="translate(-28.641 -77.69)" fill="none" stroke="#263238" stroke-linecap="round" stroke-linejoin="round" stroke-width="1"/>
            <path id="Trazado_817114" data-name="Trazado 817114" d="M84.816,310.865s3.638-10.045,5.3-10.079,9.514,1.42,9.141,2.235A2.207,2.207,0,0,1,97,304.046a37.648,37.648,0,0,1-4.458-1.061l-1.029,1.347s3.626,1.079,4.186,1.355,2.709,2.481,2.171,3.357-.767.477-.767.477a2.4,2.4,0,0,1-.026,1.557c-.319.7-.656.532-.656.532a1.13,1.13,0,0,1-1.528.984c-.817-.327-.828-1.938-1.833-1.808-1.135.146-1.315-.061-1.315-.061a35.9,35.9,0,0,1-3.438,3.009,6.056,6.056,0,0,1-3.2.987s-6.693,5.856-12.358,6.592c-6.308.818-4.166-6.232-1.01-9.524s13.074-.923,13.074-.923" transform="translate(-19.608 -77.514)" fill="#fff"/>
            <path id="Trazado_817115" data-name="Trazado 817115" d="M84.816,310.865s3.638-10.045,5.3-10.079,9.514,1.42,9.141,2.235A2.207,2.207,0,0,1,97,304.046a37.648,37.648,0,0,1-4.458-1.061l-1.029,1.347s3.626,1.079,4.186,1.355,2.709,2.481,2.171,3.357-.767.477-.767.477a2.4,2.4,0,0,1-.026,1.557c-.319.7-.656.532-.656.532a1.13,1.13,0,0,1-1.528.984c-.817-.327-.828-1.938-1.833-1.808-1.135.146-1.315-.061-1.315-.061a35.9,35.9,0,0,1-3.438,3.009,6.056,6.056,0,0,1-3.2.987s-6.693,5.856-12.358,6.592c-6.308.818-4.166-6.232-1.01-9.524S84.816,310.865,84.816,310.865Z" transform="translate(-19.608 -77.514)" fill="none" stroke="#263238" stroke-linecap="round" stroke-linejoin="round" stroke-width="1"/>
            <path id="Trazado_817116" data-name="Trazado 817116" d="M106.33,311.431a8.867,8.867,0,0,0-1.986-2.443,19.341,19.341,0,0,0-3.35-.786" transform="translate(-28.831 -79.426)" fill="none" stroke="#263238" stroke-linecap="round" stroke-linejoin="round" stroke-width="1"/>
            <path id="Trazado_817117" data-name="Trazado 817117" d="M105.548,314.254s-1.852-2.813-2.433-2.852-2.472-.351-2.472-.351" transform="translate(-28.731 -80.16)" fill="none" stroke="#263238" stroke-linecap="round" stroke-linejoin="round" stroke-width="1"/>
            <path id="Trazado_817118" data-name="Trazado 817118" d="M74.29,318.736a10.148,10.148,0,0,1,2.746-5.457c-2.123.089-4.152.537-5.294,1.729-3.156,3.292-5.3,10.342,1.01,9.524a14.67,14.67,0,0,0,3.781-1.11,5.488,5.488,0,0,1-2.242-4.685" transform="translate(-19.608 -80.734)" fill="#263238"/>
            <path id="Trazado_817119" data-name="Trazado 817119" d="M74.29,318.736a10.148,10.148,0,0,1,2.746-5.457c-2.123.089-4.152.537-5.294,1.729-3.156,3.292-5.3,10.342,1.01,9.524a14.67,14.67,0,0,0,3.781-1.11A5.488,5.488,0,0,1,74.29,318.736Z" transform="translate(-19.608 -80.734)" fill="none" stroke="#263238" stroke-linecap="round" stroke-linejoin="round" stroke-width="1"/>
            <path id="Trazado_817120" data-name="Trazado 817120" d="M142.422,257.091c.491,2.226.121,4.214-.825,4.439s-2.111-1.4-2.6-3.624-.121-4.214.825-4.439S141.931,254.865,142.422,257.091Z" transform="translate(-39.617 -65.315)" fill="none" stroke="#fff" stroke-linecap="round" stroke-linejoin="round" stroke-width="1"/>
            <path id="Trazado_817121" data-name="Trazado 817121" d="M115.18,258.908c-.022,2.153-.789,3.891-1.712,3.881s-1.654-1.764-1.632-3.918.788-3.891,1.712-3.881S115.2,256.754,115.18,258.908Z" transform="translate(-31.926 -65.713)" fill="none" stroke="#fff" stroke-linecap="round" stroke-linejoin="round" stroke-width="1"/>
            <path id="Trazado_817122" data-name="Trazado 817122" d="M122.217,233.6s-2.149.531-2.17,2.238.222,2.283-1.033,2.813-1.931.958-1.736,2.162.7,1.58-.89,1.859-1.476-.825-1.811.782-.407,2.084-.986,2.185.131,5.4,1.538,8.555,4.7,7.846,6.683,8.118,4.524-2.209,6.3-4.354c1.593-1.928,3.947-7.813,3.947-7.813l.507-.554s.894,0,1.133-1.282c0,0-.172-1.983-1.14-2.432a4.917,4.917,0,0,1-2.034-2.43c-.073-.452.409-1.156-.244-1.505s-1.741-.624-2.056-1.652.768-2.612-.514-3.161-1.957-.121-2.128-1.175.382-2.234-.585-2.684-2.777.332-2.777.332" transform="translate(-32.369 -60.08)" fill="#fff"/>
            <path id="Trazado_817123" data-name="Trazado 817123" d="M122.217,233.6s-2.149.531-2.17,2.238.222,2.283-1.033,2.813-1.931.958-1.736,2.162.7,1.58-.89,1.859-1.476-.825-1.811.782-.407,2.084-.986,2.185.131,5.4,1.538,8.555,4.7,7.846,6.683,8.118,4.524-2.209,6.3-4.354c1.593-1.928,3.947-7.813,3.947-7.813l.507-.554s.894,0,1.133-1.282c0,0-.172-1.983-1.14-2.432a4.917,4.917,0,0,1-2.034-2.43c-.073-.452.409-1.156-.244-1.505s-1.741-.624-2.056-1.652.768-2.612-.514-3.161-1.957-.121-2.128-1.175.382-2.234-.585-2.684S122.217,233.6,122.217,233.6Z" transform="translate(-32.369 -60.08)" fill="none" stroke="#263238" stroke-linecap="round" stroke-linejoin="round" stroke-width="1"/>
            <path id="Trazado_817124" data-name="Trazado 817124" d="M121.215,252.015c.153.939-.026,1.754-.4,1.819s-.8-.644-.95-1.583.026-1.753.4-1.819.8.644.95,1.583" transform="translate(-34.203 -64.537)" fill="#263238"/>
            <path id="Trazado_817125" data-name="Trazado 817125" d="M130.523,252.094c-.01.952-.324,1.721-.7,1.717s-.675-.779-.665-1.732.324-1.721.7-1.717.676.78.666,1.733" transform="translate(-36.87 -64.52)" fill="#263238"/>
            <path id="Trazado_817126" data-name="Trazado 817126" d="M122.312,262.318s1.41,1.957,5.452.014" transform="translate(-34.916 -67.601)" fill="none" stroke="#263238" stroke-linecap="round" stroke-linejoin="round" stroke-width="1"/>
            <path id="Trazado_817127" data-name="Trazado 817127" d="M116.488,248.724s2.019-2.206,4.43-.776" transform="translate(-33.254 -63.774)" fill="none" stroke="#263238" stroke-linecap="round" stroke-linejoin="round" stroke-width="1"/>
            <path id="Trazado_817128" data-name="Trazado 817128" d="M127.092,247.731s2.662-1.907,5.558,1.29" transform="translate(-36.281 -63.697)" fill="none" stroke="#263238" stroke-linecap="round" stroke-linejoin="round" stroke-width="1"/>
            <path id="Trazado_817129" data-name="Trazado 817129" d="M123.275,256.029a2.859,2.859,0,0,0-.2,1.059,1.668,1.668,0,0,0,1.821,1.346,1.59,1.59,0,0,0,1.235-2.266" transform="translate(-35.132 -65.98)" fill="none" stroke="#263238" stroke-linecap="round" stroke-linejoin="round" stroke-width="1"/>
            <path id="Trazado_817130" data-name="Trazado 817130" d="M126.737,346.546a6.865,6.865,0,0,0-3.105,1.327c-4.185,3.184-3.108,10.373-3.253,15.135q-.272,8.977-.556,17.955c-.28,8.8-.407,17.629-.952,26.416-.417,6.738-2.242,17.238-.85,24.4s5.019,5.592,6.956-1.022-.735-19.489-.965-22.4c-.179-2.267,9.846-36.624,12.536-52.181,1-5.756-4.747-10.434-9.812-9.63" transform="translate(-33.545 -89.284)" fill="#fff"/>
            <path id="Trazado_817131" data-name="Trazado 817131" d="M126.737,346.546a6.865,6.865,0,0,0-3.105,1.327c-4.185,3.184-3.108,10.373-3.253,15.135q-.272,8.977-.556,17.955c-.28,8.8-.407,17.629-.952,26.416-.417,6.738-2.242,17.238-.85,24.4s5.019,5.592,6.956-1.022-.735-19.489-.965-22.4c-.179-2.267,9.846-36.624,12.536-52.181C137.544,350.42,131.8,345.742,126.737,346.546Z" transform="translate(-33.545 -89.284)" fill="none" stroke="#263238" stroke-linecap="round" stroke-linejoin="round" stroke-width="1"/>
            <path id="Trazado_817132" data-name="Trazado 817132" d="M121.657,448.547c-1.842-.435-3.059-2.8-3.813-5.018-.388,4.654-.565,9.438.179,13.269,1.393,7.165,5.019,5.592,6.956-1.022a29.2,29.2,0,0,0,.6-9.282c-.967,1.368-2.275,2.443-3.924,2.053" transform="translate(-33.545 -114.3)" fill="#263238"/>
            <path id="Trazado_817133" data-name="Trazado 817133" d="M121.657,448.547c-1.842-.435-3.059-2.8-3.813-5.018-.388,4.654-.565,9.438.179,13.269,1.393,7.165,5.019,5.592,6.956-1.022a29.2,29.2,0,0,0,.6-9.282C124.613,447.862,123.306,448.937,121.657,448.547Z" transform="translate(-33.545 -114.3)" fill="none" stroke="#263238" stroke-linecap="round" stroke-linejoin="round" stroke-width="1"/>
            <path id="Trazado_817134" data-name="Trazado 817134" d="M103.348,345.854a6.786,6.786,0,0,1,3.288.709c4.679,2.328,4.9,9.6,5.886,14.251q1.862,8.771,3.736,17.54c1.838,8.594,3.53,17.249,5.627,25.78,1.608,6.543,5.267,16.512,5.17,23.822s-3.939,6.458-7.017.329-2.74-19.294-3.032-22.2c-.227-2.262-16.183-34.108-21.59-48.881-2-5.466,2.812-11.165,7.933-11.345" transform="translate(-27.106 -89.128)" fill="#fff"/>
            <path id="Trazado_817135" data-name="Trazado 817135" d="M103.348,345.854a6.786,6.786,0,0,1,3.288.709c4.679,2.328,4.9,9.6,5.886,14.251q1.862,8.771,3.736,17.54c1.838,8.594,3.53,17.249,5.627,25.78,1.608,6.543,5.267,16.512,5.17,23.822s-3.939,6.458-7.017.329-2.74-19.294-3.032-22.2c-.227-2.262-16.183-34.108-21.59-48.881C93.415,351.733,98.227,346.035,103.348,345.854Z" transform="translate(-27.106 -89.128)" fill="none" stroke="#263238" stroke-linecap="round" stroke-linejoin="round" stroke-width="1"/>
            <path id="Trazado_817136" data-name="Trazado 817136" d="M131.143,444.508c1.733-.78,2.509-3.337,2.857-5.662,1.208,4.5,2.232,9.167,2.181,13.076-.1,7.309-3.939,6.458-7.018.328a29.009,29.009,0,0,1-2.241-9.007c1.194,1.159,2.67,1.964,4.221,1.266" transform="translate(-36.232 -113.094)" fill="#263238"/>
            <path id="Trazado_817137" data-name="Trazado 817137" d="M131.143,444.508c1.733-.78,2.509-3.337,2.857-5.662,1.208,4.5,2.232,9.167,2.181,13.076-.1,7.309-3.939,6.458-7.018.328a29.009,29.009,0,0,1-2.241-9.007C128.116,444.4,129.592,445.207,131.143,444.508Z" transform="translate(-36.232 -113.094)" fill="none" stroke="#263238" stroke-linecap="round" stroke-linejoin="round" stroke-width="1"/>
            <rect id="Rectángulo_375147" data-name="Rectángulo 375147" width="43.984" height="28.386" transform="translate(63.202 228.373)" fill="#c9c9c9"/>
            <rect id="Rectángulo_375148" data-name="Rectángulo 375148" width="43.984" height="28.386" transform="translate(63.202 228.373)" fill="none" stroke="#263238" stroke-linecap="round" stroke-linejoin="round" stroke-width="1"/>
            <rect id="Rectángulo_375149" data-name="Rectángulo 375149" width="43.984" height="1.642" transform="translate(63.202 256.111)" fill="#c9c9c9"/>
            <rect id="Rectángulo_375150" data-name="Rectángulo 375150" width="43.984" height="1.642" transform="translate(63.202 256.111)" fill="none" stroke="#263238" stroke-linecap="round" stroke-linejoin="round" stroke-width="1"/>
          </g>
        </g>
      </g>
    </g>
    <g id="Grupo_1070940" data-name="Grupo 1070940" transform="translate(170 7376)">
      <path id="Trazado_737285" data-name="Trazado 737285" d="M49.461,0,31.451,18.01,13.442,0,0,13.442l18.01,18.01L0,49.462,13.442,62.9l18.01-18.01L49.461,62.9,62.9,49.462l-18.01-18.01L62.9,13.442Z" transform="translate(10.667 -0.001)" fill="#78f0f4"/>
      <line id="Línea_141" data-name="Línea 141" x2="106" transform="translate(0 360.584)" fill="none" stroke="#0f7f83" stroke-linecap="round" stroke-miterlimit="10" stroke-width="2.5" stroke-dasharray="5 7"/>
      <g id="Enmascarar_grupo_68" data-name="Enmascarar grupo 68" transform="translate(403 344)" clip-path="url(#clip-path-13)">
        <path id="Trazado_737287" data-name="Trazado 737287" d="M40.989,0A40.989,40.989,0,1,0,81.978,40.989,40.989,40.989,0,0,0,40.989,0Zm0,69.056A28.067,28.067,0,1,1,69.056,40.989,28.067,28.067,0,0,1,40.989,69.056Z" transform="translate(96.191 6.288) rotate(90)" fill="#ffe323"/>
      </g>
      <g id="Grupo_1015070" data-name="Grupo 1015070" transform="translate(380.412 11.03)">
        <g id="Grupo_80127" data-name="Grupo 80127" transform="translate(0 17.951)">
          <path id="Trazado_113527" data-name="Trazado 113527" d="M1004.1,925.862a2.782,2.782,0,1,1-2.782-2.782A2.781,2.781,0,0,1,1004.1,925.862Z" transform="translate(-998.54 -923.08)" fill="#3a3e44"/>
          <path id="Trazado_113528" data-name="Trazado 113528" d="M1034.9,925.862a2.782,2.782,0,1,1-2.782-2.782A2.781,2.781,0,0,1,1034.9,925.862Z" transform="translate(-1010.91 -923.08)" fill="#3a3e44"/>
          <path id="Trazado_113529" data-name="Trazado 113529" d="M1065.7,925.862a2.782,2.782,0,1,1-2.782-2.782A2.781,2.781,0,0,1,1065.7,925.862Z" transform="translate(-1023.28 -923.08)" fill="#3a3e44"/>
          <path id="Trazado_113530" data-name="Trazado 113530" d="M1096.515,925.862a2.782,2.782,0,1,1-2.782-2.782A2.781,2.781,0,0,1,1096.515,925.862Z" transform="translate(-1035.654 -923.08)" fill="#3a3e44"/>
          <path id="Trazado_113531" data-name="Trazado 113531" d="M1127.315,925.862a2.783,2.783,0,1,1-2.783-2.782A2.781,2.781,0,0,1,1127.315,925.862Z" transform="translate(-1048.024 -923.08)" fill="#3a3e44"/>
          <path id="Trazado_113532" data-name="Trazado 113532" d="M1158.115,925.862a2.782,2.782,0,1,1-2.782-2.782A2.781,2.781,0,0,1,1158.115,925.862Z" transform="translate(-1060.393 -923.08)" fill="#3a3e44"/>
          <path id="Trazado_113533" data-name="Trazado 113533" d="M1188.925,925.862a2.782,2.782,0,1,1-2.783-2.782A2.781,2.781,0,0,1,1188.925,925.862Z" transform="translate(-1072.768 -923.08)" fill="#3a3e44"/>
          <path id="Trazado_113534" data-name="Trazado 113534" d="M1219.725,925.862a2.783,2.783,0,1,1-2.782-2.782A2.781,2.781,0,0,1,1219.725,925.862Z" transform="translate(-1085.137 -923.08)" fill="#3a3e44"/>
        </g>
        <g id="Grupo_80128" data-name="Grupo 80128" transform="translate(0)">
          <path id="Trazado_113527-2" data-name="Trazado 113527" d="M1004.1,925.862a2.782,2.782,0,1,1-2.782-2.782A2.781,2.781,0,0,1,1004.1,925.862Z" transform="translate(-998.54 -923.08)" fill="#3a3e44"/>
          <path id="Trazado_113528-2" data-name="Trazado 113528" d="M1034.9,925.862a2.782,2.782,0,1,1-2.782-2.782A2.781,2.781,0,0,1,1034.9,925.862Z" transform="translate(-1010.91 -923.08)" fill="#3a3e44"/>
          <path id="Trazado_113529-2" data-name="Trazado 113529" d="M1065.7,925.862a2.782,2.782,0,1,1-2.782-2.782A2.781,2.781,0,0,1,1065.7,925.862Z" transform="translate(-1023.28 -923.08)" fill="#3a3e44"/>
          <path id="Trazado_113530-2" data-name="Trazado 113530" d="M1096.515,925.862a2.782,2.782,0,1,1-2.782-2.782A2.781,2.781,0,0,1,1096.515,925.862Z" transform="translate(-1035.654 -923.08)" fill="#3a3e44"/>
          <path id="Trazado_113531-2" data-name="Trazado 113531" d="M1127.315,925.862a2.783,2.783,0,1,1-2.783-2.782A2.781,2.781,0,0,1,1127.315,925.862Z" transform="translate(-1048.024 -923.08)" fill="#3a3e44"/>
          <path id="Trazado_113532-2" data-name="Trazado 113532" d="M1158.115,925.862a2.782,2.782,0,1,1-2.782-2.782A2.781,2.781,0,0,1,1158.115,925.862Z" transform="translate(-1060.393 -923.08)" fill="#3a3e44"/>
          <path id="Trazado_113533-2" data-name="Trazado 113533" d="M1188.925,925.862a2.782,2.782,0,1,1-2.783-2.782A2.781,2.781,0,0,1,1188.925,925.862Z" transform="translate(-1072.768 -923.08)" fill="#3a3e44"/>
          <path id="Trazado_113534-2" data-name="Trazado 113534" d="M1219.725,925.862a2.783,2.783,0,1,1-2.782-2.782A2.781,2.781,0,0,1,1219.725,925.862Z" transform="translate(-1085.137 -923.08)" fill="#3a3e44"/>
        </g>
      </g>
    </g>
  </g>
</svg>
