<svg xmlns="http://www.w3.org/2000/svg" width="101" height="101" viewBox="0 0 101 101">
  <g id="Grupo_1071010" data-name="Grupo 1071010" transform="translate(-940 -8909)">
    <rect id="Rectángulo_374753" data-name="Rectángulo 374753" width="101" height="101" rx="11" transform="translate(940 8909)" fill="#ffe323"/>
    <g id="codigo-binario_1_" data-name="codigo-binario (1)" transform="translate(925.5 8925)">
      <path id="Trazado_817163" data-name="Trazado 817163" d="M89.224,75.069H45.175A2.175,2.175,0,0,1,43,72.894V9.675A2.175,2.175,0,0,1,45.175,7.5H89.224A2.175,2.175,0,0,1,91.4,9.675V72.894A2.175,2.175,0,0,1,89.224,75.069Z" transform="translate(-6.48 -6.48)" fill="#eaf6ff"/>
      <path id="Trazado_817164" data-name="Trazado 817164" d="M357.079,7.5H353a2.175,2.175,0,0,1,2.175,2.175V72.894A2.175,2.175,0,0,1,353,75.069h4.079a2.175,2.175,0,0,0,2.175-2.175V9.675A2.175,2.175,0,0,0,357.079,7.5Z" transform="translate(-274.335 -6.48)" fill="#d8ecfe"/>
      <path id="Trazado_817165" data-name="Trazado 817165" d="M91.4,15.657H43V9.675A2.175,2.175,0,0,1,45.175,7.5H89.224A2.175,2.175,0,0,1,91.4,9.675Z" transform="translate(-6.48 -6.48)" fill="#2abcc8"/>
      <path id="Trazado_817166" data-name="Trazado 817166" d="M357.079,7.5H353a2.175,2.175,0,0,1,2.175,2.175v5.982h4.079V9.675A2.175,2.175,0,0,0,357.079,7.5Z" transform="translate(-274.335 -6.48)" fill="#0cacba"/>
      <path id="Trazado_817167" data-name="Trazado 817167" d="M82.372,11.851h0a2.039,2.039,0,0,1-2.039-2.039V7.5h4.079V9.811A2.039,2.039,0,0,1,82.372,11.851Z" transform="translate(-38.738 -6.48)" fill="#fe7ab6"/>
      <path id="Trazado_817168" data-name="Trazado 817168" d="M137.706,11.851h0a2.039,2.039,0,0,1-2.039-2.039V7.5h4.079V9.811A2.039,2.039,0,0,1,137.706,11.851Z" transform="translate(-86.549 -6.48)" fill="#fdb441"/>
      <path id="Trazado_817169" data-name="Trazado 817169" d="M193.039,11.851h0A2.039,2.039,0,0,1,191,9.811V7.5h4.079V9.811A2.039,2.039,0,0,1,193.039,11.851Z" transform="translate(-134.359 -6.48)" fill="#edf9d9"/>
      <path id="Trazado_817170" data-name="Trazado 817170" d="M264.638,239.848H237.175A2.175,2.175,0,0,1,235,237.673v-31a2.175,2.175,0,0,1,2.175-2.175h27.463a2.175,2.175,0,0,1,2.175,2.175v31A2.175,2.175,0,0,1,264.638,239.848Z" transform="translate(-172.377 -176.698)" fill="#d8ecfe"/>
      <path id="Trazado_817171" data-name="Trazado 817171" d="M427.079,204.5H423a2.175,2.175,0,0,1,2.175,2.175v31A2.175,2.175,0,0,1,423,239.848h4.079a2.175,2.175,0,0,0,2.175-2.175v-31A2.175,2.175,0,0,0,427.079,204.5Z" transform="translate(-334.818 -176.698)" fill="#c4e2ff"/>
      <path id="Trazado_817172" data-name="Trazado 817172" d="M265.634,393.811h0a2.311,2.311,0,0,1,2.311-2.311h18.49a2.311,2.311,0,0,1,2.311,2.311h0a2.311,2.311,0,0,1-2.311,2.311h-18.49A2.311,2.311,0,0,1,265.634,393.811Z" transform="translate(-198.846 -338.274)" fill="#fdb441"/>
      <path id="Trazado_817173" data-name="Trazado 817173" d="M392.713,391.5h-4.079a2.311,2.311,0,0,1,2.311,2.311h0a2.311,2.311,0,0,1-2.311,2.311h4.079a2.311,2.311,0,0,0,2.311-2.311h0A2.311,2.311,0,0,0,392.713,391.5Z" transform="translate(-305.124 -338.274)" fill="#fe9738"/>
      <path id="Trazado_817174" data-name="Trazado 817174" d="M266.813,212.385H235v-5.71a2.175,2.175,0,0,1,2.175-2.175h27.463a2.175,2.175,0,0,1,2.175,2.175Z" transform="translate(-172.377 -176.698)" fill="#2abcc8"/>
      <path id="Trazado_817175" data-name="Trazado 817175" d="M427.079,204.5H423a2.175,2.175,0,0,1,2.175,2.175v5.71h4.079v-5.71A2.175,2.175,0,0,0,427.079,204.5Z" transform="translate(-334.818 -176.698)" fill="#0cacba"/>
      <path id="Trazado_817176" data-name="Trazado 817176" d="M97.378,279.778H85.218a.718.718,0,0,1-.718-.718V257.384a.718.718,0,0,1,.718-.718h12.16a.718.718,0,0,1,.718.718v21.677A.718.718,0,0,1,97.378,279.778Z" transform="translate(-42.338 -221.771)" fill="#fe7ab6"/>
      <path id="Trazado_817177" data-name="Trazado 817177" d="M153.3,256.667h-4.079a.718.718,0,0,1,.718.718v21.677a.718.718,0,0,1-.718.718H153.3a.718.718,0,0,0,.718-.718V257.384A.718.718,0,0,0,153.3,256.667Z" transform="translate(-98.261 -221.772)" fill="#fe5ca7"/>
      <g id="Grupo_1071009" data-name="Grupo 1071009" transform="translate(35.5 0)">
        <path id="Trazado_817178" data-name="Trazado 817178" d="M84.919,28.528a1.02,1.02,0,0,1-1.02-1.02V3.195a1.157,1.157,0,0,0-1.156-1.156H38.695a1.157,1.157,0,0,0-1.156,1.156V16.213a1.02,1.02,0,1,1-2.039,0V3.195A3.2,3.2,0,0,1,38.695,0H82.744a3.2,3.2,0,0,1,3.195,3.195V27.508A1.02,1.02,0,0,1,84.919,28.528Z" transform="translate(-35.5 0)"/>
        <path id="Trazado_817179" data-name="Trazado 817179" d="M82.744,198.783H38.695a3.2,3.2,0,0,1-3.195-3.195V150.52a1.02,1.02,0,1,1,2.039,0v45.069a1.157,1.157,0,0,0,1.156,1.156H82.744a1.157,1.157,0,0,0,1.156-1.156v-2.953a1.02,1.02,0,1,1,2.039,0v2.953A3.2,3.2,0,0,1,82.744,198.783Z" transform="translate(-35.5 -129.175)"/>
        <path id="Línea_3865" data-name="Línea 3865" d="M41.262-5.461H-6.48A1.02,1.02,0,0,1-7.5-6.48,1.02,1.02,0,0,1-6.48-7.5H41.262a1.02,1.02,0,0,1,1.02,1.02A1.02,1.02,0,0,1,41.262-5.461Z" transform="translate(7.908 15.657)"/>
        <path id="Trazado_817180" data-name="Trazado 817180" d="M75.892,6.39a3.062,3.062,0,0,1-3.059-3.059V1.02A1.02,1.02,0,0,1,73.853,0h4.079a1.02,1.02,0,0,1,1.02,1.02V3.331A3.062,3.062,0,0,1,75.892,6.39Zm-1.02-4.351V3.331a1.02,1.02,0,1,0,2.039,0V2.039Z" transform="translate(-67.757 0)"/>
        <path id="Trazado_817181" data-name="Trazado 817181" d="M131.226,6.39a3.062,3.062,0,0,1-3.059-3.059V1.02A1.02,1.02,0,0,1,129.187,0h4.079a1.02,1.02,0,0,1,1.02,1.02V3.331A3.062,3.062,0,0,1,131.226,6.39Zm-1.02-4.351V3.331a1.02,1.02,0,0,0,2.039,0V2.039Z" transform="translate(-115.569 0)"/>
        <path id="Trazado_817182" data-name="Trazado 817182" d="M186.559,6.39A3.062,3.062,0,0,1,183.5,3.331V1.02A1.02,1.02,0,0,1,184.52,0H188.6a1.02,1.02,0,0,1,1.02,1.02V3.331A3.062,3.062,0,0,1,186.559,6.39Zm-1.02-4.351V3.331a1.02,1.02,0,0,0,2.039,0V2.039Z" transform="translate(-163.379 0)"/>
        <g id="Grupo_1071006" data-name="Grupo 1071006" transform="translate(34.396 39.578)">
          <path id="Línea_3866" data-name="Línea 3866" d="M.113-5.461H-6.48A1.02,1.02,0,0,1-7.5-6.48,1.02,1.02,0,0,1-6.48-7.5H.113a1.02,1.02,0,0,1,1.02,1.02A1.02,1.02,0,0,1,.113-5.461Z" transform="translate(7.5 7.5)"/>
          <path id="Línea_3867" data-name="Línea 3867" d="M9.834-5.461H-6.48A1.02,1.02,0,0,1-7.5-6.48,1.02,1.02,0,0,1-6.48-7.5H9.834a1.02,1.02,0,0,1,1.02,1.02A1.02,1.02,0,0,1,9.834-5.461Z" transform="translate(7.5 11.065)"/>
          <path id="Línea_3868" data-name="Línea 3868" d="M7.591-5.461H-6.48A1.02,1.02,0,0,1-7.5-6.48,1.02,1.02,0,0,1-6.48-7.5H7.591A1.02,1.02,0,0,1,8.61-6.48,1.02,1.02,0,0,1,7.591-5.461Z" transform="translate(7.5 14.63)"/>
        </g>
        <path id="Trazado_817183" data-name="Trazado 817183" d="M258.158,234.387H244.743a1.02,1.02,0,0,1,0-2.039h13.414a1.157,1.157,0,0,0,1.156-1.156v-31a1.157,1.157,0,0,0-1.156-1.156H230.695a1.157,1.157,0,0,0-1.156,1.156v31a1.157,1.157,0,0,0,1.156,1.156h9.2a1.02,1.02,0,1,1,0,2.039h-9.2a3.2,3.2,0,0,1-3.195-3.195v-31A3.2,3.2,0,0,1,230.695,197h27.463a3.2,3.2,0,0,1,3.195,3.195v31A3.2,3.2,0,0,1,258.158,234.387Z" transform="translate(-201.397 -170.217)"/>
        <path id="Trazado_817184" data-name="Trazado 817184" d="M261.465,384h18.49a3.331,3.331,0,1,1,0,6.662h-18.49a3.331,3.331,0,1,1,0-6.662Zm18.49,4.622a1.292,1.292,0,0,0,0-2.583h-18.49a1.292,1.292,0,1,0,0,2.583Z" transform="translate(-227.866 -331.794)"/>
        <path id="Línea_3869" data-name="Línea 3869" d="M24.623-5.461H-6.48A1.02,1.02,0,0,1-7.5-6.48,1.02,1.02,0,0,1-6.48-7.5h31.1a1.02,1.02,0,0,1,1.02,1.02A1.02,1.02,0,0,1,24.623-5.461Z" transform="translate(34.071 42.168)"/>
        <path id="Trazado_817185" data-name="Trazado 817185" d="M90.9,274.318H78.737A1.739,1.739,0,0,1,77,272.58V250.9a1.739,1.739,0,0,1,1.737-1.737H90.9a1.739,1.739,0,0,1,1.737,1.737V272.58A1.739,1.739,0,0,1,90.9,274.318Zm-11.858-2.039H90.6V251.205H79.039Z" transform="translate(-71.358 -215.291)"/>
        <g id="Grupo_1071007" data-name="Grupo 1071007" transform="translate(9.496 38.362)">
          <path id="Línea_3870" data-name="Línea 3870" d="M-3.127-5.461H-6.48A1.02,1.02,0,0,1-7.5-6.48,1.02,1.02,0,0,1-6.48-7.5h3.353a1.02,1.02,0,0,1,1.02,1.02A1.02,1.02,0,0,1-3.127-5.461Z" transform="translate(7.5 7.5)"/>
          <path id="Línea_3871" data-name="Línea 3871" d="M-3.127-5.461H-6.48A1.02,1.02,0,0,1-7.5-6.48,1.02,1.02,0,0,1-6.48-7.5h3.353a1.02,1.02,0,0,1,1.02,1.02A1.02,1.02,0,0,1-3.127-5.461Z" transform="translate(7.5 20.733)"/>
          <path id="Línea_3872" data-name="Línea 3872" d="M-.817-5.461H-6.48A1.02,1.02,0,0,1-7.5-6.48,1.02,1.02,0,0,1-6.48-7.5H-.817A1.02,1.02,0,0,1,.2-6.48,1.02,1.02,0,0,1-.817-5.461Z" transform="translate(7.5 10.808)"/>
          <path id="Línea_3873" data-name="Línea 3873" d="M-.817-5.461H-6.48A1.02,1.02,0,0,1-7.5-6.48,1.02,1.02,0,0,1-6.48-7.5H-.817A1.02,1.02,0,0,1,.2-6.48,1.02,1.02,0,0,1-.817-5.461Z" transform="translate(7.5 14.116)"/>
        </g>
        <g id="Grupo_1071008" data-name="Grupo 1071008" transform="translate(6.254 15.567)">
          <path id="Trazado_817186" data-name="Trazado 817186" d="M84.831,123.021A3.335,3.335,0,0,1,81.5,119.69v-1.36a3.331,3.331,0,0,1,6.662,0v1.36A3.335,3.335,0,0,1,84.831,123.021Zm0-5.982a1.293,1.293,0,0,0-1.292,1.292v1.36a1.292,1.292,0,1,0,2.583,0v-1.36A1.293,1.293,0,0,0,84.831,117.039Z" transform="translate(-81.5 -114.932)"/>
          <path id="Línea_3874" data-name="Línea 3874" d="M-6.48.521A1.02,1.02,0,0,1-7.5-.5V-6.48A1.02,1.02,0,0,1-6.48-7.5a1.02,1.02,0,0,1,1.02,1.02V-.5A1.02,1.02,0,0,1-6.48.521Z" transform="translate(16.473 7.5)"/>
          <path id="Trazado_817187" data-name="Trazado 817187" d="M182.831,123.021a3.335,3.335,0,0,1-3.331-3.331v-1.36a3.331,3.331,0,1,1,6.662,0v1.36A3.335,3.335,0,0,1,182.831,123.021Zm0-5.982a1.293,1.293,0,0,0-1.292,1.292v1.36a1.292,1.292,0,1,0,2.583,0v-1.36A1.293,1.293,0,0,0,182.831,117.039Z" transform="translate(-166.177 -114.932)"/>
          <path id="Línea_3875" data-name="Línea 3875" d="M-6.48.521A1.02,1.02,0,0,1-7.5-.5V-6.48A1.02,1.02,0,0,1-6.48-7.5a1.02,1.02,0,0,1,1.02,1.02V-.5A1.02,1.02,0,0,1-6.48.521Z" transform="translate(29.796 7.5)"/>
          <path id="Trazado_817188" data-name="Trazado 817188" d="M280.831,123.021a3.335,3.335,0,0,1-3.331-3.331v-1.36a3.331,3.331,0,1,1,6.662,0v1.36A3.335,3.335,0,0,1,280.831,123.021Zm0-5.982a1.293,1.293,0,0,0-1.292,1.292v1.36a1.292,1.292,0,0,0,2.583,0v-1.36A1.293,1.293,0,0,0,280.831,117.039Z" transform="translate(-250.853 -114.932)"/>
          <path id="Línea_3876" data-name="Línea 3876" d="M-6.48.521A1.02,1.02,0,0,1-7.5-.5V-6.48A1.02,1.02,0,0,1-6.48-7.5a1.02,1.02,0,0,1,1.02,1.02V-.5A1.02,1.02,0,0,1-6.48.521Z" transform="translate(43.12 7.5)"/>
        </g>
      </g>
    </g>
  </g>
</svg>
