<svg xmlns="http://www.w3.org/2000/svg" width="28.754" height="39.591" viewBox="0 0 28.754 39.591">
  <g id="Grupo_1071478" data-name="Grupo 1071478" transform="translate(-180 -4654.792)">
    <g id="Grupo_1072213" data-name="Grupo 1072213" transform="translate(180.561 4655.352)">
      <path id="Trazado_820602" data-name="Trazado 820602" d="M111.237,235.084c0,7.63-27.632,7.63-27.632,0a13.816,13.816,0,1,1,27.632,0Z" transform="translate(-83.605 -204.818)" fill="#e4e8eb" fill-rule="evenodd"/>
      <path id="Trazado_820603" data-name="Trazado 820603" d="M136.883,48.778h3.509v4.5h-3.509a.831.831,0,0,1-.829-.829V49.607a.831.831,0,0,1,.829-.829Zm14.058,0h3.509a.831.831,0,0,1,.829.829v2.841a.831.831,0,0,1-.829.829h-3.509Z" transform="translate(-131.851 -46.152)" fill="#cad0d7" fill-rule="evenodd"/>
      <path id="Trazado_820604" data-name="Trazado 820604" d="M178,16.006h9.437a1.67,1.67,0,0,1,1.667,1.667V27.11a1.67,1.67,0,0,1-1.667,1.667H178a1.67,1.67,0,0,1-1.667-1.667V17.673A1.67,1.67,0,0,1,178,16.006Z" transform="translate(-168.901 -16.006)" fill="#e4e8eb" fill-rule="evenodd"/>
      <path id="Trazado_820605" data-name="Trazado 820605" d="M121.9,247.43l10.747,3.138,10.747-3.138-1.882,18.039-8.865,1.882-8.865-1.882Z" transform="translate(-118.83 -228.883)" fill="#78f0f4" fill-rule="evenodd"/>
      <path id="Trazado_820606" data-name="Trazado 820606" d="M135.058,335.637a1.59,1.59,0,0,1,1.585,1.585v.732a1.585,1.585,0,1,1-3.17,0v-.734A1.59,1.59,0,0,1,135.058,335.637Zm-19.613,0a1.59,1.59,0,0,1,1.585,1.585v.732a1.585,1.585,0,1,1-3.17,0v-.734a1.59,1.59,0,0,1,1.585-1.583Z" transform="translate(-111.436 -310.021)" fill="#cad0d7" fill-rule="evenodd"/>
    </g>
    <path id="Trazado_820607" data-name="Trazado 820607" d="M102.03,30.633a14.34,14.34,0,0,1,3.33,9.2,3.956,3.956,0,0,1-1.391,2.935,9.9,9.9,0,0,1-3.406,1.921l-.157,1.523a.559.559,0,0,1-.44.49h0L91.1,48.583a.557.557,0,0,1-.242,0L82,46.7a.561.561,0,0,1-.443-.515l-.156-1.5A9.9,9.9,0,0,1,78,42.763a3.956,3.956,0,0,1-1.391-2.935,14.339,14.339,0,0,1,3.33-9.2l-.256-2.464a.561.561,0,0,1,.739-.587l2.116.618a14.373,14.373,0,0,1,16.9,0l2.142-.625a.561.561,0,0,1,.712.594ZM94.091,13.145a1.3,1.3,0,1,1-1.3,1.3A1.3,1.3,0,0,1,94.091,13.145Zm-6.216,0a1.3,1.3,0,1,1-1.3,1.3A1.3,1.3,0,0,1,87.876,13.145Zm-6.4,21.5a2.152,2.152,0,0,1,1.84,2.124V37.5a2.152,2.152,0,0,1-1.338,1.988l.649,6.2,7.791,1.654V31.667l-9.543-2.784Zm-.606,4.978a2.152,2.152,0,0,1-1.84-2.124v-.732a2.152,2.152,0,0,1,1.338-1.988l-.263-2.526a13.175,13.175,0,0,0-2.381,7.575,2.879,2.879,0,0,0,1.031,2.116,8.154,8.154,0,0,0,2.513,1.494Zm.3-3.881a1.028,1.028,0,0,0-1.024,1.024V37.5a1.024,1.024,0,0,0,2.047,0v-.732a1.028,1.028,0,0,0-1.024-1.025Zm20.42-.963a2.152,2.152,0,0,1,1.338,1.988V37.5a2.152,2.152,0,0,1-1.84,2.124l-.4,3.819a8.153,8.153,0,0,0,2.513-1.494,2.878,2.878,0,0,0,1.031-2.116,13.176,13.176,0,0,0-2.381-7.575Zm-1.616,4.706A2.152,2.152,0,0,1,98.644,37.5v-.732a2.152,2.152,0,0,1,1.84-2.124l.6-5.759-9.54,2.783V47.342l7.791-1.654Zm.808-3.743a1.028,1.028,0,0,0-1.024,1.024V37.5a1.024,1.024,0,1,0,2.047,0v-.732a1.028,1.028,0,0,0-1.025-1.025ZM83.929,28.608l7.055,2.056,7.055-2.056a13.268,13.268,0,0,0-14.109,0ZM92.641,18.2a.561.561,0,0,1,0,1.122H89.326a.561.561,0,0,1,0-1.122ZM86.264,9a2.23,2.23,0,0,0-2.227,2.227v.4H82.2a1.393,1.393,0,0,0-1.389,1.389v2.841A1.393,1.393,0,0,0,82.2,17.251h1.84v3.417A2.23,2.23,0,0,0,86.264,22.9H95.7a2.23,2.23,0,0,0,2.227-2.227V17.252h1.84a1.393,1.393,0,0,0,1.389-1.389V13.022a1.393,1.393,0,0,0-1.389-1.389h-1.84v-.4A2.23,2.23,0,0,0,95.7,9.006H86.264ZM97.93,12.754h1.84a.271.271,0,0,1,.268.268v2.841a.271.271,0,0,1-.268.268H97.93ZM84.037,16.13H82.2a.271.271,0,0,1-.268-.268v-2.84a.271.271,0,0,1,.268-.268h1.84Zm11.666-6H86.264a1.108,1.108,0,0,0-1.1,1.1V20.67a1.108,1.108,0,0,0,1.1,1.1H95.7a1.108,1.108,0,0,0,1.1-1.1V11.232a1.108,1.108,0,0,0-1.1-1.1Z" transform="translate(103.394 4645.787)" fill-rule="evenodd"/>
  </g>
</svg>
